<?xml version="1.0" encoding="UTF-8" standalone="no"?>
<!-- Created with Inkscape (http://www.inkscape.org/) -->

<svg
   version="1.1"
   id="svg1"
   width="800"
   height="800"
   viewBox="0 0 800 800"
   sodipodi:docname="email-messages-concept.svg"
   inkscape:version="1.3.2 (091e20e, 2023-11-25, custom)"
   xmlns:inkscape="http://www.inkscape.org/namespaces/inkscape"
   xmlns:sodipodi="http://sodipodi.sourceforge.net/DTD/sodipodi-0.dtd"
   xmlns="http://www.w3.org/2000/svg"
   xmlns:svg="http://www.w3.org/2000/svg">
  <defs
     id="defs1">
    <clipPath
       clipPathUnits="userSpaceOnUse"
       id="clipPath4">
      <path
         d="M 0,600 H 600 V 0 H 0 Z"
         transform="translate(-211.26661,-154.15431)"
         id="path4" />
    </clipPath>
    <clipPath
       clipPathUnits="userSpaceOnUse"
       id="clipPath6">
      <path
         d="M 0,600 H 600 V 0 H 0 Z"
         transform="translate(-128.22561,-68.230502)"
         id="path6" />
    </clipPath>
    <clipPath
       clipPathUnits="userSpaceOnUse"
       id="clipPath8">
      <path
         d="M 0,600 H 600 V 0 H 0 Z"
         transform="translate(-280.58841,-157.45701)"
         id="path8" />
    </clipPath>
    <clipPath
       clipPathUnits="userSpaceOnUse"
       id="clipPath10">
      <path
         d="M 0,600 H 600 V 0 H 0 Z"
         transform="translate(-280.58841,-166.1875)"
         id="path10" />
    </clipPath>
    <clipPath
       clipPathUnits="userSpaceOnUse"
       id="clipPath12">
      <path
         d="M 0,600 H 600 V 0 H 0 Z"
         transform="translate(-189.90381,-122.60451)"
         id="path12" />
    </clipPath>
    <clipPath
       clipPathUnits="userSpaceOnUse"
       id="clipPath14">
      <path
         d="M 0,600 H 600 V 0 H 0 Z"
         transform="translate(-51.089801,-486.41551)"
         id="path14" />
    </clipPath>
    <clipPath
       clipPathUnits="userSpaceOnUse"
       id="clipPath16">
      <path
         d="M 0,600 H 600 V 0 H 0 Z"
         transform="translate(-70.241202,-471.10791)"
         id="path16" />
    </clipPath>
    <clipPath
       clipPathUnits="userSpaceOnUse"
       id="clipPath18">
      <path
         d="M 0,600 H 600 V 0 H 0 Z"
         transform="translate(-264.7588,-343.16211)"
         id="path18" />
    </clipPath>
    <clipPath
       clipPathUnits="userSpaceOnUse"
       id="clipPath20">
      <path
         d="M 0,600 H 600 V 0 H 0 Z"
         transform="translate(-289.3657,-275.49321)"
         id="path20" />
    </clipPath>
    <clipPath
       clipPathUnits="userSpaceOnUse"
       id="clipPath22">
      <path
         d="M 0,600 H 600 V 0 H 0 Z"
         transform="translate(-36.463401,-463.80371)"
         id="path22" />
    </clipPath>
    <clipPath
       clipPathUnits="userSpaceOnUse"
       id="clipPath24">
      <path
         d="M 0,600 H 600 V 0 H 0 Z"
         transform="translate(-162.05661,-340.68601)"
         id="path24" />
    </clipPath>
    <clipPath
       clipPathUnits="userSpaceOnUse"
       id="clipPath26">
      <path
         d="M 0,600 H 600 V 0 H 0 Z"
         transform="translate(-433.02831,-444.42141)"
         id="path26" />
    </clipPath>
    <clipPath
       clipPathUnits="userSpaceOnUse"
       id="clipPath28">
      <path
         d="M 0,600 H 600 V 0 H 0 Z"
         transform="translate(-393.58501,-469.35401)"
         id="path28" />
    </clipPath>
    <clipPath
       clipPathUnits="userSpaceOnUse"
       id="clipPath30">
      <path
         d="M 0,600 H 600 V 0 H 0 Z"
         transform="translate(-525.68461,-545.26661)"
         id="path30" />
    </clipPath>
    <clipPath
       clipPathUnits="userSpaceOnUse"
       id="clipPath32">
      <path
         d="M 0,600 H 600 V 0 H 0 Z"
         transform="translate(-452.84081,-415.49021)"
         id="path32" />
    </clipPath>
    <clipPath
       clipPathUnits="userSpaceOnUse"
       id="clipPath34">
      <path
         d="M 0,600 H 600 V 0 H 0 Z"
         transform="translate(-184.6611,-303.48391)"
         id="path34" />
    </clipPath>
    <clipPath
       clipPathUnits="userSpaceOnUse"
       id="clipPath36">
      <path
         d="M 0,600 H 600 V 0 H 0 Z"
         id="path36" />
    </clipPath>
  </defs>
  <sodipodi:namedview
     id="namedview1"
     pagecolor="#ffffff"
     bordercolor="#000000"
     borderopacity="0.25"
     inkscape:showpageshadow="2"
     inkscape:pageopacity="0.0"
     inkscape:pagecheckerboard="0"
     inkscape:deskcolor="#d1d1d1"
     inkscape:zoom="0.7625"
     inkscape:cx="399.34426"
     inkscape:cy="400"
     inkscape:window-width="1440"
     inkscape:window-height="830"
     inkscape:window-x="-6"
     inkscape:window-y="-6"
     inkscape:window-maximized="1"
     inkscape:current-layer="g1">
    <inkscape:page
       x="0"
       y="0"
       inkscape:label="1"
       id="page1"
       width="800"
       height="800"
       margin="0 0.19466667 0.66533333 0"
       bleed="0" />
  </sodipodi:namedview>
  <g
     id="g1"
     inkscape:groupmode="layer"
     inkscape:label="1">
    <g
       id="group-MC0">
      <path
         id="path2"
         d="M 0,0 H 599.854 V 599.501 H 0 Z"
         style="fill:#4ba5ce;fill-opacity:1;fill-rule:nonzero;stroke:none"
         transform="matrix(1.3333333,0,0,-1.3333333,0,800)" />
      <path
         id="path3"
         d="m 0,0 c 94.145,58.052 166.707,21.584 250.063,32.374 -3.474,5.085 -6.946,10.17 -10.419,15.258 45.15,2.601 90.301,5.209 135.452,7.815 C 339.384,36.604 303.672,17.766 267.959,-1.075 264.333,4.972 260.703,11.019 257.077,17.065 173.367,3.438 81.474,42.651 5.95,-23.816 3.968,-15.878 1.982,-7.939 0,0"
         style="fill:#3985b0;fill-opacity:1;fill-rule:evenodd;stroke:none"
         transform="matrix(1.3333333,0,0,-1.3333333,281.6888,594.46093)"
         clip-path="url(#clipPath4)" />
      <path
         id="path5"
         d="M 0,0 H -109.588 L 56.179,114.649 153.7,119.505 Z"
         style="fill:#3985b0;fill-opacity:1;fill-rule:evenodd;stroke:none"
         transform="matrix(1.3333333,0,0,-1.3333333,170.96747,709.026)"
         clip-path="url(#clipPath6)" />
      <path
         id="path7"
         d="m 0,0 -51.394,-43.581 h -118.002 v 8.729 L 0,8.73 Z"
         style="fill:#d2f0f9;fill-opacity:1;fill-rule:evenodd;stroke:none"
         transform="matrix(1.3333333,0,0,-1.3333333,374.11787,590.05733)"
         clip-path="url(#clipPath8)" />
      <path
         id="path9"
         d="M 0,0 -51.394,-43.583 H -169.396 L -107.623,0 Z"
         style="fill:#ffffff;fill-opacity:1;fill-rule:evenodd;stroke:none"
         transform="matrix(1.3333333,0,0,-1.3333333,374.11787,578.41667)"
         clip-path="url(#clipPath10)" />
      <path
         id="path11"
         d="m 0,0 h -78.711 l 61.773,43.583 h 70.765 z"
         style="fill:#d2f0f9;fill-opacity:1;fill-rule:evenodd;stroke:none"
         transform="matrix(1.3333333,0,0,-1.3333333,253.20507,636.52733)"
         clip-path="url(#clipPath12)" />
      <path
         id="path13"
         d="M 0,0 187.235,-52.975 259.896,-252.79 111.494,-357.493 Z"
         style="fill:#ffffff;fill-opacity:1;fill-rule:evenodd;stroke:none"
         transform="matrix(1.3333333,0,0,-1.3333333,68.119733,151.446)"
         clip-path="url(#clipPath14)" />
      <path
         id="path15"
         d="M 0,0 163.852,-43.611 232.926,-233.566 99.814,-320.038 Z"
         style="fill:#81d5ef;fill-opacity:1;fill-rule:evenodd;stroke:none"
         transform="matrix(1.3333333,0,0,-1.3333333,93.654933,171.85613)"
         clip-path="url(#clipPath16)" />
      <path
         id="path17"
         d="m 0,0 38.408,-105.62 -133.112,-86.472 -44.189,141.687 c 2.532,3.426 5.605,5.991 9.187,7.466 6.601,2.713 13.942,1.328 21.037,-3.244 -4.553,24.374 1.058,46.307 14.312,51.76 15.337,6.307 35.099,-11.842 44.14,-40.536 0.882,-2.805 1.629,-5.604 2.246,-8.38 1.868,2.542 4.14,4.446 6.791,5.536 6.677,2.745 14.386,-0.218 21.237,-7.142 -3.75,20.758 1.085,39.359 12.394,44.01 C -5.136,0.058 -2.59,0.342 0,0"
         style="fill:#ffffff;fill-opacity:1;fill-rule:evenodd;stroke:none"
         transform="matrix(1.3333333,0,0,-1.3333333,353.01173,342.45053)"
         clip-path="url(#clipPath18)" />
      <path
         id="path19"
         d="m 0,0 13.801,-37.951 -133.112,-86.472 -22.736,72.905 c 4.649,-0.714 9.385,-2.648 14.038,-5.647 -5.867,31.414 1.363,59.68 18.447,66.705 19.767,8.131 45.238,-15.258 56.889,-52.242 1.136,-3.614 2.1,-7.22 2.895,-10.8 2.408,3.275 5.335,5.727 8.75,7.132 8.608,3.542 18.543,-0.276 27.371,-9.201 C -18.226,-30.283 -12.903,-7.482 0,0"
         style="fill:#81d5ef;fill-opacity:1;fill-rule:evenodd;stroke:none"
         transform="matrix(1.3333333,0,0,-1.3333333,385.82093,432.67573)"
         clip-path="url(#clipPath20)" />
      <path
         id="path21"
         d="m 0,0 14.626,22.612 111.495,-357.493 -24.507,9.071 z"
         style="fill:#d2f0f9;fill-opacity:1;fill-rule:evenodd;stroke:none"
         transform="matrix(1.3333333,0,0,-1.3333333,48.617867,181.59507)"
         clip-path="url(#clipPath22)" />
      <path
         id="path23"
         d="M 0,0 C 92.784,111.017 229.475,7.321 271.274,76.287 241.382,-5.952 99.48,83.729 19.722,-17.486 15.258,-13.518 4.465,-3.968 0,0"
         style="fill:#ffffff;fill-opacity:1;fill-rule:evenodd;stroke:none"
         transform="matrix(1.3333333,0,0,-1.3333333,216.07547,345.752)"
         clip-path="url(#clipPath24)" />
      <path
         id="path25"
         d="M 0,0 19.812,-28.931 92.656,100.845 Z"
         style="fill:#8ddaf5;fill-opacity:1;fill-rule:evenodd;stroke:none"
         transform="matrix(1.3333333,0,0,-1.3333333,577.37107,207.43813)"
         clip-path="url(#clipPath26)" />
      <path
         id="path27"
         d="M 0,0 132.1,75.913 39.443,-24.933 Z"
         style="fill:#ffffff;fill-opacity:1;fill-rule:evenodd;stroke:none"
         transform="matrix(1.3333333,0,0,-1.3333333,524.78,174.19467)"
         clip-path="url(#clipPath28)" />
      <path
         id="path29"
         d="m 0,0 -72.095,-113.031 43.537,-27.537 z"
         style="fill:#ffffff;fill-opacity:1;fill-rule:evenodd;stroke:none"
         transform="matrix(1.3333333,0,0,-1.3333333,700.9128,72.977867)"
         clip-path="url(#clipPath30)" />
      <path
         id="path31"
         d="M 0,0 0.749,16.745 7.132,12.707 Z"
         style="fill:#5fbfe5;fill-opacity:1;fill-rule:evenodd;stroke:none"
         transform="matrix(1.3333333,0,0,-1.3333333,603.78773,246.01307)"
         clip-path="url(#clipPath32)" />
      <path
         id="path33"
         d="M 0,0 C 86.925,121.957 208.667,19.497 254.155,108.279 219.821,8.002 103.67,92.562 28.946,-18.061 24.762,-14.618 4.182,-3.445 0,0"
         style="fill:#ffffff;fill-opacity:1;fill-rule:evenodd;stroke:none"
         transform="matrix(1.3333333,0,0,-1.3333333,246.2148,395.3548)"
         clip-path="url(#clipPath34)" />
      <path
         id="path35"
         d="m 221.863,291.095 h 29.585 v 33.488 h -29.585 z"
         style="fill:#ffffff;fill-opacity:1;fill-rule:evenodd;stroke:none"
         transform="matrix(1.3333333,0,0,-1.3333333,0,800)"
         clip-path="url(#clipPath36)" />
    </g>
  </g>
</svg>
