<?xml version="1.0" encoding="utf-8"?>
<!-- Generator: Adobe Illustrator 25.4.1, SVG Export Plug-In . SVG Version: 6.00 Build 0)  -->
<svg version="1.1" id="Layer_1" xmlns="http://www.w3.org/2000/svg" xmlns:xlink="http://www.w3.org/1999/xlink" x="0px" y="0px"
	 viewBox="0 0 250 250" style="enable-background:new 0 0 250 250;" xml:space="preserve">
<style type="text/css">
	.st0{fill:#EFF4F9;}
	.st1{fill:#C9D5E0;}
	.st2{fill:#00AEFF;}
	.st3{fill:#5DDCFF;}
	.st4{fill:#0097FF;}
	.st5{fill:#2DC8FE;}
	.st6{fill:#A1ACB5;}
	.st7{fill:#FFD176;}
	.st8{fill:#EFB024;}
	.st9{fill:#876012;}
	.st10{fill:#3C464E;}
	.st11{fill:#2E383F;}
	.st12{fill:#FFBDA6;}
	.st13{fill:#F99680;}
	.st14{fill:#D3766C;}
	.st15{fill:#FFFFFF;}
	.st16{fill:#4D575F;}
	.st17{fill:#737B7F;}
	.st18{fill:#E0E7EF;}
	.st19{fill:#FF7171;}
	.st20{fill:#FE4C40;}
	.st21{fill:#9D55CE;}
	.st22{fill:#8B41BC;}
	.st23{fill:#ED3430;}
	.st24{fill:#FFC536;}
	.st25{fill:#B46F5B;}
	.st26{fill:#8E4C3D;}
	.st27{fill:#C78371;}
	.st28{fill:#A55F4B;}
	.st29{fill:#34D67D;}
	.st30{fill:#0BAA53;}
	.st31{fill:#AF69E0;}
	.st32{fill:#792CAA;}
	.st33{fill:#15BF66;}
	.st34{fill:#FFAC61;}
	.st35{fill:#EF8422;}
	.st36{fill:#FF9932;}
	.st37{fill:#61F09D;}
	.st38{fill:#00507C;}
	.st39{fill:#FFA1A0;}
	.st40{fill:#AA5611;}
	.st41{fill:#ED8366;}
	.st42{fill:#0B0C11;}
	.st43{fill:#094566;}
	.st44{fill:#4C221B;}
	.st45{fill:#FFC491;}
	.st46{fill:#FAFCFD;}
	.st47{fill:#D8950F;}
	.st48{fill:#056D31;}
	.st49{fill:#0C6632;}
	.st50{fill:#FFDEA4;}
</style>
<g>
	<g>
		<path class="st0" d="M52.658432,119.0336685c6.248558,12.2073441,17.4639664,21.3681107,28.5832825,29.9280014
			c16.267662,12.5235748,33.0053787,24.4779358,50.1702423,35.8629913
			c6.8253937,4.5329437,13.8857422,9.0448303,21.9288177,11.1426239c8.0323944,2.0977936,17.3464966,1.423111,23.7446136-3.6474609
			c5.3834381-4.248291,7.9149017-10.8474274,10.0831909-17.1408691
			c9.004364-25.9958954,15.9686127-52.6137695,20.7966003-79.5689926
			c1.7303772-9.6457062,3.1509399-19.8078918-0.3524933-29.0108719
			c-4.0482178-10.6365738-14.2168732-18.3636818-25.3148041-22.5803757
			c-7.2739868-2.7619286-15.0179596-4.2272453-22.7619324-5.2392731
			c-6.2165527-0.8116722-11.4183655-2.8146248-17.4319611-3.9320488c-15.2636185-2.8462791-32.086731-1.6656113-46.762886,3.0992737
			c-17.0688324,5.5449638-32.3110657,16.7719345-40.8241272,31.8043938
			C46.0146675,84.8046875,44.7755928,103.6954575,52.658432,119.0336685z"/>
	</g>
	<g>
		<path class="st11" d="M139.6959839,83.3439178c-0.7197266,0-1.4462891-0.4941406-1.8066406-1.2285156
			c-0.15625-0.3154297-0.2578125-0.6748047-0.3105469-1.0986328c-0.0341797-0.2744141,0.1601562-0.5244141,0.4335938-0.5585938
			c0.2666016-0.0361328,0.5244141,0.1582031,0.5585938,0.4335938c0.0390625,0.3125,0.109375,0.5673828,0.2148438,0.78125
			c0.2158203,0.4384766,0.6806641,0.7392578,1.0332031,0.6582031c0.2734375-0.0566406,0.5361328,0.1113281,0.5947266,0.3818359
			c0.0585938,0.2695312-0.1123047,0.5361328-0.3818359,0.5947266
			C139.9225464,83.3321991,139.8092651,83.3439178,139.6959839,83.3439178z M138.0807495,77.4571991
			c-0.0068359,0-0.0146484,0-0.0224609-0.0009766c-0.2763672-0.0117188-0.4892578-0.2460938-0.4765625-0.5214844
			c0.0673828-1.4912109,0.2011719-2.8125,0.4082031-4.0400391c0.0458984-0.2729492,0.3085938-0.4501953,0.5761719-0.409668
			c0.2724609,0.0463867,0.4560547,0.3041992,0.4101562,0.5766602c-0.2011719,1.1865234-0.3300781,2.4677734-0.3964844,3.9179688
			C138.5680542,77.2482147,138.3463745,77.4571991,138.0807495,77.4571991z M139.5114136,69.6197968
			c-0.0605469,0-0.1210938-0.0107422-0.1806641-0.0336914c-0.2568359-0.0996094-0.3857422-0.3891602-0.2861328-0.6464844
			c0.5214844-1.3491211,1.1972656-2.5629883,2.0097656-3.6079102c0.1699219-0.2192383,0.484375-0.2583008,0.7011719-0.0883789
			c0.2177734,0.1694336,0.2578125,0.4833984,0.0878906,0.7016602c-0.7519531,0.9682617-1.3798828,2.097168-1.8652344,3.3549805
			C139.901062,69.4982147,139.7116089,69.6197968,139.5114136,69.6197968z M144.3639526,63.423996
			c-0.1591797,0-0.3164062-0.0761719-0.4130859-0.2177734c-0.1552734-0.2280273-0.0966797-0.5390625,0.1308594-0.6948242
			c1.0507812-0.7177734,2.2734375-1.3569336,3.6347656-1.8999023c0.2587891-0.1035156,0.5478516,0.0224609,0.6503906,0.2792969
			c0.1015625,0.2563477-0.0234375,0.5473633-0.2792969,0.6494141c-1.2939453,0.515625-2.4521484,1.1201172-3.4414062,1.7963867
			C144.5602417,63.3956757,144.4616089,63.423996,144.3639526,63.423996z M175.7672729,62.8761444
			c-1.2216797,0-2.4238281-0.1025391-3.5722656-0.3056641c-0.2714844-0.0478516-0.453125-0.3071289-0.4052734-0.5791016
			c0.0478516-0.2724609,0.3115234-0.4555664,0.5791016-0.4052734c1.2431641,0.2192383,2.5517578,0.315918,3.8837891,0.2841797
			c0.2832031,0.0292969,0.5048828,0.2128906,0.5117188,0.4882812c0.0068359,0.2758789-0.2119141,0.5048828-0.4882812,0.5117188
			C176.1061401,62.8741913,175.9362183,62.8761444,175.7672729,62.8761444z M180.2340698,62.4293671
			c-0.234375,0-0.4433594-0.1655273-0.4902344-0.4042969c-0.0527344-0.2709961,0.1240234-0.5336914,0.3955078-0.5864258
			c1.2216797-0.2387695,2.4990234-0.5820312,3.7958984-1.0200195c0.2636719-0.0893555,0.5458984,0.0527344,0.6337891,0.3134766
			c0.0888672,0.2617188-0.0517578,0.5454102-0.3134766,0.6337891c-1.3388672,0.4521484-2.6591797,0.8071289-3.9248047,1.0541992
			C180.2985229,62.4264374,180.2662964,62.4293671,180.2340698,62.4293671z M168.4567261,61.4410858
			c-0.0673828,0-0.1347656-0.0131836-0.1992188-0.0415039c-0.6826172-0.2973633-1.3417969-0.6420898-1.9589844-1.0244141
			c-0.5410156-0.3349609-1.0673828-0.7148438-1.5634766-1.1289062c-0.2119141-0.1767578-0.2402344-0.4921875-0.0634766-0.7041016
			c0.1777344-0.2128906,0.4931641-0.2392578,0.7041016-0.0634766c0.4599609,0.3837891,0.9482422,0.7358398,1.4492188,1.0463867
			c0.5771484,0.3574219,1.1933594,0.6796875,1.8310547,0.9575195c0.2539062,0.1103516,0.3691406,0.4047852,0.2587891,0.6582031
			C168.8327026,61.3287811,168.6491089,61.4410858,168.4567261,61.4410858z M151.7145386,60.377121
			c-0.2246094,0-0.4287109-0.1523438-0.4853516-0.3798828c-0.0664062-0.2680664,0.0976562-0.5390625,0.3652344-0.6054688
			c1.2548828-0.3100586,2.4726562-0.5556641,3.9345703-0.8442383c0.265625-0.0522461,0.5332031,0.1230469,0.5869141,0.394043
			s-0.1220703,0.5336914-0.3935547,0.5874023c-1.4482422,0.2856445-2.6542969,0.5288086-3.8876953,0.8334961
			C151.7946167,60.3722382,151.7536011,60.377121,151.7145386,60.377121z M187.8131714,59.9210663
			c-0.1904297,0-0.3730469-0.1098633-0.4560547-0.2954102c-0.1132812-0.2514648-0.0009766-0.5473633,0.2509766-0.6606445
			c1.1074219-0.4975586,2.2734375-1.0688477,3.5634766-1.7475586c0.2431641-0.1279297,0.5458984-0.0356445,0.6748047,0.2094727
			c0.1289062,0.2446289,0.0351562,0.546875-0.2099609,0.675293c-1.3076172,0.6884766-2.4921875,1.269043-3.6181641,1.7749023
			C187.9518433,59.9069061,187.8815308,59.9210663,187.8131714,59.9210663z M159.5407104,58.7130585
			c-0.2265625,0-0.4316406-0.1542969-0.4863281-0.3833008c-0.0644531-0.2685547,0.1015625-0.5385742,0.3701172-0.6030273
			c1.0771484-0.2583008,2.0214844-0.5258789,2.8876953-0.8183594c0.2919922-0.0991211,0.5849609-0.2041016,0.875-0.315918
			c0.2607422-0.0981445,0.5478516,0.0297852,0.6464844,0.2871094c0.0986328,0.2578125-0.0292969,0.5473633-0.2871094,0.6464844
			c-0.3037109,0.1166992-0.6083984,0.2265625-0.9140625,0.3295898c-0.8945312,0.3022461-1.8681641,0.578125-2.9755859,0.84375
			C159.6178589,58.7086639,159.5787964,58.7130585,159.5407104,58.7130585z M162.4078979,56.3824921
			c-0.1630859,0-0.3232422-0.0800781-0.4189453-0.2275391c-0.7802734-1.2006836-1.3427734-2.4780273-1.6708984-3.7954102
			c-0.0664062-0.2680664,0.0966797-0.5395508,0.3642578-0.6064453c0.2695312-0.0654297,0.5400391,0.0966797,0.6064453,0.3642578
			c0.3007812,1.2099609,0.8193359,2.3852539,1.5380859,3.4926758c0.1503906,0.2314453,0.0849609,0.5415039-0.1464844,0.6918945
			C162.5963745,56.3566132,162.5016479,56.3824921,162.4078979,56.3824921z M194.8737183,56.1691132
			c-0.1650391,0-0.3261719-0.0820312-0.421875-0.2314453c-0.1484375-0.2333984-0.0791016-0.5424805,0.1533203-0.6904297
			c1.2050781-0.7666016,2.2421875-1.5249023,3.1689453-2.3178711c0.2099609-0.1782227,0.5263672-0.1547852,0.7050781,0.0546875
			c0.1796875,0.2099609,0.1552734,0.5253906-0.0546875,0.7050781c-0.9638672,0.8242188-2.0371094,1.6098633-3.2822266,2.4018555
			C195.0592651,56.1437225,194.9655151,56.1691132,194.8737183,56.1691132z M166.9293823,55.7545624
			c-0.1621094,0-0.3212891-0.0791016-0.4179688-0.2250977c-0.1513672-0.230957-0.0878906-0.5410156,0.1435547-0.6923828
			c1.140625-0.7509766,2.1074219-1.6044922,2.8730469-2.5385742c0.1757812-0.2138672,0.4921875-0.2436523,0.7041016-0.0693359
			c0.2128906,0.175293,0.2441406,0.4902344,0.0693359,0.7041016c-0.8300781,1.0112305-1.8720703,1.9331055-3.0976562,2.7387695
			C167.119812,55.7281952,167.0241089,55.7545624,166.9293823,55.7545624z M200.8502808,50.91716
			c-0.1044922,0-0.2099609-0.0327148-0.2998047-0.1000977c-0.2207031-0.1655273-0.265625-0.4790039-0.1005859-0.7001953
			c0.7998047-1.0649414,1.4169922-2.1972656,1.8359375-3.3657227c0.09375-0.2602539,0.3798828-0.3955078,0.6396484-0.3022461
			s0.3945312,0.3793945,0.3017578,0.6391602c-0.4521484,1.2631836-1.1171875,2.4838867-1.9765625,3.6293945
			C201.1520386,50.8483124,201.0016479,50.91716,200.8502808,50.91716z M171.7662964,49.6066132
			c-0.0410156,0-0.0839844-0.0053711-0.1259766-0.0161133c-0.2675781-0.0698242-0.4277344-0.3427734-0.3574219-0.6103516
			c0.1582031-0.6088867,0.2392578-1.2231445,0.2392578-1.8256836c0-0.6557617-0.0957031-1.2724609-0.2841797-1.8330078
			c-0.0878906-0.2617188,0.0527344-0.5454102,0.3144531-0.6333008c0.2626953-0.0883789,0.5449219,0.0532227,0.6328125,0.3139648
			c0.2236328,0.6635742,0.3369141,1.3876953,0.3369141,2.1523438c0,0.6875-0.0917969,1.3867188-0.2724609,2.0786133
			C172.1911011,49.4576874,171.9889526,49.6066132,171.7662964,49.6066132z M160.5934448,48.7701874
			c-0.0253906,0-0.0507812-0.0019531-0.0761719-0.0058594c-0.2724609-0.0410156-0.4609375-0.2958984-0.4189453-0.5688477
			c0.21875-1.4453125,0.7509766-2.7949219,1.5390625-3.9033203c0.1611328-0.2255859,0.4736328-0.2773438,0.6972656-0.1181641
			c0.2246094,0.1601562,0.2773438,0.472168,0.1171875,0.6972656c-0.6972656,0.9814453-1.1689453,2.1826172-1.3652344,3.4736328
			C161.0494995,48.5929413,160.8366089,48.7701874,160.5934448,48.7701874z M169.0924683,42.8053436
			c-0.0644531,0-0.1289062-0.012207-0.1914062-0.0380859c-1.0683594-0.4433594-2.3955078-0.4716797-3.5703125-0.0888672
			c-0.2626953,0.0864258-0.5449219-0.0571289-0.6308594-0.3198242c-0.0849609-0.2626953,0.0576172-0.5449219,0.3203125-0.6303711
			c1.4121094-0.4604492,2.96875-0.4213867,4.2636719,0.1152344c0.2548828,0.105957,0.3759766,0.3984375,0.2705078,0.6533203
			C169.4743042,42.6891327,169.2887573,42.8053436,169.0924683,42.8053436z"/>
	</g>
	<g>
		<g>
			<g>
				<g>
					<ellipse class="st1" cx="125" cy="219.1619568" rx="100" ry="5.8399811"/>
				</g>
			</g>
		</g>
	</g>
	<g>
		<g>
			<g>
				<g>
					<g>
						<g>
							<g>
								<path class="st11" d="M89.2355499,110.7406235l-0.0000229-9.5471344c0-1.1382446,0.9226837-2.060997,2.0608826-2.0610199
									l0.5621109-0.0000153l0.0000305,13.669075l-0.5621109,0.0000076
									C90.1582489,112.8015671,89.2355499,111.8788605,89.2355499,110.7406235z"/>
							</g>
							<g>
								<path class="st11" d="M89.2355499,127.8985138l-0.0000229-9.5471344c0-1.1382446,0.9226837-2.0609894,2.0608826-2.0610199
									l0.5621109-0.0000153l0.0000305,13.6690674l-0.5621109,0.0000153
									C90.1582489,129.9594574,89.2355499,129.0367584,89.2355499,127.8985138z"/>
							</g>
						</g>
						<g>
							<path class="st11" d="M179.4857483,107.0708008v14.9502869c0,1.1382141-0.9227142,2.0609131-2.0609131,2.0609131h-0.5621338
								v-19.072113h0.5621338C178.5630341,105.0098877,179.4857483,105.9325867,179.4857483,107.0708008z"/>
						</g>
					</g>
				</g>
			</g>
			<g>
				<path class="st11" d="M91.8586426,83.009903v124.9809875c0,4.7785492,3.8737869,8.6523438,8.6523438,8.6523438h67.699295
					c4.7785645,0,8.6523438-3.8737946,8.6523438-8.6523438V83.009903c0-4.7785568-3.8737793-8.6523438-8.6523438-8.6523438
					h-67.699295C95.7324295,74.3575592,91.8586426,78.2313461,91.8586426,83.009903z"/>
			</g>
			<g>
				<path class="st15" d="M168.2103119,213.6624451c3.1277618,0,5.6716003-2.5438538,5.6716003-5.6716156V83.0095291
					c0-3.1272888-2.5438385-5.6716003-5.6716003-5.6716003h-67.6990433c-3.1277542,0-5.6725159,2.5443115-5.6725159,5.6716003
					v124.9813004c0,3.1277618,2.5447617,5.6716156,5.6725159,5.6716156H168.2103119z"/>
			</g>
			<g>
				<path class="st11" d="M122.7221451,83.3993454v0.0000076c0,1.9945679,1.6169128,3.6114807,3.6114731,3.6114807h16.0534363
					c1.9945679,0,3.6114807-1.6169128,3.6114807-3.6114807v-0.0000076c0-1.9945602-1.6169128-3.6114731-3.6114807-3.6114731
					h-16.0534363C124.3390579,79.7878723,122.7221451,81.4047852,122.7221451,83.3993454z"/>
			</g>
			<g>
				<path class="st18" d="M123.6923218,209.8066559L123.6923218,209.8066559c0,0.6578217,0.5332642,1.1910858,1.1910782,1.1910858
					h18.9538803c0.6578064,0,1.1910706-0.5332642,1.1910706-1.1910858l0,0c0-0.6578064-0.5332642-1.1910706-1.1910706-1.1910706
					H124.8834C124.2255859,208.6155853,123.6923218,209.1488495,123.6923218,209.8066559z"/>
			</g>
		</g>
	</g>
	<g>
		<g>
			<g>
				<path class="st10" d="M38.8377571,32.2227592c0,0-2.5827141,3.7604446-2.0866394,12.5523682
					c0.2911491,5.1600494,0.4910927,9.134697-2.278614,11.2964211s-3.7986984,6.1392441-0.9627037,6.7884102
					c2.8359947,0.6491623,4.5226212,3.959301,4.5226212,3.959301l16.3829269-2.1228561l9.1152916-4.2761993
					c0,0,2.8580246-0.7013702,1.8114014-3.3634377c-1.0466232-2.6620636-2.8335304-1.8197136-3.5032425-8.4077644
					C61.1690826,42.0609512,38.8377571,32.2227592,38.8377571,32.2227592z"/>
			</g>
			<g>
				<path class="st11" d="M61.3502693,58.2296562c0.0424309,0.5413017-0.2441559,1.0719833-0.6580353,1.422184
					c-0.4139481,0.3502655-0.9446259,0.5413017-1.4753075,0.668663c-2.56847,0.5731735-5.2324944-0.4245071-7.8647079-0.3183975
					c-1.4752388,0.0636787-2.9081154,0.4670029-4.3621712,0.7217178c-1.4434357,0.254715-2.9824181,0.3502655-4.3515472-0.1804123
					c-1.3797569-0.5306816-2.5472908-1.8255081-2.515419-3.3008118c0.0318069-1.6982155,1.4964905-2.961235,2.2925072-4.4683495
					c0.6156082-1.178093,0.8278923-2.5366631,0.7960205-3.8633614c-0.0318069-1.3266983-0.2865219-2.6427765-0.5306778-3.9482269
					l16.3449593,5.9011574c-0.222908,2.0166054,0.3290176,4.1074524,1.5071144,5.7631721
					C60.8832703,57.1258659,61.3077736,57.6246719,61.3502693,58.2296562z"/>
			</g>
			<g>
				<path class="st19" d="M70.361145,102.0617447c-0.3548431,0.3131256-0.7306519,0.5531693-1.1168442,0.7410431
					c-11.2727356,5.3859024-23.8084602-12.6713562-23.8084602-12.6713562l8.9243126-22.7960358l0.041729-2.0562057
					l0.1565247-6.7740746c0,0,16.3559685,1.4821396,19.9778328,9.9888496
					C77.5110321,75.4768143,76.5925064,96.8533325,70.361145,102.0617447z"/>
			</g>
			<g>
				<path class="st23" d="M72.4800415,79.4744797c-0.083519,1.7639847-0.6680298,3.4757843-1.1272964,5.1771393
					c-0.8767929,3.2878494-1.4404144,7.2750702-1.388237,11.6067505c0.0104523,1.8892288,0.1356964,3.8306351,0.396637,5.8033752
					c-0.3548431,0.3131256-0.7306519,0.5531693-1.1168442,0.7410431
					c-11.2727356,5.3859024-23.8084602-12.6713562-23.8084602-12.6713562l8.9243126-22.7960358l0.041729-2.0562057
					l12.076458,4.8744049C70.2254562,71.8862305,72.6574631,75.6646881,72.4800415,79.4744797z"/>
			</g>
			<g>
				<g>
					<path class="st24" d="M82.9780273,208.5311737c-0.336853-0.326355-0.880249-0.3067017-1.3441162-0.1395874
						c-0.130188,0.046875-0.2736816-0.0205688-0.3205566-0.1507568c-0.046875-0.130127,0.0206299-0.2736816,0.1507568-0.3205566
						c0.0078735-0.0028076,0.0157471-0.005249,0.0236816-0.0072632l0.008606-0.0021362
						c0.5562744-0.1394043,1.2925415-0.1174316,1.7279663,0.3994141c0.0588989,0.0698853,0.0499878,0.1742554-0.0198975,0.2330933
						c-0.0653687,0.0551147-0.1609497,0.0508423-0.2211914-0.0071411L82.9780273,208.5311737z"/>
				</g>
				<g>
					<path class="st24" d="M81.5714722,206.515976c-0.3237915-0.3120117-0.8453979-0.2922974-1.2919922-0.1304321
						c-0.1300659,0.0471802-0.2737427-0.0200195-0.3209229-0.1501465c-0.0471191-0.1300659,0.0200806-0.2737427,0.1501465-0.3208618
						c0.0081787-0.0029907,0.0163574-0.0054932,0.0245361-0.0075684l0.0087891-0.0021362
						c0.5389404-0.1342163,1.253418-0.1122437,1.6757202,0.3902588c0.0588379,0.0699463,0.0497437,0.1743164-0.0202026,0.2330933
						c-0.0652466,0.0548096-0.1604614,0.0506592-0.2207031-0.006958L81.5714722,206.515976z"/>
				</g>
				<g>
					<g>
						<path class="st12" d="M66.8819275,211.7836761c1.0772552,3.1751251,5.4506531,3.564743,8.0099258,2.0693817
							c2.1787872-1.2668304,3.2754288-6.3699341,3.5484772-7.8631439c0.0517731-0.2612305,0.0694046-0.4141235,0.0694046-0.4141235
							s-0.0626755-0.1438446-0.1623535-0.4111786c-0.3734741-1.0490265-1.6335907-5.0404816-0.8934631-9.1864014
							l-7.1356583,0.0922241l-1.772789,0.1300201c0,0,1.0318832,7.2589569-1.1022644,11.0859985
							C67.4432068,207.2864532,65.8045273,208.6085052,66.8819275,211.7836761z"/>
					</g>
				</g>
				<g>
					<path class="st13" d="M66.8819275,211.7836761c1.0772552,3.1751251,5.4506531,3.564743,8.0099258,2.0693817
						c2.1787872-1.2668304,3.2754288-6.3699341,3.5484772-7.8631439c0.0517731-0.2612305,0.0694046-0.4141235,0.0694046-0.4141235
						s-0.0626755-0.1438446-0.1623535-0.4111786l-3.3485489-1.5961304c-1.341095,0.1510315-1.864418,0.3492584-3.0854797,0.6376648
						c-0.1923218,0.0449066-0.3959732,0.0910797-0.5946121,0.078598c-0.8421478-0.0560608-1.1384659-1.0539398-1.2441711-1.8893433
						c-0.1354065-1.0990906,0.32547-2.2906036,0.3946915-3.3963165c0.0673599-1.0760193,0.1325378-2.4730988-0.151001-2.9286499
						l-1.772789,0.1300201c0,0,1.0318832,7.2589569-1.1022644,11.0859985
						C67.4432068,207.2864532,65.8045273,208.6085052,66.8819275,211.7836761z"/>
				</g>
				<g>
					<path class="st24" d="M86.3310547,212.4660492c-0.3237305-0.3120117-0.8453979-0.2922974-1.2919312-0.1304321
						c-0.1300659,0.0471802-0.2737427-0.0200195-0.3209229-0.1501465c-0.0471802-0.1300659,0.0200806-0.2737427,0.1501465-0.3208618
						c0.0081177-0.0029907,0.0162964-0.0054932,0.0245361-0.0075684l0.008728-0.0021362
						c0.5389404-0.1342163,1.253479-0.1123047,1.6757812,0.3901978c0.0587769,0.0700073,0.0497437,0.1743774-0.0202026,0.2331543
						c-0.0652466,0.0548096-0.1604614,0.0506592-0.2207031-0.006958L86.3310547,212.4660492z"/>
				</g>
				<g>
					<path class="st24" d="M84.65625,210.5137177c-0.3237305-0.3120117-0.8453979-0.2922974-1.2919312-0.1303711
						c-0.1300659,0.0471191-0.2737427-0.0200806-0.3209229-0.1501465c-0.0471191-0.1300659,0.0200806-0.2737427,0.1501465-0.3209229
						c0.0081177-0.0029297,0.0162964-0.0054321,0.0245361-0.0075073l0.008728-0.0021973
						c0.5390015-0.1341553,1.253479-0.1122437,1.6757812,0.3902588c0.0587769,0.0699463,0.0497437,0.1743164-0.0202026,0.2330933
						c-0.0652466,0.0548706-0.1604614,0.0506592-0.2207031-0.006958L84.65625,210.5137177z"/>
				</g>
				<g>
					<path class="st11" d="M67.1473007,212.8515015c0.0181808-0.1525574-0.0397263-0.5769806-0.1122894-1.0810852
						l15.5776367-1.7543945c0.4194031,0.5948029,0.8847275,1.1656647,1.4970856,1.8167267
						c2.2704697,2.3765411,4.7027359,3.5204773,6.5716324,6.1767426c0.327507,0.8443756,0.4867096,2.9055939,0.2919312,3.5789948
						c-0.1153488,0.4169312-0.4279327,0.7648773-0.8412552,0.9417877c-0.399765,0.1753235-1.6251297,0.469696-2.8528824,0.6209717
						c-5.1537933,0.6195831-7.7593765-0.7679291-12.3844299-1.3416138
						c-1.7151947-0.2107849-3.4439545-0.4200439-5.1740036-0.6421509c-1.0431366-0.1301117-2.2003174-0.3125153-2.8467407-1.1258392
						c-0.5963516-0.7276764-0.7618027-2.8709564-0.7992477-3.8048706
						C66.007988,214.5632477,66.9292145,214.5179596,67.1473007,212.8515015z"/>
				</g>
				<g>
					<path class="st16" d="M90.7057877,219.2677002c-0.099144,0.4084015-0.4286728,0.7570953-0.843956,0.9295197
						c-0.3838577,0.1824646-1.611763,0.4801941-2.8417511,0.6212158c-0.1979675,0.023468-0.3856125,0.0467834-0.5628891,0.0595245
						c-4.7853622,0.4585266-7.3701248-0.8442383-11.8242035-1.4025116
						c-0.6898804-0.0746765-1.3799667-0.1595459-2.0805664-0.2549744c-1.0245438-0.122467-2.0491562-0.2449341-3.0842819-0.3775787
						c-1.0560303-0.1326447-2.2170715-0.3159027-2.8643646-1.1322327c-0.5834579-0.723114-0.5542831-1.6942139-0.597908-2.6437225
						c-0.0528641-1.669342,0.0899429-3.5397491,0.2875443-5.2125854c0.0572281-0.4181824,0.2212753-1.4537048,0.3488617-2.0817871
						c0.1277237-0.6174927,0.2478333-1.0157166,0.4712677-1.4987335c0.1623764-0.3571014,0.5762329-0.6441956,0.9735107-0.5972137
						c-0.0585709,0.3139648-0.6655731,3.4220581,0.5496674,3.7613525c0.0523071,0.0097809,0.0837784,0.0198212,0.1360855,0.0294647
						c0.0208969-0.0002747,0.0418625,0.009903,0.0627518,0.0096436l0.0103149-0.0105896
						c0.5118027,0.0247345,0.8496246-0.4911194,1.0936203-0.9953003c0.0100403-0.0314789,0.0200882-0.0629578,0.0300674-0.0942993
						c0.0306625-0.0526428,0.0510178-0.0947113,0.0711746-0.1472015c1.0012589-2.4867706,3.4291306-4.4389496,6.1575089-4.9439087
						c1.2914658-0.2254028,2.7225266-0.1499939,3.7968216,0.587677c0.6842957,0.4505157,0.6354446,1.5159149,1.2011719,2.4793243
						c0.1067734,0.1864319,0.2134781,0.3625641,0.3095322,0.5283813c0.010849,0.0312042,0.0321503,0.0622711,0.0428696,0.082901
						c0.010788,0.0312042,0.0318146,0.0413818,0.0320816,0.062149c0.6934052,1.1498413,1.2996445,2.0188141,2.3368759,3.1222839
						c0.6878738,0.7218933,1.396431,1.4330597,2.0739899,2.1654053c1.6186676,1.6701355,3.1861115,3.4139404,4.4730148,5.2554169
						C90.7305145,217.9521027,90.9057083,218.5865784,90.7057877,219.2677002z"/>
				</g>
				<g>
					<path class="st10" d="M72.5524216,219.2204742c-1.0245438-0.122467-2.0491562-0.2449341-3.0842819-0.3775787
						c-1.0560303-0.1326447-2.2170715-0.3159027-2.8643646-1.1322327c-0.5834579-0.723114-0.5542831-1.6942139-0.597908-2.6437225
						c-0.0528641-1.669342,0.0899429-3.5397491,0.2875443-5.2125854c0.0572281-0.4181824,0.2212753-1.4537048,0.3488617-2.0817871
						c0.1277237-0.6174927,0.2478333-1.0157166,0.4712677-1.4987335c0.1623764-0.3571014,0.5762329-0.6441956,0.9735107-0.5972137
						c-0.0585709,0.3139648-0.6655731,3.4220581,0.5496674,3.7613525c0.0523071,0.0097809,0.0837784,0.0198212,0.1360855,0.0294647
						c0.0208969-0.0002747,0.0418625,0.009903,0.0627518,0.0096436l0.0103149-0.0105896
						c0.5118027,0.0247345,0.8496246-0.4911194,1.0936203-0.9953003c-0.9294052,2.391922-1.0427475,4.9300232-0.0114288,7.1923676
						C70.5406494,217.0230408,71.4539185,218.2221527,72.5524216,219.2204742z"/>
				</g>
				<g>
					<path class="st17" d="M77.8989182,210.0302124c1.519043,1.65979,3.9503555,5.4461823,6.442131,4.7171326
						c2.4904022-0.7413025,1.653717-2.4280701,1.653717-2.4280701c-0.6902924-0.731842-1.3919754-1.4498444-2.0808792-2.1693726
						c-1.0297318-1.1045532-1.6446991-1.9693909-2.3309479-3.1251831c0,0-0.0155487-0.0231018-0.0324936-0.0585938
						c-0.0155487-0.0231018-0.031105-0.0462799-0.0480499-0.0817719c-0.2910767-0.4031067-1.2556534-1.502533-2.9680481-0.9734497
						C76.4740067,206.5664368,76.3925171,208.3690796,77.8989182,210.0302124z"/>
				</g>
				<g>
					<g>
						<path class="st11" d="M80.0731125,215.1245575c0.2977753,0.1561127,0.6796188,0.0468445,0.8440552-0.241394
							c0.1716003-0.3007812,0.0615463-0.667923-0.2362366-0.8240356c-0.3106537-0.1628723-0.6924973-0.0535889-0.86409,0.2471924
							C79.6523972,214.5945435,79.7624512,214.9617004,80.0731125,215.1245575z"/>
					</g>
					<g>
						<path class="st24" d="M80.5843506,214.4392548c0.2938843,0.3245239,0.902771,0.3188477,1.425415,0.1820679
							c0.5592041-0.1433716,1.1170044-0.312439,1.6633301-0.503479c0.5455933-0.1925049,1.0848999-0.4069824,1.5880737-0.6752319
							c0.2496338-0.135437,0.4903564-0.2862549,0.696106-0.4632568c0.1977539-0.1767578,0.3665161-0.397644,0.333374-0.5991211
							c-0.0150757-0.0901489,0.0457153-0.175415,0.1358643-0.1904907c0.0900879-0.0151367,0.175415,0.0457153,0.1904907,0.1358032
							c0.0002441,0.0014038,0.0006104,0.0040283,0.0007935,0.0053711c0.0546265,0.4078369-0.2109985,0.6992188-0.4266357,0.9077759
							c-0.234436,0.2103882-0.4907837,0.3761597-0.7522583,0.5255737c-0.5253296,0.2941284-1.0737915,0.5246582-1.6279907,0.7335815
							c-0.5554199,0.2071533-1.1161499,0.3900757-1.6885986,0.5496826
							c-0.5663452,0.1503296-1.3186035,0.2764282-1.8989258-0.2622681
							c-0.1013184-0.0941162-0.1072388-0.2525024-0.0131836-0.3538818c0.0941162-0.1013184,0.2525024-0.1072388,0.3538818-0.0131226
							c0.005188,0.0048218,0.0101929,0.0098877,0.0148926,0.0150757L80.5843506,214.4392548z"/>
					</g>
				</g>
				<g>
					<g>
						<path class="st11" d="M78.4422379,213.0930939c0.2538071,0.1330566,0.5792618,0.039917,0.7194138-0.2057495
							c0.1462555-0.2563629,0.0524521-0.5692902-0.2013474-0.7023468c-0.2647781-0.1388092-0.5902328-0.0456848-0.7364883,0.2106781
							C78.0836639,212.6413574,78.1774597,212.9542847,78.4422379,213.0930939z"/>
					</g>
					<g>
						<path class="st24" d="M78.9096069,212.4869843c0.2938232,0.3245239,0.90271,0.3188477,1.425354,0.1820068
							c0.5592041-0.1433716,1.1170044-0.312439,1.6633301-0.503418c0.5455933-0.1925659,1.0848999-0.4070435,1.5880737-0.675293
							c0.2496338-0.135376,0.4903564-0.2861938,0.696106-0.4631958c0.1977539-0.1767578,0.3665161-0.397644,0.333374-0.5991211
							c-0.0150757-0.0901489,0.0457153-0.1754761,0.1358643-0.1905518c0.0900879-0.0150757,0.175415,0.0457153,0.1904907,0.1358643
							c0.0002441,0.0014038,0.0006104,0.0039673,0.0007935,0.0053711c0.0546265,0.4077759-0.2109375,0.6991577-0.4266357,0.9077148
							c-0.234436,0.2103882-0.4907837,0.3762207-0.7522583,0.5256348c-0.5253296,0.2941284-1.0737915,0.5246582-1.6279907,0.7335205
							c-0.5554199,0.2071533-1.1161499,0.3900757-1.6885986,0.5497437
							c-0.5663452,0.1503296-1.3186035,0.2763672-1.8989258-0.2623291
							c-0.1013184-0.0940552-0.1072388-0.2525024-0.0131836-0.3538208c0.0941162-0.1013794,0.2525024-0.1072388,0.3538818-0.0131836
							c0.005188,0.0048828,0.0101929,0.0098877,0.0149536,0.0150757L78.9096069,212.4869843z"/>
					</g>
				</g>
				<g>
					<g>
						<path class="st11" d="M76.5276947,211.2293091c0.2761612,0.1447754,0.6302795,0.0434418,0.7827759-0.223877
							c0.1591339-0.2789307,0.0570755-0.6194305-0.2190857-0.7642059c-0.2880936-0.1510315-0.6422195-0.0496979-0.8013535,0.229248
							C76.1375351,210.7377777,76.2396011,211.0782776,76.5276947,211.2293091z"/>
					</g>
					<g>
						<path class="st24" d="M77.0185547,210.583786c0.3092041,0.3397217,0.9420166,0.3317261,1.4838257,0.1898804
							c0.5791016-0.1487427,1.1566162-0.3239746,1.72229-0.5220337c0.5649414-0.199585,1.1233521-0.421875,1.6445923-0.7000122
							c0.258667-0.1404419,0.5081787-0.296814,0.7216187-0.4806519c0.2050171-0.1834717,0.3814087-0.4133911,0.3467407-0.6256104
							c-0.0150757-0.0900879,0.0457764-0.175415,0.1359253-0.1904907c0.0900879-0.0150757,0.175415,0.0457764,0.1904297,0.1359253
							c0.0002441,0.0012817,0.0006104,0.0039673,0.0007935,0.0053101c0.0562134,0.418457-0.217041,0.7188721-0.4400024,0.9342041
							c-0.2421875,0.2172241-0.5072632,0.3885498-0.77771,0.5430298c-0.543457,0.3039551-1.1110229,0.5423584-1.6845703,0.7583008
							c-0.5747681,0.2141724-1.1551514,0.4032593-1.7475586,0.5682373
							c-0.5855103,0.1553955-1.3616943,0.2837524-1.9573975-0.2701416
							c-0.1012573-0.0941162-0.1069946-0.2525635-0.0128784-0.3538208c0.0941772-0.1012573,0.2525635-0.1069946,0.3538208-0.0128784
							c0.0050049,0.0046997,0.0098267,0.0095215,0.0143433,0.0144653L77.0185547,210.583786z"/>
					</g>
				</g>
				<g>
					<g>
						<path class="st11" d="M75.3430862,209.1211395c0.2681503,0.1405792,0.6119919,0.0421753,0.7600632-0.2173767
							c0.1545181-0.2708435,0.0554199-0.6014557-0.2127228-0.7420349c-0.2797394-0.1466522-0.6235886-0.0482483-0.7781067,0.2225952
							C74.9642487,208.6438751,75.0633469,208.9744873,75.3430862,209.1211395z"/>
					</g>
					<g>
						<path class="st24" d="M75.8247681,208.4892426c0.2938232,0.3244629,0.90271,0.3187866,1.425415,0.1820068
							c0.5591431-0.1433716,1.1169434-0.312439,1.663269-0.503479c0.5456543-0.1925049,1.0848999-0.4069824,1.5880737-0.6752319
							c0.2496338-0.135437,0.4904175-0.2861938,0.696106-0.4632568c0.1977539-0.1766968,0.3665161-0.397644,0.333374-0.5991211
							c-0.0150757-0.0900879,0.0457153-0.175415,0.1358643-0.1904907c0.0901489-0.0151367,0.175415,0.0457153,0.1905518,0.1358643
							c0.0001831,0.0013428,0.0006104,0.0039673,0.0007935,0.0053101c0.0546265,0.4078369-0.2109985,0.6992188-0.4266968,0.9077759
							c-0.234436,0.2103882-0.4907227,0.3761597-0.7522583,0.5255737c-0.5253296,0.2941284-1.0737915,0.5246582-1.6279907,0.7335815
							c-0.5554199,0.2071533-1.1160889,0.3900757-1.6885376,0.5496826
							c-0.5664062,0.1503906-1.3186035,0.2764282-1.8989868-0.2622681
							c-0.1013184-0.0941162-0.1072388-0.2525024-0.0131226-0.3538818c0.0940552-0.1013184,0.2524414-0.1072388,0.3538208-0.0131226
							c0.005249,0.0048218,0.0101929,0.0098877,0.0149536,0.0150757L75.8247681,208.4892426z"/>
					</g>
				</g>
			</g>
			<g>
				<g>
					<path class="st24" d="M58.9926758,210.146286c-0.3425293-0.3204346-0.885437-0.2912598-1.3463745-0.1160889
						c-0.1293335,0.0491333-0.2739868-0.0158691-0.3231201-0.1452026c-0.0491333-0.1292725,0.0158081-0.2739868,0.1451416-0.3231201
						c0.0078125-0.0029907,0.015686-0.0054932,0.0235596-0.0076294l0.008606-0.0023193
						c0.553772-0.1490479,1.2902222-0.1399536,1.7346191,0.3692017c0.0601196,0.0688477,0.0529785,0.1733398-0.0158691,0.2334595
						c-0.0643921,0.0562134-0.1599731,0.0535889-0.2212524-0.0032959L58.9926758,210.146286z"/>
				</g>
				<g>
					<path class="st24" d="M57.5512085,208.1559296c-0.3291626-0.3063354-0.8504028-0.2775269-1.2940674-0.1078491
						c-0.1292114,0.0493774-0.2740479-0.0153198-0.3234863-0.1445312c-0.0493774-0.1292725,0.0153198-0.2740479,0.1445312-0.3234863
						c0.0081177-0.0031128,0.0162354-0.0057373,0.0244141-0.0079346l0.008728-0.0023193
						c0.536499-0.1435547,1.2512817-0.1340942,1.682312,0.3609619c0.0599976,0.0689087,0.0527344,0.1734009-0.0161743,0.2333984
						c-0.06427,0.0559692-0.1595459,0.0534668-0.2207642-0.0031128L57.5512085,208.1559296z"/>
				</g>
				<g>
					<g>
						<path class="st12" d="M42.9556923,213.6788483c1.1324158,3.1558533,5.5119324,3.4691772,8.0447617,1.9294434
							c2.1563797-1.3046112,3.1639328-6.4260254,3.410923-7.9237671c0.0472069-0.262085,0.0621796-0.4152679,0.0621796-0.4152679
							s-0.0651741-0.1427155-0.1694946-0.4082794c-0.3917007-1.0423584-1.7211761-5.0112305-1.0534058-9.1694031
							l-7.1329613,0.2165985l-1.7702522,0.1608887c0,0,1.1582146,7.2398376-0.9089241,11.1034851
							C43.4385185,209.1725464,41.8231316,210.5229492,42.9556923,213.6788483z"/>
					</g>
				</g>
				<g>
					<path class="st13" d="M42.9556923,213.6788483c1.1324158,3.1558533,5.5119324,3.4691772,8.0447617,1.9294434
						c2.1563797-1.3046112,3.1639328-6.4260254,3.410923-7.9237671c0.0472069-0.262085,0.0621796-0.4152679,0.0621796-0.4152679
						s-0.0651741-0.1427155-0.1694946-0.4082794l-3.3758507-1.5375214
						c-1.3382607,0.1743927-1.8580551,0.3816986-3.0738983,0.6913605c-0.1915092,0.048233-0.3943253,0.0979462-0.5931549,0.0889282
						c-0.8429947-0.0413666-1.1566544-1.0339203-1.2769012-1.8673553c-0.1545372-1.0965576,0.2855072-2.2959137,0.3354492-3.4026489
						c0.0485992-1.0770416,0.0894241-2.4750366-0.2020111-2.9255676l-1.7702522,0.1608887
						c0,0,1.1582146,7.2398376-0.9089241,11.1034851C43.4385185,209.1725464,41.8231316,210.5229492,42.9556923,213.6788483z"/>
				</g>
				<g>
					<path class="st24" d="M62.4137573,214.0221405c-0.3291626-0.3063354-0.8503418-0.2775879-1.2940063-0.1079102
						c-0.1292725,0.0494385-0.2741089-0.0152588-0.3234863-0.1445312c-0.0494385-0.1292114,0.0152588-0.2740479,0.1445312-0.3234863
						c0.0080566-0.0030518,0.0161743-0.0057373,0.0244141-0.0079346l0.008667-0.0023193
						c0.5365601-0.1435547,1.2512817-0.1340942,1.682312,0.3609619c0.0599976,0.0689087,0.0527954,0.1734619-0.0161743,0.2334595
						c-0.06427,0.0559692-0.1595459,0.0534058-0.2207642-0.0031128L62.4137573,214.0221405z"/>
				</g>
				<g>
					<path class="st24" d="M60.7052002,212.0992889c-0.3291626-0.3063354-0.8503418-0.2775269-1.2940063-0.1078491
						c-0.1292725,0.0494385-0.2741089-0.0153198-0.3234863-0.1445312c-0.0494385-0.1292114,0.0152588-0.2740479,0.1444702-0.3234863
						c0.0081177-0.0030518,0.0162354-0.0057373,0.0244141-0.0079346l0.008728-0.0023193
						c0.5365601-0.1435547,1.2512817-0.1340942,1.682312,0.3609619c0.0599976,0.0689087,0.0527954,0.1734009-0.0161743,0.2334595
						c-0.06427,0.0559692-0.1595459,0.0534058-0.2207642-0.0031128L60.7052002,212.0992889z"/>
				</g>
				<g>
					<path class="st11" d="M43.2396278,214.7418823c0.015522-0.1528473-0.0497704-0.5761871-0.1311073-1.078949l15.544693-2.02565
						c0.4296951,0.5874023,0.9049034,1.1500549,1.528511,1.7903595c2.3115349,2.3365784,4.7633667,3.4379425,6.6782532,6.0612183
						c0.3421783,0.8385468,0.5372696,2.8966522,0.3542557,3.573349c-0.1080627,0.4188843-0.4145432,0.7722168-0.8247147,0.9563141
						c-0.3966446,0.182251-1.6190186,0.4822235-2.8416328,0.6705933c-4.2883606,0.660675-7.7727394,0.1434631-12.5223961-0.4532013
						c-1.7146225-0.2153931-6.684864-1.1118622-7.9338417-2.3002625c-0.6815834-0.6485138-0.8117142-2.8572235-0.8654289-3.7903442
						C42.1303177,216.4732208,43.0506134,216.4118805,43.2396278,214.7418823z"/>
				</g>
				<g>
					<path class="st16" d="M42.7844887,219.6127014c0.6592827,0.8037262,1.8239517,0.9639282,2.8788643,1.0806122
						c1.734787,0.1898346,3.4565926,0.3698883,5.1770439,0.5384674c4.4645424,0.4812012,7.0659142,1.7365417,11.847702,1.1943054
						c0.1719208-0.0108337,0.3651009-0.0360107,0.5581436-0.0611725c1.2255592-0.1712646,2.4559593-0.4817963,2.8357887-0.6699371
						c0.4041977-0.1797333,0.727562-0.533844,0.8235855-0.9506989c0.1882553-0.6830902,0.0015259-1.3173218-0.2660675-1.6867981
						c-1.3239441-1.8262177-2.9216881-3.5359344-4.5687447-5.1813965c-0.6944046-0.718277-1.409935-1.422226-2.1142311-2.127655
						c-1.0544624-1.087265-1.6741753-1.942337-2.3892441-3.0853882c-0.0029526-0.0226746-0.0158081-0.0325623-0.0301437-0.053833
						c-0.0143356-0.0212555-0.0301437-0.0538177-0.0459595-0.0864563c-0.1018028-0.1599884-0.20644-0.3428192-0.3224411-0.5240936
						c-0.5749779-0.9533539-0.5519676-2.0192566-1.2449646-2.460434c-1.0865479-0.7133636-2.51511-0.7697906-3.799736-0.5214996
						c-2.7241669,0.5513763-5.1095314,2.5489807-6.077095,5.0550842c-0.2258034,0.5724792-0.5729904,1.2762909-1.1642418,1.2608795
						l-0.0113716,0.0014801c-0.0227432,0.0029602-0.0469704-0.0054474-0.0697136-0.0024719
						c-0.0469666-0.0054474-0.0839005-0.0236969-0.130867-0.0291443c-1.2193718-0.3148346-0.66745-3.4368286-0.6164474-3.7554474
						c-0.3982086-0.0405579-0.8100624,0.2557678-0.9588318,0.6217499c-0.2149048,0.4786072-0.3350143,0.8870392-0.4510727,1.5029602
						c-0.1147156,0.6273193-0.2556114,1.6738892-0.3059998,2.0848694c-0.1746635,1.6749115-0.2884293,3.5498352-0.1972351,5.2247925
						C42.1943703,217.9219513,42.1823997,218.8939667,42.7844887,219.6127014z"/>
				</g>
				<g>
					<path class="st10" d="M42.7844887,219.6127014c0.6592827,0.8037262,1.7997322,1.065918,2.8370743,1.2903748
						c1.8204918,0.3939056,3.7242393,0.7350311,5.5428085,0.9892578c4.6528091,0.6504517,6.7419395,1.0759888,11.5237274,0.5337524
						c-4.1968689-0.3773651-8.2775421-1.9020996-11.5931206-4.3815613c-1.0242462-0.767746-2.0390663-1.6406555-3.3134804-1.8442993
						c-0.6258316-0.1032715-1.2522049-0.0332184-1.8483696-0.1750488c-1.2051735-0.2935486-2.0138931-1.447464-2.2375641-2.631424
						c-0.10466-0.6256714-0.0387115-1.2427673,0.1013527-1.8558197c0.1254539-0.549118,0.1552048-1.1171417,0.1082077-1.6784363
						c-0.0822639-0.9825439,0.1190414-2.1278534,0.1492233-2.3123932c-0.3982086-0.0405579-0.8100624,0.2557678-0.9588318,0.6217499
						c-0.2149048,0.4786072-0.3350143,0.8870392-0.4510727,1.5029602c-0.1147156,0.6273193-0.2556114,1.6738892-0.3059998,2.0848694
						c-0.1746635,1.6749115-0.2884293,3.5498352-0.1972351,5.2247925
						C42.1943703,217.9219513,42.1823997,218.8939667,42.7844887,219.6127014z"/>
				</g>
				<g>
					<path class="st17" d="M53.9404488,211.7336273c1.5477295,1.6330566,4.0446472,5.3764801,6.5233421,4.6041107
						c2.477108-0.7845917,1.6111565-2.4565125,1.6111565-2.4565125c-0.7029381-0.7196808-1.4170265-1.425354-2.1183662-2.1327667
						c-1.0488243-1.0864258-1.6787605-1.9404144-2.3850479-3.0840607c0,0-0.0159492-0.0228271-0.0335083-0.0580139
						c-0.0159492-0.0228424-0.0319099-0.0457458-0.049469-0.0809326c-0.2980537-0.3979645-1.2816429-1.4804077-2.9845543-0.9215698
						C52.4553986,208.2952271,52.4053307,210.0990143,53.9404488,211.7336273z"/>
				</g>
				<g>
					<g>
						<path class="st11" d="M56.2030754,216.7892914c0.3004532,0.1508942,0.680336,0.0349884,0.8397255-0.256073
							c0.1663246-0.3037262,0.0498924-0.6688995-0.2505608-0.8197937c-0.313446-0.1574249-0.6933289-0.0415192-0.8596573,0.262207
							C55.7731934,216.2666931,55.8896294,216.6318665,56.2030754,216.7892914z"/>
					</g>
					<g>
						<path class="st24" d="M56.7023315,216.0951996c0.2994385,0.3193359,0.9081421,0.3030396,1.4283447,0.1571655
							c0.5565796-0.1530762,1.1113892-0.3318481,1.6542969-0.5323486c0.5421753-0.2020264,1.0776367-0.4259033,1.5760498-0.7028198
							c0.2472534-0.1397705,0.4853516-0.2947388,0.6879272-0.4753418c0.1946411-0.1801147,0.3594971-0.4039917,0.322876-0.6048584
							c-0.0166626-0.0898438,0.0426636-0.1761475,0.1325073-0.1928101s0.1762085,0.0426636,0.1928711,0.1325073
							c0.0002441,0.0013428,0.0006714,0.0039673,0.0009155,0.0053101c0.0617065,0.4067993-0.1987915,0.7028198-0.4108276,0.9150391
							c-0.2307129,0.2144775-0.4840698,0.3847046-0.7429199,0.5386353
							c-0.5202026,0.3032837-1.0645142,0.5432739-1.6149902,0.7618408
							c-0.5516968,0.2167969-1.1091309,0.4094849-1.6787109,0.5790405c-0.5637207,0.1602173-1.3135986,0.2993164-1.9032593-0.229187
							c-0.1029663-0.0922852-0.1116333-0.2505493-0.0193481-0.3535156c0.0923462-0.1029663,0.2506104-0.1116333,0.3535767-0.0193481
							c0.0053101,0.0047607,0.010376,0.0097046,0.0151978,0.0148315L56.7023315,216.0951996z"/>
					</g>
				</g>
				<g>
					<g>
						<path class="st11" d="M54.537056,214.7865601c0.2560806,0.1286163,0.5798645,0.0298157,0.7157135-0.2182617
							c0.1417656-0.2588654,0.0425262-0.5701141-0.2135544-0.6987152c-0.2671585-0.1341705-0.5909386-0.0353851-0.7327042,0.2234802
							C54.1706581,214.3411407,54.2698975,214.6523895,54.537056,214.7865601z"/>
					</g>
					<g>
						<path class="st24" d="M54.9937744,214.1724091c0.2994385,0.3193359,0.9081421,0.3030396,1.4283447,0.1571655
							c0.5565796-0.1531372,1.1113892-0.3319092,1.6542969-0.5324097c0.5421753-0.2019653,1.0776367-0.4258423,1.5760498-0.7028198
							c0.2472534-0.1397095,0.4853516-0.2946777,0.6879272-0.4752808c0.1946411-0.1801758,0.3594971-0.4039917,0.322876-0.6048584
							c-0.0166626-0.0898438,0.0426636-0.1762085,0.1325073-0.1928711s0.1762085,0.0427246,0.1928711,0.1325684
							c0.0002441,0.0013428,0.0006714,0.0039673,0.0009155,0.0053101c0.0617065,0.4067993-0.1987915,0.7027588-0.4108276,0.9150391
							c-0.2307129,0.2144775-0.4841309,0.3847046-0.7429199,0.5386353
							c-0.5202026,0.3032227-1.0645142,0.5432739-1.6149902,0.7617798c-0.5516968,0.2168579-1.1091309,0.4094849-1.678772,0.5791016
							c-0.5636597,0.1602173-1.3135376,0.2993164-1.9031982-0.229187c-0.1029663-0.0922852-0.1116333-0.2505493-0.0193481-0.3535156
							s0.2506104-0.1116333,0.3535767-0.0193481c0.0053101,0.0047607,0.010376,0.0097046,0.0151978,0.0148315
							L54.9937744,214.1724091z"/>
					</g>
				</g>
				<g>
					<g>
						<path class="st11" d="M52.5903282,212.9564362c0.2786369,0.1399384,0.6309357,0.0324554,0.7787514-0.2374725
							c0.1542511-0.2816772,0.0462723-0.6203308-0.2323647-0.7602692c-0.2906876-0.1459961-0.6429863-0.0384979-0.7972374,0.2431793
							C52.1916618,212.4717865,52.2996407,212.8104553,52.5903282,212.9564362z"/>
					</g>
					<g>
						<path class="st24" d="M53.0698242,212.302475c0.3151245,0.3342285,0.9476929,0.3152466,1.4869995,0.1639404
							c0.576355-0.1587524,1.1506958-0.3440552,1.7128906-0.5518799c0.5614014-0.2094116,1.1158447-0.4414673,1.6321411-0.7286377
							c0.2561646-0.1448975,0.5028687-0.305603,0.7131348-0.493103c0.2017822-0.1870728,0.3741455-0.4200439,0.3357544-0.6315918
							c-0.0166016-0.0898438,0.0427246-0.1761475,0.1325684-0.1928101s0.1762085,0.0427246,0.1928101,0.1325684
							c0.0002441,0.0012817,0.0007324,0.0039673,0.0009155,0.005249c0.0634766,0.4174805-0.2045288,0.7225952-0.4237061,0.9417725
							c-0.2383423,0.2214355-0.5003662,0.3973389-0.7681274,0.5564575
							c-0.5380859,0.3134766-1.1013794,0.5616455-1.6710815,0.7875977
							c-0.5709839,0.2241211-1.1479492,0.4233398-1.7373657,0.5985718c-0.5827637,0.1655884-1.3565063,0.3074951-1.961792-0.2359619
							c-0.1029053-0.0923462-0.1114502-0.2506104-0.019043-0.3535156c0.0923462-0.1029053,0.2506104-0.1113892,0.3535156-0.019043
							c0.0050659,0.0045776,0.0099487,0.0092773,0.0145874,0.0141602L53.0698242,212.302475z"/>
					</g>
				</g>
				<g>
					<g>
						<path class="st11" d="M51.3691673,210.8692474c0.2705536,0.1358795,0.6126289,0.0315094,0.7561569-0.2305908
							c0.1497765-0.2734985,0.0449295-0.6023254-0.2256203-0.738205c-0.2822533-0.1417542-0.6243324-0.037384-0.7741089,0.2361145
							C50.9820671,210.3986664,51.0869141,210.7274933,51.3691673,210.8692474z"/>
					</g>
					<g>
						<path class="st24" d="M51.8397217,210.2290497c0.2994995,0.3193359,0.9082031,0.3030396,1.4284058,0.1571045
							c0.5565796-0.1530762,1.1113892-0.3318481,1.6542358-0.5323486c0.5421753-0.2020264,1.0776978-0.4258423,1.5760498-0.7028198
							c0.2472534-0.1397705,0.4853516-0.2947388,0.6879272-0.4752808c0.1947021-0.1801758,0.3595581-0.4039917,0.322937-0.6048584
							c-0.0166626-0.0898438,0.0426636-0.1762085,0.1325073-0.1928711s0.1762085,0.0426636,0.1928711,0.1325073
							c0.0002441,0.0014038,0.0006714,0.0040283,0.0008545,0.0053711c0.0617676,0.4067993-0.1987305,0.7027588-0.4107666,0.9150391
							c-0.2307129,0.2144775-0.4841309,0.3847046-0.742981,0.5386353c-0.5201416,0.3032227-1.0644531,0.5432739-1.6149902,0.7617798
							c-0.5516968,0.2168579-1.1091309,0.4094849-1.6787109,0.5791016c-0.5636597,0.1601562-1.3135986,0.2993164-1.9031982-0.229187
							c-0.1029663-0.0922852-0.1116333-0.2506104-0.0193481-0.3535767s0.2505493-0.1115723,0.3535156-0.0192871
							c0.0053711,0.0047607,0.010437,0.0097046,0.0152588,0.0148315L51.8397217,210.2290497z"/>
					</g>
				</g>
			</g>
			<g>
				<path class="st25" d="M80.9450226,198.1305389c-0.2922897,3.1313171-16.8986893,3.6532135-17.3057747,0.5427856
					c-0.7202072-5.6467285-1.4195175-14.6544952-1.9414024-22.4620209
					c-0.0104485-0.0416565-0.0104485-0.0834503-0.0104485-0.1251221
					c-0.5531654-8.2458344-0.9185257-15.0930481-0.9185257-15.0930481s-6.4817886-18.5165253-10.1037178-30.4572906
					c-0.1356926-0.459259-0.271389-0.8976288-0.396637-1.3359985c-3.5175095-11.8364105-0.7723808-20.2492218-0.7723808-20.2492218
					l16.8151665,1.4195175l1.7953262,0.1565933c1.2733688,2.8912735,2.4320068,5.8138199,3.4966125,8.8094482
					c4.2168808,11.8885956,6.8158722,24.7060852,8.1205826,39.2877045
					C79.7238235,158.6238861,81.9679031,187.4214172,80.9450226,198.1305389z"/>
			</g>
			<g>
				<path class="st26" d="M71.603241,119.3361816c-6.5862045-1.8996735-8.2040405-8.6528549-8.2040405-8.6528549
					l2.9121017-0.3131866l1.7953262,0.1565933C69.3799973,113.4180069,70.5386353,116.3405533,71.603241,119.3361816z"/>
			</g>
			<g>
				<path class="st26" d="M61.687397,176.0861816c-0.5531654-8.2458344-0.9185257-15.0930481-0.9185257-15.0930481
					s-6.4817886-18.5165253-10.1037178-30.4572906l4.0289497-2.1292725c0,0,2.3589363,7.8700256,2.7555771,14.1743927
					c0.3861923,6.2939911,2.6616096,14.4354706,5.9495201,17.1804657
					C63.3992004,159.7614288,61.2594795,167.2350159,61.687397,176.0861816z"/>
			</g>
			<g>
				<path class="st25" d="M56.3537331,199.5501862c-0.1356964,2.0666504-7.546463,3.1208649-12.7235985,2.7242279
					c-0.3757439-0.0313416-0.7306557-0.062561-1.075119-0.1043549c-2.160553-0.2818298-3.73666-0.8455048-3.8828049-1.7640381
					c-1.8683281-11.5962982-4.0602913-37.5653839-4.0602913-37.5653839s-6.2834721-24.3825226-5.5215378-38.1707916
					c0.6471348-11.5127869,5.5633278-15.7505035,5.5633278-15.7505035h16.7316513l3.3087425,19.4872284
					c1.0020447,11.5649567,1.555275,21.6896362,0.3549118,33.0145569
					C55.049015,161.4211273,57.0322075,188.8097229,56.3537331,199.5501862z"/>
			</g>
			<g>
				<g>
					<path class="st26" d="M43.6301346,202.2744141c-0.3757439-0.0313416-0.7306557-0.062561-1.075119-0.1043549
						c-1.8161545-11.9408264-3.92453-39.1310425-3.9454269-39.4128723
						c-0.0521774-0.1461487-6.283535-24.5182953-5.5215378-38.2334213
						c0.6053429-10.803093,4.7387085-14.9468384,5.4798088-15.6044235c0.0521774-0.0521698,0.0939026-0.083519,0.104351-0.0939636
						l0.0730743,0.0939636l0.5845108,0.7202072c-0.0521774,0.0417328-4.5717316,3.8515244-5.1979713,14.9468384
						c-0.7515488,13.5481644,5.4380188,37.76371,5.5006409,38.0037613
						C39.6638107,162.9554291,41.8035316,190.5319672,43.6301346,202.2744141z"/>
				</g>
			</g>
			<g>
				<path class="st26" d="M45.4358406,110.1509933c0,0-3.2252235,10.2603073-10.7821312,8.8407211
					c0,0,0.6471367-6.2730865,4.3942451-9.707077L45.4358406,110.1509933z"/>
			</g>
			<g>
				<path class="st19" d="M71.5824127,79.9963684c-0.2505646,1.7430801-0.9916,3.3922653-1.6074524,5.0518875
					c-1.1794739,3.1834946-2.1084442,7.1080933-2.463295,11.4188843c-0.2713852,3.0895233-0.2504959,6.3669891,0.1774292,9.7175217
					c-10.4585648,1.0646057-21.1050644,0.4905472-31.9081535-1.5030365l0.3131828-9.8845596l0.8036613-25.5515442
					l12.0869102-8.1414223l17.4936447,9.0494957C70.048027,72.2306976,72.1146774,76.2179184,71.5824127,79.9963684z"/>
			</g>
			<g>
				<path class="st23" d="M40.2595291,75.4608765c0,0,0.3908272,1.7595825,0.5418015,3.7266693
					c0.1144524,1.4912033,1.6892738,2.4041214,3.0537491,1.7917557c1.8286743-0.820694,3.9781647-1.6873474,5.0544548-1.7653427
					c2.0859528-0.1511536,2.7510414,1.7382965,2.7510414,1.7382965l-13.4831161,4.8067627L40.2595291,75.4608765z"/>
			</g>
			<g>
				<path class="st20" d="M67.695343,106.1919403c-10.4400024,1.0599976-21.0699463,0.4899902-31.8499756-1.5
					c-0.039978-0.0100098-0.0599976-0.0100098-0.0599976-0.0100098v-0.0199585l0.3099976-9.8600464l10.6099854-4.4099731
					l8.7900391-3.6599731l1-0.4200439c0,0,1.5499878,2.8099976,0,4.8300171
					c-0.8500366,1.0999756-3.0599976,4.0700073-4.8900146,6.5299683c-1.5700073,2.1100464-0.4199829,5.1500244,2.1599731,5.6600342
					c1.2800293,0.25,2.7700195,0.3599854,4.3900146,0.1699829c3.8400269-0.4400024,8.0200195-2.9400024,9.3599854-7.0299683
					C67.2453918,99.5619354,67.2653503,102.8419647,67.695343,106.1919403z"/>
			</g>
			<g>
				<path class="st10" d="M68.1050186,110.5245209c-10.907444,1.1168442-22.1890182,0.4745255-33.4513092-1.6025696
					c0.1810455-1.7782898,0.6511803-3.3163834,1.1272316-4.2403259c10.8030891,1.9935837,21.4495888,2.5676422,31.9081535,1.5030365
					C67.9703827,107.0123825,68.1850357,109.595993,68.1050186,110.5245209z"/>
			</g>
			<g>
				<path class="st11" d="M57.304882,108.9418716c0,0.441864-0.3756599,0.8173828-0.8175201,0.8173828
					c-0.4417305,0-0.7952766-0.3755188-0.7952766-0.8173828s0.3535461-0.7952728,0.7952766-0.7952728
					C56.9292221,108.1465988,57.304882,108.5000076,57.304882,108.9418716z"/>
			</g>
			<g>
				<path class="st11" d="M68.1066284,110.5267334c-10.907444,1.1168442-22.1906281,0.4697113-33.452919-1.6073914
					c0.022934-0.2862167,0.0444603-0.5144043,0.1039276-0.805275c11.1996689,2.0562668,22.5041733,2.7362366,33.359436,1.6402817
					C68.1274567,110.0465775,68.1274567,110.3179626,68.1066284,110.5267334z"/>
			</g>
			<g>
				<path class="st12" d="M72.8140564,71.687912c-1.304718,1.5030365-4.2690659,3.3714294-4.6135254,3.5802002
					c-0.0208359,0.0103836-0.0312805,0.0208282-0.0312805,0.0208282l-3.2983551,2.7555771l-1.4195213,1.1899185
					l-1.4090652,0.1356964l-1.200367,0.8141098c0,0,0,0-0.0104485,0l-5.4067345,3.6532059
					c-0.0312805,0.0104446-0.041729,0.0208969-0.041729,0.0208969l-0.6784782-1.1481934l-2.1083794-3.5383377
					c0,0,4.3837967-3.319191,6.0329781-4.1020203c2.2441368-1.075119,4.999649-1.6596298,6.5653076-1.9727478
					c0.8559036-0.167038,1.6700745-0.4906082,2.4320068-0.928978c1.7535324-1.0333252,4.7178802-3.0373459,5.615509-2.077095
					C73.5968857,70.4771652,73.3567734,71.0407791,72.8140564,71.687912z"/>
			</g>
			<g>
				<path class="st13" d="M72.8180466,71.6894073c-1.304451,1.5051346-4.2702103,3.3671188-4.6158371,3.5789642l-0.2426987-0.663269
					c0,0,2.710144-1.2655792,3.7026749-2.6107635C72.1442642,71.639389,72.4947433,71.3771973,72.8180466,71.6894073z"/>
			</g>
			<g>
				<g>
					<polygon class="st16" points="89.9838486,57.7831917 90.4351578,58.9525375 79.2355423,71.5447006 72.1134949,73.1636887 
						71.6621857,71.994339 82.4220505,58.2212791 					"/>
				</g>
				<g>
					<polygon class="st11" points="90.4351578,58.9525375 79.6868515,72.7140427 72.1134949,73.1636887 82.8733597,59.390625 					
						"/>
				</g>
				<g>
					<g>
						<path class="st12" d="M85.3778152,68.9157944c-1.0159531,2.5744934-3.2441101,5.1143875-4.5140228,6.4305267
							c-0.7273331,0.7504425-1.2353134,1.6855774-1.4431152,2.7130203c-0.1732025,0.8543854-0.323288,1.9626465-0.3001785,3.2441177
							c0.0115585,0.6234665,0.0808258,1.4662247-0.034668,2.2859421c-0.1846848,1.3738403-0.8774261,2.6668701-3.128624,2.7245789
							c-3.5905228,0.0808182-2.7823639-3.728981-2.1588898-5.9802551c0.6233978-2.2397156,0.8196411-4.3062286,0.8196411-4.3062286
							l0.9466858-1.7548447c0,0,0,0,0-0.0115585l0.6003647-1.1198196l1.8587112-0.9351349l3.05896-1.4085159l1.0164261-0.6349564
							l0.3693695-3.1979599c0,0,0.0923843-0.4502716,0.2655869-1.1313782
							c0.1962433-0.8197174,0.5079727-1.974205,0.8658676-3.0940285c0.6233978-1.9164925,1.4199982-3.7405357,2.1588898-3.6135597
							C87.6983566,59.4605179,86.2783508,66.6414871,85.3778152,68.9157944z"/>
					</g>
					<g>
						<path class="st13" d="M83.4504318,69.2505722l-0.7503815-3.417244
							c0.1962509-0.8197174,0.5079803-1.974205,0.8658676-3.0940285c0.1385345,0.5310211,0.2886276,1.2699165,0.3809357,2.2397194
							C84.1431656,67.0570831,83.4504318,69.2505722,83.4504318,69.2505722z"/>
					</g>
					<g>
						<path class="st12" d="M83.4504318,69.2505722l-2.5167847,2.6438293
							c-0.0115509,0.0115585,0.0762329,0.0858688,0.0762329,0.0858688s0.2239456-3.3992462-0.168541-5.2579651
							c-0.1270447-0.57724-0.4618225-1.6855774-0.6696243-2.7476921c-0.2424698-1.2584229-0.3273773-2.3893585,0.3116684-2.7476921
							c1.2045975-0.6754646,2.5745621,1.5354233,2.9670486,3.3364258
							C83.7506104,65.925705,83.4504318,69.2505722,83.4504318,69.2505722z"/>
					</g>
					<g>
						<path class="st13" d="M81.0375824,71.432579c0.0461578-1.0044022,0.1038666-3.2902679-0.1962433-4.7102737
							c-0.1270447-0.57724-0.4618225-1.6855774-0.6696243-2.7476921c0.2539597,0.9581795,1.2006454,2.2050438,1.2930222,3.8675194
							C81.5340042,69.0543289,81.2107162,70.6359787,81.0375824,71.432579z"/>
					</g>
					<g>
						<path class="st12" d="M78.8786926,73.2912903l-0.184761,0.1154938l-0.2193527,0.1385345L75.75,75.2770538
							c0,0.0115509,0,0.0115509,0,0.0115509l-1.1660461,0.7388916c0,0,0.3463287-2.6899796-0.2539597-3.6020737
							c-0.0115509-0.0114822-0.0115509-0.0114822-0.0115509-0.0114822
							c-1.2353134-1.8356705-2.4937439-3.5558548-1.8010025-4.2254791c0.7850418-0.7388916,2.7014694,0.9698029,4.2254028,2.6091614
							c0.473381,0.4964218,0.9005356,0.9928436,1.2468719,1.4085159c0.1846848,0.2192841,0.3463287,0.415596,0.4848633,0.5772476
							C78.7286072,73.095047,78.8786926,73.2912903,78.8786926,73.2912903z"/>
					</g>
					<g>
						<path class="st13" d="M78.6939316,73.4067841l0.2770691,0.7619324
							c-0.0692673-0.092308-0.253952-0.3116684-0.4964218-0.6233978c-0.4964218-0.6580734-1.2353134-1.7086258-1.7317352-2.7476959
							c0.7157745,0.7619324,1.3392487,1.5123825,1.7317352,1.9857635L78.6939316,73.4067841z"/>
					</g>
					<g>
						<path class="st12" d="M81.4416275,72.3446732l-2.4244003,1.8818207c0,0-5.1952057-8.2777481-3.3942032-9.4206772
							C77.4586182,63.628212,81.4416275,72.3446732,81.4416275,72.3446732z"/>
					</g>
					<g>
						<path class="st13" d="M79.0951309,83.5202332c0,2.1722107-0.9804535,3.5459137-3.3300171,3.3528061
							c-3.9724274-0.3264771-3.3647156-4.4438553-2.382515-6.5633392c0.8313904-1.7940445,1.0485916-3.1808624,1.201355-4.2822037
							c0.1240234-0.8941879,0.1847-2.5141678-0.2539597-3.6020737c0.1154251,0.1039352,0.8196487,0.7388916,1.2006454,1.8356705
							c0,0.0115585,0,0.0115585,0,0.0115585c0.1039352,0.3001785,0.184761,0.6349564,0.2193604,1.0044022
							c0,0.0115509,0,0.0115509,0,0.0115509c0.0115509,0.1154251,0.0115509,0.2424011,0.0115509,0.3694458
							c0.0231171,2.0780716-1.1198883,3.2094498-1.6740189,5.2760315c-0.5656891,2.0549622-0.3117371,4.1907349,1.6740189,4.5601807
							C77.7472458,85.8521576,78.6910858,84.7671051,79.0951309,83.5202332z"/>
					</g>
				</g>
			</g>
			<g>
				<path class="st12" d="M71.2348633,80.6088715c-0.3010559,0.2564163-0.791626,0.1337891-1.3156128-0.156105
					c-0.8473587-0.4794159-1.7950897-1.3825073-2.2187729-1.7616119c-0.334465-0.312149-0.6131973-0.5908813-1.0702896-0.7246704
					c-0.4459991-0.1115341-1.0480423-0.0892105-2.051506,0.2006836l1.8285065-1.6612396l0.3010483-0.2675705l1.2512741-1.633255
					C67.9595108,74.6051025,72.7511597,79.3044205,71.2348633,80.6088715z"/>
			</g>
			<g>
				<path class="st13" d="M69.9192505,80.4527664c-0.8473587-0.4794159-1.7950897-1.3825073-2.2187729-1.7616119
					c-0.334465-0.312149-0.6131973-0.5908813-1.0702896-0.7246704l-0.2229996-1.460556l-0.0892181-0.6131973
					c0,0,0.1449509,0.1337814,0.3902664,0.3456268C67.5778503,77.0410767,69.6405182,79.0590973,69.9192505,80.4527664z"/>
			</g>
			<g>
				<path class="st12" d="M69.3506241,81.6234283c-0.2675705,0.2341614-0.7024155,0.1449509-1.1706619-0.07798
					c-0.8808441-0.4571609-1.9065628-1.4383087-2.352562-1.8396683c-0.5686264-0.5017319-0.94767-0.9588242-2.2967606-0.7247314
					c-0.2452507,0.0446396-0.5239868,0.1115341-0.8362007,0.200676l0.9588966-0.8807678l0.7803955-0.7024155l1.8842392-1.7058105
					C66.3179703,75.8927307,70.8669205,80.3189774,69.3506241,81.6234283z"/>
			</g>
			<g>
				<path class="st13" d="M68.1799622,81.5454483c-0.8808441-0.4571609-1.9065628-1.4383087-2.352562-1.8396683
					c-0.5686264-0.5017319-0.94767-0.9588242-2.2967606-0.7247314l0.1226959-0.6800919l0.2117691-1.103775
					c0,0,0.2229996,0.156105,0.5686264,0.4013596C65.5486679,78.4235764,67.9681168,80.3301392,68.1799622,81.5454483z"/>
			</g>
			<g>
				<path class="st12" d="M67.7204361,82.407486c-0.7097549,0.7410965-2.9956207-0.8663559-3.7680702-1.3673477
					c-0.1565285-0.1043472-0.313118-0.2087631-0.459198-0.2922211c0,0-0.0313454-0.0208969-0.0939674-0.0626221
					c-0.5323334-0.2818375-1.1794701-0.3758087-2.6198807,0.3026733c-1.8161545,0.8663483-4.9683723,2.6303253-5.3545609,2.8494797
					c-0.0312805,0.0104446-0.041729,0.0208969-0.041729,0.0208969l4.0080528-3.1522217l4.477829-3.5070572
					c0,0,0.4279175,0.3340149,1.0019836,0.8454514C66.269577,79.2761612,68.5554428,81.5203018,67.7204361,82.407486z"/>
			</g>
			<g>
				<path class="st13" d="M63.3992004,80.6852951c-0.5323334-0.2818375-1.1794701-0.3758087-2.6198807,0.3026733
					c-1.8161545,0.8663483-4.9683723,2.6303253-5.3545609,2.8494797c-0.0312805,0.0104446-0.041729,0.0208969-0.041729,0.0208969
					l-0.6784782-1.1481934c0,0,2.7451286-1.2316437,4.6865311-2.0040283
					c0.5845108-0.229599,1.0960121-0.4174652,1.4404106-0.5218811c0.0543022-0.0148087,0.1044159-0.0312805,0.1461449-0.0417328
					C62.0527573,79.8711243,63.0965271,80.4869766,63.3992004,80.6852951z"/>
			</g>
			<g>
				<path class="st20" d="M58.7857399,84.484581c-0.0730705,0.6471329-0.6367493,1.0959473-1.1586342,1.4925842
					c-1.262928,0.928978-2.5154686,1.8684006-3.7680092,2.8077545l-5.6781273-7.2333374
					c0.8037262-0.6262436,1.6074524-1.2525406,2.4006653-1.8892288c0.3235664-0.2504959,0.6367493-0.5009918,0.9498711-0.7514877
					c0.417469-0.3235626,0.8558998-0.6680298,1.3882332-0.7306519c0.7202072-0.0730743,1.388176,0.3861923,1.9414062,0.8663483
					c1.3464432,1.1794662,2.5259132,2.5468063,3.465332,4.0706787C58.576973,83.5347748,58.8274689,83.9940414,58.7857399,84.484581
					z"/>
			</g>
			<g>
				<path class="st20" d="M78.469368,82.7990189c-1.6639557-0.6679382-3.4159698-1.0889969-5.2030563-1.2357864
					c-0.4901657-0.0338974-1.0151596-0.0463333-1.4276276,0.2206192c-0.5376968,0.3563843-0.6898651,1.064003-0.7972565,1.7078171
					c-0.260582,1.5445175-0.5211258,3.0890884-0.7816772,4.6336594l9.0189438,1.7648315
					c0.2695465-1.3937302,0.5477905-2.7927628,0.8260498-4.1918716c0.1002808-0.5191498,0.2072067-1.0664062,0.0198441-1.5641861
					C79.861145,83.4547501,79.1416702,83.0692825,78.469368,82.7990189z"/>
			</g>
			<g>
				<path class="st23" d="M56.0553894,89.3419647c0,0-3.6100464,6.7699585-9.9000244,11.4400024
					c-5.8399658,4.3499756-9.7799683,3.9799805-10.3099976,3.9099731c-0.039978-0.0100098-0.0599976-0.0100098-0.0599976-0.0100098
					v-0.0199585l0.3099976-9.8600464l10.6099854-4.4099731L56.0553894,89.3419647z"/>
			</g>
			<g>
				<path class="st19" d="M40.2595291,75.4608765c0.1270866,3.6154938-0.2163124,6.9250412-1.3364563,9.6921768
					c2.5435753-1.8275528,6.9430504-4.080452,9.7900772-5.1744232c2.2499771-0.6887894,8.7696724,7.2874374,7.3375359,9.3614655
					c0,0-12.5352669,18.0587234-23.7997208,12.6688232c-7.2344837-3.4616013-8.9212914-25.7916718-5.6589298-33.1181641
					c4.4650097-10.0273476,20.5078793-10.5961914,20.5078793-10.5961914l1.5717735,9.4090347L40.2595291,75.4608765z"/>
			</g>
			<g>
				<path class="st19" d="M80.6736298,88.7118454c0,0-0.4174652,8.3189087-3.6010284,13.55867h-0.0103836
					c-1.931015,3.1834946-4.8953018,5.229248-9.414856,3.5383453c-0.8976288-7.5673599,0.229599-14.7693558,2.0875473-20.0821838
					C72.3756256,84.6724548,80.4648666,86.4573288,80.6736298,88.7118454z"/>
			</g>
			<g>
				<path class="st23" d="M77.0622177,102.2705154c-1.931015,3.1834946-4.8953018,5.229248-9.414856,3.5383453
					c-0.8976288-7.5673599,0.229599-14.7693558,2.0875473-20.0821838c0,0-0.9394226,6.5444717-0.6575775,12.034729
					C69.359169,103.2516632,72.6470108,104.4206848,77.0622177,102.2705154z"/>
			</g>
			<g>
				<g>
					<path class="st15" d="M46.8437157,58.6400681c0,0-2.4850845,0.3507118-2.6490288,1.8919907
						c-0.2063217,1.9396744,1.8637581,5.6103897,9.1327591,5.9000549c7.2133522,0.2874451,7.3370094-4.1687126,6.1806755-5.3881531
						c-0.9833717-1.0370445-2.3307228-2.2991257-6.2228241-2.091423
						C49.3931999,59.160244,46.8437157,58.6400681,46.8437157,58.6400681z"/>
				</g>
				<g>
					<g>
						<g>
							<path class="st12" d="M57.3547897,64.2073669c-2.9669495,1.5221329-6.7677345,1.0628281-9.5708466-0.7399673
								c-0.2528839-0.1684799-0.5055809-0.3472061-0.7376556-0.535862
								c-0.2924881-0.2408981-0.5539169-0.5017204-0.7634239-0.8025246c-0.3789062-0.5497398-0.6119652-1.2400932-0.48703-1.9034042
								c0.1600838-0.9083443,0.8893089-1.5809975,1.4454765-2.3079681c1.1963882-1.575325,1.1860504-3.7873611,0.7406921-5.7308731
								l2.221508,0.5837021l4.8420982,1.7380066c-0.0510063,0.5418015-0.0610237,1.0842972-0.0401154,1.6171761
								c0.0045776,0.3072701,0.0297699,0.6047287,0.0650864,0.9125671c0.2461357,2.1958885,1.9729118,2.9547653,3.2606812,4.7500801
								C58.7608337,62.3696632,58.5540924,63.5843925,57.3547897,64.2073669z"/>
						</g>
						<g>
							<path class="st13" d="M55.0054932,56.1256523c-1.0994606,0.2050095-2.2354927,0.1737823-3.3262558-0.0921021
								c-0.611702-0.1444206-1.2939949-0.3515778-1.8324814-0.0236511
								c-0.5798492,0.3477287-0.6761246,1.1241913-0.9130783,1.7546806c-0.4203415,1.1390991-1.409256,2.0117035-1.819603,3.1612358
								c-0.2268944,0.6409264-0.2399406,1.3472404-0.0677872,2.005722
								c-0.2924881-0.2408981-0.5539169-0.5017204-0.7634239-0.8025246c-0.3789062-0.5497398-0.6119652-1.2400932-0.48703-1.9034042
								c0.1600838-0.9083443,0.8893089-1.5809975,1.4454765-2.3079681c1.1963882-1.575325,1.1860504-3.7873611,0.7406921-5.7308731
								l2.221508,0.5837021l4.8420982,1.7380066C54.9946022,55.0502777,54.9845848,55.5927734,55.0054932,56.1256523z"/>
						</g>
						<g>
							<g>
								<g>
									<g>
										<path class="st12" d="M58.6529579,54.3948174c-5.1506805,3.8365555-9.9563179-0.8970795-12.468483-4.2831917
											c-0.2494164-0.3312874-0.4782104-0.6513596-0.6764069-0.9495049
											c-0.0898247-0.1175919-0.169117-0.2347527-0.2384453-0.3411369
											c-0.6139526-0.9262619-0.9453773-1.5612068-0.9453773-1.5612068l0.729866-3.2628555l1.6699715-11.3779373
											c5.4543991-1.815197,11.0289116-0.2599373,13.715889,1.1701698
											C62.968605,36.2957802,64.468132,50.0575218,58.6529579,54.3948174z"/>
									</g>
									<g>
										<g>
											<path class="st14" d="M58.3484421,49.1746292c-0.2220993-0.0496483-0.4443512-0.1198044-0.6645546-0.2093773
												c-0.1562691-0.0638428-0.2301102-0.239933-0.1651039-0.3934174
												c0.0644264-0.153614,0.2410202-0.2303619,0.4005737-0.162178
												c0.4178848,0.1705017,0.8406258,0.2565689,1.2572784,0.2551651
												c0.0706215-0.000473,0.1395836-0.0308266,0.1887589-0.0842667
												c0.0277824-0.0299225,0.0722733-0.0922432,0.0643005-0.1795387
												c-0.0886726-0.9797401-0.3010864-1.9202995-0.6317368-2.7951508
												c-0.0583229-0.1557579,0.0222206-0.3286552,0.1809502-0.3865128
												c0.1574249-0.0575485,0.3334579,0.0215492,0.393528,0.1777c0.3485489,0.9246178,0.5733948,1.9173355,0.6669807,2.9499664
												c0.0212173,0.2311707-0.059639,0.4636154-0.2209282,0.6383324
												c-0.1648636,0.1769295-0.3977547,0.2796364-0.6396408,0.2809677
												C58.9027252,49.2672234,58.6253395,49.2365303,58.3484421,49.1746292z"/>
										</g>
									</g>
									<g>
										<g>
											<path class="st0" d="M59.3860283,50.3924026c-0.1398468,0.3152428-0.2882805,0.5783691-0.4439011,0.7687073
												c-0.8822517,1.1545067-1.9665413,0.3745766-2.6002388-0.5835304c0,0,0,0-0.0100937-0.0107841
												c-0.2371178-0.3721771-0.4102745-0.7624512-0.4912643-1.0867958
												C56.9672699,50.2513123,58.4318733,50.518795,59.3860283,50.3924026z"/>
										</g>
										<g>
											
												<ellipse transform="matrix(0.9991876 -0.0403014 0.0403014 0.9991876 -1.7543885 2.4885864)" class="st11" cx="60.8471413" cy="44.7583351" rx="0.5431353" ry="0.9336256"/>
										</g>
										<g>
											
												<ellipse transform="matrix(0.9991796 -0.0404978 0.0404978 0.9991796 -1.7521944 2.3040113)" class="st11" cx="55.9928474" cy="44.4006844" rx="0.5865843" ry="0.9336257"/>
										</g>
										<g>
											<path class="st11" d="M60.2664909,42.234108c-0.176281-0.0468521-0.1519203-0.7842827,0.0071983-0.9385567
												c0.451088-0.4373627,1.6832352,0.7648506,1.960331,1.2880402
												c0.0680084,0.1284103,0.2991028,0.7299576,0.0542336,0.5767632
												C61.7404861,42.8176613,61.1294975,42.4634705,60.2664909,42.234108z"/>
										</g>
										<g>
											<path class="st11" d="M56.9783669,42.1707077c0.3157845-0.0075836,0.4626846-0.8182945,0.227993-1.0259476
												c-0.6653366-0.5886803-3.096611,0.4188461-3.7081375,0.9213142
												c-0.1500931,0.1233215-0.7024117,0.7226562-0.2411919,0.6159744
												C54.2887764,42.4434013,55.4324036,42.2078247,56.9783669,42.1707077z"/>
										</g>
									</g>
									<g>
										<path class="st13" d="M51.8264961,51.1973534c-1.0042686,0.0884247-1.9140244-0.8148918-2.0348206-2.0093803
											c-0.1076431-1.1939545,0.6208687-2.2375717,1.6256828-2.3389206
											c1.0174294-0.0879669,1.9141083,0.8148155,2.0349007,2.0093842
											C53.5599022,50.0523911,52.8313103,51.0960045,51.8264961,51.1973534z"/>
									</g>
									<g>
										<path class="st14" d="M45.5080681,49.1621208c-0.0898247-0.1175919-0.169117-0.2347527-0.2384453-0.3411369
											c-0.6139526-0.9262619-0.9453773-1.5612068-0.9453773-1.5612068l0.729866-3.2628555
											c0.3856697,0.3472672,1.2180634,0.3589134,1.3700294,0.9272842
											C46.9418106,46.8603439,46.4178848,48.3505516,45.5080681,49.1621208z"/>
									</g>
								</g>
							</g>
						</g>
					</g>
				</g>
				<g>
					<g>
						<path class="st10" d="M62.5046005,40.1373482c-0.5565758-2.9193039-2.4860535-5.5013695-5.0526848-6.9617958
							c0,0-0.0478554,1.3947868-0.3353844,2.2573051c0.0110703,0,0,0.0110703,0,0.0110703
							c-0.409153,1.2053909-1.9350319,3.0931282-5.3861618,4.1690331c-5.0827866,1.5845795-5.4201202,4.9553032-5.4201202,4.9553032
							l-4.0573349,1.7779732c0,0-7.1326714-7.8846321-2.8530159-15.2495575
							c0.0220718-0.0442104,0.0442085-0.088419,0.0773506-0.1216259c3.9589195-6.6681728,12.2748489-7.2653694,17.7266273-4.2021732
							C62.9873924,30.0240479,63.577301,36.7092056,62.5046005,40.1373482z"/>
					</g>
					<g>
						<g>
							<path class="st12" d="M46.5270233,45.1410027c0.206913,1.8682327-0.8194504,3.5212708-2.2749825,3.682476
								c-1.4663391,0.1623993-2.8295517-1.2259827-3.0364647-3.0942192
								c-0.2069206-1.8683014,0.8206558-3.5103989,2.2869949-3.6727982
								C44.9580994,41.895256,46.3201027,43.2727013,46.5270233,45.1410027z"/>
						</g>
						<g>
							<g>
								<path class="st14" d="M43.8716774,47.0641441c-0.0710869-0.0116081-0.1412163-0.0290947-0.2097054-0.052948
									c-0.4196358-0.1451416-0.7705193-0.5155067-0.9150696-0.9673805
									c-0.1305122-0.4085617-0.1033516-0.8740082,0.0763817-1.3097115
									c0.1048698-0.2543068,0.2447624-0.4534302,0.4158707-0.5925674c0.2191315-0.1783409,0.4875603-0.2448845,0.745945-0.2093163
									c0.0989075,0.0185661,0.1641045,0.1142616,0.145443,0.2137566
									c-0.0183754,0.0977325-0.1115341,0.1621361-0.2090607,0.1462097
									c-0.0028419-0.0010681-0.0089073-0.0008545-0.0146866-0.0023994
									c-0.1410027-0.0230293-0.3035927,0.0270195-0.4365349,0.1355934
									c-0.1237679,0.1004257-0.2274094,0.2511826-0.3090744,0.4483566
									c-0.1468163,0.3560295-0.1702576,0.7322121-0.0654564,1.0581589
									c0.1096535,0.3442345,0.3725586,0.6254349,0.6854935,0.7332458c0.3229523,0.116684,0.703167,0.0267792,0.9214249-0.2090073
									c0.0687561-0.073822,0.1846199-0.0778198,0.2585335-0.0096512c0.0739174,0.0681686,0.0785027,0.1841278,0.0096474,0.2585373
									C44.6999054,46.9973488,44.2782402,47.1305466,43.8716774,47.0641441z"/>
							</g>
						</g>
					</g>
					<g>
						<path class="st11" d="M42.2614021,33.508297c-0.9165344,1.8544922-1.6350632,3.8371429-1.853611,5.8941345
							c-0.6463585-3.2514267,1.3198395-7.5813751,3.6090202-9.9793606
							c-0.4037819,0.9886875-0.7678871,2.2078323-0.6345634,3.4608898c1.6428757-2.7359962,4.4518089-4.3347702,8.3804283-4.8415508
							c-2.2204704,0.4034081-4.9682541,2.2906132-6.503624,3.9445229s-2.1730919,2.6140347-2.9816513,5.0514202
							C42.0331879,35.9105911,42.0161858,34.7363091,42.2614021,33.508297z"/>
					</g>
					<g>
						<path class="st11" d="M44.6753578,39.6129608c0.0197411-0.841938,0.4067039-1.6566887,0.9273262-2.3276596
							c0.5194321-0.6843605,1.1901512-1.219265,1.8556862-1.71278c0.6761894-0.4857597,1.3574028-0.9273987,1.9700203-1.43993
							c0.6059647-0.514843,1.1330261-1.1353226,1.4398499-1.909832c-0.0703659,0.8427544-0.5493202,1.6194954-1.1316338,2.2328033
							c-0.5823479,0.6280441-1.2834854,1.0997925-1.9366837,1.5857544
							C46.4832535,36.9833107,45.1991844,38.008358,44.6753578,39.6129608z"/>
					</g>
				</g>
			</g>
		</g>
		<g>
			<g>
				<path class="st27" d="M63.8326111,107.9681168c0.0226364,0.2893295,0.0637894,1.2284241,0.0493126,2.0398331
					c-0.0045509,0.5807114-0.0326004,1.0824203-0.1246605,1.2666168c-0.2109337,0.4396973-0.7572632,0.7639008-1.1969147,0.552887
					c-0.2250748-0.1102524-0.384964-0.3334503-0.4658508-0.5801468c-0.0804443-0.2366943-0.0918274-0.49646-0.1027718-0.7462158
					c-0.0340805-0.5490265-0.1400261-2.9666824-0.1741066-3.5157623c-0.0065651-0.149826-0.002697-0.2901382,0.0319901-0.4117661
					c0.1136169-0.6055298,0.610878-0.9076004,1.3294144-0.7288437
					C63.9375,106.0216675,63.7867851,107.3795929,63.8326111,107.9681168z"/>
			</g>
			<g>
				<path class="st28" d="M63.8819237,110.0079498c-0.0045509,0.5807114-0.0326004,1.0824203-0.1246605,1.2666168
					c-0.2109337,0.4396973-0.7572632,0.7639008-1.1969147,0.552887c-0.2250748-0.1102524-0.384964-0.3334503-0.4658508-0.5801468
					c-0.0804443-0.2366943-0.0918274-0.49646-0.1027718-0.7462158c-0.0340805-0.5490265-0.1400261-2.9666824-0.1741066-3.5157623
					c-0.0065651-0.149826-0.002697-0.2901382,0.0319901-0.4117661c0.0494041,0.8987198,0.2391243,1.8012543,0.5664749,2.647728
					c0.1013222,0.2558212,0.2230263,0.5207672,0.4320374,0.7217789c0.2085762,0.1910706,0.5135307,0.2978287,0.7788544,0.1861343
					C63.7056046,110.0957031,63.793354,110.0418243,63.8819237,110.0079498z"/>
			</g>
		</g>
		<g>
			<g>
				<path class="st27" d="M48.5060349,107.7334824c-0.0053139,0.2901535-0.0547333,1.2288208-0.1472397,2.0350418
					c-0.0604172,0.5775528-0.1366234,1.0742111-0.2459869,1.2486877c-0.2522736,0.4173431-0.8272705,0.687439-1.2445755,0.4351044
					c-0.2134209-0.1314087-0.3510857-0.3689499-0.4078522-0.6222763c-0.0572929-0.2433319-0.0436211-0.5029755-0.0304794-0.7526169
					c0.0189209-0.549736,0.1461563-2.9662781,0.1650772-3.5160751c0.007885-0.1497498,0.0252419-0.2890396,0.0714722-0.4067612
					c0.1713676-0.5917587,0.6953964-0.8445587,1.3933983-0.5974731
					C48.7977753,105.8062363,48.5170631,107.1433029,48.5060349,107.7334824z"/>
			</g>
			<g>
				<path class="st28" d="M48.3587952,109.7685242c-0.0604172,0.5775528-0.1366234,1.0742111-0.2459869,1.2486877
					c-0.2522736,0.4173431-0.8272705,0.687439-1.2445755,0.4351044c-0.2134209-0.1314087-0.3510857-0.3689499-0.4078522-0.6222763
					c-0.0572929-0.2433319-0.0436211-0.5029755-0.0304794-0.7526169c0.0189209-0.549736,0.1461563-2.9662781,0.1650772-3.5160751
					c0.007885-0.1497498,0.0252419-0.2890396,0.0714722-0.4067612c-0.037323,0.8992691,0.0646515,1.8158493,0.3090172,2.6898651
					c0.0762329,0.2643814,0.1718674,0.5398026,0.3605652,0.7599869c0.1892204,0.2102509,0.4824867,0.3458633,0.757328,0.260231
					C48.1748466,109.8388901,48.2673798,109.7937164,48.3587952,109.7685242z"/>
			</g>
		</g>
		<g>
			<g>
				<path class="st27" d="M40.8185234,107.0141296c-0.0250092,0.2891312-0.1380844,1.2223053-0.2851448,2.020401
					c-0.099514,0.5721359-0.2092819,1.0624924-0.330246,1.2291336c-0.2800446,0.3992386-0.8720665,0.629631-1.2712669,0.3494949
					c-0.2040024-0.1456146-0.3252144-0.3919754-0.3646393-0.6485901c-0.0406342-0.2466736-0.0093575-0.5047989,0.0207176-0.7529831
					c0.056221-0.5471954,0.3473206-2.9496078,0.4035492-3.4968643c0.0180397-0.1488724,0.0448189-0.2866669,0.0989418-0.4009781
					c0.2111702-0.5787659,0.7511635-0.7953568,1.4307747-0.5013809
					C41.2405128,105.1110916,40.8696175,106.4260406,40.8185234,107.0141296z"/>
			</g>
			<g>
				<path class="st28" d="M40.5333786,109.0345306c-0.099514,0.5721359-0.2092819,1.0624924-0.330246,1.2291336
					c-0.2800446,0.3992386-0.8720665,0.629631-1.2712669,0.3494949c-0.2040024-0.1456146-0.3252144-0.3919754-0.3646393-0.6485901
					c-0.0406342-0.2466736-0.0093575-0.5047989,0.0207176-0.7529831c0.056221-0.5471954,0.3473206-2.9496078,0.4035492-3.4968643
					c0.0180397-0.1488724,0.0448189-0.2866669,0.0989418-0.4009781c-0.0983276,0.8946915-0.0588531,1.8161163,0.125576,2.7047729
					c0.058094,0.268959,0.1348038,0.5502548,0.3081093,0.7827682c0.1744995,0.222641,0.4578781,0.3778839,0.7379036,0.3111343
					C40.3450737,109.0922394,40.4404602,109.0534515,40.5333786,109.0345306z"/>
			</g>
		</g>
		<g>
			<path class="st15" d="M57.5856323,111.9835663h-2.7802734c-1.0166016,0-1.84375-0.8271484-1.84375-1.8427734V107.76091
				c0-1.0166016,0.8271484-1.84375,1.84375-1.84375h2.7802734c1.015625,0,1.8427734,0.8271484,1.8427734,1.84375v2.3798828
				C59.4284058,111.1564178,58.6012573,111.9835663,57.5856323,111.9835663z M54.8053589,106.91716
				c-0.4648438,0-0.84375,0.3789062-0.84375,0.84375v2.3798828c0,0.4648438,0.3789062,0.8427734,0.84375,0.8427734h2.7802734
				c0.4648438,0,0.8427734-0.3779297,0.8427734-0.8427734V107.76091c0-0.4648438-0.3779297-0.84375-0.8427734-0.84375H54.8053589z"
				/>
		</g>
		<g>
			<path class="st15" d="M60.1188354,109.4503632H56.494812c-0.2763672,0-0.5-0.2236328-0.5-0.5s0.2236328-0.5,0.5-0.5h3.6240234
				c0.2763672,0,0.5,0.2236328,0.5,0.5S60.3952026,109.4503632,60.1188354,109.4503632z"/>
		</g>
	</g>
	<g>
		<g>
			<polygon class="st3" points="224.9968262,24.9980602 214.38591,49.1413269 194.5461273,33.9552116 			"/>
		</g>
		<g>
			<polygon class="st4" points="224.9968262,24.9980602 204.9252319,41.907402 201.6718597,49.1116066 201.5348206,39.2997284 			
				"/>
		</g>
		<g>
			<polygon class="st2" points="208.7018433,44.7956772 201.6789856,49.1134529 204.9252319,41.907402 			"/>
		</g>
	</g>
	<g>
		<g>
			<path class="st16" d="M189.4584808,204.9919891c-0.0315704-0.1882782-0.0595856-0.3774414-0.0836945-0.5675812
				c-0.3494263-2.7562714,1.0627289-5.1046143,3.4953918-6.421524c1.75383-0.9494171,3.769577-1.2891541,5.7548523-1.4786682
				c2.8110962-0.2683411,5.7045593-0.2552185,8.3870239,0.6272125c2.5462646,0.8376312,4.9778595,2.6776123,5.582077,5.2891235
				c0.3677979,1.5896759,0.0197144,3.2525787-0.4190979,4.8241425c-0.617157,2.2103119-1.4133911,4.3657532-2.1327972,6.5449219
				c-0.3933868,1.1916199-0.7884521,2.4338226-1.6442413,3.3516083c-0.8624115,0.924881-2.1087036,1.4138489-3.3583221,1.6077271
				s-2.5228424,0.1207581-3.7868958,0.0848999c-1.3991699-0.0396881-2.8114166-0.0343475-4.1793518-0.3309021
				c-1.3679504-0.2965546-2.7132721-0.9303589-3.5819855-2.0278778c-0.7944794-1.0037384-1.1183472-2.2871857-1.5030975-3.5081177
				C191.1503143,210.3276215,189.9219208,207.7557373,189.4584808,204.9919891z"/>
		</g>
		<g>
			<path class="st11" d="M207.91008,200.0687561c0,0.9933624-1.9868164,1.8315582-4.7310638,2.1233368
				c-0.4345703,0.0496826-0.8815765,0.080719-1.3472137,0.0993347c-0.2608032,0.0124207-0.5278015,0.018631-0.8009491,0.018631
				h-0.0248566c-0.3538513,0-0.695282-0.0062103-1.0367889-0.0248108c-0.3663635-0.0186462-0.7325745-0.0434723-1.0802917-0.080719
				c-2.7752533-0.2918243-4.7868347-1.1424103-4.7868347-2.1357727c0-0.9499359,1.8066559-1.7570496,4.3584747-2.0861359
				c0.4594269-0.0558472,0.9436493-0.0993195,1.4465027-0.1241302c0.1925049-0.0124359,0.3850098-0.0186462,0.5836487-0.0248718
				c0.1738586-0.0062103,0.3414307-0.0062103,0.5152893-0.0062103c0.3352966,0,0.670578,0.0062103,0.9934387,0.0248566
				c0.2358551,0.0124359,0.4656525,0.024826,0.6891479,0.0434723c0.509079,0.0372467,0.999588,0.0993195,1.4528046,0.1738129
				C206.3765564,198.4420929,207.91008,199.1933136,207.91008,200.0687561z"/>
		</g>
		<g>
			<g>
				<g>
					<path class="st29" d="M198.0853119,172.6524048c0.3862457,0.7963257,0.7404785,1.6016846,1.052597,2.4328308
						c0.5672607,1.4898834,1.0030365,3.0596771,0.956665,4.6568146c-0.0414124,1.5948334-0.6091156,3.2256317-1.7961121,4.2964172
						c-1.514267,1.363327-3.8440094,1.5948334-5.7597809,0.8834076c-1.9133453-0.7065277-3.4378204-2.2295532-4.5320892-3.9547272
						c-3.5456696-5.6193085-5.0639038-13-5.8187866-19.5140991c-0.1587982-1.4041748-0.6969757-4.7848663,0.9446564-5.6588287
						c0.8516541-0.44841,1.8719177,0.1043243,2.6347961,0.6874847c3.212677,2.4440155,5.6845551,5.7007904,7.967392,8.9921265
						C195.3303528,167.7782135,196.8685608,170.1397858,198.0853119,172.6524048z"/>
				</g>
				<g>
					<path class="st30" d="M201.0308533,202.3100586h-0.0248566c-0.7387848,0-1.446579-0.0372467-2.1170807-0.1055298
						c0.0248566-0.2980347,0.0992737-0.6146545,0.086853-0.8816528c-0.0372162-0.918869-0.2980042-1.812912-0.4221497-2.7255554
						c-0.0310822-0.204895-0.0558624-0.4098053-0.0930634-0.6147003c-0.1552277-1.1175385-0.3352966-2.2288666-0.5340118-3.3340302
						c-0.4718628-2.626236-1.0616608-5.2338715-1.757019-7.8104401c-1.3908081-5.1469727-3.2285309-10.1821747-5.4759827-15.018692
						c-1.1051636-2.3716888-2.3096771-4.6937256-3.607254-6.966095c4.1101074,5.9354401,6.8046417,11.8088379,9.0832367,18.2037201
						c1.7073669,4.7992554,2.8062439,9.7910309,3.7375336,14.8014069c0.0310669,0.1365662,0.0559387,0.2731781,0.0807953,0.4097443
						c0.2172852,1.2106934,0.4345703,2.4337769,0.9002228,3.5761871
						C200.9440002,201.9934235,200.9997864,202.1548462,201.0308533,202.3100586z"/>
				</g>
			</g>
			<g>
				<g>
					<path class="st29" d="M207.9691162,156.3281097c0.1485291,0.8724976,0.2637939,1.7447357,0.3314209,2.6299744
						c0.1286926,1.5890198,0.1088104,3.2180481-0.3816833,4.7387085c-0.4850769,1.5198364-1.4855499,2.9272614-2.9243317,3.6240082
						c-1.8347015,0.886261-4.1363983,0.4580383-5.7773285-0.760025c-1.6399536-1.2126923-2.6785431-3.1008148-3.2475586-5.062912
						c-1.8356018-6.3858643-1.2325897-13.8969116-0.1385651-20.3627014
						c0.2396088-1.3926544,0.6668091-4.7891541,2.4871674-5.1699524c0.9429932-0.1927795,1.7683258,0.6228638,2.338028,1.3958282
						c2.4024658,3.2438812,3.8666534,7.0613403,5.1396637,10.8591919
						C206.6847229,150.8785248,207.5023499,153.5756836,207.9691162,156.3281097z"/>
				</g>
				<g>
					<path class="st30" d="M202.3098755,192.9908905c-0.0869293,0.9499512-0.223587,2.992569-0.3104401,4.8613739
						c-0.0621338,1.3720856-0.0931396,2.6572876-0.0497131,3.3402557c0.0186462,0.3600769,0.0310822,0.8009033-0.1179199,1.0989075
						c-0.2608032,0.0124207-0.5278015,0.018631-0.8009491,0.018631h-0.0248566c-0.3538513,0-0.695282-0.0062103-1.0367889-0.0248108
						c-0.4656525-0.5898285,0.1490021-1.5583801,0.2980042-2.3220673c0.0807037-0.4097443,0.1552124-1.2106476,0.2234955-2.1295624
						c0.1304321-1.7818604,0.2421417-4.0231781,0.3414307-4.8240814c0.2235718-1.7818756,0.4223022-3.5575714,0.5898743-5.339447
						c0.3352814-3.5637512,0.5525665-7.1337128,0.6580658-10.697464c0.2111511-7.1275024-0.0372162-14.2177887-0.7450104-21.1838684
						c-0.3477173-3.4085236-0.8009338-6.7922363-1.3720703-10.1262817
						c2.1667938,8.9280243,2.9925995,17.3655396,3.2595215,26.3742828
						C203.4274597,178.9779968,202.9493866,185.9999695,202.3098755,192.9908905z"/>
				</g>
			</g>
			<g>
				<g>
					<path class="st29" d="M207.357605,173.1394196c-0.4747162,0.7469635-0.9186554,1.5065613-1.3237152,2.2966003
						c-0.7337952,1.4152985-1.3460999,2.9250031-1.4825439,4.516983c-0.141098,1.5891113,0.2365112,3.2741089,1.2933807,4.4735413
						c1.3485565,1.5274353,3.6365814,2.0236664,5.621109,1.5358429c1.9815369-0.4832458,3.6700745-1.8220825,4.9543152-3.4108887
						c4.1645966-5.1773071,6.5162964-12.3361511,8.0106354-18.7213135c0.318222-1.3768311,1.2391815-4.6738739-0.2918243-5.7297058
						c-0.7948303-0.5428162-1.8715668-0.1102905-2.6960907,0.3818512c-3.470932,2.0608673-6.2987823,5.0138245-8.9427795,8.0227203
						C210.6515045,168.6119843,208.8535004,170.7823029,207.357605,173.1394196z"/>
				</g>
				<g>
					<path class="st30" d="M219.1724701,166.6476593c-1.5459442,2.1047363-3.0111694,4.2777557-4.3770447,6.5066376
						c-2.787735,4.5509491-5.1841888,9.3378143-7.1585693,14.2985077c-0.9871521,2.4772339-1.8625946,4.9979401-2.6386719,7.5558929
						c-0.3042145,1.0120239-0.589859,2.0302429-0.8567963,3.0608521c-0.0744934,0.2608032-0.1427765,0.527771-0.2110748,0.7947235
						c-0.2297058,0.8878326-0.589859,1.7446289-0.7326508,2.6572876c-0.0310669,0.1986694-0.0186462,0.4346008-0.0186462,0.6705322
						c-0.676712,0.0745087-1.3969421,0.1179657-2.1481628,0.1179657c0.0435028-0.1676331,0.1241455-0.3414612,0.2111511-0.4904633
						c0.5835724-1.0803375,0.9437256-2.2723846,1.2975159-3.445816c0.0497131-0.1613922,0.0994263-0.3166199,0.1490631-0.4780426
						c1.490097-4.8427277,3.1477509-9.6544189,5.3829193-14.1991425
						C211.0702515,177.5997009,214.4167175,172.0740051,219.1724701,166.6476593z"/>
				</g>
			</g>
		</g>
	</g>
	<g>
		<g>
			<path class="st7" d="M128.9799957,24.9980602H96.3959579c-2.4989166,0-4.5373154,2.0308437-4.5373154,4.5297585v15.6372776
				c0,2.5064735,2.0383987,4.5373154,4.5373154,4.5373154h2.7102737l-0.7096634,6.5530434l6.8626022-6.5530434h23.7208252
				c2.5064697,0,4.5373077-2.0308418,4.5373077-4.5373154V29.5278187
				C133.5173035,27.028904,131.4864655,24.9980602,128.9799957,24.9980602z"/>
		</g>
		<g>
			<path class="st24" d="M129.0555115,40.7410431c-3.193512,3.4727974-7.5042953,5.7603455-11.996315,7.2174149
				c-2.310173,0.7474022-4.6732025,1.2985535-7.0588989,1.7439537h18.9796982c2.5064697,0,4.5373077-2.0308418,4.5373077-4.5373154
				V32.1797829C132.8906708,35.3506241,131.2599792,38.3553925,129.0555115,40.7410431z"/>
		</g>
		<g>
			<path class="st8" d="M131.175354,27.3939991c-2.8041382,2.3681946-5.7178345,4.5722351-8.6699829,6.7185345
				c-1.4658203,1.088623-2.9713135,2.1176453-4.4581299,3.1746826l-2.2576904,1.5445251
				c-0.84021,0.6045532-1.984436,1.0251465-3.1016235,1.0214539c-1.1174927,0.0060425-2.2619629-0.4164429-3.1022339-1.0205688
				l-2.258606-1.5431519c-1.4859619-1.0583496-2.992981-2.0851135-4.458252-3.174469
				c-2.9525146-2.1458111-5.8656006-4.3507366-8.668396-6.7210064c3.2648315,1.6776428,6.4193726,3.5206299,9.5344849,5.4227276
				c1.5685425,0.9346008,3.0953369,1.9317932,4.6431885,2.8973999l2.2921143,1.4927979
				c0.6502075,0.4438171,1.3056641,0.6455383,2.0177002,0.6474609c0.7122803,0.0004272,1.367981-0.203186,2.0182495-0.6465759
				l2.2930908-1.4914246c1.546936-0.9669189,3.0751953-1.961853,4.6432495-2.8971863
				C124.7579346,30.9175892,127.9119263,29.0737171,131.175354,27.3939991z"/>
		</g>
		<g>
			<path class="st8" d="M108.0973511,36.5082245l-0.7687378,0.5259399
				c-1.4868164,1.0570679-2.9923706,2.0861206-4.4581299,3.1747437c-2.9522095,2.1463013-5.8658447,4.3503418-8.6699829,6.7185059
				c3.2634277-1.6796875,6.4174194-3.5235596,9.5328369-5.4252319c1.5679932-0.9353027,3.0963135-1.9302368,4.6432495-2.8971558
				l0.9470215-0.6159668C108.8116455,37.5794525,108.4024658,37.0738983,108.0973511,36.5082245z"/>
		</g>
		<g>
			<path class="st8" d="M122.507019,40.2063446c-1.465271-1.0893555-2.9723511-2.1160889-4.458313-3.1744385l-0.9957886-0.6804199
				c-0.2877197,0.5778809-0.6792603,1.098938-1.1746826,1.5267334l1.1195068,0.7290649
				c1.5478516,0.9655762,3.074646,1.9627686,4.6431274,2.8973999c3.1151123,1.9020996,6.2696533,3.7450562,9.5344849,5.4227295
				C128.3726196,44.5571136,125.4595337,42.3522186,122.507019,40.2063446z"/>
		</g>
	</g>
	<g>
		<g>
			<g>
				<path class="st8" d="M163.8469086,125.0716629v23.6092453c0,3.5589447-2.8851013,6.444046-6.4440613,6.444046h-46.085022
					c-3.55896,0-6.4440613-2.8851013-6.4440613-6.444046V125.072876c0-2.9261703,1.3200912-5.6961746,3.5929184-7.5391922
					l21.9716873-17.8166122c2.2895355-1.8565674,5.566391-1.8562317,7.8555603,0.0008011l21.9615936,17.8158493
					C162.5274353,119.3767624,163.8469086,122.1461868,163.8469086,125.0716629z"/>
			</g>
			<g>
				<path class="st0" d="M155.094696,106.42836v39.2745514h-41.4687119V99.0858383
					c0-1.7406082,1.4218903-3.1625824,3.1625061-3.1625824h27.8010941c0.1961823,0,0.3922729,0.0122757,0.5761719,0.0490799
					c0.8457947,0.122551,1.6180573,0.5148163,2.230957,1.115448c2.4025269,2.4147873,4.1309357,4.1309357,6.5335236,6.5457993
					c0.6128998,0.6006241,0.9929047,1.3850784,1.115448,2.218689
					C155.082428,106.0483627,155.094696,106.2322693,155.094696,106.42836z"/>
			</g>
			<g>
				<g>
					<path class="st18" d="M142.885437,126.7443085h-0.5986328c-0.5527344,0-1-0.4472656-1-1s0.4472656-1,1-1h0.5986328
						c0.5527344,0,1,0.4472656,1,1S143.4381714,126.7443085,142.885437,126.7443085z"/>
				</g>
				<g>
					<path class="st18" d="M137.8766479,126.7443085h-17.2509766c-0.5527344,0-1-0.4472656-1-1s0.4472656-1,1-1h17.2509766
						c0.5527344,0,1,0.4472656,1,1S138.4293823,126.7443085,137.8766479,126.7443085z"/>
				</g>
				<g>
					<path class="st18" d="M148.0944214,121.0392303h-27.46875c-0.5527344,0-1-0.4472656-1-1s0.4472656-1,1-1h27.46875
						c0.5527344,0,1,0.4472656,1,1S148.6471558,121.0392303,148.0944214,121.0392303z"/>
				</g>
				<g>
					<g>
						<path class="st18" d="M163.8473511,164.9034882h-49.6328125c-0.5527344,0-1-0.4472656-1-1s0.4472656-1,1-1h49.6328125
							c0.5527344,0,1,0.4472656,1,1S164.4000854,164.9034882,163.8473511,164.9034882z"/>
					</g>
					<g>
						<path class="st18" d="M163.8473511,172.9054413h-15.0517578c-0.5527344,0-1-0.4472656-1-1s0.4472656-1,1-1h15.0517578
							c0.5527344,0,1,0.4472656,1,1S164.4000854,172.9054413,163.8473511,172.9054413z"/>
					</g>
					<g>
						<path class="st18" d="M141.8961792,172.9054413h-37.0234375c-0.5527344,0-1-0.4472656-1-1s0.4472656-1,1-1h37.0234375
							c0.5527344,0,1,0.4472656,1,1S142.4489136,172.9054413,141.8961792,172.9054413z"/>
					</g>
					<g>
						<path class="st18" d="M129.0612183,180.9073944h-0.7548828c-0.5527344,0-1-0.4472656-1-1s0.4472656-1,1-1h0.7548828
							c0.5527344,0,1,0.4472656,1,1S129.6139526,180.9073944,129.0612183,180.9073944z"/>
					</g>
					<g>
						<path class="st18" d="M122.1071167,180.9073944h-17.234375c-0.5527344,0-1-0.4472656-1-1s0.4472656-1,1-1h17.234375
							c0.5527344,0,1,0.4472656,1,1S122.6598511,180.9073944,122.1071167,180.9073944z"/>
					</g>
				</g>
				<g>
					<path class="st18" d="M148.0944214,115.3341522h-13.0429688c-0.5527344,0-1-0.4472656-1-1s0.4472656-1,1-1h13.0429688
						c0.5527344,0,1,0.4472656,1,1S148.6471558,115.3341522,148.0944214,115.3341522z"/>
				</g>
				<g>
					<path class="st18" d="M130.557312,115.3341522h-9.9316406c-0.5527344,0-1-0.4472656-1-1s0.4472656-1,1-1h9.9316406
						c0.5527344,0,1,0.4472656,1,1S131.1100464,115.3341522,130.557312,115.3341522z"/>
				</g>
				<g>
					<path class="st18" d="M138.6569214,109.6280975h-18.03125c-0.5527344,0-1-0.4472656-1-1s0.4472656-1,1-1h18.03125
						c0.5527344,0,1,0.4472656,1,1S139.2096558,109.6280975,138.6569214,109.6280975z"/>
				</g>
				<g>
					<path class="st18" d="M138.6569214,103.9230194h-12.3896484c-0.5527344,0-1-0.4472656-1-1s0.4472656-1,1-1h12.3896484
						c0.5527344,0,1,0.4472656,1,1S139.2096558,103.9230194,138.6569214,103.9230194z"/>
				</g>
			</g>
			<g>
				<path class="st7" d="M163.8469086,125.0684357v23.6088867c0,3.5670471-2.8806,6.4476318-6.4477081,6.4476318h-46.0777206
					c-3.5671158,0-6.4477158-2.8805847-6.4477158-6.4476318v-23.6088867c0-1.2380676,0.2451782-2.4393311,0.6864471-3.5548477
					l22.4075546,15.2857437l2.096138,1.4218903l0.3922729,0.2697144c2.3535004,1.6058044,5.4548187,1.6058044,7.8083191,0
					l0.3922729-0.2697144l2.0961456-1.4218903l22.407547-15.2857437
					C163.6017303,122.6291046,163.8469086,123.830368,163.8469086,125.0684357z"/>
			</g>
			<g>
				<path class="st18" d="M155.094696,127.0051422l-16.8302002,11.4857941c-2.3535004,1.6058044-5.4548187,1.6058044-7.8083191,0
					l-16.8301926-11.4857941l16.8301926,9.3406525c2.3535004,1.2993469,5.4548187,1.2993469,7.8083191,0L155.094696,127.0051422z"/>
			</g>
			<g>
				<path class="st1" d="M155.0456848,105.852272h-8.5396729c-0.7402039,0-1.3402557-0.6000519-1.3402557-1.3402634v-8.5396729
					c0.8457947,0.122551,1.6180573,0.5148163,2.230957,1.115448c2.4025269,2.4147873,4.1309357,4.1309357,6.5335236,6.5457993
					C154.5431366,104.2342072,154.9231415,105.0186615,155.0456848,105.852272z"/>
			</g>
		</g>
		<g>
			<path class="st8" d="M127.9677658,136.7993317l2.096138,1.4218903l-1.8754272,1.2257996
				c-2.1819611,1.3728943-4.3271027,2.7825928-6.5335312,4.1063995c-4.3761063,2.7090454-8.8012238,5.3445435-13.3612289,7.7715912
				c3.9961166-3.2728577,8.1270523-6.3496246,12.3070602-9.3528442c2.0716019-1.5199738,4.204483-2.9664154,6.3005524-4.4496613
				L127.9677658,136.7993317z"/>
		</g>
		<g>
			<path class="st8" d="M160.4269562,151.3250122c-4.5600128-2.4270477-8.9851227-5.0625458-13.3612366-7.7593231
				c-2.2064209-1.3360748-4.3515625-2.7457733-6.5335236-4.1186676l-1.8754272-1.2257996l2.0961456-1.4218903l1.0664368,0.723175
				c2.1083374,1.4832458,4.2289429,2.9296875,6.3005371,4.4496613
				C152.2999115,144.9753876,156.4308472,148.0521545,160.4269562,151.3250122z"/>
		</g>
	</g>
	<g>
		<g>
			<path class="st5" d="M141.5011292,199.4834747c-2.9163055,3.9425049-8.4808502,4.7750549-12.4233551,1.8587494
				s-4.7691956-8.4765015-1.85289-12.4190063c2.9163055-3.9425201,8.4663086-4.7676849,12.4088287-1.8513794
				C143.5762177,189.9881439,144.41745,195.5409698,141.5011292,199.4834747z"/>
		</g>
		<g>
			<polygon class="st15" points="132.6452026,198.0128632 129.5514526,194.5070038 130.6764526,193.5148163 
				132.7780151,195.8956757 138.2672729,191.0509491 139.2594604,192.1759491 			"/>
		</g>
	</g>
</g>
</svg>
