<svg xmlns="http://www.w3.org/2000/svg" xml:space="preserve" id="Layer_1" x="0" y="0" viewBox="0 0 250 250"><style>.st0{fill:#eff4f9}.st1{fill:#c9d5e0}.st7{fill:#ffd176}.st8{fill:#efb024}.st10{fill:#3c464e}.st11{fill:#2e383f}.st12{fill:#ffbda6}.st13{fill:#f99680}.st14{fill:#d3766c}.st15{fill:#fff}.st16{fill:#4d575f}.st17{fill:#737b7f}.st18{fill:#e0e7ef}.st19{fill:#ff7171}.st20{fill:#fe4c40}.st23{fill:#ed3430}.st24{fill:#ffc536}.st25{fill:#b46f5b}.st26{fill:#8e4c3d}.st27{fill:#c78371}.st28{fill:#a55f4b}.st29{fill:#34d67d}.st30{fill:#0baa53}</style><path d="M52.658 119.034c6.249 12.207 17.464 21.368 28.584 29.928a876 876 0 0 0 50.17 35.863c6.825 4.533 13.886 9.044 21.929 11.142 8.032 2.098 17.346 1.423 23.744-3.647 5.384-4.248 7.915-10.848 10.084-17.141a527 527 0 0 0 20.796-79.569c1.73-9.646 3.151-19.808-.352-29.01-4.049-10.637-14.217-18.365-25.315-22.581-7.274-2.762-15.018-4.228-22.762-5.24-6.217-.811-11.418-2.814-17.432-3.932-15.264-2.846-32.087-1.665-46.763 3.1C78.272 43.492 63.03 54.719 54.517 69.75c-8.502 15.054-9.741 33.944-1.859 49.283" class="st0"/><path d="M139.696 83.344c-.72 0-1.446-.494-1.807-1.229a3.4 3.4 0 0 1-.31-1.098.5.5 0 0 1 .992-.125c.039.312.11.567.215.781.216.438.68.74 1.033.658a.499.499 0 1 1 .213.977q-.166.036-.336.036m-1.615-5.887h-.023a.5.5 0 0 1-.476-.522c.067-1.491.2-2.813.408-4.04a.506.506 0 0 1 .576-.41.5.5 0 0 1 .41.577 32 32 0 0 0-.396 3.918.5.5 0 0 1-.5.477m1.43-7.837a.5.5 0 0 1-.466-.68c.521-1.35 1.197-2.563 2.01-3.608a.5.5 0 1 1 .79.613c-.754.968-1.381 2.097-1.867 3.355a.5.5 0 0 1-.467.32m4.853-6.196a.5.5 0 0 1-.282-.913c1.05-.717 2.273-1.357 3.634-1.9a.499.499 0 1 1 .372.93c-1.294.515-2.453 1.12-3.442 1.796a.5.5 0 0 1-.282.087m31.403-.548c-1.221 0-2.424-.102-3.572-.306a.5.5 0 0 1 .174-.984 19.7 19.7 0 0 0 3.884.284c.283.03.505.213.511.489a.5.5 0 0 1-.488.511q-.255.006-.509.006m4.467-.447a.5.5 0 0 1-.095-.99 30 30 0 0 0 3.796-1.02.499.499 0 1 1 .32.947 31 31 0 0 1-3.924 1.054.5.5 0 0 1-.097.01m-11.777-.988a.5.5 0 0 1-.2-.041 15.4 15.4 0 0 1-1.958-1.025 14 14 0 0 1-1.564-1.129.5.5 0 0 1 .64-.767c.46.383.949.736 1.45 1.046.577.357 1.193.68 1.83.958a.5.5 0 0 1-.198.958m-16.742-1.064a.5.5 0 0 1-.12-.985c1.254-.31 2.472-.556 3.934-.844a.5.5 0 1 1 .193.981c-1.448.286-2.654.529-3.887.833a.5.5 0 0 1-.12.015m36.098-.456a.5.5 0 0 1-.205-.956 64 64 0 0 0 3.564-1.748.5.5 0 1 1 .464.885 64 64 0 0 1-3.618 1.775.5.5 0 0 1-.205.044m-28.272-1.208a.5.5 0 0 1-.117-.986 33 33 0 0 0 2.888-.819q.439-.148.875-.316a.5.5 0 1 1 .36.934q-.456.175-.914.33c-.895.302-1.869.578-2.976.843a.5.5 0 0 1-.116.014m2.867-2.33a.5.5 0 0 1-.419-.228 12.5 12.5 0 0 1-1.67-3.795.501.501 0 0 1 .97-.243c.3 1.21.82 2.386 1.538 3.493a.5.5 0 0 1-.42.772m32.466-.214a.5.5 0 0 1-.269-.922 28 28 0 0 0 3.17-2.318.5.5 0 1 1 .65.76 29 29 0 0 1-3.283 2.402.5.5 0 0 1-.268.078m-27.945-.414a.5.5 0 0 1-.274-.918c1.14-.75 2.107-1.604 2.873-2.538a.501.501 0 0 1 .773.634c-.83 1.012-1.872 1.933-3.097 2.739a.5.5 0 0 1-.275.083m33.921-4.838a.501.501 0 0 1-.4-.8 12.8 12.8 0 0 0 1.836-3.366.5.5 0 0 1 .941.337 13.8 13.8 0 0 1-1.976 3.63.5.5 0 0 1-.4.2m-29.084-1.31a.5.5 0 0 1-.483-.626c.158-.61.24-1.224.24-1.827 0-.655-.097-1.272-.285-1.833a.5.5 0 0 1 .947-.319 6.7 6.7 0 0 1 .337 2.152 8.3 8.3 0 0 1-.272 2.08.5.5 0 0 1-.484.373m-11.173-.837a.5.5 0 0 1-.495-.575c.22-1.445.751-2.794 1.54-3.903a.5.5 0 0 1 .814.58c-.697.98-1.17 2.182-1.365 3.473a.5.5 0 0 1-.494.425m8.5-5.965a.5.5 0 0 1-.192-.038c-1.068-.443-2.395-.471-3.57-.089a.5.5 0 1 1-.31-.95c1.411-.46 2.968-.421 4.263.115a.5.5 0 0 1-.192.962" class="st11"/><ellipse cx="125" cy="219.162" class="st1" rx="100" ry="5.84"/><path d="M89.236 110.74v-9.547a2.06 2.06 0 0 1 2.06-2.06h.563v13.669h-.563a2.06 2.06 0 0 1-2.06-2.061m0 17.158v-9.548a2.06 2.06 0 0 1 2.06-2.06h.563v13.668h-.563a2.06 2.06 0 0 1-2.06-2.06m90.25-20.829v14.951a2.06 2.06 0 0 1-2.061 2.061h-.562V105.01h.562a2.06 2.06 0 0 1 2.06 2.06" class="st11"/><path d="M91.859 83.01v124.98a8.65 8.65 0 0 0 8.652 8.653h67.7a8.65 8.65 0 0 0 8.652-8.652V83.01a8.65 8.65 0 0 0-8.653-8.652h-67.699a8.65 8.65 0 0 0-8.652 8.652" class="st11"/><path d="M168.21 213.662a5.677 5.677 0 0 0 5.672-5.671V83.01a5.68 5.68 0 0 0-5.672-5.672h-67.699a5.68 5.68 0 0 0-5.672 5.672v124.98a5.68 5.68 0 0 0 5.672 5.672z" class="st15"/><path d="M122.722 83.4a3.61 3.61 0 0 0 3.612 3.61h16.053a3.611 3.611 0 1 0 0-7.223h-16.053a3.61 3.61 0 0 0-3.612 3.612" class="st11"/><path d="M123.692 209.807c0 .657.534 1.19 1.191 1.19h18.954a1.191 1.191 0 0 0 0-2.382h-18.954c-.657 0-1.19.534-1.19 1.192" class="st18"/><path d="M38.838 32.223s-2.583 3.76-2.087 12.552c.291 5.16.491 9.135-2.278 11.297s-3.8 6.139-.963 6.788c2.836.65 4.522 3.96 4.522 3.96l16.383-2.124 9.116-4.276s2.858-.701 1.811-3.363-2.833-1.82-3.503-8.408-23.001-16.426-23.001-16.426" class="st10"/><path d="M61.35 58.23c.043.541-.244 1.072-.658 1.422s-.944.541-1.475.669c-2.569.573-5.233-.425-7.865-.319-1.475.064-2.908.467-4.362.722-1.443.255-2.982.35-4.351-.18-1.38-.531-2.548-1.826-2.516-3.301.032-1.699 1.497-2.962 2.293-4.469.615-1.178.827-2.536.796-3.863-.032-1.327-.287-2.643-.531-3.948l16.345 5.9a8.45 8.45 0 0 0 1.507 5.764c.35.499.775.998.817 1.603" class="st11"/><path d="M70.361 102.062a5 5 0 0 1-1.117.74c-11.272 5.387-23.808-12.67-23.808-12.67l8.924-22.797.042-2.056.156-6.774s16.356 1.482 19.978 9.989c2.975 6.983 2.057 28.36-4.175 33.568" class="st19"/><path d="M72.48 79.474c-.083 1.764-.668 3.476-1.127 5.178-.877 3.287-1.44 7.275-1.388 11.606.01 1.89.135 3.831.396 5.804a5 5 0 0 1-1.117.74c-11.272 5.387-23.808-12.67-23.808-12.67l8.924-22.797.042-2.056 12.076 4.875c3.747 1.732 6.18 5.51 6.002 9.32" class="st23"/><path d="M82.978 208.531c-.337-.326-.88-.307-1.344-.14a.25.25 0 1 1-.146-.478l.008-.002c.557-.14 1.293-.118 1.728.4a.165.165 0 0 1-.24.225zm-1.407-2.015c-.323-.312-.845-.292-1.292-.13a.25.25 0 1 1-.146-.479l.009-.002c.539-.134 1.253-.112 1.676.39a.165.165 0 0 1-.241.226z" class="st24"/><path d="M66.882 211.784c1.077 3.175 5.45 3.564 8.01 2.07 2.179-1.268 3.275-6.37 3.548-7.864.052-.261.07-.414.07-.414s-.063-.144-.163-.411c-.373-1.05-1.633-5.04-.893-9.187l-7.136.092-1.773.13s1.032 7.26-1.102 11.086c0 0-1.638 1.323-.561 4.498" class="st12"/><path d="M66.882 211.784c1.077 3.175 5.45 3.564 8.01 2.07 2.179-1.268 3.275-6.37 3.548-7.864.052-.261.07-.414.07-.414s-.063-.144-.163-.411L75 203.568c-1.341.152-1.865.35-3.086.638-.192.045-.396.091-.594.079-.842-.056-1.139-1.054-1.244-1.89-.136-1.099.325-2.29.394-3.396.068-1.076.133-2.473-.15-2.929l-1.774.13s1.032 7.26-1.102 11.086c0 0-1.638 1.323-.561 4.498" class="st13"/><path d="M86.331 212.466c-.324-.312-.845-.292-1.292-.13a.25.25 0 1 1-.146-.479l.009-.002c.539-.134 1.253-.112 1.675.39a.166.166 0 0 1-.24.226zm-1.675-1.952c-.323-.312-.845-.293-1.292-.13a.25.25 0 1 1-.146-.48l.009-.001c.539-.135 1.253-.113 1.676.39a.165.165 0 0 1-.241.226z" class="st24"/><path d="M67.147 212.852c.018-.153-.04-.577-.112-1.082l15.578-1.754c.42.595.884 1.166 1.497 1.817 2.27 2.376 4.702 3.52 6.571 6.176.328.845.487 2.906.292 3.58a1.46 1.46 0 0 1-.841.941c-.4.176-1.625.47-2.853.621-5.154.62-7.76-.768-12.384-1.341-1.715-.211-3.444-.42-5.174-.643-1.043-.13-2.2-.312-2.847-1.125-.596-.728-.762-2.871-.8-3.805-.066-1.674.855-1.719 1.073-3.385" class="st11"/><path d="M90.706 219.268c-.1.408-.429.757-.844.93-.384.182-1.612.48-2.842.62-.198.024-.386.047-.563.06-4.785.458-7.37-.844-11.824-1.403-.69-.074-1.38-.16-2.08-.255-1.025-.122-2.05-.244-3.085-.377-1.056-.133-2.217-.316-2.864-1.132-.584-.723-.555-1.695-.598-2.644-.053-1.67.09-3.54.287-5.213a43 43 0 0 1 .35-2.081c.127-.618.247-1.016.47-1.5.163-.356.577-.643.974-.596-.059.314-.666 3.422.55 3.761.052.01.083.02.136.03.02 0 .042.01.063.01l.01-.012c.512.025.85-.49 1.093-.995l.03-.094a1 1 0 0 0 .072-.147c1.001-2.487 3.429-4.44 6.157-4.944 1.292-.226 2.723-.15 3.797.587.684.451.636 1.516 1.201 2.48.107.186.214.362.31.528.01.031.032.062.043.083.01.031.031.041.032.062.693 1.15 1.3 2.019 2.337 3.122.687.722 1.396 1.434 2.074 2.166 1.618 1.67 3.186 3.414 4.473 5.255.266.383.44 1.018.24 1.699" class="st16"/><path d="M72.552 219.22c-1.024-.122-2.049-.244-3.084-.377-1.056-.133-2.217-.316-2.864-1.132-.584-.723-.555-1.695-.598-2.644-.053-1.67.09-3.54.287-5.213a43 43 0 0 1 .35-2.081c.127-.618.247-1.016.47-1.5.163-.356.577-.643.974-.596-.059.314-.666 3.422.55 3.761.052.01.083.02.136.03.02 0 .042.01.063.01l.01-.012c.512.025.85-.49 1.093-.995-.929 2.392-1.042 4.93-.01 7.193.612 1.359 1.525 2.558 2.623 3.556" class="st10"/><path d="M77.899 210.03c1.519 1.66 3.95 5.446 6.442 4.717 2.49-.741 1.654-2.428 1.654-2.428-.69-.732-1.392-1.45-2.081-2.17-1.03-1.104-1.645-1.968-2.331-3.124 0 0-.016-.023-.033-.059a1 1 0 0 1-.048-.082c-.29-.403-1.255-1.502-2.968-.973-2.06.655-2.141 2.458-.635 4.12" class="st17"/><path d="M80.073 215.125a.64.64 0 0 0 .844-.242.59.59 0 0 0-.236-.824.647.647 0 0 0-.864.247.59.59 0 0 0 .256.819" class="st11"/><path d="M80.584 214.44c.294.324.903.318 1.426.181a20 20 0 0 0 1.663-.503 11.5 11.5 0 0 0 1.588-.675c.25-.136.49-.287.696-.464.198-.176.367-.397.334-.599a.165.165 0 1 1 .327-.05c.054.409-.211.7-.427.909a4.3 4.3 0 0 1-.752.525c-.525.294-1.074.525-1.628.734-.556.207-1.116.39-1.689.55-.566.15-1.318.276-1.899-.263a.25.25 0 1 1 .356-.352z" class="st24"/><path d="M78.442 213.093c.254.133.58.04.72-.206a.504.504 0 0 0-.202-.702.55.55 0 0 0-.736.21.504.504 0 0 0 .218.698" class="st11"/><path d="M78.91 212.487c.293.325.902.319 1.425.182a20 20 0 0 0 1.663-.503 11.5 11.5 0 0 0 1.588-.676c.25-.135.49-.286.696-.463.198-.177.367-.398.334-.599a.165.165 0 1 1 .327-.05c.055.408-.21.7-.427.908a4.3 4.3 0 0 1-.752.526c-.525.294-1.074.525-1.628.734q-.831.31-1.688.55c-.567.15-1.32.276-1.9-.263a.25.25 0 1 1 .356-.352z" class="st24"/><path d="M76.528 211.23c.276.144.63.043.782-.225a.55.55 0 0 0-.219-.764.6.6 0 0 0-.801.23.55.55 0 0 0 .238.758" class="st11"/><path d="M77.019 210.584c.309.34.942.332 1.483.19a21 21 0 0 0 1.723-.522 12 12 0 0 0 1.644-.7c.259-.14.508-.297.722-.481.205-.184.381-.413.347-.626a.165.165 0 1 1 .327-.049c.056.419-.217.719-.44.934a4.5 4.5 0 0 1-.778.543c-.543.304-1.111.543-1.685.759q-.86.32-1.747.568c-.586.155-1.362.284-1.957-.27a.25.25 0 1 1 .355-.353z" class="st24"/><path d="M75.343 209.121c.268.14.612.042.76-.217a.53.53 0 0 0-.213-.742.583.583 0 0 0-.778.222.53.53 0 0 0 .231.737" class="st11"/><path d="M75.825 208.49c.294.324.902.318 1.425.181q.842-.216 1.663-.503a11.5 11.5 0 0 0 1.589-.675c.25-.136.49-.287.696-.464.197-.176.366-.397.333-.599a.165.165 0 1 1 .326-.054l.001.005c.055.408-.21.7-.426.908-.235.21-.491.376-.753.525-.525.294-1.074.525-1.628.734a21 21 0 0 1-1.688.55c-.567.15-1.319.276-1.9-.263a.25.25 0 1 1 .356-.352zm-16.832 1.656c-.343-.32-.886-.291-1.347-.116a.25.25 0 1 1-.154-.476l.008-.002c.554-.15 1.29-.14 1.735.37a.165.165 0 0 1-.237.23zm-1.442-1.99c-.329-.306-.85-.278-1.294-.108a.25.25 0 1 1-.154-.476l.008-.002c.537-.144 1.252-.134 1.683.36a.165.165 0 0 1-.237.231z" class="st24"/><path d="M42.956 213.679c1.132 3.156 5.512 3.469 8.044 1.93 2.157-1.305 3.164-6.427 3.411-7.924.048-.263.063-.416.063-.416s-.066-.142-.17-.408c-.392-1.042-1.721-5.011-1.053-9.17l-7.133.217-1.77.161s1.158 7.24-.91 11.104c0 0-1.615 1.35-.482 4.506" class="st12"/><path d="M42.956 213.679c1.132 3.156 5.512 3.469 8.044 1.93 2.157-1.305 3.164-6.427 3.411-7.924.048-.263.063-.416.063-.416s-.066-.142-.17-.408l-3.376-1.538c-1.338.175-1.858.382-3.074.692-.191.048-.394.098-.593.089-.843-.042-1.156-1.034-1.277-1.868-.154-1.096.286-2.296.336-3.402.048-1.077.09-2.475-.202-2.926l-1.77.161s1.158 7.24-.91 11.104c0 0-1.615 1.35-.482 4.506" class="st13"/><path d="M62.414 214.022c-.33-.306-.85-.277-1.294-.108a.25.25 0 1 1-.155-.476l.009-.002c.536-.144 1.251-.134 1.682.36a.165.165 0 0 1-.237.231zm-1.709-1.922c-.329-.307-.85-.278-1.294-.109a.25.25 0 1 1-.154-.476l.008-.002c.537-.143 1.252-.134 1.683.361a.165.165 0 0 1-.237.23z" class="st24"/><path d="M43.24 214.742c.015-.153-.05-.576-.131-1.08l15.544-2.025c.43.588.905 1.15 1.529 1.79 2.311 2.337 4.763 3.439 6.678 6.062.342.838.537 2.897.354 3.573a1.46 1.46 0 0 1-.824.957c-.397.182-1.62.482-2.842.67-4.288.66-7.773.144-12.523-.453-1.714-.215-6.684-1.112-7.933-2.3-.682-.649-.812-2.858-.866-3.79-.096-1.673.825-1.734 1.014-3.404" class="st11"/><path d="M42.784 219.613c.66.803 1.824.964 2.88 1.08 1.734.19 3.456.37 5.176.539 4.465.481 7.066 1.736 11.848 1.194.172-.01.365-.036.558-.061 1.226-.171 2.456-.482 2.836-.67.404-.18.728-.534.824-.95.188-.684.001-1.318-.266-1.688-1.324-1.826-2.922-3.535-4.57-5.18-.694-.72-1.41-1.423-2.113-2.129-1.055-1.087-1.675-1.942-2.39-3.085-.003-.023-.015-.033-.03-.054a1 1 0 0 1-.046-.086c-.102-.16-.206-.343-.322-.524-.575-.954-.552-2.02-1.245-2.46-1.087-.714-2.515-.77-3.8-.522-2.724.551-5.11 2.549-6.077 5.055-.226.572-.573 1.276-1.164 1.26l-.012.002c-.022.003-.047-.005-.07-.002-.046-.006-.083-.024-.13-.03-1.22-.314-.668-3.436-.617-3.755-.398-.04-.81.256-.958.622-.215.478-.335.887-.452 1.503a46 46 0 0 0-.306 2.085c-.174 1.675-.288 3.55-.197 5.224.053.941.041 1.913.643 2.632" class="st16"/><path d="M42.784 219.613c.66.803 1.8 1.066 2.838 1.29 1.82.394 3.724.735 5.542.99 4.653.65 6.742 1.075 11.524.533-4.197-.377-8.277-1.902-11.593-4.381-1.024-.768-2.04-1.641-3.314-1.845-.625-.103-1.252-.033-1.848-.175-1.205-.293-2.014-1.447-2.237-2.631-.105-.626-.04-1.243.1-1.856.126-.55.156-1.117.11-1.679-.083-.982.118-2.127.148-2.312-.398-.04-.81.256-.958.622-.215.478-.335.887-.452 1.503a46 46 0 0 0-.306 2.085c-.174 1.675-.288 3.55-.197 5.224.053.941.041 1.913.643 2.632" class="st10"/><path d="M53.94 211.734c1.548 1.633 4.045 5.376 6.524 4.604 2.477-.785 1.61-2.457 1.61-2.457-.702-.72-1.416-1.425-2.117-2.133-1.05-1.086-1.68-1.94-2.385-3.084 0 0-.016-.022-.034-.058a1 1 0 0 1-.05-.08c-.297-.399-1.281-1.481-2.984-.922-2.049.691-2.099 2.495-.564 4.13" class="st17"/><path d="M56.203 216.79c.3.15.68.034.84-.257a.59.59 0 0 0-.25-.82.647.647 0 0 0-.86.263.59.59 0 0 0 .27.813" class="st11"/><path d="M56.702 216.095c.3.32.908.303 1.429.157a20 20 0 0 0 1.654-.532 11.5 11.5 0 0 0 1.576-.703c.247-.14.485-.295.688-.475.195-.18.36-.404.323-.605a.165.165 0 1 1 .325-.06l.001.005c.062.407-.199.703-.41.915a4.3 4.3 0 0 1-.744.539c-.52.303-1.064.543-1.615.762q-.826.324-1.678.579c-.564.16-1.314.299-1.904-.23a.25.25 0 1 1 .35-.358z" class="st24"/><path d="M54.537 214.787c.256.128.58.03.716-.219a.504.504 0 0 0-.214-.698.55.55 0 0 0-.732.223.504.504 0 0 0 .23.694" class="st11"/><path d="M54.994 214.172c.3.32.908.303 1.428.158a20 20 0 0 0 1.654-.533 11.5 11.5 0 0 0 1.576-.703c.248-.14.486-.294.688-.475.195-.18.36-.404.323-.605a.165.165 0 1 1 .326-.06v.005c.062.407-.198.703-.41.915a4.3 4.3 0 0 1-.743.539 12 12 0 0 1-1.615.762q-.827.326-1.679.579c-.564.16-1.313.3-1.903-.23a.25.25 0 1 1 .35-.357z" class="st24"/><path d="M52.59 212.956c.279.14.631.033.78-.237a.55.55 0 0 0-.233-.76.6.6 0 0 0-.798.243.55.55 0 0 0 .251.754" class="st11"/><path d="M53.07 212.302c.315.335.948.316 1.487.164.576-.158 1.15-.344 1.713-.551a12 12 0 0 0 1.632-.73c.256-.144.503-.305.713-.492.202-.187.374-.42.336-.632a.166.166 0 1 1 .326-.055c.064.418-.204.723-.424.942a4.4 4.4 0 0 1-.768.556c-.538.314-1.101.562-1.67.788q-.856.335-1.738.599c-.583.165-1.357.307-1.962-.236a.25.25 0 1 1 .349-.359z" class="st24"/><path d="M51.37 210.87c.27.135.612.03.755-.231a.53.53 0 0 0-.225-.739.583.583 0 0 0-.774.237.53.53 0 0 0 .243.732" class="st11"/><path d="M51.84 210.229c.3.32.908.303 1.428.157a20 20 0 0 0 1.654-.532 11.5 11.5 0 0 0 1.576-.703c.248-.14.486-.295.688-.475.195-.18.36-.404.323-.605a.165.165 0 1 1 .327-.055c.061.407-.2.703-.411.915a4.3 4.3 0 0 1-.743.539 12 12 0 0 1-1.615.761q-.827.325-1.679.58c-.564.16-1.314.299-1.903-.23a.25.25 0 1 1 .35-.358z" class="st24"/><path d="M80.945 198.13c-.292 3.132-16.899 3.654-17.306.543-.72-5.646-1.42-14.654-1.941-22.462-.01-.041-.01-.083-.01-.125-.554-8.246-.92-15.093-.92-15.093s-6.48-18.516-10.103-30.457c-.136-.46-.271-.898-.396-1.336-3.518-11.837-.773-20.25-.773-20.25l16.815 1.42 1.796.157a129 129 0 0 1 3.496 8.81c4.217 11.888 6.816 24.705 8.12 39.287 0 0 2.245 28.797 1.222 39.507" class="st25"/><path d="M71.603 119.336c-6.586-1.9-8.204-8.653-8.204-8.653l2.912-.313 1.796.157a129 129 0 0 1 3.496 8.81m-9.916 56.749c-.553-8.246-.918-15.093-.918-15.093s-6.482-18.516-10.104-30.457l4.03-2.13s2.358 7.87 2.755 14.175c.386 6.294 2.661 14.435 5.95 17.18 0 0-2.14 7.474-1.713 16.325" class="st26"/><path d="M56.354 199.55c-.136 2.067-7.547 3.121-12.724 2.724a29 29 0 0 1-1.075-.104c-2.16-.282-3.737-.845-3.883-1.764-1.868-11.596-4.06-37.565-4.06-37.565s-6.284-24.383-5.522-38.171c.648-11.513 5.564-15.75 5.564-15.75h16.731l3.31 19.487c1.001 11.565 1.554 21.69.354 33.014 0 0 1.983 27.389 1.305 38.13" class="st25"/><path d="M43.63 202.274a29 29 0 0 1-1.075-.104c-1.816-11.94-3.925-39.131-3.945-39.413-.053-.146-6.284-24.518-5.522-38.233.605-10.803 4.739-14.947 5.48-15.605.052-.052.094-.083.104-.094l.073.094.585.72c-.052.042-4.572 3.852-5.198 14.947-.752 13.549 5.438 37.764 5.5 38.004.032.365 2.172 27.942 3.998 39.684" class="st26"/><path d="M45.436 110.151s-3.225 10.26-10.782 8.84c0 0 .647-6.272 4.394-9.706z" class="st26"/><path d="M71.582 79.996c-.25 1.743-.991 3.393-1.607 5.052-1.18 3.184-2.108 7.108-2.463 11.42a45.5 45.5 0 0 0 .177 9.717c-10.458 1.064-21.105.49-31.908-1.503l.313-9.885.804-25.551 12.087-8.142 17.493 9.05c3.57 2.077 5.637 6.064 5.104 9.842" class="st19"/><path d="M40.26 75.46s.39 1.76.541 3.728c.115 1.49 1.69 2.404 3.054 1.791 1.829-.82 3.978-1.687 5.055-1.765 2.085-.151 2.75 1.738 2.75 1.738L38.178 85.76z" class="st23"/><path d="M67.695 106.192c-10.44 1.06-21.07.49-31.85-1.5-.04-.01-.06-.01-.06-.01v-.02l.31-9.86 10.61-4.41 8.79-3.66 1-.42s1.55 2.81 0 4.83c-.85 1.1-3.06 4.07-4.89 6.53-1.57 2.11-.42 5.15 2.16 5.66 1.28.25 2.77.36 4.39.17 3.84-.44 8.02-2.94 9.36-7.03-.27 3.09-.25 6.37.18 9.72" class="st20"/><path d="M68.105 110.525c-10.907 1.116-22.189.474-33.451-1.603.18-1.778.65-3.316 1.127-4.24 10.803 1.993 21.45 2.567 31.908 1.503.281.827.496 3.411.416 4.34" class="st10"/><path d="M57.305 108.942a.83.83 0 0 1-.818.817c-.441 0-.795-.375-.795-.817s.354-.795.795-.795.818.353.818.795" class="st11"/><path d="M68.107 110.527c-10.908 1.117-22.191.47-33.453-1.608.023-.286.044-.514.104-.805 11.2 2.056 22.504 2.736 33.36 1.64.01.293.01.564-.011.773" class="st11"/><path d="M72.814 71.688c-1.305 1.503-4.269 3.371-4.613 3.58a.1.1 0 0 0-.032.02l-3.298 2.757-1.42 1.19-1.409.135-1.2.814h-.01l-5.407 3.653c-.032.01-.042.021-.042.021l-.678-1.148-2.109-3.538s4.384-3.32 6.033-4.102c2.244-1.075 5-1.66 6.565-1.973a7.9 7.9 0 0 0 2.432-.929c1.754-1.033 4.718-3.037 5.616-2.077.355.386.115.95-.428 1.597" class="st12"/><path d="M72.818 71.69c-1.304 1.505-4.27 3.367-4.616 3.578l-.242-.663s2.71-1.265 3.702-2.61c.482-.356.833-.618 1.156-.306" class="st13"/><path d="m89.984 57.783.451 1.17-11.2 12.592-7.122 1.619-.45-1.17 10.76-13.773z" class="st16"/><path d="M90.435 58.953 79.687 72.714l-7.574.45 10.76-13.773z" class="st11"/><path d="M85.378 68.916c-1.016 2.574-3.244 5.114-4.514 6.43a5.46 5.46 0 0 0-1.443 2.713 15 15 0 0 0-.3 3.244c.011.624.08 1.467-.035 2.286-.185 1.374-.878 2.667-3.129 2.725-3.59.08-2.782-3.729-2.159-5.98.624-2.24.82-4.307.82-4.307l.947-1.754v-.012l.6-1.12 1.859-.935 3.059-1.408 1.016-.635.37-3.198s.092-.45.265-1.132c.196-.82.508-1.974.866-3.094.623-1.916 1.42-3.74 2.159-3.613 1.94.335.52 7.515-.381 9.79" class="st12"/><path d="m83.45 69.25-.75-3.417c.196-.82.508-1.974.866-3.094.138.531.289 1.27.38 2.24.197 2.078-.496 4.272-.496 4.272" class="st13"/><path d="m83.45 69.25-2.516 2.644c-.012.012.076.086.076.086s.224-3.399-.169-5.258c-.127-.577-.461-1.685-.67-2.747-.242-1.259-.327-2.39.312-2.748 1.205-.676 2.575 1.535 2.967 3.336.3 1.363 0 4.688 0 4.688" class="st12"/><path d="M81.038 71.433c.046-1.005.103-3.29-.197-4.71-.127-.578-.461-1.686-.67-2.748.255.958 1.201 2.205 1.294 3.867.069 1.212-.254 2.794-.427 3.59" class="st13"/><path d="m78.879 73.291-.185.116-.22.138-2.724 1.732v.012l-1.166.738s.346-2.69-.254-3.602l-.012-.011c-1.235-1.836-2.493-3.556-1.8-4.226.784-.738 2.7.97 4.225 2.61.473.496.9.992 1.247 1.408.184.22.346.416.485.577.254.312.404.508.404.508" class="st12"/><path d="m78.694 73.407.277.762c-.07-.093-.254-.312-.496-.624-.497-.658-1.236-1.708-1.732-2.747.716.762 1.34 1.512 1.732 1.985z" class="st13"/><path d="m81.442 72.345-2.425 1.881s-5.195-8.277-3.394-9.42c1.836-1.178 5.819 7.539 5.819 7.539" class="st12"/><path d="M79.095 83.52c0 2.172-.98 3.546-3.33 3.353-3.972-.326-3.365-4.444-2.382-6.563.831-1.794 1.048-3.181 1.201-4.283.124-.894.185-2.514-.254-3.602.115.104.82.74 1.2 1.836v.012c.105.3.185.635.22 1.004v.012c.012.115.012.242.012.37.023 2.077-1.12 3.209-1.674 5.275-.566 2.055-.312 4.19 1.674 4.56 1.985.358 2.93-.727 3.333-1.974" class="st13"/><path d="M71.235 80.609c-.301.256-.792.134-1.316-.156-.847-.48-1.795-1.383-2.219-1.762-.334-.312-.613-.59-1.07-.725-.446-.111-1.048-.089-2.051.201l1.828-1.661.301-.268 1.252-1.633s4.791 4.7 3.275 6.004" class="st12"/><path d="M69.92 80.453c-.848-.48-1.796-1.383-2.22-1.762-.334-.312-.613-.59-1.07-.725l-.223-1.46-.089-.613s.145.134.39.345c.87.803 2.933 2.821 3.211 4.215" class="st13"/><path d="M69.35 81.623c-.267.235-.702.145-1.17-.078-.88-.457-1.907-1.438-2.353-1.84-.568-.501-.947-.958-2.296-.724a9 9 0 0 0-.837.2l.96-.88.78-.702 1.884-1.706s4.549 4.426 3.033 5.73" class="st12"/><path d="M68.18 81.545c-.88-.457-1.907-1.438-2.353-1.84-.568-.501-.947-.958-2.296-.724l.122-.68.212-1.104s.223.156.569.402c1.115.825 3.534 2.731 3.746 3.946" class="st13"/><path d="M67.72 82.407c-.71.742-2.995-.866-3.768-1.367-.156-.104-.313-.209-.459-.292l-.094-.063c-.532-.282-1.18-.376-2.62.303-1.816.866-4.968 2.63-5.354 2.85-.032.01-.042.02-.042.02l4.008-3.152L63.87 77.2s.428.334 1.002.846c1.399 1.231 3.684 3.475 2.85 4.362" class="st12"/><path d="M63.4 80.685c-.533-.282-1.18-.376-2.62.303-1.817.866-4.97 2.63-5.355 2.85-.032.01-.042.02-.042.02l-.678-1.148s2.745-1.231 4.686-2.004c.585-.23 1.096-.417 1.44-.522l.147-.041c1.075-.272 2.119.344 2.421.542" class="st13"/><path d="M58.786 84.485c-.073.647-.637 1.096-1.159 1.492-1.263.93-2.515 1.869-3.768 2.808l-5.678-7.233c.804-.627 1.607-1.253 2.4-1.89.324-.25.637-.5.95-.751.418-.324.856-.668 1.389-.73.72-.074 1.388.385 1.941.866a18 18 0 0 1 3.465 4.07c.251.418.501.877.46 1.368m19.684-1.686a17.9 17.9 0 0 0-5.204-1.236c-.49-.034-1.015-.046-1.427.22-.538.357-.69 1.065-.798 1.709l-.781 4.633 9.019 1.765q.406-2.092.826-4.192c.1-.519.207-1.066.02-1.564-.264-.68-.983-1.065-1.656-1.335" class="st20"/><path d="M56.055 89.342s-3.61 6.77-9.9 11.44c-5.84 4.35-9.78 3.98-10.31 3.91-.04-.01-.06-.01-.06-.01v-.02l.31-9.86 10.61-4.41z" class="st23"/><path d="M40.26 75.46c.127 3.616-.217 6.926-1.337 9.693 2.544-1.827 6.943-4.08 9.79-5.174 2.25-.69 8.77 7.287 7.338 9.361 0 0-12.536 18.059-23.8 12.669-7.235-3.462-8.921-25.792-5.659-33.118C31.057 58.863 47.1 58.295 47.1 58.295l1.572 9.409zm40.414 13.252s-.418 8.319-3.601 13.559h-.01c-1.932 3.183-4.896 5.229-9.416 3.538-.897-7.567.23-14.77 2.088-20.082 2.64-1.055 10.73.73 10.939 2.985" class="st19"/><path d="M77.062 102.27c-1.93 3.184-4.895 5.23-9.415 3.539-.897-7.567.23-14.77 2.088-20.082 0 0-.94 6.544-.658 12.034s3.57 6.66 7.985 4.51" class="st23"/><path d="M46.844 58.64s-2.485.35-2.65 1.892c-.206 1.94 1.864 5.61 9.133 5.9 7.214.288 7.337-4.169 6.181-5.388-.983-1.037-2.33-2.3-6.223-2.091-3.892.207-6.441-.313-6.441-.313" class="st15"/><path d="M57.355 64.207c-2.967 1.522-6.768 1.063-9.571-.74a10 10 0 0 1-.738-.535 4 4 0 0 1-.763-.803c-.379-.55-.612-1.24-.487-1.903.16-.909.89-1.581 1.445-2.308 1.197-1.576 1.186-3.788.741-5.731l2.222.583 4.842 1.738a12 12 0 0 0-.04 1.618c.004.307.03.604.065.912.246 2.196 1.972 2.955 3.26 4.75.43.582.223 1.796-.976 2.42" class="st12"/><path d="M55.005 56.126a7.9 7.9 0 0 1-3.326-.092c-.611-.145-1.294-.352-1.832-.024-.58.348-.676 1.124-.913 1.755-.42 1.139-1.41 2.011-1.82 3.16a3.44 3.44 0 0 0-.068 2.007 4 4 0 0 1-.763-.803c-.379-.55-.612-1.24-.487-1.903.16-.909.89-1.581 1.445-2.308 1.197-1.576 1.186-3.788.741-5.731l2.222.583 4.842 1.738a12 12 0 0 0-.04 1.618" class="st13"/><path d="M58.653 54.395c-5.15 3.836-9.956-.897-12.469-4.283a21 21 0 0 1-.676-.95 6 6 0 0 1-.238-.341c-.614-.926-.946-1.561-.946-1.561l.73-3.263 1.67-11.378c5.454-1.815 11.029-.26 13.716 1.17 2.529 2.507 4.028 16.269-1.787 20.606" class="st12"/><path d="M58.348 49.175a4 4 0 0 1-.664-.21.3.3 0 0 1-.165-.393.303.303 0 0 1 .4-.162c.418.17.841.256 1.258.255.07 0 .14-.031.188-.084a.23.23 0 0 0 .065-.18 10.6 10.6 0 0 0-.632-2.795.3.3 0 0 1 .18-.387.31.31 0 0 1 .394.178c.349.925.574 1.917.667 2.95a.83.83 0 0 1-.22.638.88.88 0 0 1-.64.281q-.415.001-.83-.091" class="st14"/><path d="M59.386 50.392a3.4 3.4 0 0 1-.444.77c-.882 1.154-1.966.374-2.6-.584l-.01-.011a3.9 3.9 0 0 1-.491-1.087c1.126.771 2.59 1.039 3.545.912" class="st0"/><ellipse cx="60.847" cy="44.758" class="st11" rx=".543" ry=".934" transform="rotate(-2.31 60.847 44.758)"/><ellipse cx="55.993" cy="44.401" class="st11" rx=".587" ry=".934" transform="rotate(-2.321 55.993 44.4)"/><path d="M60.266 42.234c-.176-.047-.151-.784.008-.938.45-.438 1.683.764 1.96 1.288.068.128.3.73.054.576-.548-.342-1.159-.697-2.022-.926m-3.288-.064c.316-.007.463-.818.228-1.025-.665-.589-3.096.419-3.708.921-.15.123-.702.723-.241.616 1.032-.239 2.175-.474 3.721-.511" class="st11"/><path d="M51.826 51.197c-1.004.089-1.914-.815-2.034-2.009-.108-1.194.62-2.238 1.625-2.339 1.018-.088 1.914.815 2.035 2.01.108 1.193-.62 2.237-1.626 2.338" class="st13"/><path d="M45.508 49.162a6 6 0 0 1-.238-.341c-.614-.926-.946-1.561-.946-1.561l.73-3.263c.386.347 1.218.359 1.37.927.518 1.936-.006 3.427-.916 4.238" class="st14"/><path d="M62.505 40.137c-.557-2.919-2.486-5.501-5.053-6.961 0 0-.048 1.394-.335 2.257.01 0 0 .01 0 .01-.41 1.206-1.936 3.094-5.387 4.17-5.082 1.585-5.42 4.955-5.42 4.955l-4.057 1.778s-7.133-7.884-2.853-15.25a.5.5 0 0 1 .077-.12c3.96-6.67 12.275-7.266 17.727-4.203 5.783 3.251 6.373 9.936 5.3 13.364" class="st10"/><path d="M46.527 45.141c.207 1.868-.82 3.521-2.275 3.682-1.466.163-2.83-1.226-3.036-3.094-.207-1.868.82-3.51 2.287-3.673 1.455-.16 2.817 1.217 3.024 3.085" class="st12"/><path d="M43.872 47.064a1.3 1.3 0 0 1-.21-.053c-.42-.145-.77-.515-.915-.967a1.92 1.92 0 0 1 .076-1.31q.159-.382.416-.592a.96.96 0 0 1 .746-.21.183.183 0 0 1-.064.36l-.014-.002a.57.57 0 0 0-.437.135q-.186.152-.309.449c-.147.356-.17.732-.065 1.058.11.344.372.625.685.733a.88.88 0 0 0 .922-.209.183.183 0 1 1 .268.249 1.24 1.24 0 0 1-1.1.36" class="st14"/><path d="M42.261 33.508c-.916 1.855-1.635 3.837-1.853 5.894-.647-3.251 1.32-7.58 3.609-9.979-.404.989-.768 2.208-.635 3.461 1.643-2.736 4.452-4.335 8.38-4.842-2.22.404-4.968 2.291-6.503 3.945s-2.173 2.614-2.982 5.051a8.6 8.6 0 0 1-.016-3.53m2.414 6.105c.02-.842.407-1.657.928-2.328.52-.684 1.19-1.219 1.855-1.712.677-.486 1.358-.928 1.97-1.44.606-.515 1.133-1.136 1.44-1.91-.07.843-.55 1.62-1.131 2.233-.583.628-1.284 1.1-1.937 1.585-1.317.942-2.6 1.967-3.125 3.572" class="st11"/><path d="M63.833 107.968c.022.29.063 1.229.049 2.04-.005.58-.033 1.082-.125 1.267-.21.44-.757.763-1.197.552-.225-.11-.385-.333-.466-.58-.08-.236-.091-.496-.102-.746-.034-.549-.14-2.967-.174-3.516a1.3 1.3 0 0 1 .032-.411c.113-.606.61-.908 1.329-.73.758.178.608 1.536.654 2.124" class="st27"/><path d="M63.882 110.008c-.005.58-.033 1.082-.125 1.267-.21.44-.757.763-1.197.552-.225-.11-.385-.333-.466-.58-.08-.236-.091-.496-.102-.746-.034-.549-.14-2.967-.174-3.516a1.3 1.3 0 0 1 .032-.411c.049.898.239 1.8.566 2.647.101.256.223.521.432.722.209.191.514.298.779.186.079-.033.166-.087.255-.121" class="st28"/><path d="M48.506 107.733a27 27 0 0 1-.147 2.036c-.06.577-.137 1.074-.246 1.248-.252.418-.827.688-1.245.435-.213-.131-.35-.369-.408-.622-.057-.243-.043-.503-.03-.753.019-.55.146-2.966.165-3.516.008-.15.025-.289.071-.406.172-.592.696-.845 1.394-.598.738.25.457 1.586.446 2.176" class="st27"/><path d="M48.359 109.769c-.06.577-.137 1.074-.246 1.248-.252.418-.827.688-1.245.435-.213-.131-.35-.369-.408-.622-.057-.243-.043-.503-.03-.753.019-.55.146-2.966.165-3.516.008-.15.025-.289.071-.406a8.7 8.7 0 0 0 .31 2.69c.076.264.171.54.36.76.19.21.483.345.757.26.082-.026.174-.071.266-.096" class="st28"/><path d="M40.819 107.014a27 27 0 0 1-.286 2.02c-.1.573-.209 1.063-.33 1.23-.28.399-.872.63-1.271.35-.204-.146-.325-.393-.365-.65-.04-.246-.01-.504.02-.752.057-.548.348-2.95.404-3.497a1.3 1.3 0 0 1 .1-.401c.21-.579.75-.796 1.43-.502.72.3.349 1.614.298 2.202" class="st27"/><path d="M40.533 109.035c-.1.572-.209 1.062-.33 1.229-.28.399-.872.63-1.271.35-.204-.146-.325-.393-.365-.65-.04-.246-.01-.504.02-.752.057-.548.348-2.95.404-3.497a1.3 1.3 0 0 1 .1-.401 8.7 8.7 0 0 0 .125 2.705c.058.268.135.55.308.782.175.223.458.378.738.311.083-.02.178-.059.271-.077" class="st28"/><path d="M57.586 111.984h-2.78a1.846 1.846 0 0 1-1.844-1.843v-2.38c0-1.017.827-1.844 1.843-1.844h2.78c1.016 0 1.843.827 1.843 1.844v2.38a1.845 1.845 0 0 1-1.842 1.843m-2.78-5.067a.845.845 0 0 0-.844.844v2.38c0 .465.379.843.843.843h2.78a.844.844 0 0 0 .843-.843v-2.38a.844.844 0 0 0-.842-.844z" class="st15"/><path d="M60.119 109.45h-3.624a.5.5 0 1 1 0-1h3.624a.5.5 0 1 1 0 1" class="st15"/><path d="m224.997 24.998-10.611 24.143-19.84-15.186z" style="fill:#5ddcff"/><path d="m224.997 24.998-20.072 16.91-3.253 7.204-.137-9.812z" style="fill:#0097ff"/><path d="m208.702 44.796-7.023 4.317 3.246-7.206z" style="fill:#00aeff"/><path d="M189.458 204.992q-.048-.282-.083-.568c-.35-2.756 1.063-5.104 3.495-6.421 1.754-.95 3.77-1.29 5.755-1.479 2.811-.268 5.705-.255 8.387.627 2.546.838 4.978 2.678 5.582 5.29.368 1.59.02 3.252-.419 4.824-.617 2.21-1.413 4.365-2.133 6.545-.393 1.191-.788 2.433-1.644 3.351-.862.925-2.109 1.414-3.358 1.608s-2.523.12-3.787.085c-1.4-.04-2.812-.034-4.18-.331s-2.713-.93-3.582-2.028c-.794-1.004-1.118-2.287-1.503-3.508-.838-2.66-2.066-5.231-2.53-7.995" class="st16"/><path d="M207.91 200.069c0 .993-1.987 1.831-4.731 2.123-.435.05-.882.08-1.347.1q-.392.018-.801.018h-.025c-.354 0-.695-.006-1.037-.025a20 20 0 0 1-1.08-.08c-2.775-.292-4.787-1.143-4.787-2.136 0-.95 1.807-1.757 4.359-2.086q.69-.086 1.446-.125.288-.017.584-.024c.174-.007.341-.007.515-.007a23 23 0 0 1 1.683.068c.509.038 1 .1 1.452.175 2.236.372 3.77 1.123 3.77 1.999" class="st11"/><path d="M198.085 172.652c.387.797.74 1.602 1.053 2.433.567 1.49 1.003 3.06.957 4.657-.042 1.595-.61 3.226-1.797 4.296-1.514 1.364-3.844 1.595-5.76.884-1.913-.707-3.437-2.23-4.531-3.955-3.546-5.62-5.064-13-5.82-19.514-.158-1.404-.696-4.785.945-5.659.852-.448 1.872.105 2.635.688 3.213 2.444 5.685 5.7 7.968 8.992 1.595 2.304 3.134 4.666 4.35 7.178" class="st29"/><path d="M201.03 202.31h-.024q-1.11-.002-2.117-.105c.025-.299.1-.615.087-.882-.037-.919-.298-1.813-.422-2.726-.031-.205-.056-.41-.093-.614a85 85 0 0 0-.534-3.334 93.7 93.7 0 0 0-7.233-22.83 95 95 0 0 0-3.608-6.966c4.11 5.936 6.805 11.81 9.084 18.204 1.707 4.8 2.806 9.791 3.737 14.801q.045.206.08.41c.218 1.21.435 2.434.901 3.576.056.15.112.31.143.466" class="st30"/><path d="M207.97 156.328c.148.873.263 1.745.33 2.63.13 1.59.11 3.218-.381 4.739-.485 1.52-1.486 2.927-2.924 3.624-1.835.886-4.137.458-5.778-.76-1.64-1.213-2.678-3.101-3.247-5.063-1.836-6.386-1.233-13.897-.139-20.363.24-1.392.667-4.789 2.487-5.17.943-.193 1.769.623 2.338 1.396 2.403 3.244 3.867 7.061 5.14 10.86.889 2.658 1.706 5.355 2.173 8.107" class="st29"/><path d="M202.31 192.99c-.087.95-.224 2.993-.31 4.862-.063 1.372-.094 2.658-.05 3.34.018.36.03.801-.118 1.1q-.392.018-.801.018h-.025c-.354 0-.695-.006-1.037-.025-.465-.59.15-1.558.298-2.322.08-.41.155-1.21.224-2.13.13-1.781.242-4.023.341-4.823a167 167 0 0 0 1.248-16.037 162 162 0 0 0-.745-21.184c-.348-3.409-.8-6.792-1.372-10.127 2.167 8.928 2.993 17.366 3.26 26.375.204 6.941-.274 13.963-.913 20.954" class="st30"/><path d="M207.358 173.14a29 29 0 0 0-1.324 2.296c-.734 1.415-1.346 2.925-1.483 4.517-.14 1.59.237 3.274 1.294 4.474 1.348 1.527 3.636 2.023 5.62 1.535 1.982-.483 3.67-1.822 4.955-3.41 4.165-5.178 6.516-12.337 8.01-18.722.319-1.377 1.24-4.674-.291-5.73-.795-.542-1.872-.11-2.696.382-3.471 2.061-6.299 5.014-8.943 8.023-1.848 2.107-3.646 4.277-5.142 6.634" class="st29"/><path d="M219.172 166.648a94 94 0 0 0-4.377 6.506 93.8 93.8 0 0 0-9.797 21.855 82 82 0 0 0-.857 3.06q-.11.393-.21.795c-.23.888-.59 1.745-.733 2.658-.031.198-.019.434-.019.67-.677.075-1.397.118-2.148.118.043-.168.124-.341.211-.49.584-1.08.944-2.273 1.298-3.446l.149-.478c1.49-4.843 3.147-9.655 5.383-14.2 2.998-6.096 6.345-11.622 11.1-17.048" class="st30"/><path d="M128.98 24.998H96.396a4.54 4.54 0 0 0-4.537 4.53v15.637a4.54 4.54 0 0 0 4.537 4.537h2.71l-.71 6.553 6.863-6.553h23.721a4.537 4.537 0 0 0 4.537-4.537V29.528c0-2.5-2.03-4.53-4.537-4.53" class="st7"/><path d="M129.056 40.741c-3.194 3.473-7.505 5.76-11.997 7.217-2.31.748-4.673 1.299-7.059 1.744h18.98a4.537 4.537 0 0 0 4.537-4.537V32.18c-.626 3.17-2.257 6.175-4.461 8.561" class="st24"/><path d="M131.175 27.394c-2.804 2.368-5.717 4.572-8.67 6.719-1.465 1.088-2.97 2.117-4.458 3.174l-2.257 1.545c-.84.604-1.985 1.025-3.102 1.021-1.118.006-2.262-.416-3.102-1.02l-2.259-1.544c-1.486-1.058-2.993-2.085-4.458-3.174-2.953-2.146-5.866-4.35-8.669-6.721 3.265 1.678 6.42 3.52 9.535 5.423 1.568.934 3.095 1.932 4.643 2.897l2.292 1.493c.65.444 1.306.645 2.018.647.712 0 1.368-.203 2.018-.646L117 35.716c1.547-.967 3.075-1.961 4.644-2.897 3.115-1.901 6.269-3.745 9.532-5.425" class="st8"/><path d="m108.097 36.508-.768.526c-1.487 1.057-2.993 2.086-4.459 3.175-2.952 2.146-5.865 4.35-8.67 6.718 3.264-1.68 6.418-3.523 9.533-5.425 1.568-.935 3.097-1.93 4.644-2.897l.947-.616a4.8 4.8 0 0 1-1.227-1.48m14.41 3.697c-1.465-1.089-2.972-2.116-4.458-3.174l-.996-.68a4.9 4.9 0 0 1-1.175 1.526l1.12.73c1.548.965 3.074 1.962 4.643 2.897 3.115 1.902 6.27 3.745 9.534 5.422-2.802-2.37-5.715-4.575-8.668-6.72m41.34 84.865v23.609a6.444 6.444 0 0 1-6.444 6.444h-46.085a6.444 6.444 0 0 1-6.444-6.444v-23.608a9.7 9.7 0 0 1 3.593-7.54l21.971-17.816a6.235 6.235 0 0 1 7.856 0l21.962 17.817a9.7 9.7 0 0 1 3.59 7.538" class="st8"/><path d="M155.095 106.428v39.275h-41.469V99.086a3.17 3.17 0 0 1 3.162-3.163h27.802c.196 0 .392.013.576.05a4 4 0 0 1 2.23 1.115c2.403 2.415 4.132 4.13 6.534 6.546a3.9 3.9 0 0 1 1.116 2.218c.036.196.049.38.049.576" class="st0"/><path d="M142.885 126.744h-.598a1 1 0 1 1 0-2h.598a1 1 0 1 1 0 2m-5.008 0h-17.251a1 1 0 1 1 0-2h17.25a1 1 0 1 1 0 2m10.218-5.704h-27.468a1 1 0 1 1 0-2h27.468a1 1 0 1 1 0 2m15.753 43.863h-49.632a1 1 0 1 1 0-2h49.632a1 1 0 1 1 0 2m0 8.002h-15.051a1 1 0 1 1 0-2h15.051a1 1 0 1 1 0 2m-21.951 0h-37.023a1 1 0 1 1 0-2h37.023a1 1 0 1 1 0 2m-12.835 8.002h-.755a1 1 0 1 1 0-2h.755a1 1 0 1 1 0 2m-6.954 0h-17.234a1 1 0 1 1 0-2h17.234a1 1 0 1 1 0 2m25.987-65.573h-13.043a1 1 0 1 1 0-2h13.043a1 1 0 1 1 0 2m-17.537 0h-9.931a1 1 0 1 1 0-2h9.931a1 1 0 1 1 0 2m8.1-5.706h-18.031a1 1 0 1 1 0-2h18.03a1 1 0 1 1 0 2m.001-5.705h-12.39a1 1 0 1 1 0-2h12.39a1 1 0 1 1 0 2" class="st18"/><path d="M163.847 125.068v23.61a6.44 6.44 0 0 1-6.448 6.447h-46.078a6.44 6.44 0 0 1-6.447-6.448v-23.609c0-1.238.245-2.439.686-3.554l22.408 15.285 2.096 1.422.392.27a6.93 6.93 0 0 0 7.808 0l.393-.27 2.096-1.422 22.407-15.285a9.7 9.7 0 0 1 .687 3.554" class="st7"/><path d="m155.095 127.005-16.83 11.486a6.93 6.93 0 0 1-7.809 0l-16.83-11.486 16.83 9.34c2.354 1.3 5.455 1.3 7.808 0z" class="st18"/><path d="M155.046 105.852h-8.54c-.74 0-1.34-.6-1.34-1.34v-8.54a4 4 0 0 1 2.23 1.116c2.403 2.415 4.132 4.13 6.534 6.546a3.9 3.9 0 0 1 1.116 2.218" class="st1"/><path d="m127.968 136.8 2.096 1.421-1.876 1.226c-2.181 1.373-4.327 2.783-6.533 4.106-4.376 2.71-8.801 5.345-13.361 7.772 3.996-3.273 8.127-6.35 12.307-9.353 2.071-1.52 4.204-2.966 6.3-4.45zm32.459 14.525c-4.56-2.427-8.985-5.063-13.361-7.76-2.207-1.335-4.352-2.745-6.534-4.118l-1.875-1.226 2.096-1.422 1.066.724c2.109 1.483 4.23 2.93 6.3 4.45 4.18 3.002 8.312 6.08 12.308 9.352" class="st8"/><path d="M141.501 199.483c-2.916 3.943-8.48 4.776-12.423 1.86s-4.77-8.477-1.853-12.42 8.466-4.767 12.409-1.851c3.942 2.916 4.783 8.469 1.867 12.411" style="fill:#2dc8fe"/><path d="m132.645 198.013-3.094-3.506 1.125-.992 2.102 2.38 5.49-4.844.991 1.125z" class="st15"/></svg>