<?xml version="1.0" encoding="UTF-8" standalone="no"?>
<svg
   version="1.0"
   width="900pt"
   height="720pt"
   viewBox="0 0 900 720"
   preserveAspectRatio="xMidYMid"
   id="svg17"
   xmlns="http://www.w3.org/2000/svg"
   xmlns:svg="http://www.w3.org/2000/svg">
  <defs
     id="defs17" />
  <metadata
     id="metadata1">&#10;Created by potrace 1.10, written by Peter Selinger 2001-2011&#10;</metadata>
  <g
     id="g93"
     transform="matrix(1.3807587,0,0,1.6248464,-168.57479,-228.20207)">
    <path
       style="fill:#000000;fill-opacity:1;stroke:#000000;stroke-width:0;stroke-linejoin:round;stroke-opacity:1;paint-order:fill markers stroke"
       d="m 309.79012,675.62351 c 15.65137,-10.25479 64.99994,-31.68215 88.7071,-38.517 32.1399,-9.26603 75.86365,-14.70228 118.43713,-14.7255 10.15519,-0.006 23.96005,-0.34635 30.67748,-0.75737 l 12.21351,-0.74729 2.29254,-3.88557 c 1.2609,-2.13705 9.75185,-18.19179 18.86877,-35.67718 18.54655,-35.57049 18.11668,-34.21698 20.17958,-63.53625 l 1.26492,-17.97791 -13.54828,-17.83828 c -9.8923,-13.02468 -14.20473,-17.84763 -15.98099,-17.87295 -2.08736,-0.0297 -3.95918,3.54847 -13.18469,25.20433 -5.91356,13.88146 -11.08271,25.23901 -11.48699,25.23901 -1.42774,0 -2.12003,-5.29812 -2.24859,-17.20841 -0.19503,-18.06912 0.0925,-17.58294 -11.88371,-20.09681 -2.45528,-0.51537 -13.2839,-10.59136 -39.63641,-36.88149 -19.94201,-19.89482 -37.22619,-36.7141 -38.40928,-37.37619 -3.16626,-1.77193 -5.93997,2.04755 -13.17872,18.14743 -3.38369,7.52573 -7.81004,16.26442 -9.83634,19.41929 -3.85935,6.00889 -26.54036,31.54876 -28.01728,31.54876 -0.46971,0 -1.21704,-7.3566 -1.66075,-16.34799 -0.4437,-8.9914 -1.24769,-16.79115 -1.78665,-17.33279 -0.54305,-0.54574 -14.54242,26.05019 -31.40121,59.65584 -16.7317,33.35234 -32.39563,63.29053 -34.80871,66.52931 -7.36475,9.88482 -31.70878,39.47964 -40.08119,48.72634 -17.03505,18.81398 -50.26045,53.69459 -50.71428,53.24077 -0.68764,-0.68764 10.89717,-21.15766 22.699,-40.10847 5.56519,-8.93631 16.69636,-27.57709 24.73592,-41.42397 46.09606,-79.39318 63.54696,-107.91639 94.71664,-154.81284 24.30054,-36.56146 50.00265,-72.21256 53.7143,-74.50648 0.61528,-0.38027 2.82599,1.02212 4.91267,3.11643 6.29168,6.31467 26.22091,31.34073 39.97608,50.19983 14.4369,19.79378 25.57987,33.28965 39.9784,48.42004 13.22516,13.89736 12.918,13.78895 19.86654,7.01214 3.1362,-3.0587 9.83182,-10.33661 14.87914,-16.17313 5.04732,-5.83652 9.8948,-10.61186 10.77218,-10.61186 2.09486,0 7.10866,6.4454 30.27657,38.92144 10.61108,14.87428 20.29169,27.94363 21.51248,29.043 2.12692,1.91536 2.34233,1.86745 5.1584,-1.14723 1.61632,-1.73034 6.18196,-7.79235 10.14584,-13.47113 9.22888,-13.22159 12.12541,-16.67263 45.25022,-53.91289 30.13841,-33.88283 72.66362,-78.59113 74.75402,-78.59159 2.35904,-5.3e-4 12.04171,11.63569 34.90279,41.94465 43.3412,57.46131 53.09168,71.93304 99.15114,147.16078 27.83144,45.4564 35.60497,57.5907 45.33943,70.77374 11.18637,15.14933 12.61713,15.77233 22.22648,9.67826 8.02213,-5.08749 27.40295,-24.33623 33.33199,-33.10485 9.17909,-13.57525 15.26479,-38.12666 13.96489,-56.33815 -2.7914,-39.10509 -22.6593,-67.72954 -54.63335,-78.71222 -8.25907,-2.83689 -27.16228,-2.58144 -51.62524,0.69766 -19.88981,2.6661 -35.56405,4.07145 -35.56405,3.18869 0,-0.32117 2.28098,-5.4284 5.06882,-11.3494 10.0448,-21.33372 12.45843,-32.31624 12.5771,-57.22817 0.0924,-19.40609 -1.14264,-26.13742 -7.27878,-39.67039 -16.44759,-36.27439 -57.50962,-61.52143 -100.4245,-61.74614 -41.66601,-0.21817 -79.72461,24.16393 -99.8389,63.96144 -2.82283,5.58517 -5.13242,10.91978 -5.13242,11.85468 0,3.7539 -3.15326,0.20699 -8.93963,-10.05566 -3.35122,-5.94366 -8.77671,-13.54309 -12.05666,-16.88764 -17.67718,-18.02527 -42.66173,-18.30197 -59.79326,-0.66219 -5.83043,6.00341 -11.97967,15.59716 -14.08174,21.96967 -3.17589,9.62789 -3.99762,9.57301 -9.90076,-0.6613 -18.91554,-32.79395 -47.02067,-55.32169 -82.79965,-66.36828 -10.02094,-3.09391 -11.10222,-3.1878 -36.71128,-3.1878 -25.53341,0 -26.71995,0.10215 -36.71128,3.16066 -36.98226,11.32085 -59.87893,33.86501 -67.78781,66.74419 -2.61377,10.86611 -2.94669,14.21349 -2.39602,24.09178 0.75317,13.51065 4.41102,27.79802 11.1627,43.60076 2.77718,6.50018 4.32897,11.55028 3.73247,12.14679 -0.59651,0.59651 -7.91717,0.28579 -17.60805,-0.74735 -25.32167,-2.69956 -45.43737,-0.47241 -58.46929,6.47354 -12.93677,6.89522 -23.1031,20.06532 -26.39013,34.18738 -2.92319,12.55893 1.19047,29.84865 9.80619,41.21536 4.7541,6.2721 4.84986,6.55609 2.45243,7.27302 -1.37216,0.41034 -9.51074,0.79753 -18.08571,0.86042 -17.66503,0.12957 -28.52598,2.31145 -39.64071,7.96352 -15.13851,7.69822 -22.27047,17.6802 -23.12023,32.35931 -0.62222,10.74846 1.6211,16.62222 9.61054,25.16358 2.97945,3.18528 5.16582,6.04278 4.8586,6.35 -1.38558,1.38557 -15.596,-7.26164 -21.61977,-13.1559 -5.40777,-5.29151 -7.03084,-7.78558 -8.61671,-13.24077 -6.14221,-21.12846 8.44809,-43.2582 34.40937,-52.19018 11.03817,-3.79769 23.53733,-5.07813 33.63571,-3.44569 16.25464,2.62761 16.32263,2.63175 16.32263,0.99457 0,-0.84499 -2.4522,-6.38322 -5.44933,-12.30716 l -5.44933,-10.77082 v -16.21223 -16.21223 l 3.97989,-7.45698 c 11.02351,-20.65432 32.81458,-32.83064 63.62206,-35.55042 6.89427,-0.60865 13.0479,-1.61951 13.67475,-2.24635 0.75482,-0.75482 0.0662,-3.87592 -2.03894,-9.2416 -7.22796,-18.42286 -7.03181,-49.1639 0.43693,-68.47873 12.0774,-31.23319 43.52613,-57.09746 83.26165,-68.47658 19.50759,-5.58642 30.13434,-6.9034 49.24616,-6.10313 39.24488,1.64331 74.97641,17.00154 107.07154,46.02183 4.59548,4.1552 8.98362,7.5527 9.75144,7.55 0.76783,-0.003 3.71918,-1.57978 6.55857,-3.50461 15.10337,-10.23862 26.40134,-14.10281 41.30019,-14.12571 15.6895,-0.0241 28.86879,4.38732 41.17143,13.78108 2.77619,2.11978 5.9245,3.85415 6.99623,3.85415 1.07174,0 6.03096,-4.17011 11.0205,-9.26691 17.3185,-17.6908 35.69317,-29.10475 60.12351,-37.34741 9.73102,-3.2832 9.81144,-3.28995 38.43212,-3.22602 27.89962,0.0623 28.95875,0.14947 38.89146,3.19985 33.05043,10.14998 62.57393,32.54864 78.05051,59.21477 6.21865,10.71472 11.76095,24.74888 13.32846,33.75016 1.8789,10.78948 0.7959,47.27348 -1.65576,55.77881 -1.00034,3.47036 -1.82492,7.53271 -1.83241,9.02744 l -0.0136,2.71769 11.18547,-0.99685 c 28.29498,-2.52165 50.88086,1.25071 67.78987,11.32247 8.86549,5.28067 25.6101,21.49293 31.7722,30.76206 6.5945,9.91944 12.2326,22.16253 15.3271,33.28244 2.0716,7.44414 2.4148,11.82282 2.4148,30.80954 0,25.47805 -0.9243,30.52741 -8.548,46.69579 -6.7728,14.36387 -13.1709,23.45467 -24.225,34.42024 -20.91827,20.75069 -53.72254,37.35461 -88.24964,44.66763 -24.14714,5.11449 -44.49022,6.54463 -83.18382,5.84789 -42.43552,-0.76411 -49.25996,-1.54181 -137.6673,-15.68826 -19.24474,-3.07945 -37.5717,-5.88025 -40.72658,-6.22401 -3.15487,-0.34377 -16.31931,-1.91345 -29.2543,-3.48817 -81.03136,-9.86488 -153.89999,-9.82335 -213.38432,0.12161 -30.70361,5.13321 -57.67797,12.94717 -86.76968,25.13552 -6.72696,2.81834 -12.78247,5.12425 -13.45671,5.12425 -0.67422,0 1.59611,-1.84896 5.04519,-4.1088 z m 583.81837,-26.15042 c 10.36613,-1.64226 19.91679,-3.28416 21.22371,-3.64868 5.12676,-1.42993 8.68596,-3.13101 8.68596,-4.15136 0,-0.58829 -6.32409,-7.65382 -14.05353,-15.70118 -34.83475,-36.26756 -40.66121,-45.03682 -62.64304,-94.28237 -29.49448,-66.07605 -40.0941,-88.28606 -42.13409,-88.28606 -1.95,0 -14.28325,13.73062 -20.6095,22.94455 l -5.11992,7.45698 -1.19072,24.09178 c -0.6549,13.25048 -1.93734,31.83556 -2.84985,41.30019 -0.91253,9.46463 -1.66523,17.95698 -1.67265,18.87189 -0.0439,5.41207 -3.17388,-4.70427 -12.05047,-38.94837 l -9.96218,-38.43212 -0.99616,-38.43213 c -0.54789,-21.13766 -1.01873,-39.07743 -1.04631,-39.86615 -0.0276,-0.78872 -0.78948,-1.43404 -1.69308,-1.43404 -1.73627,0 -57.41408,53.08935 -71.39194,68.07292 -10.62671,11.39131 -20.55647,24.51475 -66.98082,88.52364 -39.74445,54.79878 -44.46652,61.81631 -42.43912,63.06932 0.65513,0.4049 10.61314,1.7339 22.1289,2.95336 31.20987,3.30496 50.58296,5.99625 115.01041,15.97714 86.13463,13.34368 90.10059,13.72699 137.09369,13.25007 29.79303,-0.30237 36.09879,-0.70081 52.69071,-3.32938 z"
       id="path91"
       transform="scale(0.75)" />
    <path
       style="fill:#000000;fill-opacity:1;stroke:#000000;stroke-width:0;stroke-linejoin:round;stroke-opacity:1;paint-order:fill markers stroke"
       d="m 383.77278,600.40459 c 5.06164,-5.27033 17.76616,-18.3587 28.23226,-29.08528 10.4661,-10.72658 19.95674,-21.30975 21.09031,-23.51816 1.13357,-2.20842 8.69597,-20.0047 16.80534,-39.54731 8.10938,-19.5426 15.51099,-36.29868 16.44804,-37.23573 1.06985,-1.06985 2.08401,-1.29518 2.72588,-0.60565 0.87976,0.94508 12.9058,27.61042 20.74227,45.99186 3.16128,7.41518 5.15328,9.24657 24.14105,22.19467 21.79053,14.85934 21.07361,14.00791 24.77327,29.4215 1.72391,7.18217 2.79522,13.39764 2.3807,13.81216 -1.11999,1.11999 -4.16613,-1.92866 -20.53457,-20.55158 -8.18019,-9.30688 -15.40724,-16.92161 -16.0601,-16.92161 -2.20813,0 -8.321,7.61978 -12.04604,15.01552 -2.38501,4.73523 -4.56171,11.83377 -6.11046,19.92705 -2.63823,13.78661 -4.22927,18.11594 -5.67134,15.43208 -0.478,-0.88961 -2.19927,-7.29625 -3.82504,-14.23698 -2.79645,-11.93856 -3.74305,-20.20539 -6.49666,-56.73635 -1.16511,-15.45705 -1.92158,-18.09031 -4.87165,-16.95826 -0.86889,0.33342 -8.38821,13.96127 -16.70959,30.2841 -16.70485,32.76743 -19.88317,37.21082 -35.13574,49.12089 -9.8029,7.65466 -32.09766,21.70212 -36.54165,23.02412 -1.65478,0.49226 0.66637,-2.58243 6.66372,-8.82704 z"
       id="path92"
       transform="scale(0.75)" />
    <path
       style="fill:#000000;fill-opacity:1;stroke:#000000;stroke-width:0;stroke-linejoin:round;stroke-opacity:1;paint-order:fill markers stroke"
       d="m 647.03633,607.04325 c 0,-0.46364 5.85984,-10.23995 13.02187,-21.72514 23.87178,-38.28131 24.1507,-38.84441 39.89125,-80.538 9.38025,-24.8464 12.66562,-32.07701 13.71932,-30.19416 0.46854,0.83723 1.96936,8.48968 3.33516,17.00543 1.36579,8.51575 3.48161,20.64571 4.70182,26.95547 4.72875,24.45264 4.71806,25.08139 -0.84782,49.90439 -5.64443,25.17334 -7.05892,30.10145 -8.40167,29.27158 -1.17625,-0.72695 -4.11781,-17.10868 -5.77112,-32.13965 -1.2776,-11.6153 -2.97646,-18.94374 -4.38405,-18.91168 -1.60824,0.0366 -3.51615,2.07111 -13.9696,14.89639 -18.47553,22.66752 -41.29516,47.79713 -41.29516,45.47537 z"
       id="path93"
       transform="scale(0.75)" />
  </g>
</svg>
