<?xml version="1.0" encoding="UTF-8" standalone="no"?>
<svg
   version="1.0"
   width="900.000000pt"
   height="720.000000pt"
   viewBox="0 0 900.000000 720.000000"
   preserveAspectRatio="xMidYMid meet"
   id="svg17"
   sodipodi:docname="logo_portfolio.svg"
   inkscape:export-filename="logo_portfolio.svg"
   inkscape:export-xdpi="96"
   inkscape:export-ydpi="96"
   xmlns:inkscape="http://www.inkscape.org/namespaces/inkscape"
   xmlns:sodipodi="http://sodipodi.sourceforge.net/DTD/sodipodi-0.dtd"
   xmlns="http://www.w3.org/2000/svg"
   xmlns:svg="http://www.w3.org/2000/svg">
  <defs
     id="defs17">
    <inkscape:path-effect
       effect="sketch"
       id="path-effect97"
       is_visible="true"
       lpeversion="1"
       nbiter_approxstrokes="5"
       parallel_offset="5;1"
       strokelength="100"
       strokelength_rdm="0.3;1"
       strokeoverlap="0.3"
       strokeoverlap_rdm="0.3;1"
       ends_tolerance="0.1;1"
       tremble_size="5;1"
       tremble_frequency="1"
       nbtangents="5"
       tgt_places_rdmness="1;1"
       tgtlength="100"
       tgtlength_rdm="0.3;-1224474724"
       tgtscale="11.842105" />
    <inkscape:path-effect
       effect="perspective-envelope"
       up_left_point="646.84,474.30295"
       up_right_point="725.14905,474.30295"
       down_left_point="647.03633,607.19287"
       down_right_point="725.14905,607.19287"
       id="path-effect96"
       is_visible="true"
       lpeversion="1"
       deform_type="envelope_deformation"
       horizontal_mirror="false"
       vertical_mirror="false"
       overflow_perspective="false" />
    <linearGradient
       id="swatch85">
      <stop
         style="stop-color:#ffe600;stop-opacity:1;"
         offset="0"
         id="stop85" />
    </linearGradient>
    <filter
       style="color-interpolation-filters:sRGB"
       id="filter97"
       inkscape:label="filter1">
      <feComponentTransfer
         id="feComponentTransfer97">
        <feFuncR
           id="feFuncR97"
           type="linear"
           slope="0"
           intercept="0" />
        <feFuncG
           id="feFuncG97"
           type="linear"
           intercept="0"
           slope="0" />
        <feFuncB
           id="feFuncB97"
           type="identity" />
        <feFuncA
           id="feFuncA97"
           type="linear"
           slope="0"
           intercept="0" />
      </feComponentTransfer>
    </filter>
    <filter
       style="color-interpolation-filters:sRGB"
       id="filter98"
       inkscape:label="filter2" />
    <filter
       style="color-interpolation-filters:sRGB"
       id="filter99"
       inkscape:label="filter3" />
  </defs>
  <sodipodi:namedview
     id="namedview17"
     pagecolor="#ffffff"
     bordercolor="#000000"
     borderopacity="0.25"
     inkscape:showpageshadow="2"
     inkscape:pageopacity="0.0"
     inkscape:pagecheckerboard="0"
     inkscape:deskcolor="#d1d1d1"
     inkscape:document-units="pt"
     inkscape:zoom="0.87166667"
     inkscape:cx="459.46463"
     inkscape:cy="123.32696"
     inkscape:window-width="2400"
     inkscape:window-height="1261"
     inkscape:window-x="3741"
     inkscape:window-y="1036"
     inkscape:window-maximized="1"
     inkscape:current-layer="svg17"
     showgrid="true">
    <inkscape:grid
       id="grid99"
       units="pt"
       originx="0"
       originy="0"
       spacingx="1"
       spacingy="1"
       empcolor="#0099e5"
       empopacity="0.30196078"
       color="#0099e5"
       opacity="0.14901961"
       empspacing="5"
       dotted="false"
       gridanglex="30"
       gridanglez="30"
       visible="true" />
  </sodipodi:namedview>
  <metadata
     id="metadata1">&#10;Created by potrace 1.10, written by Peter Selinger 2001-2011&#10;</metadata>
  <g
     transform="matrix(0.1,0,0,-0.1,-31.835559,1496.0995)"
     fill="#000000"
     stroke="none"
     id="g17"
     style="fill:#000000;fill-opacity:1;stroke:#000000;stroke-opacity:1">
    <path
       d="M 0,3600 V 0 H 4500 9000 V 3600 7200 H 4500 0 Z m 3559,1560 c 255,-52 460,-158 646,-333 33,-32 62,-57 65,-57 3,0 24,13 46,29 103,76 203,111 314,111 113,0 239,-44 314,-110 18,-17 40,-30 48,-30 7,0 42,32 77,70 123,137 249,216 451,283 93,31 98,32 285,31 196,0 241,-7 381,-57 164,-59 350,-196 455,-335 56,-74 118,-199 145,-292 28,-98 25,-367 -4,-465 -13,-42 -18,-73 -13,-78 6,-6 50,-5 110,3 169,21 352,-12 475,-84 97,-57 212,-172 265,-265 34,-61 81,-161 81,-173 0,-7 8,-33 17,-58 13,-35 17,-83 17,-220 0,-157 -2,-183 -23,-250 -94,-299 -321,-511 -696,-649 -335,-123 -919,-137 -1481,-36 -45,8 -94,15 -110,15 -16,0 -62,7 -104,14 -41,8 -118,22 -170,30 -52,8 -136,22 -186,31 -50,8 -104,15 -120,15 -16,0 -72,6 -124,14 -245,38 -656,69 -925,70 -312,1 -716,-40 -940,-96 -22,-5 -58,-13 -80,-17 -22,-5 -51,-13 -65,-18 -14,-6 -50,-18 -80,-28 -30,-9 -71,-22 -90,-30 -65,-24 -125,-47 -155,-61 -16,-7 -47,-20 -68,-29 -21,-9 -41,-14 -44,-12 -8,9 7,27 23,27 8,0 14,4 14,8 0,5 24,21 53,36 28,15 59,31 67,37 44,27 297,136 435,187 263,98 651,152 1086,152 177,0 239,3 247,13 5,6 41,73 80,147 38,74 101,194 140,267 76,144 70,121 88,385 l 7,97 -74,96 c -41,53 -87,114 -103,136 -46,61 -45,62 -106,-91 -12,-30 -33,-77 -45,-105 -13,-27 -34,-76 -46,-108 -21,-52 -25,-56 -36,-41 -9,12 -13,55 -13,134 0,77 -4,120 -12,128 -7,7 -30,12 -52,12 -40,0 -45,4 -321,285 -154,157 -288,285 -297,285 -16,0 -43,-49 -99,-180 -38,-90 -63,-128 -135,-207 -38,-41 -83,-90 -99,-109 -51,-56 -55,-49 -55,96 0,72 -4,130 -9,130 -5,0 -50,-84 -100,-186 -329,-667 -372,-751 -409,-789 -21,-22 -62,-71 -92,-110 -102,-133 -195,-239 -336,-385 -66,-69 -147,-154 -179,-190 -94,-103 -98,-95 -23,41 28,52 68,119 87,149 62,96 221,358 221,365 0,2 34,61 75,130 41,70 75,129 75,132 0,4 6,14 14,22 7,9 28,43 46,76 18,33 46,79 61,103 16,24 29,45 29,48 0,7 249,417 279,459 16,22 87,128 158,235 188,283 191,287 260,375 35,44 75,97 91,117 46,62 36,70 233,-176 57,-71 138,-179 179,-240 75,-112 332,-398 362,-404 9,-2 56,46 118,118 56,66 104,120 105,120 2,0 10,2 18,5 15,6 71,-69 332,-440 32,-47 64,-85 71,-85 6,0 33,33 60,73 72,108 128,180 208,267 18,19 72,80 120,135 49,55 119,134 155,175 103,116 160,177 235,249 37,36 98,101 134,144 43,51 72,77 86,77 25,0 61,-44 383,-474 127,-170 259,-355 293,-410 34,-56 90,-146 126,-201 35,-55 68,-109 74,-120 6,-11 19,-33 30,-50 10,-16 25,-40 32,-52 14,-24 122,-197 150,-241 10,-15 22,-36 28,-47 6,-11 18,-32 28,-47 9,-14 30,-48 46,-75 55,-91 170,-258 198,-288 15,-16 28,-33 28,-37 0,-4 9,-9 19,-13 53,-16 276,184 349,314 42,74 82,240 82,341 0,102 -38,260 -82,340 -96,176 -214,266 -392,301 -54,10 -273,-8 -447,-37 -103,-17 -149,-18 -149,-3 0,5 18,45 40,87 65,128 93,235 98,390 3,104 0,149 -13,205 -61,252 -247,445 -525,546 -76,28 -246,53 -305,46 -88,-11 -201,-34 -231,-46 -154,-63 -242,-124 -337,-232 -95,-110 -147,-196 -181,-301 -10,-29 -29,-6 -76,90 -48,96 -107,156 -195,198 -109,51 -237,24 -330,-69 -52,-52 -115,-158 -115,-193 0,-23 -21,-44 -36,-34 -6,4 -21,28 -34,54 -35,71 -140,206 -217,279 -120,113 -296,204 -469,243 -95,21 -323,22 -413,1 -152,-35 -241,-74 -336,-145 -69,-51 -107,-92 -158,-169 -49,-73 -60,-101 -88,-214 -24,-99 -24,-161 0,-273 22,-101 35,-141 81,-238 21,-45 28,-72 22,-78 -7,-7 -40,-6 -99,2 -185,27 -353,15 -458,-32 -131,-58 -225,-199 -225,-338 0,-84 49,-209 100,-255 44,-40 29,-45 -123,-45 -110,0 -157,-4 -209,-19 -178,-51 -278,-158 -278,-296 0,-63 26,-119 78,-171 47,-47 50,-54 23,-54 -34,0 -137,68 -179,116 -95,111 -70,282 58,398 108,97 313,143 467,103 29,-8 56,-11 62,-8 6,4 -3,26 -20,54 -59,95 -71,141 -67,257 3,93 7,112 33,165 79,159 256,259 478,272 95,5 107,8 107,25 0,10 -4,26 -9,36 -38,72 -46,119 -46,272 0,166 10,211 70,332 72,144 230,292 403,378 68,34 219,83 317,103 106,22 297,21 414,-3 z m -30,-1492 c 5,-13 24,-57 44,-98 19,-41 54,-120 77,-175 23,-55 48,-108 55,-119 8,-10 78,-61 157,-113 79,-52 148,-104 155,-116 6,-13 16,-45 21,-72 5,-28 16,-71 23,-97 25,-92 1,-77 -136,79 -71,82 -130,150 -131,151 -9,14 -44,-16 -69,-59 -53,-91 -56,-99 -70,-187 -13,-87 -31,-142 -46,-142 -5,0 -11,12 -14,28 -3,15 -11,45 -17,67 -28,105 -39,184 -48,369 -6,111 -15,205 -20,210 -4,4 -13,5 -19,1 -6,-3 -63,-111 -126,-238 -118,-238 -122,-243 -235,-341 -42,-36 -173,-126 -184,-126 -2,0 -28,-16 -57,-35 -54,-35 -79,-43 -79,-25 0,6 88,99 196,208 108,108 207,211 219,227 13,17 44,80 68,141 25,61 68,166 97,235 28,68 59,142 68,164 21,51 42,85 53,85 5,0 13,-10 18,-22 z"
       id="path35"
       sodipodi:nodetypes="cccccccccccscscscccccccscccscscccscscsccccccccscsscccscccccccccccssscscccsscccccccscscscsccccccccsccsccccccscccscscscccsccscccsccccccccccssscccccccccsccscscsssccccccccscsccccccscscccccccscccscccscscccccsc"
       style="opacity:1;mix-blend-mode:normal;fill:#000000;fill-opacity:1;stroke:#000000;stroke-opacity:1" />
    <path
       d="m 5497,4093 c -135,-130 -160,-154 -328,-318 -142,-139 -192,-201 -439,-544 -52,-72 -111,-153 -130,-180 -121,-167 -181,-250 -261,-359 -49,-67 -89,-128 -89,-136 0,-9 24,-15 83,-20 101,-8 227,-22 377,-42 110,-14 176,-24 390,-58 127,-20 275,-43 390,-61 52,-8 138,-21 190,-29 298,-46 696,-58 915,-27 262,37 325,51 325,71 0,6 -64,74 -143,153 -179,178 -293,343 -377,547 -13,30 -43,97 -67,148 -23,51 -43,95 -43,97 0,3 -18,44 -41,92 -60,129 -74,161 -107,233 -78,173 -97,210 -107,210 -19,0 -179,-196 -186,-227 -4,-15 -8,-75 -9,-133 -2,-156 -34,-520 -44,-523 -5,-1 -18,32 -29,73 -10,41 -25,102 -33,135 -9,33 -21,80 -29,105 -7,25 -21,79 -30,120 -10,41 -25,95 -33,120 -13,36 -17,107 -20,348 -2,196 -7,302 -14,302 -5,0 -56,-44 -111,-97 z m -123,-518 c 8,-44 17,-105 21,-135 3,-30 10,-71 15,-90 5,-19 16,-82 26,-139 15,-93 15,-109 1,-165 -8,-33 -22,-92 -30,-131 -42,-188 -50,-215 -62,-215 -14,0 -40,136 -50,260 -7,90 -18,135 -32,135 -7,0 -42,-40 -79,-90 -89,-118 -354,-413 -354,-393 0,11 36,77 75,138 110,170 212,339 228,378 9,23 23,59 31,80 8,20 28,71 44,112 17,41 40,102 52,135 49,137 84,215 91,208 5,-5 15,-44 23,-88 z"
       id="path29"
       style="opacity:1;fill:#000000;fill-opacity:1;stroke:#000000;stroke-opacity:1" />
  </g>
  <g
     id="g101"
     transform="translate(118.0314,-141.15095)">
    <g
       id="g93"
       transform="matrix(1.3807587,0,0,1.6248464,-797.85804,-363.55469)"
       inkscape:highlight-color="#a9aaaa">
      <path
         style="fill:#170000;fill-opacity:1;stroke:#ffe2d6;stroke-width:0;stroke-linejoin:round;stroke-opacity:0.904;paint-order:fill markers stroke"
         d="m 485.27725,455.28244 c 0,-0.34773 4.39488,-7.67997 9.7664,-16.29386 17.90384,-28.71098 18.11303,-29.13331 29.91844,-60.4035 7.03519,-18.6348 9.49921,-24.05776 10.28949,-22.64562 0.3514,0.62792 1.47702,6.36726 2.50137,12.75407 1.02434,6.38682 2.61121,15.48429 3.52636,20.21661 3.54656,18.33948 3.53855,18.81104 -0.63586,37.42829 -4.23332,18.88 -5.29419,22.57609 -6.30125,21.95368 -0.88219,-0.54521 -3.08837,-12.83151 -4.32834,-24.10473 -0.95163,-8.65172 -2.21488,-14.13225 -3.26628,-14.18348 -0.007,-3.5e-4 -0.0145,-4.4e-4 -0.0218,-2.8e-4 -1.20618,0.0275 -2.63711,1.55333 -10.4772,11.17229 -13.85665,17.00064 -30.97137,35.84785 -30.97137,34.10653 z"
         id="path93"
         sodipodi:nodetypes="sssssssssssss"
         transform="translate(1.8105987e-6)" />
      <path
         style="fill:#000000;fill-opacity:1;stroke:#000000;stroke-width:0;stroke-linejoin:round;stroke-opacity:1;paint-order:fill markers stroke"
         d="m 287.82959,450.30344 c 3.79623,-3.95275 13.32462,-13.76902 21.17419,-21.81396 7.84958,-8.04493 14.96756,-15.98231 15.81773,-17.63862 0.85018,-1.65631 6.52198,-15.00352 12.60401,-29.66048 6.08203,-14.65695 11.63324,-27.22401 12.33603,-27.9268 0.80239,-0.80239 1.56301,-0.97138 2.04441,-0.45424 0.65982,0.70881 9.67935,20.70782 15.5567,34.4939 2.37096,5.56138 3.86496,6.93493 18.10579,16.646 16.3429,11.14451 15.80521,10.50593 18.57995,22.06613 1.29293,5.38662 2.09642,10.04823 1.78553,10.35912 -0.84,0.83999 -3.1246,-1.4465 -15.40093,-15.41369 -6.13514,-6.98016 -11.55543,-12.69121 -12.04508,-12.69121 -1.65609,0 -6.24075,5.71484 -9.03453,11.26164 -1.78875,3.55143 -3.42128,8.87533 -4.58284,14.94529 -1.97867,10.33996 -3.17195,13.58696 -4.25351,11.57406 -0.3585,-0.66721 -1.64945,-5.47219 -2.86878,-10.67773 -2.09733,-8.95392 -2.80728,-15.15405 -4.87249,-42.55227 -0.87383,-11.59278 -1.44117,-13.5677 -3.65374,-12.71869 -0.46355,0.17787 -3.4508,5.40073 -7.3831,12.80744 -1.59589,3.00594 -3.34742,6.37156 -5.14909,9.90563 -12.52863,24.57558 -14.91238,27.90812 -26.35181,36.84067 -7.35217,5.741 -24.07324,16.27659 -27.40623,17.26809 -1.24109,0.3692 0.49977,-1.93682 4.99779,-6.62028 z"
         id="path92"
         inkscape:label="path92"
         sodipodi:nodetypes="sssssssssssssssssssssss" />
      <path
         id="path91"
         style="fill:#000000;fill-opacity:1;stroke:#000000;stroke-width:0;stroke-linejoin:round;stroke-opacity:1;paint-order:fill markers stroke"
         d="m 964.07064,375.77886 c -8.93152,0.22174 -16.1233,1.5681 -27.04377,4.7213 -29.65894,8.56375 -53.13301,28.02881 -62.14767,51.53445 -5.57475,14.53605 -5.72021,37.67148 -0.3252,51.53625 1.5713,4.03814 2.08484,6.38678 1.52144,6.95484 -0.46789,0.47176 -5.06066,1.23271 -10.20662,1.69077 -22.99497,2.04687 -39.26062,11.2105 -47.48866,26.75463 0,0 -2.29601,3.64112 -2.97002,5.61237 -1.28621,3.76171 -1.94456,7.71751 -1.97336,11.63725 -0.0315,4.29188 0.64284,8.62662 1.97336,12.76443 0.91178,2.83558 4.06702,8.10645 4.06702,8.10645 2.23707,4.45826 4.06701,8.62574 4.06701,9.26167 0,1.23212 -0.0504,1.22936 -12.18311,-0.74813 -7.53752,-1.22855 -16.86735,-0.26539 -25.10633,2.59268 -19.37774,6.72208 -30.26743,23.37656 -25.68282,39.27753 1.18371,4.1055 2.39459,5.98316 6.43099,9.96548 4.49621,4.43592 15.10294,10.94311 16.13715,9.90034 0.22932,-0.23121 -1.4018,-2.38109 -3.62568,-4.77829 -5.9634,-6.4281 -7.63873,-10.84854 -7.1743,-18.93767 0.63427,-11.04727 5.95787,-18.56015 17.25738,-24.35373 8.29613,-4.25366 16.40297,-5.8957 29.5883,-5.99321 6.40043,-0.0473 12.47552,-0.33891 13.49971,-0.64773 1.78947,-0.53955 1.71771,-0.75276 -1.83079,-5.47305 -6.43086,-8.55442 -9.50083,-21.56653 -7.31895,-31.01818 2.45348,-10.62806 10.04126,-20.53955 19.69738,-25.72878 9.72715,-5.22742 24.742,-6.90403 43.64232,-4.87238 7.23336,0.77753 12.6976,1.01162 13.14284,0.56269 0.44524,-0.44892 -0.7134,-4.24942 -2.7863,-9.14135 -5.03952,-11.89292 -7.7693,-22.64598 -8.33148,-32.8139 -0.41102,-7.43425 -0.16239,-9.95306 1.78856,-18.13073 5.90325,-24.74439 22.99312,-41.71096 50.597,-50.23087 7.45762,-2.30179 8.34333,-2.37919 27.4017,-2.37919 19.11482,0 19.92197,0.0707 27.40169,2.3991 26.70577,8.31349 47.68367,25.26837 61.80247,49.94862 4.4061,7.70219 5.0191,7.74335 7.3896,0.49755 1.569,-4.79586 6.1599,-12.01598 10.5118,-16.53405 12.7871,-13.27545 31.4351,-13.06709 44.6295,0.49846 2.4482,2.51704 6.4984,8.23613 8.9998,12.70924 4.319,7.72351 6.6728,10.3924 6.6728,7.56728 0,-0.70359 1.7235,-4.7182 3.8305,-8.92153 15.0135,-29.95101 43.421,-48.30082 74.5208,-48.13662 32.0321,0.16911 62.6813,19.1698 74.958,46.46938 4.58,10.1847 5.5022,15.25098 5.4332,29.85573 -0.089,18.74834 -1.8908,27.01341 -9.3883,43.06885 -2.0809,4.45605 -3.783,8.29988 -3.783,8.54158 0,0.66436 11.6995,-0.39354 26.5454,-2.4 18.2594,-2.4678 32.3685,-2.65969 38.5332,-0.52468 23.8657,8.2654 38.6954,29.80751 40.7789,59.23742 0.9703,13.70571 -3.5717,32.18289 -10.423,42.39943 -4.4255,6.59913 -18.8916,21.08583 -24.8794,24.9146 -7.1725,4.58631 -8.2405,4.11703 -16.5901,-7.28414 -7.2659,-9.92135 -13.0685,-19.05339 -33.8422,-53.2632 -34.3792,-56.61529 -41.6574,-67.50653 -74.0077,-110.75108 -17.0637,-22.81007 -24.2905,-31.5677 -26.0513,-31.5673 -1.5603,3.5e-4 -33.3013,33.64725 -55.7969,59.14697 -24.7246,28.02647 -26.8871,30.6244 -33.7757,40.57478 -2.9586,4.27375 -6.3669,8.83512 -7.5734,10.13735 -2.1019,2.26881 -2.2619,2.3054 -3.8495,0.86393 -0.9112,-0.82736 -8.1377,-10.66367 -16.0579,-21.85784 -17.2928,-24.44097 -21.0352,-29.29123 -22.5988,-29.29123 -0.6549,0 -4.2727,3.59365 -8.0401,7.98614 -3.7674,4.39247 -8.7653,9.86994 -11.1062,12.17188 -5.1864,5.10012 -4.9565,5.18129 -14.8279,-5.27765 -10.7472,-11.38691 -19.0648,-21.54317 -29.84063,-36.43967 -10.26699,-14.19308 -25.14237,-33.02803 -29.83853,-37.78035 -1.55752,-1.57615 -3.20762,-2.63101 -3.66686,-2.34482 -2.77041,1.72637 -21.95452,28.55649 -40.09265,56.0721 -23.26533,35.29357 -36.29121,56.75986 -70.69771,116.50999 -6.00079,10.42096 -14.30922,24.45026 -18.46312,31.17559 -8.80899,14.2621 -17.456,29.66751 -16.94274,30.18502 0.33874,0.34154 25.13815,-25.90905 37.85325,-40.06817 6.24924,-6.95893 24.42061,-29.2321 29.91772,-36.67126 1.80115,-2.43747 13.49293,-24.96846 25.98161,-50.06894 12.58355,-25.29111 23.03281,-45.30694 23.43815,-44.89623 0.40229,0.40764 1.00232,6.27807 1.3335,13.04487 0.33119,6.76678 0.88894,12.30306 1.23954,12.30306 1.10238,0 18.03196,-19.2209 20.91262,-23.74309 1.51245,-2.37432 4.8155,-8.95065 7.34112,-14.61442 5.40306,-12.11652 7.47374,-14.99172 9.83707,-13.65821 0.88307,0.49828 13.78379,13.15624 28.66866,28.12878 19.6698,19.78558 27.7525,27.36913 29.5852,27.75697 8.9391,1.89191 8.7243,1.52607 8.8699,15.12463 0.096,8.9635 0.6131,12.95078 1.6787,12.95078 0.3018,0 4.1604,-8.54767 8.5744,-18.99466 6.886,-16.29788 8.2832,-18.99078 9.8413,-18.96843 1.3258,0.019 4.5439,3.64887 11.9276,13.45105 l 10.1126,13.42481 -0.9439,13.52975 c -1.5398,22.06525 -1.219,21.04656 -15.0623,47.81639 -6.805,13.15924 -13.1425,25.24221 -14.0836,26.85053 l -1.7115,2.92378 -9.1159,0.56269 c -5.014,0.30933 -15.3177,0.5654 -22.8976,0.56992 -31.77723,0.0175 -64.41325,4.10923 -88.40276,11.0827 -17.69524,5.14382 -54.53026,21.26968 -66.21258,28.98728 -2.57443,1.70072 -4.2683,3.09205 -3.76506,3.09205 0.50326,0 5.02296,-1.73542 10.04402,-3.85647 21.71431,-9.17276 41.84761,-15.05367 64.76505,-18.91686 44.39963,-7.48443 98.79003,-7.51553 159.27253,-0.0914 9.6548,1.18511 19.4806,2.36654 21.8354,2.62525 2.3549,0.25871 16.0348,2.36667 30.3992,4.68421 65.988,10.64641 71.0824,11.23136 102.7566,11.80642 28.8813,0.52434 44.0649,-0.55198 62.0886,-4.40106 25.7713,-5.50368 50.2569,-17.99965 65.8705,-33.61631 8.2509,-8.25253 13.8056,-14.56469 18.8609,-25.37473 5.6904,-12.16808 8.0132,-14.6189 8.0132,-33.79331 0,-14.28913 -2.6679,-19.46306 -4.2142,-25.06541 -2.3097,-8.36868 -6.5175,-17.58236 -11.4397,-25.04758 -4.5995,-6.97581 -17.0986,-19.17731 -23.7159,-23.15147 -12.621,-7.57986 -29.4794,-10.41853 -50.5991,-8.52077 l -8.3484,0.74994 0.01,-2.04539 c 0.01,-1.12489 0.6217,-4.18207 1.3684,-6.79381 1.8299,-6.40099 2.6377,-33.85877 1.2353,-41.97877 -1.17,-6.77423 -5.3063,-17.33575 -9.9479,-25.39949 -11.5519,-20.06853 -31.0553,-36.55106 -55.7244,-44.18978 -7.4139,-2.29566 -10.7377,-4.61359 -31.5623,-4.66047 -21.3627,-0.0481 -27.5302,2.21634 -34.7935,4.68721 -18.235,6.20332 -25.8431,14.41194 -38.7698,27.72579 -3.7242,3.83577 -7.4259,6.97384 -8.2259,6.97384 -0.7999,0 -3.1499,-1.30494 -5.2221,-2.90026 -9.1828,-7.06961 -19.0199,-10.3898 -30.7306,-10.37166 -11.1207,0.0172 -19.5535,2.92495 -30.8268,10.63038 -2.1194,1.4486 -4.3227,2.63567 -4.8959,2.63792 -0.5731,0.002 -3.8476,-2.55488 -7.2777,-5.68202 -23.9561,-21.84024 -50.6265,-33.3991 -79.91926,-34.63583 -3.56632,-0.15057 -6.73743,-0.20147 -9.7146,-0.12755 z m 229.88266,98.29602 c 0.6744,0 1.2432,0.48567 1.2638,1.07923 0.021,0.59358 0.3723,14.0944 0.7813,30.00229 l 0.7433,28.92395 7.4361,28.92305 c 6.6256,25.7716 8.9618,33.38509 8.9946,29.31204 0.01,-0.68855 0.5668,-7.07895 1.2479,-14.20189 0.6811,-7.12294 1.6387,-21.11031 2.1275,-31.08242 l 0.889,-18.13073 3.821,-5.61237 c 4.722,-6.93426 13.9278,-17.2677 15.3833,-17.2677 1.5227,0 9.4348,16.71499 31.4497,66.44286 16.4075,37.06147 20.7561,43.66076 46.757,70.95519 5.7693,6.05633 10.4896,11.37453 10.4896,11.81727 0,0.7679 -2.6561,2.04756 -6.4828,3.12371 -0.9754,0.27433 -8.1041,1.51054 -15.8415,2.74648 -12.3843,1.97821 -17.0915,2.27738 -39.3293,2.50494 -35.076,0.35891 -38.0363,0.0704 -102.3279,-9.97182 -48.0892,-7.51147 -62.5492,-9.53626 -85.8445,-12.02353 -8.5955,-0.91773 -16.0283,-1.91796 -16.5173,-2.22269 -1.5132,-0.94299 2.0111,-6.22464 31.6767,-47.46538 34.6516,-48.17215 42.0634,-58.04906 49.9952,-66.62199 10.4332,-11.2764 51.9913,-51.23049 53.2873,-51.23049 z"
         sodipodi:nodetypes="sssssscssscsssssssssssssssssssssssssssssssssssssssssssssssssssssscsssssssssssssscsssscccsccccsssssssssssssssscccsssssssssssccsssscccsscccssssssssssssss" />
    </g>
  </g>
</svg>
