<?xml version="1.0" encoding="UTF-8" standalone="no"?>
<!-- Created with Inkscape (http://www.inkscape.org/) -->

<svg
   version="1.1"
   id="svg1"
   width="880"
   height="880"
   viewBox="0 0 880 880"
   sodipodi:docname="settings-form.svg"
   inkscape:version="1.3.2 (091e20e, 2023-11-25, custom)"
   xmlns:inkscape="http://www.inkscape.org/namespaces/inkscape"
   xmlns:sodipodi="http://sodipodi.sourceforge.net/DTD/sodipodi-0.dtd"
   xmlns="http://www.w3.org/2000/svg"
   xmlns:svg="http://www.w3.org/2000/svg">
  <defs
     id="defs1">
    <clipPath
       clipPathUnits="userSpaceOnUse"
       id="clipPath5">
      <path
         d="M 0,660 H 660 V 0 H 0 Z"
         transform="translate(-477.71681,-256.66801)"
         id="path5" />
    </clipPath>
    <clipPath
       clipPathUnits="userSpaceOnUse"
       id="clipPath7">
      <path
         d="M 0,660 H 660 V 0 H 0 Z"
         transform="translate(-477.71681,-256.66801)"
         id="path7" />
    </clipPath>
    <clipPath
       clipPathUnits="userSpaceOnUse"
       id="clipPath9">
      <path
         d="M 0,660 H 660 V 0 H 0 Z"
         transform="translate(-489.05661,-246.0469)"
         id="path9" />
    </clipPath>
    <clipPath
       clipPathUnits="userSpaceOnUse"
       id="clipPath11">
      <path
         d="M 0,660 H 660 V 0 H 0 Z"
         transform="translate(-194.7441,-296.5498)"
         id="path11" />
    </clipPath>
    <clipPath
       clipPathUnits="userSpaceOnUse"
       id="clipPath13">
      <path
         d="M 0,660 H 660 V 0 H 0 Z"
         transform="translate(-175.0488,-491.00931)"
         id="path13" />
    </clipPath>
    <clipPath
       clipPathUnits="userSpaceOnUse"
       id="clipPath15">
      <path
         d="M 0,660 H 660 V 0 H 0 Z"
         transform="translate(-175.0488,-491.00931)"
         id="path15" />
    </clipPath>
    <clipPath
       clipPathUnits="userSpaceOnUse"
       id="clipPath17">
      <path
         d="M 0,660 H 660 V 0 H 0 Z"
         transform="translate(-175.0488,-470.07471)"
         id="path17" />
    </clipPath>
    <clipPath
       clipPathUnits="userSpaceOnUse"
       id="clipPath19">
      <path
         d="M 0,660 H 660 V 0 H 0 Z"
         transform="translate(-187.35111,-443.15231)"
         id="path19" />
    </clipPath>
    <clipPath
       clipPathUnits="userSpaceOnUse"
       id="clipPath21">
      <path
         d="M 0,660 H 660 V 0 H 0 Z"
         transform="translate(-187.35111,-435.65141)"
         id="path21" />
    </clipPath>
    <clipPath
       clipPathUnits="userSpaceOnUse"
       id="clipPath23">
      <path
         d="M 0,660 H 660 V 0 H 0 Z"
         transform="translate(-187.35111,-443.15231)"
         id="path23" />
    </clipPath>
    <clipPath
       clipPathUnits="userSpaceOnUse"
       id="clipPath25">
      <path
         d="M 0,660 H 660 V 0 H 0 Z"
         transform="translate(-460.36231,-419.98241)"
         id="path25" />
    </clipPath>
    <clipPath
       clipPathUnits="userSpaceOnUse"
       id="clipPath27">
      <path
         d="M 0,660 H 660 V 0 H 0 Z"
         transform="translate(-412.27831,-438.59961)"
         id="path27" />
    </clipPath>
    <clipPath
       clipPathUnits="userSpaceOnUse"
       id="clipPath29">
      <path
         d="M 0,660 H 660 V 0 H 0 Z"
         transform="translate(-467.52831,-401.09521)"
         id="path29" />
    </clipPath>
    <clipPath
       clipPathUnits="userSpaceOnUse"
       id="clipPath31">
      <path
         d="M 0,660 H 660 V 0 H 0 Z"
         transform="translate(-467.52831,-401.09521)"
         id="path31" />
    </clipPath>
    <clipPath
       clipPathUnits="userSpaceOnUse"
       id="clipPath33">
      <path
         d="M 0,660 H 660 V 0 H 0 Z"
         transform="translate(-444.75881,-401.09521)"
         id="path33" />
    </clipPath>
    <clipPath
       clipPathUnits="userSpaceOnUse"
       id="clipPath35">
      <path
         d="M 0,660 H 660 V 0 H 0 Z"
         transform="translate(-423.19431,-401.09521)"
         id="path35" />
    </clipPath>
    <clipPath
       clipPathUnits="userSpaceOnUse"
       id="clipPath37">
      <path
         d="M 0,660 H 660 V 0 H 0 Z"
         transform="translate(-467.52831,-323.81251)"
         id="path37" />
    </clipPath>
    <clipPath
       clipPathUnits="userSpaceOnUse"
       id="clipPath39">
      <path
         d="M 0,660 H 660 V 0 H 0 Z"
         transform="translate(-467.52831,-323.81251)"
         id="path39" />
    </clipPath>
    <clipPath
       clipPathUnits="userSpaceOnUse"
       id="clipPath41">
      <path
         d="M 0,660 H 660 V 0 H 0 Z"
         transform="translate(-444.75881,-323.81251)"
         id="path41" />
    </clipPath>
    <clipPath
       clipPathUnits="userSpaceOnUse"
       id="clipPath43">
      <path
         d="M 0,660 H 660 V 0 H 0 Z"
         transform="translate(-423.19431,-323.81251)"
         id="path43" />
    </clipPath>
    <clipPath
       clipPathUnits="userSpaceOnUse"
       id="clipPath45">
      <path
         d="M 0,660 H 660 V 0 H 0 Z"
         transform="translate(-385.03321,-233.53711)"
         id="path45" />
    </clipPath>
    <clipPath
       clipPathUnits="userSpaceOnUse"
       id="clipPath47">
      <path
         d="M 0,660 H 660 V 0 H 0 Z"
         transform="translate(-204.33591,-289.12111)"
         id="path47" />
    </clipPath>
    <clipPath
       clipPathUnits="userSpaceOnUse"
       id="clipPath49">
      <path
         d="M 0,660 H 660 V 0 H 0 Z"
         transform="translate(-204.33591,-289.12111)"
         id="path49" />
    </clipPath>
    <clipPath
       clipPathUnits="userSpaceOnUse"
       id="clipPath51">
      <path
         d="M 0,660 H 660 V 0 H 0 Z"
         transform="translate(-314.70211,-295.0801)"
         id="path51" />
    </clipPath>
    <clipPath
       clipPathUnits="userSpaceOnUse"
       id="clipPath53">
      <path
         d="M 0,660 H 660 V 0 H 0 Z"
         transform="translate(-204.33591,-308.27341)"
         id="path53" />
    </clipPath>
    <clipPath
       clipPathUnits="userSpaceOnUse"
       id="clipPath55">
      <path
         d="M 0,660 H 660 V 0 H 0 Z"
         transform="translate(-204.33591,-308.27341)"
         id="path55" />
    </clipPath>
    <clipPath
       clipPathUnits="userSpaceOnUse"
       id="clipPath57">
      <path
         d="M 0,660 H 660 V 0 H 0 Z"
         transform="translate(-260.85691,-314.23441)"
         id="path57" />
    </clipPath>
    <clipPath
       clipPathUnits="userSpaceOnUse"
       id="clipPath59">
      <path
         d="M 0,660 H 660 V 0 H 0 Z"
         transform="translate(-204.33591,-327.42681)"
         id="path59" />
    </clipPath>
    <clipPath
       clipPathUnits="userSpaceOnUse"
       id="clipPath61">
      <path
         d="M 0,660 H 660 V 0 H 0 Z"
         transform="translate(-204.33591,-327.42681)"
         id="path61" />
    </clipPath>
    <clipPath
       clipPathUnits="userSpaceOnUse"
       id="clipPath63">
      <path
         d="M 0,660 H 660 V 0 H 0 Z"
         transform="translate(-352.74221,-333.38721)"
         id="path63" />
    </clipPath>
    <clipPath
       clipPathUnits="userSpaceOnUse"
       id="clipPath65">
      <path
         d="M 0,660 H 660 V 0 H 0 Z"
         transform="translate(-204.33591,-346.57911)"
         id="path65" />
    </clipPath>
    <clipPath
       clipPathUnits="userSpaceOnUse"
       id="clipPath67">
      <path
         d="M 0,660 H 660 V 0 H 0 Z"
         transform="translate(-204.33591,-346.57911)"
         id="path67" />
    </clipPath>
    <clipPath
       clipPathUnits="userSpaceOnUse"
       id="clipPath69">
      <path
         d="M 0,660 H 660 V 0 H 0 Z"
         transform="translate(-302.91601,-352.54001)"
         id="path69" />
    </clipPath>
    <clipPath
       clipPathUnits="userSpaceOnUse"
       id="clipPath71">
      <path
         d="M 0,660 H 660 V 0 H 0 Z"
         transform="translate(-204.33591,-365.73391)"
         id="path71" />
    </clipPath>
    <clipPath
       clipPathUnits="userSpaceOnUse"
       id="clipPath73">
      <path
         d="M 0,660 H 660 V 0 H 0 Z"
         transform="translate(-204.33591,-365.73391)"
         id="path73" />
    </clipPath>
    <clipPath
       clipPathUnits="userSpaceOnUse"
       id="clipPath75">
      <path
         d="M 0,660 H 660 V 0 H 0 Z"
         transform="translate(-267.28561,-371.69291)"
         id="path75" />
    </clipPath>
    <clipPath
       clipPathUnits="userSpaceOnUse"
       id="clipPath77">
      <path
         d="M 0,660 H 660 V 0 H 0 Z"
         transform="translate(-204.33591,-384.88671)"
         id="path77" />
    </clipPath>
    <clipPath
       clipPathUnits="userSpaceOnUse"
       id="clipPath79">
      <path
         d="M 0,660 H 660 V 0 H 0 Z"
         transform="translate(-204.33591,-384.88671)"
         id="path79" />
    </clipPath>
    <clipPath
       clipPathUnits="userSpaceOnUse"
       id="clipPath81">
      <path
         d="M 0,660 H 660 V 0 H 0 Z"
         transform="translate(-330.23931,-390.84671)"
         id="path81" />
    </clipPath>
    <clipPath
       clipPathUnits="userSpaceOnUse"
       id="clipPath83">
      <path
         d="M 0,660 H 660 V 0 H 0 Z"
         transform="translate(-338.94731,-261.12601)"
         id="path83" />
    </clipPath>
    <clipPath
       clipPathUnits="userSpaceOnUse"
       id="clipPath85">
      <path
         d="M 0,660 H 660 V 0 H 0 Z"
         transform="translate(-415.96091,-377.51901)"
         id="path85" />
    </clipPath>
    <clipPath
       clipPathUnits="userSpaceOnUse"
       id="clipPath87">
      <path
         d="M 0,660 H 660 V 0 H 0 Z"
         transform="translate(-415.96091,-355.28521)"
         id="path87" />
    </clipPath>
    <clipPath
       clipPathUnits="userSpaceOnUse"
       id="clipPath89">
      <path
         d="M 0,660 H 660 V 0 H 0 Z"
         transform="translate(-415.96091,-277.33111)"
         id="path89" />
    </clipPath>
    <clipPath
       clipPathUnits="userSpaceOnUse"
       id="clipPath91">
      <path
         d="M 0,660 H 660 V 0 H 0 Z"
         transform="translate(-415.96091,-255.0967)"
         id="path91" />
    </clipPath>
    <clipPath
       clipPathUnits="userSpaceOnUse"
       id="clipPath93">
      <path
         d="M 0,660 H 660 V 0 H 0 Z"
         transform="translate(-415.96091,-299.03031)"
         id="path93" />
    </clipPath>
    <clipPath
       clipPathUnits="userSpaceOnUse"
       id="clipPath95">
      <path
         d="M 0,660 H 660 V 0 H 0 Z"
         transform="translate(-417.12701,-499.79641)"
         id="path95" />
    </clipPath>
    <clipPath
       clipPathUnits="userSpaceOnUse"
       id="clipPath97">
      <path
         d="M 0,660 H 660 V 0 H 0 Z"
         transform="translate(-353.12401,-579.80572)"
         id="path97" />
    </clipPath>
    <clipPath
       clipPathUnits="userSpaceOnUse"
       id="clipPath99">
      <path
         d="M 0,660 H 660 V 0 H 0 Z"
         transform="translate(-353.12401,-579.80572)"
         id="path99" />
    </clipPath>
    <clipPath
       clipPathUnits="userSpaceOnUse"
       id="clipPath101">
      <path
         d="M 0,660 H 660 V 0 H 0 Z"
         transform="translate(-359.08011,-570.58981)"
         id="path101" />
    </clipPath>
    <clipPath
       clipPathUnits="userSpaceOnUse"
       id="clipPath103">
      <path
         d="M 0,660 H 660 V 0 H 0 Z"
         transform="translate(-396.14451,-116.1963)"
         id="path103" />
    </clipPath>
    <clipPath
       clipPathUnits="userSpaceOnUse"
       id="clipPath105">
      <path
         d="M 0,660 H 660 V 0 H 0 Z"
         transform="translate(-311.79641,-156.5283)"
         id="path105" />
    </clipPath>
    <clipPath
       clipPathUnits="userSpaceOnUse"
       id="clipPath107">
      <path
         d="M 0,660 H 660 V 0 H 0 Z"
         transform="translate(-311.79641,-156.5283)"
         id="path107" />
    </clipPath>
    <clipPath
       clipPathUnits="userSpaceOnUse"
       id="clipPath109">
      <path
         d="M 0,660 H 660 V 0 H 0 Z"
         transform="translate(-320.34911,-151.3203)"
         id="path109" />
    </clipPath>
    <clipPath
       clipPathUnits="userSpaceOnUse"
       id="clipPath111">
      <path
         d="M 0,660 H 660 V 0 H 0 Z"
         transform="translate(-254.59281,-171.7852)"
         id="path111" />
    </clipPath>
    <clipPath
       clipPathUnits="userSpaceOnUse"
       id="clipPath113">
      <path
         d="M 0,660 H 660 V 0 H 0 Z"
         transform="translate(-180.4248,-193.01661)"
         id="path113" />
    </clipPath>
    <clipPath
       clipPathUnits="userSpaceOnUse"
       id="clipPath115">
      <path
         d="M 0,660 H 660 V 0 H 0 Z"
         transform="translate(-180.4248,-193.01661)"
         id="path115" />
    </clipPath>
    <clipPath
       clipPathUnits="userSpaceOnUse"
       id="clipPath117">
      <path
         d="M 0,660 H 660 V 0 H 0 Z"
         transform="translate(-188.0991,-189.9541)"
         id="path117" />
    </clipPath>
    <clipPath
       clipPathUnits="userSpaceOnUse"
       id="clipPath119">
      <path
         d="M 0,660 H 660 V 0 H 0 Z"
         transform="translate(-512.55371,-479.71781)"
         id="path119" />
    </clipPath>
    <clipPath
       clipPathUnits="userSpaceOnUse"
       id="clipPath121">
      <path
         d="M 0,660 H 660 V 0 H 0 Z"
         transform="translate(-475.60841,-515.45311)"
         id="path121" />
    </clipPath>
    <clipPath
       clipPathUnits="userSpaceOnUse"
       id="clipPath123">
      <path
         d="M 0,660 H 660 V 0 H 0 Z"
         transform="translate(-475.60841,-515.45311)"
         id="path123" />
    </clipPath>
    <clipPath
       clipPathUnits="userSpaceOnUse"
       id="clipPath125">
      <path
         d="M 0,660 H 660 V 0 H 0 Z"
         transform="translate(-479.15921,-511.24612)"
         id="path125" />
    </clipPath>
  </defs>
  <sodipodi:namedview
     id="namedview1"
     pagecolor="#ffffff"
     bordercolor="#000000"
     borderopacity="0.25"
     inkscape:showpageshadow="2"
     inkscape:pageopacity="0.0"
     inkscape:pagecheckerboard="0"
     inkscape:deskcolor="#d1d1d1"
     inkscape:zoom="0.67272727"
     inkscape:cx="439.25676"
     inkscape:cy="440"
     inkscape:window-width="1440"
     inkscape:window-height="830"
     inkscape:window-x="-6"
     inkscape:window-y="-6"
     inkscape:window-maximized="1"
     inkscape:current-layer="g1">
    <inkscape:page
       x="0"
       y="0"
       inkscape:label="1"
       id="page1"
       width="880"
       height="880"
       margin="0 0 1.0653334 0.63344264"
       bleed="0" />
  </sodipodi:namedview>
  <g
     id="g1"
     inkscape:groupmode="layer"
     inkscape:label="1">
    <g
       id="group-MC0">
      <path
         id="path2"
         d="M 0.475,0 H 659.999 V 659.201 H 0.475 Z"
         style="fill:#4eb0dd;fill-opacity:1;fill-rule:nonzero;stroke:none"
         transform="matrix(1.3333333,0,0,-1.3333333,0,880)" />
      <path
         id="path3"
         d="m 0,0 -19.987,-21.335 -29.516,15.677 31.934,34.089 z M 9.697,105.914 18.18,77.937 -10.154,60.214 -23.709,104.913 Z m -193.142,-89.119 -8.485,27.978 28.335,17.722 13.555,-44.699 z m 106.268,150.472 28.47,-6.641 1.181,-33.4 -45.488,10.611 z m -19.395,-211.826 -28.469,6.642 -1.181,33.399 45.488,-10.61 z m -77.178,167.268 19.988,21.335 29.516,-15.678 -31.933,-34.088 z"
         style="fill:#3582b3;fill-opacity:1;fill-rule:evenodd;stroke:none"
         transform="matrix(1.3333333,0,0,-1.3333333,790.7188,655.11333)" />
      <path
         id="path4"
         d="M 0,0 C -14.718,-15.71 -13.913,-40.378 1.799,-55.097 17.511,-69.814 42.178,-69.009 56.896,-53.299 71.613,-37.587 70.81,-12.92 55.098,1.8 39.386,16.516 14.718,15.712 0,0 M -30.164,28.259 C 0.161,60.629 50.985,62.286 83.355,31.965 115.724,1.64 117.384,-49.185 87.06,-81.556 56.735,-113.926 5.911,-115.585 -26.458,-85.26 -58.829,-54.937 -60.487,-4.112 -30.164,28.259"
         style="fill:#3d92c5;fill-opacity:1;fill-rule:evenodd;stroke:none"
         transform="matrix(1.3333333,0,0,-1.3333333,636.95573,537.776)"
         clip-path="url(#clipPath5)" />
      <path
         id="path6"
         d="M 0,0 C -14.718,-15.71 -13.913,-40.378 1.799,-55.097 17.511,-69.814 42.178,-69.009 56.896,-53.299 71.613,-37.587 70.81,-12.92 55.098,1.8 39.386,16.516 14.718,15.712 0,0 m -21.91,20.525 c 26.055,27.812 69.72,29.237 97.531,3.183 27.812,-26.054 29.236,-69.719 3.185,-97.53 -26.054,-27.813 -69.721,-29.238 -97.532,-3.184 -27.811,26.055 -29.236,69.72 -3.184,97.531"
         style="fill:#abe4f5;fill-opacity:1;fill-rule:evenodd;stroke:none"
         transform="matrix(1.3333333,0,0,-1.3333333,636.95573,537.776)"
         clip-path="url(#clipPath7)" />
      <path
         id="path8"
         d="m 0,0 c -8.85,-9.449 -8.367,-24.283 1.081,-33.137 9.449,-8.85 24.284,-8.365 33.135,1.082 8.852,9.45 8.368,24.284 -1.081,33.136 C 23.687,9.933 8.851,9.447 0,0 M -13.056,12.23 C 2.55,28.888 28.707,29.742 45.365,14.137 62.024,-1.47 62.879,-27.625 47.271,-44.286 31.666,-60.944 5.51,-61.798 -11.149,-46.192 -27.809,-30.587 -28.663,-4.43 -13.056,12.23"
         style="fill:#ffffff;fill-opacity:1;fill-rule:evenodd;stroke:none"
         transform="matrix(1.3333333,0,0,-1.3333333,652.07547,551.93747)"
         clip-path="url(#clipPath9)" />
      <path
         id="path10"
         d="M 0,0 H -39.391 L -51.162,43.465 H 11.772 Z M 113.076,88.026 93.381,53.913 49.852,65.45 81.321,119.953 Z m -265.543,107.826 19.696,34.113 43.528,-11.538 -31.467,-54.502 z m 245.848,34.114 19.695,-34.113 -31.755,-31.928 -31.469,54.502 z m -226.152,-176.054 -19.696,34.113 31.757,31.928 31.467,-54.503 z m 93.38,229.967 H 0 l 11.771,-43.465 h -62.934 z"
         style="fill:#3582b3;fill-opacity:1;fill-rule:evenodd;stroke:none"
         transform="matrix(1.3333333,0,0,-1.3333333,259.6588,484.60027)"
         clip-path="url(#clipPath11)" />
      <path
         id="path12"
         d="m 0,0 c -29.006,0 -52.521,-23.514 -52.521,-52.52 0,-29.006 23.515,-52.52 52.521,-52.52 29.006,0 52.52,23.514 52.52,52.52 C 52.52,-23.514 29.006,0 0,0 m 0,55.69 c 59.763,0 108.21,-48.447 108.21,-108.21 0,-59.763 -48.447,-108.21 -108.21,-108.21 -59.763,0 -108.21,48.447 -108.21,108.21 0,59.763 48.447,108.21 108.21,108.21"
         style="fill:#3d92c5;fill-opacity:1;fill-rule:evenodd;stroke:none"
         transform="matrix(1.3333333,0,0,-1.3333333,233.3984,225.32093)"
         clip-path="url(#clipPath13)" />
      <path
         id="path14"
         d="m 0,0 c -29.006,0 -52.521,-23.514 -52.521,-52.52 0,-29.006 23.515,-52.52 52.521,-52.52 29.006,0 52.52,23.514 52.52,52.52 C 52.52,-23.514 29.006,0 0,0 m 0,40.45 c 51.347,0 92.969,-41.625 92.969,-92.97 0,-51.346 -41.622,-92.971 -92.969,-92.971 -51.346,0 -92.97,41.625 -92.97,92.971 0,51.345 41.624,92.97 92.97,92.97"
         style="fill:#abe4f5;fill-opacity:1;fill-rule:evenodd;stroke:none"
         transform="matrix(1.3333333,0,0,-1.3333333,233.3984,225.32093)"
         clip-path="url(#clipPath15)" />
      <path
         id="path16"
         d="m 0,0 c -17.444,0 -31.586,-14.141 -31.586,-31.586 0,-17.444 14.142,-31.586 31.586,-31.586 17.444,0 31.586,14.142 31.586,31.586 C 31.586,-14.141 17.444,0 0,0 m 0,24.104 c 30.757,0 55.689,-24.933 55.689,-55.69 0,-30.756 -24.932,-55.689 -55.689,-55.689 -30.757,0 -55.689,24.933 -55.689,55.689 0,30.757 24.932,55.69 55.689,55.69"
         style="fill:#ffffff;fill-opacity:1;fill-rule:evenodd;stroke:none"
         transform="matrix(1.3333333,0,0,-1.3333333,233.3984,253.23373)"
         clip-path="url(#clipPath17)" />
      <path
         id="path18"
         d="m 0,0 h 286.309 c 10.255,0 18.646,-8.391 18.646,-18.645 v -190.673 c 0,-10.255 -8.391,-18.646 -18.646,-18.646 H 0 c -10.256,0 -18.646,8.391 -18.646,18.646 V -18.645 C -18.646,-8.391 -10.256,0 0,0"
         style="fill:#d2f0fa;fill-opacity:1;fill-rule:evenodd;stroke:none"
         transform="matrix(1.3333333,0,0,-1.3333333,249.80147,289.13027)"
         clip-path="url(#clipPath19)" />
      <path
         id="path20"
         d="m 0,0 h 286.309 c 6.131,0 11.145,-5.015 11.145,-11.144 v -190.673 c 0,-6.131 -5.014,-11.145 -11.145,-11.145 H 0 c -6.129,0 -11.144,5.014 -11.144,11.145 V -11.144 C -11.144,-5.015 -6.129,0 0,0"
         style="fill:#abe4f5;fill-opacity:1;fill-rule:evenodd;stroke:none"
         transform="matrix(1.3333333,0,0,-1.3333333,249.80147,299.13147)"
         clip-path="url(#clipPath21)" />
      <path
         id="path22"
         d="m 0,0 h 286.309 c 10.255,0 18.646,-8.391 18.646,-18.646 v -9.022 H -18.646 v 9.022 C -18.646,-8.391 -10.255,0 0,0"
         style="fill:#ffffff;fill-opacity:1;fill-rule:evenodd;stroke:none"
         transform="matrix(1.3333333,0,0,-1.3333333,249.80147,289.13027)"
         clip-path="url(#clipPath23)" />
      <path
         id="path24"
         d="m 0,0 c 5.128,0 9.31,4.181 9.31,9.309 0,5.127 -4.182,9.309 -9.31,9.309 -5.127,0 -9.308,-4.182 -9.308,-9.309 C -9.308,4.181 -5.127,0 0,0"
         style="fill:#4eb0dd;fill-opacity:1;fill-rule:evenodd;stroke:none"
         transform="matrix(1.3333333,0,0,-1.3333333,613.8164,320.02347)"
         clip-path="url(#clipPath25)" />
      <path
         id="path26"
         d="m 0,0 c 5.142,0 9.308,-4.167 9.308,-9.309 0,-5.14 -4.166,-9.308 -9.308,-9.308 -5.142,0 -9.31,4.168 -9.31,9.308 C -9.31,-4.167 -5.142,0 0,0 m 24.043,0 c 5.14,0 9.308,-4.167 9.308,-9.309 0,-5.14 -4.168,-9.308 -9.308,-9.308 -5.142,0 -9.31,4.168 -9.31,9.308 0,5.142 4.168,9.309 9.31,9.309"
         style="fill:#abe4f5;fill-opacity:1;fill-rule:evenodd;stroke:none"
         transform="matrix(1.3333333,0,0,-1.3333333,549.7044,295.20053)"
         clip-path="url(#clipPath27)" />
      <path
         id="path28"
         d="m 0,0 h -59.202 c -3.462,0 -6.294,-2.832 -6.294,-6.295 v -55.987 c 0,-3.462 2.832,-6.294 6.294,-6.294 H 0 c 3.464,0 6.296,2.832 6.296,6.294 V -6.295 C 6.296,-2.832 3.464,0 0,0"
         style="fill:#4eb0dd;fill-opacity:1;fill-rule:evenodd;stroke:none"
         transform="matrix(1.3333333,0,0,-1.3333333,623.37107,345.2064)"
         clip-path="url(#clipPath29)" />
      <path
         id="path30"
         d="m 0,0 h -59.202 c -3.462,0 -6.294,-2.832 -6.294,-6.295 v -6.697 H 6.296 v 6.697 C 6.296,-2.832 3.464,0 0,0"
         style="fill:#d2f0fa;fill-opacity:1;fill-rule:evenodd;stroke:none"
         transform="matrix(1.3333333,0,0,-1.3333333,623.37107,345.2064)"
         clip-path="url(#clipPath31)" />
      <path
         id="path32"
         d="m 0,0 h -20.896 c -3.459,0 -6.294,-2.835 -6.294,-6.295 v -6.697 H 6.296 v 6.697 C 6.296,-2.832 3.458,0 0,0"
         style="fill:#65cbf3;fill-opacity:1;fill-rule:evenodd;stroke:none"
         transform="matrix(1.3333333,0,0,-1.3333333,593.01173,345.2064)"
         clip-path="url(#clipPath33)" />
      <path
         id="path34"
         d="m 0,0 h -14.868 c -3.462,0 -6.294,-2.833 -6.294,-6.295 v -9.777 H 6.296 v 9.777 C 6.296,-2.832 3.462,0 0,0"
         style="fill:#4eb0dd;fill-opacity:1;fill-rule:evenodd;stroke:none"
         transform="matrix(1.3333333,0,0,-1.3333333,564.25907,345.2064)"
         clip-path="url(#clipPath35)" />
      <path
         id="path36"
         d="m 0,0 h -59.202 c -3.462,0 -6.294,-2.832 -6.294,-6.296 v -77.685 c 0,-3.462 2.832,-6.294 6.294,-6.294 H 0 c 3.464,0 6.296,2.832 6.296,6.294 V -6.296 C 6.296,-2.832 3.462,0 0,0"
         style="fill:#4eb0dd;fill-opacity:1;fill-rule:evenodd;stroke:none"
         transform="matrix(1.3333333,0,0,-1.3333333,623.37107,448.25)"
         clip-path="url(#clipPath37)" />
      <path
         id="path38"
         d="m 0,0 h -59.202 c -3.462,0 -6.294,-2.832 -6.294,-6.296 v -6.697 H 6.296 v 6.697 C 6.296,-2.832 3.464,0 0,0"
         style="fill:#d2f0fa;fill-opacity:1;fill-rule:evenodd;stroke:none"
         transform="matrix(1.3333333,0,0,-1.3333333,623.37107,448.25)"
         clip-path="url(#clipPath39)" />
      <path
         id="path40"
         d="m 0,0 h -20.896 c -3.459,0 -6.294,-2.836 -6.294,-6.296 v -6.697 H 6.296 v 6.697 C 6.296,-2.832 3.458,0 0,0"
         style="fill:#65cbf3;fill-opacity:1;fill-rule:evenodd;stroke:none"
         transform="matrix(1.3333333,0,0,-1.3333333,593.01173,448.25)"
         clip-path="url(#clipPath41)" />
      <path
         id="path42"
         d="m 0,0 h -14.868 c -3.462,0 -6.294,-2.834 -6.294,-6.296 v -9.776 H 6.296 v 9.776 C 6.296,-2.832 3.462,0 0,0"
         style="fill:#4eb0dd;fill-opacity:1;fill-rule:evenodd;stroke:none"
         transform="matrix(1.3333333,0,0,-1.3333333,564.25907,448.25)"
         clip-path="url(#clipPath43)" />
      <path
         id="path44"
         d="m 0,0 h -186.735 c -3.461,0 -6.284,2.827 -6.284,6.283 v 154.991 c 0,3.457 2.822,6.284 6.284,6.284 H 0 c 3.462,0 6.283,-2.828 6.283,-6.284 V 6.283 C 6.283,2.827 3.46,0 0,0"
         style="fill:#65cbf3;fill-opacity:1;fill-rule:evenodd;stroke:none"
         transform="matrix(1.3333333,0,0,-1.3333333,513.3776,568.6172)"
         clip-path="url(#clipPath45)" />
      <path
         id="path46"
         d="m 0,0 h 174.659 c 1.915,0 3.482,-1.566 3.482,-3.483 v -0.002 c 0,-1.914 -1.567,-3.481 -3.482,-3.481 L 0,-6.966 c -1.915,0 -3.482,1.567 -3.482,3.481 v 0.002 C -3.482,-1.566 -1.915,0 0,0"
         style="fill:#4eb0dd;fill-opacity:1;fill-rule:evenodd;stroke:none"
         transform="matrix(1.3333333,0,0,-1.3333333,272.44787,494.5052)"
         clip-path="url(#clipPath47)" />
      <path
         id="path48"
         d="M 0,0 H 109.562 V -6.966 H 0 c -1.915,0 -3.482,1.567 -3.482,3.481 v 0.002 C -3.482,-1.566 -1.915,0 0,0"
         style="fill:#d2f0fa;fill-opacity:1;fill-rule:evenodd;stroke:none"
         transform="matrix(1.3333333,0,0,-1.3333333,272.44787,494.5052)"
         clip-path="url(#clipPath49)" />
      <path
         id="path50"
         d="m 0,0 v 0 c 2.026,0 3.683,-1.658 3.683,-3.684 v -11.519 c 0,-2.025 -1.657,-3.683 -3.683,-3.683 -2.027,0 -3.684,1.657 -3.684,3.683 V -3.684 C -3.684,-1.657 -2.027,0 0,0"
         style="fill:#ffffff;fill-opacity:1;fill-rule:evenodd;stroke:none"
         transform="matrix(1.3333333,0,0,-1.3333333,419.6028,486.55987)"
         clip-path="url(#clipPath51)" />
      <path
         id="path52"
         d="m 0,0 h 174.659 c 1.915,0 3.482,-1.566 3.482,-3.482 0,-1.917 -1.567,-3.484 -3.482,-3.484 H 0 c -1.915,0 -3.482,1.567 -3.482,3.484 C -3.482,-1.566 -1.915,0 0,0"
         style="fill:#4eb0dd;fill-opacity:1;fill-rule:evenodd;stroke:none"
         transform="matrix(1.3333333,0,0,-1.3333333,272.44787,468.9688)"
         clip-path="url(#clipPath53)" />
      <path
         id="path54"
         d="M 0,0 H 55.719 V -6.966 H 0 c -1.915,0 -3.482,1.567 -3.482,3.484 C -3.482,-1.566 -1.915,0 0,0"
         style="fill:#d2f0fa;fill-opacity:1;fill-rule:evenodd;stroke:none"
         transform="matrix(1.3333333,0,0,-1.3333333,272.44787,468.9688)"
         clip-path="url(#clipPath55)" />
      <path
         id="path56"
         d="m 0,0 v 0 c 2.027,0 3.684,-1.658 3.684,-3.684 v -11.52 c 0,-2.025 -1.657,-3.684 -3.684,-3.684 -2.024,0 -3.683,1.659 -3.683,3.684 v 11.52 C -3.683,-1.658 -2.024,0 0,0"
         style="fill:#ffffff;fill-opacity:1;fill-rule:evenodd;stroke:none"
         transform="matrix(1.3333333,0,0,-1.3333333,347.8092,461.0208)"
         clip-path="url(#clipPath57)" />
      <path
         id="path58"
         d="m 0,0 h 174.659 c 1.915,0 3.482,-1.566 3.482,-3.482 v -10e-4 c 0,-1.915 -1.567,-3.483 -3.482,-3.483 H 0 c -1.915,0 -3.482,1.568 -3.482,3.483 v 10e-4 C -3.482,-1.566 -1.915,0 0,0"
         style="fill:#4eb0dd;fill-opacity:1;fill-rule:evenodd;stroke:none"
         transform="matrix(1.3333333,0,0,-1.3333333,272.44787,443.43093)"
         clip-path="url(#clipPath59)" />
      <path
         id="path60"
         d="M 0,0 H 147.601 V -6.966 H 0 c -1.915,0 -3.482,1.568 -3.482,3.483 v 10e-4 C -3.482,-1.566 -1.915,0 0,0"
         style="fill:#d2f0fa;fill-opacity:1;fill-rule:evenodd;stroke:none"
         transform="matrix(1.3333333,0,0,-1.3333333,272.44787,443.43093)"
         clip-path="url(#clipPath61)" />
      <path
         id="path62"
         d="m 0,0 v 0 c 2.025,0 3.684,-1.657 3.684,-3.683 v -11.52 c 0,-2.026 -1.659,-3.683 -3.684,-3.683 -2.026,0 -3.683,1.657 -3.683,3.683 v 11.52 C -3.683,-1.657 -2.026,0 0,0"
         style="fill:#ffffff;fill-opacity:1;fill-rule:evenodd;stroke:none"
         transform="matrix(1.3333333,0,0,-1.3333333,470.32293,435.48373)"
         clip-path="url(#clipPath63)" />
      <path
         id="path64"
         d="m 0,0 h 174.659 c 1.915,0 3.482,-1.566 3.482,-3.481 0,-1.917 -1.567,-3.485 -3.482,-3.485 L 0,-6.966 c -1.915,0 -3.482,1.568 -3.482,3.485 C -3.482,-1.566 -1.915,0 0,0"
         style="fill:#4eb0dd;fill-opacity:1;fill-rule:evenodd;stroke:none"
         transform="matrix(1.3333333,0,0,-1.3333333,272.44787,417.89453)"
         clip-path="url(#clipPath65)" />
      <path
         id="path66"
         d="M 0,0 H 97.776 V -6.966 H 0 c -1.915,0 -3.482,1.568 -3.482,3.485 C -3.482,-1.566 -1.915,0 0,0"
         style="fill:#d2f0fa;fill-opacity:1;fill-rule:evenodd;stroke:none"
         transform="matrix(1.3333333,0,0,-1.3333333,272.44787,417.89453)"
         clip-path="url(#clipPath67)" />
      <path
         id="path68"
         d="m 0,0 v 0 c 2.026,0 3.683,-1.388 3.683,-3.415 v -11.788 c 0,-2.024 -1.657,-3.683 -3.683,-3.683 -2.027,0 -3.684,1.659 -3.684,3.683 v 11.52 C -3.684,-1.657 -2.027,0 0,0"
         style="fill:#ffffff;fill-opacity:1;fill-rule:evenodd;stroke:none"
         transform="matrix(1.3333333,0,0,-1.3333333,403.888,409.94667)"
         clip-path="url(#clipPath69)" />
      <path
         id="path70"
         d="m 0,0 h 174.659 c 1.915,0 3.482,-1.568 3.482,-3.483 0,-1.915 -1.567,-3.483 -3.482,-3.483 H 0 c -1.915,0 -3.482,1.568 -3.482,3.483 C -3.482,-1.568 -1.915,0 0,0"
         style="fill:#4eb0dd;fill-opacity:1;fill-rule:evenodd;stroke:none"
         transform="matrix(1.3333333,0,0,-1.3333333,272.44787,392.3548)"
         clip-path="url(#clipPath71)" />
      <path
         id="path72"
         d="M 0,0 H 62.148 V -6.966 H 0 c -1.915,0 -3.482,1.568 -3.482,3.483 C -3.482,-1.568 -1.915,0 0,0"
         style="fill:#d2f0fa;fill-opacity:1;fill-rule:evenodd;stroke:none"
         transform="matrix(1.3333333,0,0,-1.3333333,272.44787,392.3548)"
         clip-path="url(#clipPath73)" />
      <path
         id="path74"
         d="m 0,0 v 0 c 2.026,0 3.683,-1.657 3.683,-3.683 v -11.518 c 0,-2.026 -1.657,-3.683 -3.683,-3.683 -2.025,0 -3.684,1.657 -3.684,3.683 V -3.683 C -3.684,-1.657 -2.025,0 0,0"
         style="fill:#ffffff;fill-opacity:1;fill-rule:evenodd;stroke:none"
         transform="matrix(1.3333333,0,0,-1.3333333,356.3808,384.40947)"
         clip-path="url(#clipPath75)" />
      <path
         id="path76"
         d="m 0,0 h 174.659 c 1.915,0 3.482,-1.567 3.482,-3.483 0,-1.916 -1.567,-3.483 -3.482,-3.483 H 0 c -1.915,0 -3.482,1.567 -3.482,3.483 C -3.482,-1.567 -1.915,0 0,0"
         style="fill:#4eb0dd;fill-opacity:1;fill-rule:evenodd;stroke:none"
         transform="matrix(1.3333333,0,0,-1.3333333,272.44787,366.81773)"
         clip-path="url(#clipPath77)" />
      <path
         id="path78"
         d="M 0,0 H 125.1 V -6.966 H 0 c -1.915,0 -3.482,1.567 -3.482,3.483 C -3.482,-1.567 -1.915,0 0,0"
         style="fill:#d2f0fa;fill-opacity:1;fill-rule:evenodd;stroke:none"
         transform="matrix(1.3333333,0,0,-1.3333333,272.44787,366.81773)"
         clip-path="url(#clipPath79)" />
      <path
         id="path80"
         d="m 0,0 v 0 c 2.025,0 3.684,-1.658 3.684,-3.684 v -11.519 c 0,-2.025 -1.659,-3.682 -3.684,-3.682 -2.025,0 -3.683,1.657 -3.683,3.682 V -3.684 C -3.683,-1.658 -2.025,0 0,0"
         style="fill:#ffffff;fill-opacity:1;fill-rule:evenodd;stroke:none"
         transform="matrix(1.3333333,0,0,-1.3333333,440.31907,358.87107)"
         clip-path="url(#clipPath81)" />
      <path
         id="path82"
         d="m 0,0 h 32.682 c 3.756,0 6.831,-3.073 6.831,-6.83 0,-3.758 -3.075,-6.833 -6.831,-6.833 H 0 c -3.758,0 -6.831,3.075 -6.831,6.833 C -6.831,-3.073 -3.758,0 0,0 m -124.834,0 h 32.68 c 3.758,0 6.833,-3.073 6.833,-6.83 0,-3.758 -3.075,-6.833 -6.833,-6.833 h -32.68 c -3.758,0 -6.832,3.075 -6.832,6.833 0,3.757 3.074,6.83 6.832,6.83 m 62.417,0 h 32.682 c 3.756,0 6.831,-3.073 6.831,-6.83 0,-3.758 -3.075,-6.833 -6.831,-6.833 h -32.682 c -3.758,0 -6.831,3.075 -6.831,6.833 0,3.757 3.073,6.83 6.831,6.83"
         style="fill:#d2f0fa;fill-opacity:1;fill-rule:evenodd;stroke:none"
         transform="matrix(1.3333333,0,0,-1.3333333,451.92973,531.832)"
         clip-path="url(#clipPath83)" />
      <path
         id="path84"
         d="m 0,0 h 43.934 c 2.946,0 5.356,-2.411 5.356,-5.359 v -3.212 c 0,-2.948 -2.41,-5.358 -5.356,-5.358 H 0 c -2.947,0 -5.357,2.41 -5.357,5.358 v 3.212 C -5.357,-2.411 -2.947,0 0,0"
         style="fill:#65cbf3;fill-opacity:1;fill-rule:evenodd;stroke:none"
         transform="matrix(1.3333333,0,0,-1.3333333,554.61453,376.64133)"
         clip-path="url(#clipPath85)" />
      <path
         id="path86"
         d="m 0,0 h 43.934 c 2.946,0 5.356,-2.41 5.356,-5.357 v -3.216 c 0,-2.946 -2.41,-5.358 -5.356,-5.358 H 0 c -2.947,0 -5.357,2.412 -5.357,5.358 v 3.216 C -5.357,-2.41 -2.947,0 0,0"
         style="fill:#65cbf3;fill-opacity:1;fill-rule:evenodd;stroke:none"
         transform="matrix(1.3333333,0,0,-1.3333333,554.61453,406.2864)"
         clip-path="url(#clipPath87)" />
      <path
         id="path88"
         d="m 0,0 h 43.934 c 2.946,0 5.356,-2.41 5.356,-5.357 v -3.214 c 0,-2.949 -2.41,-5.359 -5.356,-5.359 H 0 c -2.947,0 -5.357,2.41 -5.357,5.359 v 3.214 C -5.357,-2.41 -2.947,0 0,0"
         style="fill:#65cbf3;fill-opacity:1;fill-rule:evenodd;stroke:none"
         transform="matrix(1.3333333,0,0,-1.3333333,554.61453,510.2252)"
         clip-path="url(#clipPath89)" />
      <path
         id="path90"
         d="m 0,0 h 43.934 c 2.946,0 5.356,-2.41 5.356,-5.357 v -3.215 c 0,-2.948 -2.41,-5.358 -5.356,-5.358 H 0 c -2.947,0 -5.357,2.41 -5.357,5.358 v 3.215 C -5.357,-2.41 -2.947,0 0,0"
         style="fill:#65cbf3;fill-opacity:1;fill-rule:evenodd;stroke:none"
         transform="matrix(1.3333333,0,0,-1.3333333,554.61453,539.87107)"
         clip-path="url(#clipPath91)" />
      <path
         id="path92"
         d="m 0,0 h 43.934 c 2.946,0 5.356,-2.412 5.356,-5.357 v -3.216 c 0,-2.949 -2.41,-5.359 -5.356,-5.359 H 0 c -2.947,0 -5.357,2.41 -5.357,5.359 v 3.216 C -5.357,-2.412 -2.947,0 0,0"
         style="fill:#65cbf3;fill-opacity:1;fill-rule:evenodd;stroke:none"
         transform="matrix(1.3333333,0,0,-1.3333333,554.61453,481.29293)"
         clip-path="url(#clipPath93)" />
      <path
         id="path94"
         d="M 0,0 -17.343,-11.208 -34.893,4.578 -7.186,22.486 Z M 24.735,70.928 25.77,50.306 3.325,43 1.67,75.95 Z m -147.59,-28.084 -1.034,20.623 22.447,7.305 1.654,-32.948 z m 98.533,84.972 18.376,-9.415 -4.896,-23.092 -29.361,15.042 z m -49.473,-141.858 -18.379,9.414 4.898,23.093 29.362,-15.042 z m -24.322,127.816 17.342,11.208 17.55,-15.787 -27.707,-17.907 z"
         style="fill:#3582b3;fill-opacity:1;fill-rule:evenodd;stroke:none"
         transform="matrix(1.3333333,0,0,-1.3333333,556.16933,213.6048)"
         clip-path="url(#clipPath95)" />
      <path
         id="path96"
         d="m 0,0 c -12.772,-8.253 -16.432,-25.296 -8.179,-38.066 8.254,-12.771 25.297,-16.433 38.067,-8.179 12.771,8.253 16.431,25.295 8.179,38.067 C 29.814,4.591 12.771,8.253 0,0 m -15.846,24.518 c 26.312,17.004 61.426,9.46 78.431,-16.851 17.004,-26.311 9.461,-61.425 -16.852,-78.43 -26.309,-17.006 -61.425,-9.461 -78.429,16.851 -17.006,26.311 -9.462,61.426 16.85,78.43"
         style="fill:#3d92c5;fill-opacity:1;fill-rule:evenodd;stroke:none"
         transform="matrix(1.3333333,0,0,-1.3333333,470.832,106.92573)"
         clip-path="url(#clipPath97)" />
      <path
         id="path98"
         d="m 0,0 c -12.772,-8.253 -16.432,-25.296 -8.179,-38.066 8.254,-12.771 25.297,-16.433 38.067,-8.179 12.771,8.253 16.431,25.295 8.179,38.067 C 29.814,4.591 12.771,8.253 0,0 m -11.509,17.809 c 22.607,14.609 52.775,8.128 67.384,-14.478 14.61,-22.606 8.128,-52.775 -14.477,-67.385 -22.606,-14.61 -52.776,-8.128 -67.385,14.478 -14.61,22.606 -8.127,52.775 14.478,67.385"
         style="fill:#abe4f5;fill-opacity:1;fill-rule:evenodd;stroke:none"
         transform="matrix(1.3333333,0,0,-1.3333333,470.832,106.92573)"
         clip-path="url(#clipPath99)" />
      <path
         id="path100"
         d="m 0,0 c -7.679,-4.964 -9.882,-15.214 -4.918,-22.894 4.964,-7.68 15.213,-9.882 22.894,-4.919 7.678,4.963 9.881,15.213 4.917,22.893 C 17.931,2.761 7.681,4.962 0,0 m -6.857,10.611 c 13.541,8.752 31.612,4.868 40.363,-8.672 8.752,-13.541 4.87,-31.612 -8.673,-40.363 -13.54,-8.752 -31.612,-4.87 -40.361,8.672 -8.754,13.541 -4.869,31.612 8.671,40.363"
         style="fill:#ffffff;fill-opacity:1;fill-rule:evenodd;stroke:none"
         transform="matrix(1.3333333,0,0,-1.3333333,478.77347,119.2136)"
         clip-path="url(#clipPath101)" />
      <path
         id="path102"
         d="m 0,0 -9.8,-16.094 -20.686,6.004 15.656,25.713 z M -7.833,68.097 1.205,51.563 -14.338,36.65 -28.776,63.065 Z m -110.115,-81.662 -9.038,16.533 15.543,14.913 14.439,-26.416 z m 47.226,108.927 18.837,-0.439 5.143,-20.917 -30.096,0.702 z m 15.663,-136.193 -18.837,0.439 -5.143,20.918 30.095,-0.705 z m -70.722,95.362 9.8,16.095 20.688,-6.005 -15.658,-25.712 z"
         style="fill:#3d92c5;fill-opacity:1;fill-rule:evenodd;stroke:none"
         transform="matrix(1.3333333,0,0,-1.3333333,528.19267,725.0716)"
         clip-path="url(#clipPath103)" />
      <path
         id="path104"
         d="m 0,0 c -7.217,-11.851 -3.46,-27.308 8.392,-34.523 11.849,-7.217 27.307,-3.46 34.523,8.39 7.215,11.851 3.459,27.307 -8.39,34.524 C 22.672,15.607 7.217,11.851 0,0 M -22.753,13.855 C -7.883,38.271 23.962,46.011 48.379,31.143 72.795,16.275 80.536,-15.57 65.668,-39.988 50.799,-64.403 18.952,-72.144 -5.464,-57.275 c -24.416,14.868 -32.158,46.714 -17.289,71.13"
         style="fill:#3d92c5;fill-opacity:1;fill-rule:evenodd;stroke:none"
         transform="matrix(1.3333333,0,0,-1.3333333,415.72853,671.2956)"
         clip-path="url(#clipPath105)" />
      <path
         id="path106"
         d="m 0,0 c -7.217,-11.851 -3.46,-27.308 8.392,-34.523 11.849,-7.217 27.307,-3.46 34.523,8.39 7.215,11.851 3.459,27.307 -8.39,34.524 C 22.672,15.607 7.217,11.851 0,0 M -16.526,10.063 C -3.751,31.042 23.611,37.691 44.587,24.917 65.565,12.144 72.214,-15.219 59.44,-36.195 46.667,-57.175 19.306,-63.824 -1.672,-51.05 c -20.977,12.774 -27.627,40.136 -14.854,61.113"
         style="fill:#3d92c5;fill-opacity:1;fill-rule:evenodd;stroke:none"
         transform="matrix(1.3333333,0,0,-1.3333333,415.72853,671.2956)"
         clip-path="url(#clipPath107)" />
      <path
         id="path108"
         d="m 0,0 c -4.339,-7.128 -2.081,-16.423 5.047,-20.763 7.126,-4.341 16.422,-2.08 20.763,5.046 4.339,7.128 2.08,16.424 -5.048,20.763 C 13.634,9.387 4.339,7.126 0,0 M -9.847,5.996 C -2.196,18.561 14.193,22.545 26.76,14.895 39.324,7.241 43.307,-9.147 35.659,-21.713 28.005,-34.278 11.615,-38.264 -0.951,-30.61 -13.516,-22.958 -17.5,-6.569 -9.847,5.996"
         style="fill:#3d92c5;fill-opacity:1;fill-rule:evenodd;stroke:none"
         transform="matrix(1.3333333,0,0,-1.3333333,427.13213,678.2396)"
         clip-path="url(#clipPath109)" />
      <path
         id="path110"
         d="m 0,0 -5.762,-14.441 -17.657,2.045 9.209,23.071 z m -15.724,54.331 9.623,-12.21 -10.598,-14.27 -15.377,19.511 z m -78.381,-81.567 -9.624,12.211 10.598,14.268 15.376,-19.509 z m 23.464,95.115 15.388,2.228 7.058,-16.311 -24.584,-3.562 z m 31.451,-108.663 -15.387,-2.229 -7.058,16.314 24.585,3.56 z m -70.641,67.879 5.764,14.44 17.656,-2.044 -9.208,-23.071 z"
         style="fill:#ffffff;fill-opacity:1;fill-rule:evenodd;stroke:none"
         transform="matrix(1.3333333,0,0,-1.3333333,339.45707,650.95307)"
         clip-path="url(#clipPath111)" />
      <path
         id="path112"
         d="m 0,0 c -4.244,-10.634 0.936,-22.693 11.569,-26.937 10.633,-4.245 22.694,0.935 26.937,11.569 C 42.751,-4.735 37.571,7.325 26.937,11.569 16.304,15.813 4.243,10.633 0,0 m -20.415,8.148 c 8.744,21.91 33.592,32.579 55.5,23.837 21.908,-8.744 32.581,-33.593 23.836,-55.502 -8.744,-21.908 -33.592,-32.58 -55.5,-23.835 -21.908,8.743 -32.581,33.591 -23.836,55.5"
         style="fill:#ffffff;fill-opacity:1;fill-rule:evenodd;stroke:none"
         transform="matrix(1.3333333,0,0,-1.3333333,240.5664,622.64453)"
         clip-path="url(#clipPath113)" />
      <path
         id="path114"
         d="m 0,0 c -4.244,-10.634 0.936,-22.693 11.569,-26.937 10.633,-4.245 22.694,0.935 26.937,11.569 C 42.751,-4.735 37.571,7.325 26.937,11.569 16.304,15.813 4.243,10.633 0,0 m -14.829,5.919 c 7.513,18.823 28.862,27.991 47.684,20.48 18.824,-7.513 27.992,-28.864 20.479,-47.685 -7.512,-18.823 -28.86,-27.991 -47.684,-20.48 -18.823,7.513 -27.991,28.862 -20.479,47.685"
         style="fill:#ffffff;fill-opacity:1;fill-rule:evenodd;stroke:none"
         transform="matrix(1.3333333,0,0,-1.3333333,240.5664,622.64453)"
         clip-path="url(#clipPath115)" />
      <path
         id="path116"
         d="m 0,0 c -2.552,-6.396 0.562,-13.648 6.957,-16.2 6.396,-2.554 13.649,0.563 16.201,6.957 C 25.71,-2.848 22.595,4.405 16.2,6.957 9.805,9.51 2.552,6.395 0,0 M -8.837,3.526 C -4.336,14.802 8.452,20.293 19.727,15.794 31.003,11.294 36.495,-1.495 31.993,-12.77 27.494,-24.045 14.706,-29.537 3.431,-25.037 -7.844,-20.536 -13.337,-7.749 -8.837,3.526"
         style="fill:#ffffff;fill-opacity:1;fill-rule:evenodd;stroke:none"
         transform="matrix(1.3333333,0,0,-1.3333333,250.7988,626.72787)"
         clip-path="url(#clipPath117)" />
      <path
         id="path118"
         d="M 0,0 -7.916,-6.683 -17.654,0.055 -5.009,10.73 Z M 7.791,36.87 9.618,26.674 -1.085,21.609 -4.008,37.899 Z m -71.653,-23.378 -1.829,10.197 10.704,5.064 2.922,-16.29 z m 43.616,48.56 9.744,-3.514 -0.965,-11.803 -15.568,5.615 z m -15.581,-73.741 -9.744,3.513 0.965,11.803 15.57,-5.614 z m -20.244,62.053 7.914,6.681 9.74,-6.737 -12.647,-10.676 z"
         style="fill:#ffffff;fill-opacity:1;fill-rule:evenodd;stroke:none"
         transform="matrix(1.3333333,0,0,-1.3333333,683.40493,240.37627)"
         clip-path="url(#clipPath119)" />
      <path
         id="path120"
         d="m 0,0 c -5.828,-4.92 -6.566,-13.634 -1.645,-19.463 4.92,-5.829 13.633,-6.565 19.464,-1.644 5.828,4.92 6.565,13.633 1.645,19.462 C 14.544,4.184 5.829,4.921 0,0 m -9.447,11.191 c 12.01,10.138 29.964,8.621 40.102,-3.389 10.138,-12.009 8.62,-29.964 -3.388,-40.101 -12.01,-10.138 -29.965,-8.621 -40.103,3.389 -10.138,12.009 -8.62,29.963 3.389,40.101"
         style="fill:#ffffff;fill-opacity:1;fill-rule:evenodd;stroke:none"
         transform="matrix(1.3333333,0,0,-1.3333333,634.14453,192.7292)"
         clip-path="url(#clipPath121)" />
      <path
         id="path122"
         d="m 0,0 c -5.828,-4.92 -6.566,-13.634 -1.645,-19.463 4.92,-5.829 13.633,-6.565 19.464,-1.644 5.828,4.92 6.565,13.633 1.645,19.462 C 14.544,4.184 5.829,4.921 0,0 m -6.862,8.128 c 10.319,8.71 25.743,7.407 34.453,-2.911 8.711,-10.318 7.406,-25.743 -2.911,-34.453 -10.318,-8.711 -25.744,-7.407 -34.453,2.911 -8.709,10.318 -7.407,25.744 2.911,34.453"
         style="fill:#ffffff;fill-opacity:1;fill-rule:evenodd;stroke:none"
         transform="matrix(1.3333333,0,0,-1.3333333,634.14453,192.7292)"
         clip-path="url(#clipPath123)" />
      <path
         id="path124"
         d="m 0,0 c -3.505,-2.959 -3.948,-8.2 -0.988,-11.705 2.959,-3.506 8.2,-3.949 11.706,-0.989 3.503,2.959 3.946,8.199 0.988,11.705 C 8.746,2.517 3.506,2.959 0,0 m -4.09,4.844 c 6.182,5.217 15.421,4.437 20.639,-1.744 5.219,-6.181 4.437,-15.421 -1.743,-20.638 -6.182,-5.217 -15.421,-4.437 -20.639,1.744 -5.217,6.181 -4.436,15.42 1.743,20.638"
         style="fill:#ffffff;fill-opacity:1;fill-rule:evenodd;stroke:none"
         transform="matrix(1.3333333,0,0,-1.3333333,638.87893,198.33853)"
         clip-path="url(#clipPath125)" />
    </g>
  </g>
</svg>
