<?xml version="1.0" encoding="UTF-8"?>
<svg width="1156.8" height="671" preserveAspectRatio="xMidYMid" version="1.0" viewBox="0 0 867.57 503.25" xmlns="http://www.w3.org/2000/svg">
 <metadata>Created by potrace 1.10, written by Peter Selinger 2001-2011</metadata>
 <g id="Portfolio-Icon-Only" transform="matrix(1.3299 0 0 1.6364 -165.05 -330.99)" style="image-rendering:auto">
  <title>Portfolio-Icon-Without-Words</title>
  <path transform="scale(.75)" d="m309.79 675.62c15.651-10.255 65-31.682 88.707-38.517 32.14-9.266 75.864-14.702 118.44-14.726 10.155-6e-3 23.96-0.34635 30.677-0.75737l12.214-0.74729 2.2925-3.8856c1.2609-2.137 9.7518-18.192 18.869-35.677 18.547-35.57 18.117-34.217 20.18-63.536l1.2649-17.978-13.548-17.838c-9.8923-13.025-14.205-17.848-15.981-17.873-2.0874-0.0297-3.9592 3.5485-13.185 25.204-5.9136 13.881-11.083 25.239-11.487 25.239-1.4277 0-2.12-5.2981-2.2486-17.208-0.19503-18.069 0.0925-17.583-11.884-20.097-2.4553-0.51537-13.284-10.591-39.636-36.881-19.942-19.895-37.226-36.714-38.409-37.376-3.1663-1.7719-5.94 2.0476-13.179 18.147-3.3837 7.5257-7.81 16.264-9.8363 19.419-3.8594 6.0089-26.54 31.549-28.017 31.549-0.46971 0-1.217-7.3566-1.6608-16.348-0.4437-8.9914-1.2477-16.791-1.7866-17.333-0.54305-0.54574-14.542 26.05-31.401 59.656-16.732 33.352-32.396 63.291-34.809 66.529-7.3648 9.8848-31.709 39.48-40.081 48.726-17.035 18.814-50.26 53.695-50.714 53.241-0.68764-0.68764 10.897-21.158 22.699-40.108 5.5652-8.9363 16.696-27.577 24.736-41.424 46.096-79.393 63.547-107.92 94.717-154.81 24.301-36.561 50.003-72.213 53.714-74.506 0.61528-0.38027 2.826 1.0221 4.9127 3.1164 6.2917 6.3147 26.221 31.341 39.976 50.2 14.437 19.794 25.58 33.29 39.978 48.42 13.225 13.897 12.918 13.789 19.867 7.0121 3.1362-3.0587 9.8318-10.337 14.879-16.173s9.8948-10.612 10.772-10.612c2.0949 0 7.1087 6.4454 30.277 38.921 10.611 14.874 20.292 27.944 21.512 29.043 2.1269 1.9154 2.3423 1.8674 5.1584-1.1472 1.6163-1.7303 6.182-7.7924 10.146-13.471 9.2289-13.222 12.125-16.673 45.25-53.913 30.138-33.883 72.664-78.591 74.754-78.592 2.359-5.3e-4 12.042 11.636 34.903 41.945 43.341 57.461 53.092 71.933 99.151 147.16 27.831 45.456 35.605 57.591 45.339 70.774 11.186 15.149 12.617 15.772 22.226 9.6783 8.0221-5.0875 27.403-24.336 33.332-33.105 9.1791-13.575 15.265-38.127 13.965-56.338-2.7914-39.105-22.659-67.73-54.633-78.712-8.2591-2.8369-27.162-2.5814-51.625 0.69766-19.89 2.6661-35.564 4.0714-35.564 3.1887 0-0.32117 2.281-5.4284 5.0688-11.349 10.045-21.334 12.458-32.316 12.577-57.228 0.0924-19.406-1.1426-26.137-7.2788-39.67-16.448-36.274-57.51-61.521-100.42-61.746-41.666-0.21817-79.725 24.164-99.839 63.961-2.8228 5.5852-5.1324 10.92-5.1324 11.855 0 3.7539-3.1533 0.20699-8.9396-10.056-3.3512-5.9437-8.7767-13.543-12.057-16.888-17.677-18.025-42.662-18.302-59.793-0.66219-5.8304 6.0034-11.98 15.597-14.082 21.97-3.1759 9.6279-3.9976 9.573-9.9008-0.6613-18.916-32.794-47.021-55.322-82.8-66.368-10.021-3.0939-11.102-6.7725-36.711-6.7725-25.533 0-26.72 3.6869-36.711 6.7454-36.982 11.321-59.879 33.865-67.788 66.744-2.6138 10.866-2.9467 14.213-2.396 24.092 0.75317 13.511 4.411 27.798 11.163 43.601 2.7772 6.5002 4.329 11.55 3.7325 12.147-0.59651 0.59651-7.9172 0.28579-17.608-0.74735-25.322-2.6996-45.437-0.47241-58.469 6.4735-12.937 6.8952-23.103 20.065-26.39 34.187-2.9232 12.559 1.1905 29.849 9.8062 41.215 4.7541 6.2721 4.8499 6.5561 2.4524 7.273-1.3722 0.41034-9.5107 0.79753-18.086 0.86042-17.665 0.12957-28.526 2.3114-39.641 7.9635-15.139 7.6982-22.27 17.68-23.12 32.359-0.62222 10.748 1.6211 16.622 9.6105 25.164 2.9794 3.1853 5.1658 6.0428 4.8586 6.35-1.3856 1.3856-15.596-7.2616-21.62-13.156-5.4078-5.2915-7.0308-7.7856-8.6167-13.241-6.1422-21.128 8.4481-43.258 34.409-52.19 11.038-3.7977 23.537-5.0781 33.636-3.4457 16.255 2.6276 16.323 2.6318 16.323 0.99457 0-0.84499-2.4522-6.3832-5.4493-12.307 0 0-3.7915-6.2747-5.4493-10.771s-3.3108-9.3154-3.4506-14.109c-0.16076-5.5146 0.43064-11.756 2.1043-16.365 1.2001-3.3049 4.4234-9.407 4.4234-9.407 11.486-20.487 33.717-32.831 64.525-35.55 6.8943-0.60865 13.048-1.6195 13.675-2.2464 0.75482-0.75482 0.0662-3.8759-2.0389-9.2416-7.228-18.423-7.0318-49.164 0.43693-68.479 12.077-31.233 43.526-57.097 83.262-68.477 19.508-5.5864 30.134-6.9034 49.246-6.1031 39.245 1.6433 74.976 17.002 107.07 46.022 4.5955 4.1552 8.9836 7.5527 9.7514 7.55 0.76783-3e-3 3.7192-1.5798 6.5586-3.5046 15.103-10.239 26.401-14.103 41.3-14.126 15.69-0.0241 28.869 4.3873 41.171 13.781 2.7762 2.1198 5.9245 3.8542 6.9962 3.8542 1.0717 0 7.1849-6.3109 11.02-9.2669 17.744-13.674 33.285-30.585 55.379-39.1 13.195-5.0855 28.574-6.187 43.177-6.0366 14.534 0.14972 29.947 1.3347 42.773 6.8916 30.805 13.346 55.959 35.882 74.169 60.086 7.5838 10.08 11.761 24.749 13.328 33.75 1.8789 10.789 0.7959 47.273-1.6558 55.779-1.0003 3.4704-1.8249 7.5327-1.8324 9.0274l-0.0136 2.7177 11.185-0.99685c28.295-2.5216 50.881 1.2507 67.79 11.322 8.8655 5.2807 25.61 21.493 31.772 30.762 6.5945 9.9194 14.548 24 17.131 33.282 2.5831 9.282 5.6955 9.6287 5.6955 31.861 0 22.232-3.4213 30.527-11.045 46.696-6.7728 14.364-15.759 22.403-26.813 33.369-20.918 20.751-53.723 37.355-88.25 44.668-24.147 5.1145-44.49 6.5446-83.184 5.8479-42.436-0.76411-49.26-1.5418-137.67-15.688-19.245-3.0794-37.572-5.8802-40.727-6.224-3.1549-0.34377-16.319-1.9134-29.254-3.4882-81.031-9.8649-153.9-9.8234-213.38 0.12161-30.704 5.1332-57.678 12.947-86.77 25.136-6.727 2.8183-12.782 5.1242-13.457 5.1242-0.67422 0 1.5961-1.849 5.0452-4.1088zm583.82-26.15c10.366-1.6423 19.917-3.2842 21.224-3.6487 5.1268-1.4299 8.686-3.131 8.686-4.1514 0-0.58829-6.3241-7.6538-14.054-15.701-34.835-36.268-40.661-45.037-62.643-94.282-29.494-66.076-40.094-88.286-42.134-88.286-1.95 0-14.283 13.731-20.61 22.945l-5.1199 7.457-1.1907 24.092c-0.6549 13.25-1.9373 31.836-2.8498 41.3-0.91253 9.4646-1.6652 17.957-1.6726 18.872-0.0439 5.4121-3.1739-4.7043-12.05-38.948l-9.9622-38.432-0.99616-38.432c-0.54789-21.138-1.0187-39.077-1.0463-39.866-0.0276-0.78872-0.78948-1.434-1.6931-1.434-1.7363 0-57.414 53.089-71.392 68.073-10.627 11.391-20.556 24.515-66.981 88.524-39.744 54.799-44.467 61.816-42.439 63.069 0.65513 0.4049 10.613 1.7339 22.129 2.9534 31.21 3.305 50.583 5.9962 115.01 15.977 86.135 13.344 90.101 13.727 137.09 13.25 29.793-0.30237 36.099-0.70081 52.691-3.3294z" style="fill:#000000;paint-order:fill markers stroke;stroke-width:0"/>
  <path transform="scale(.75)" d="m383.77 600.4c5.0616-5.2703 17.766-18.359 28.232-29.085s19.957-21.31 21.09-23.518c1.1336-2.2084 8.696-20.005 16.805-39.547 8.1094-19.543 15.511-36.299 16.448-37.236 1.0698-1.0698 2.084-1.2952 2.7259-0.60565 0.87976 0.94508 12.906 27.61 20.742 45.992 3.1613 7.4152 5.1533 9.2466 24.141 22.195 21.791 14.859 21.074 14.008 24.773 29.422 1.7239 7.1822 2.7952 13.398 2.3807 13.812-1.12 1.12-4.1661-1.9287-20.535-20.552-8.1802-9.3069-15.407-16.922-16.06-16.922-2.2081 0-8.321 7.6198-12.046 15.016-2.385 4.7352-4.5617 11.834-6.1105 19.927-2.6382 13.787-4.2293 18.116-5.6713 15.432-0.478-0.88961-2.1993-7.2962-3.825-14.237-2.7964-11.939-3.743-20.205-6.4967-56.736-1.1651-15.457-1.9216-18.09-4.8716-16.958-0.86889 0.33342-8.3882 13.961-16.71 30.284-16.705 32.767-19.883 37.211-35.136 49.121-9.8029 7.6547-32.098 21.702-36.542 23.024-1.6548 0.49226 0.66637-2.5824 6.6637-8.827z" style="fill:#000000;paint-order:fill markers stroke;stroke-width:0"/>
  <path transform="scale(.75)" d="m647.04 607.04c0-0.46364 5.8598-10.24 13.022-21.725 23.872-38.281 24.151-38.844 39.891-80.538 9.3802-24.846 12.666-32.077 13.719-30.194 0.46854 0.83723 1.9694 8.4897 3.3352 17.005 1.3658 8.5158 3.4816 20.646 4.7018 26.955 4.7288 24.453 4.7181 25.081-0.84782 49.904-5.6444 25.173-7.0589 30.101-8.4017 29.272-1.1762-0.72695-4.1178-17.109-5.7711-32.14-1.2776-11.615-2.9765-18.944-4.384-18.912-1.6082 0.0366-3.5162 2.0711-13.97 14.896-18.476 22.668-41.295 47.797-41.295 45.475z" style="fill:#000000;paint-order:fill markers stroke;stroke-width:0"/>
 </g>
</svg>
