<svg xmlns="http://www.w3.org/2000/svg" width="800" height="450" viewBox="0 0 800 450"><defs><linearGradient id="a" x1="0" x2="600" y1="0" y2="600" gradientTransform="matrix(1.33333 0 0 .75 .54 .27)" gradientUnits="userSpaceOnUse"><stop offset="0%" style="stop-color:#f8fafc;stop-opacity:1"/><stop offset="100%" style="stop-color:#e2e8f0;stop-opacity:1"/></linearGradient></defs><path fill="url(#a)" d="M.541.27h800v450h-800z" style="fill:url(#a)"/><path fill="none" stroke="#cbd5e0" stroke-width="3" d="M158.959 218.481h60"/><path fill="#cbd5e0" d="m228.152 218.752-10-5v10z"/><path fill="none" stroke="#cbd5e0" stroke-width="3" d="M343.285 218.482h60"/><path fill="#cbd5e0" d="M402.478 213.752v10l10-5z"/><text x="400" y="70" fill="#1e293b" font-family="system-ui, sans-serif" font-size="22" font-weight="700" text-anchor="middle">Document Evaluation Pipeline</text><text x="400" y="95" fill="#64748b" font-family="system-ui, sans-serif" font-size="13" text-anchor="middle">Production AI Grading System</text><g transform="translate(100 220)"><circle r="50" fill="#e0f2fe" stroke="#0ea5e9" stroke-width="3"/><g stroke="#0ea5e9" transform="translate(-20 -22)"><rect width="40" height="48" fill="none" stroke-width="3.5" rx="4"/><path stroke-linecap="round" stroke-width="3" d="M10 14h20M10 22h20M10 30h14"/></g><text y="75" fill="#0ea5e9" font-family="system-ui" font-size="15" font-weight="700" text-anchor="middle">Upload</text><text y="93" fill="#64748b" font-family="system-ui" font-size="11" text-anchor="middle">PDF · DOCX · TXT</text></g><g transform="translate(285 220)"><circle r="50" fill="#dcfce7" stroke="#22c55e" stroke-width="3"/><g stroke="#22c55e" transform="translate(-18 -18)"><rect width="36" height="36" fill="none" stroke-width="3" rx="3"/><path stroke-linecap="round" stroke-width="2.5" d="M9 10h18M9 18h18M9 26h11"/></g><text y="75" fill="#22c55e" font-family="system-ui" font-size="15" font-weight="700" text-anchor="middle">Extract</text><text y="93" fill="#64748b" font-family="system-ui" font-size="11" text-anchor="middle">Parse Content</text></g><g transform="translate(470 220)"><circle r="50" fill="#fef3c7" stroke="#f59e0b" stroke-width="3"/><circle r="30" fill="none" stroke="#f59e0b" stroke-width="3.5"/><path fill="none" stroke="#f59e0b" stroke-width="3" d="M-14-10q4-6 14-2 10-4 14 2M-14 10q4 6 14 2 10 4 14-2"/><circle cx="-10" r="3" fill="#f59e0b"/><circle cx="10" r="3" fill="#f59e0b"/><text y="75" fill="#f59e0b" font-family="system-ui" font-size="15" font-weight="700" text-anchor="middle">Analyze</text><text y="93" fill="#64748b" font-family="system-ui" font-size="11" text-anchor="middle">AI Quality</text></g><path fill="none" stroke="#cbd5e0" stroke-width="3" d="M529.39 218.482h60"/><path fill="#cbd5e0" d="M588.584 213.752v10l10-5z"/><g transform="translate(655 220)"><circle r="50" fill="#dbeafe" stroke="#3b82f6" stroke-width="3"/><circle r="30" fill="none" stroke="#3b82f6" stroke-width="3.5"/><path fill="none" stroke="#3b82f6" stroke-linecap="round" stroke-linejoin="round" stroke-width="4.5" d="m-12 0 9 9 17-21"/><text y="75" fill="#3b82f6" font-family="system-ui" font-size="15" font-weight="700" text-anchor="middle">Grade</text><text y="93" fill="#64748b" font-family="system-ui" font-size="11" text-anchor="middle">Feedback</text></g></svg>