<svg xmlns="http://www.w3.org/2000/svg" viewBox="0 0 800 450"><defs><linearGradient id="b" x1="20%" x2="80%" y1="20%" y2="80%"><stop offset="0%" stop-color="#60a5fa"/><stop offset="100%" stop-color="#2563eb"/></linearGradient><linearGradient id="c" x1="20%" x2="80%" y1="20%" y2="80%"><stop offset="0%" stop-color="#4ade80"/><stop offset="100%" stop-color="#16a34a"/></linearGradient><linearGradient id="d" x1="20%" x2="80%" y1="20%" y2="80%"><stop offset="0%" stop-color="#fbbf24"/><stop offset="100%" stop-color="#d97706"/></linearGradient><linearGradient id="e" x1="20%" x2="80%" y1="20%" y2="80%"><stop offset="0%" stop-color="#fb923c"/><stop offset="100%" stop-color="#ea580c"/></linearGradient><filter id="a" width="200%" height="200%" x="-50%" y="-50%"><feGaussianBlur in="SourceAlpha" stdDeviation="1.2"/><feOffset dy="1.5"/><feComponentTransfer><feFuncA slope=".15" type="linear"/></feComponentTransfer><feMerge><feMergeNode/><feMergeNode in="SourceGraphic"/></feMerge></filter></defs><path fill="#09090b" d="M0 0h800v450H0z"/><path fill="none" stroke="#334155" stroke-width="2.5" d="M156 220h64"/><path fill="#334155" d="m225 220-10-5v10z"/><path fill="none" stroke="#334155" stroke-width="2.5" d="M340 220h64"/><path fill="#334155" d="m409 220-10-5v10z"/><path fill="none" stroke="#334155" stroke-width="2.5" d="M524 220h64"/><path fill="#334155" d="m593 220-10-5v10z"/><text x="400" y="62" fill="#fafafa" font-family="system-ui,-apple-system,sans-serif" font-size="26" font-weight="700" letter-spacing="-.5" text-anchor="middle">Document Evaluation Pipeline</text><text x="400" y="86" fill="#71717a" font-family="system-ui,-apple-system,sans-serif" font-size="13" text-anchor="middle">Production AI Grading System</text><g filter="url(#a)"><circle cx="100" cy="220" r="46" fill="url(#b)"/><rect width="42" height="48" x="79" y="200" fill="none" stroke="#fff" stroke-linecap="round" stroke-width="2.5" opacity=".98" rx="3"/><path stroke="#fff" stroke-linecap="round" stroke-width="2.5" d="M88 213h23M88 222h23M88 231h16" opacity=".98"/></g><text x="100" y="288" fill="#fafafa" font-family="system-ui,-apple-system,sans-serif" font-size="15" font-weight="600" text-anchor="middle">Upload</text><text x="100" y="306" fill="#71717a" font-family="system-ui,-apple-system,sans-serif" font-size="11" text-anchor="middle">PDF · DOCX · TXT</text><g filter="url(#a)"><circle cx="284" cy="220" r="46" fill="url(#c)"/><rect width="42" height="36" x="263" y="204" fill="none" stroke="#fff" stroke-width="2.5" opacity=".98" rx="3"/><path stroke="#fff" stroke-linecap="round" stroke-width="2.5" d="M272 215h23M272 223h23M272 231h16" opacity=".98"/></g><text x="284" y="288" fill="#fafafa" font-family="system-ui,-apple-system,sans-serif" font-size="15" font-weight="600" text-anchor="middle">Extract</text><text x="284" y="306" fill="#71717a" font-family="system-ui,-apple-system,sans-serif" font-size="11" text-anchor="middle">Parse Content</text><g filter="url(#a)"><circle cx="468" cy="220" r="46" fill="url(#d)"/><circle cx="468" cy="220" r="25" fill="none" stroke="#fff" stroke-width="2.5" opacity=".98"/><path fill="none" stroke="#fff" stroke-width="2.5" d="M456 212q3-4 12-1.5 9-2.5 12 1.5M456 228q3 4 12 1.5 9 2.5 12-1.5" opacity=".98"/><circle cx="460" cy="220" r="2.5" fill="#fff" opacity=".98"/><circle cx="476" cy="220" r="2.5" fill="#fff" opacity=".98"/></g><text x="468" y="288" fill="#fafafa" font-family="system-ui,-apple-system,sans-serif" font-size="15" font-weight="600" text-anchor="middle">Analyze</text><text x="468" y="306" fill="#71717a" font-family="system-ui,-apple-system,sans-serif" font-size="11" text-anchor="middle">AI Quality Check</text><g filter="url(#a)"><circle cx="652" cy="220" r="46" fill="url(#e)"/><circle cx="652" cy="220" r="25" fill="none" stroke="#fff" stroke-width="2.5" opacity=".98"/><path fill="none" stroke="#fff" stroke-linecap="round" stroke-linejoin="round" stroke-width="3.5" d="m641 220 7 8 16-19" opacity=".98"/></g><text x="652" y="288" fill="#fafafa" font-family="system-ui,-apple-system,sans-serif" font-size="15" font-weight="600" text-anchor="middle">Grade</text><text x="652" y="306" fill="#71717a" font-family="system-ui,-apple-system,sans-serif" font-size="11" text-anchor="middle">AI Feedback</text></svg>