<svg xmlns="http://www.w3.org/2000/svg" viewBox="0 0 800 450"><defs><linearGradient id="b" x1="20%" x2="80%" y1="20%" y2="80%"><stop offset="0%" stop-color="#60a5fa"/><stop offset="100%" stop-color="#2563eb"/></linearGradient><linearGradient id="c" x1="20%" x2="80%" y1="20%" y2="80%"><stop offset="0%" stop-color="#fbbf24"/><stop offset="100%" stop-color="#d97706"/></linearGradient><linearGradient id="d" x1="20%" x2="80%" y1="20%" y2="80%"><stop offset="0%" stop-color="#fb923c"/><stop offset="100%" stop-color="#ea580c"/></linearGradient><linearGradient id="e" x1="20%" x2="80%" y1="20%" y2="80%"><stop offset="0%" stop-color="#4ade80"/><stop offset="100%" stop-color="#16a34a"/></linearGradient><filter id="a" width="200%" height="200%" x="-50%" y="-50%"><feGaussianBlur in="SourceAlpha" stdDeviation="1.2"/><feOffset dy="1.5"/><feComponentTransfer><feFuncA slope=".15" type="linear"/></feComponentTransfer><feMerge><feMergeNode/><feMergeNode in="SourceGraphic"/></feMerge></filter></defs><path fill="#09090b" d="M0 0h800v450H0z"/><path fill="none" stroke="#334155" stroke-width="2.5" d="M160 212h62"/><path fill="#334155" d="m227 212-10-5v10z"/><path fill="none" stroke="#334155" stroke-width="2.5" d="M338 212h62"/><path fill="#334155" d="m405 212-10-5v10z"/><path fill="none" stroke="#334155" stroke-width="2.5" d="m542 168 58-32"/><path fill="#334155" d="m607 133-8-4-2 9z"/><path fill="none" stroke="#334155" stroke-width="2.5" d="m542 256 58 32"/><path fill="#334155" d="m607 291-10-5 2 9z"/><text x="400" y="62" fill="#fafafa" font-family="system-ui,-apple-system,sans-serif" font-size="26" font-weight="700" letter-spacing="-.5" text-anchor="middle">Smart Email Automation</text><text x="400" y="86" fill="#71717a" font-family="system-ui,-apple-system,sans-serif" font-size="13" text-anchor="middle">Automatic Follow-Up System</text><g filter="url(#a)"><circle cx="114" cy="212" r="46" fill="url(#b)"/><rect width="28" height="20" x="100" y="202" fill="none" stroke="#fff" stroke-width="2.5" opacity=".98" rx="3"/><path fill="none" stroke="#fff" stroke-linejoin="round" stroke-width="2.5" d="m100 202 14 9 14-9" opacity=".98"/><circle cx="126" cy="204" r="3.5" fill="#ef4444"/></g><text x="114" y="274" fill="#fafafa" font-family="system-ui,-apple-system,sans-serif" font-size="14" font-weight="600" text-anchor="middle">Monitor</text><text x="114" y="290" fill="#71717a" font-family="system-ui,-apple-system,sans-serif" font-size="10" text-anchor="middle">Watch Inbox</text><g filter="url(#a)"><circle cx="292" cy="212" r="46" fill="url(#c)"/><circle cx="292" cy="212" r="19" fill="none" stroke="#fff" stroke-width="2.5" opacity=".98"/><path stroke="#fff" stroke-linecap="round" stroke-width="2.5" d="M292 212v-13M292 212h10" opacity=".98"/></g><text x="292" y="274" fill="#fafafa" font-family="system-ui,-apple-system,sans-serif" font-size="14" font-weight="600" text-anchor="middle">23 Hours</text><text x="292" y="290" fill="#71717a" font-family="system-ui,-apple-system,sans-serif" font-size="10" text-anchor="middle">Wait Period</text><g filter="url(#a)"><path fill="url(#d)" d="m466 212 38-38 38 38-38 38Z"/><text x="504" y="221" fill="#fff" font-family="system-ui,-apple-system,sans-serif" font-size="27" font-weight="700" opacity=".98" text-anchor="middle">?</text></g><text x="504" y="280" fill="#fafafa" font-family="system-ui,-apple-system,sans-serif" font-size="14" font-weight="600" text-anchor="middle">Resolved?</text><text x="504" y="296" fill="#71717a" font-family="system-ui,-apple-system,sans-serif" font-size="10" text-anchor="middle">Check Status</text><text x="580" y="125" fill="#71717a" font-family="system-ui,-apple-system,sans-serif" font-size="12" font-weight="600">YES</text><text x="657" y="140" fill="#52525b" font-family="system-ui,-apple-system,sans-serif" font-size="11" text-anchor="middle">No action needed</text><g filter="url(#a)"><circle cx="657" cy="296" r="47" fill="url(#e)"/><rect width="24" height="16" x="648" y="288" fill="none" stroke="#fff" stroke-width="2.5" opacity=".98" rx="2"/><path fill="none" stroke="#fff" stroke-linejoin="round" stroke-width="2.5" d="m648 288 12 9 12-9" opacity=".98"/><path stroke="#fff" stroke-linecap="round" stroke-width="2.5" d="M642 292h4M640 298h5M642 304h4" opacity=".6"/></g><text x="657" y="360" fill="#fafafa" font-family="system-ui,-apple-system,sans-serif" font-size="14" font-weight="600" text-anchor="middle">Auto Reply</text><text x="657" y="376" fill="#71717a" font-family="system-ui,-apple-system,sans-serif" font-size="10" text-anchor="middle">Send Follow-Up</text><text x="580" y="300" fill="#71717a" font-family="system-ui,-apple-system,sans-serif" font-size="12" font-weight="600">NO</text></svg>