<svg xmlns="http://www.w3.org/2000/svg" width="800" height="450" viewBox="0 0 800 450"><defs><linearGradient id="a" x1="0%" x2="100%" y1="0%" y2="100%"><stop offset="0%" style="stop-color:#f8fafc;stop-opacity:1"/><stop offset="100%" style="stop-color:#e2e8f0;stop-opacity:1"/></linearGradient></defs><path fill="url(#a)" d="M0 0h800v450H0z"/><text x="400" y="70" fill="#1e293b" font-family="system-ui" font-size="22" font-weight="700" text-anchor="middle">Email Automation System</text><text x="400" y="95" fill="#64748b" font-family="system-ui" font-size="13" text-anchor="middle">23-Hour Response Window</text><g transform="translate(100 225)"><circle r="48" fill="#e0f2fe" stroke="#0ea5e9" stroke-width="3"/><g fill="none" stroke="#0ea5e9" stroke-width="3"><rect width="44" height="30" x="-22" y="-16" rx="3"/><path stroke-linejoin="round" d="M-22-16 0 4l22-20"/></g><g transform="translate(6.31 -7.5)"><circle cx="14" cy="-10" r="6" fill="#ef4444"/><text x="14" y="-7" fill="#fff" font-family="system-ui" font-size="9" font-weight="700" text-anchor="middle">!</text></g><text y="70" fill="#0ea5e9" font-family="system-ui" font-size="15" font-weight="700" text-anchor="middle">Monitor</text><text y="88" fill="#64748b" font-family="system-ui" font-size="11" text-anchor="middle">Track Issues</text></g><path fill="none" stroke="#cbd5e0" stroke-width="3" d="M160.944 225h55"/><path fill="#cbd5e0" d="m224.056 225-10-5v10z"/><g transform="translate(285 225)"><circle r="48" fill="#fef3c7" stroke="#f59e0b" stroke-width="3"/><g fill="none" stroke="#f59e0b"><circle r="26" stroke-width="3.5"/><path stroke-linecap="round" stroke-linejoin="round" stroke-width="2.956" d="M-.272-21.272V1.41l13.206 13.61"/></g><text y="70" fill="#f59e0b" font-family="system-ui" font-size="15" font-weight="700" text-anchor="middle">23 Hours</text><text y="88" fill="#64748b" font-family="system-ui" font-size="11" text-anchor="middle">Time Check</text></g><path fill="none" stroke="#cbd5e0" stroke-width="3" d="M346.077 225h55"/><path fill="#cbd5e0" d="m400 230 10-5-10-5z"/><g transform="translate(470 225)"><circle r="48" fill="#fee2e2" stroke="#ef4444" stroke-width="3"/><path fill="none" stroke="#ef4444" stroke-width="3.5" d="M0-28 26 0 0 28-26 0Z"/><text y="10" fill="#ef4444" font-family="system-ui" font-size="28" font-weight="700" text-anchor="middle">?</text><text y="70" fill="#ef4444" font-family="system-ui" font-size="15" font-weight="700" text-anchor="middle">Resolved?</text><text y="88" fill="#64748b" font-family="system-ui" font-size="11" text-anchor="middle">Status Check</text></g><path fill="none" stroke="#22c55e" stroke-dasharray="5,5" stroke-width="2.5" d="M470 155v-20h200v20"/><path fill="#22c55e" d="m670 155-5-10h10z"/><text x="570" y="125" fill="#22c55e" font-family="system-ui" font-size="12" font-weight="700" text-anchor="middle">Yes</text><path fill="none" stroke="#ef4444" stroke-width="3" d="M529.725 225h55"/><path fill="#ef4444" d="m594.46 225-10-5v10z"/><text x="567" y="217" fill="#ef4444" font-family="system-ui" font-size="12" font-weight="700" text-anchor="middle">No</text><g transform="translate(655 225)"><circle r="48" fill="#dcfce7" stroke="#22c55e" stroke-width="3"/><text y="70" fill="#22c55e" font-family="system-ui" font-size="15" font-weight="700" text-anchor="middle">Send</text><text y="88" fill="#64748b" font-family="system-ui" font-size="11" text-anchor="middle">Auto Reply</text><g fill="none" stroke="#0ea5e9" stroke-width="3" transform="translate(-32.922 26.72)"><rect width="44" height="30" x="10.922" y="-41.621" rx="3" style="stroke:#22c55e;stroke-opacity:1"/><path stroke-linejoin="round" d="m10.922-41.621 22 20 22-20" style="stroke:#22c55e;stroke-opacity:1"/></g></g></svg>