<svg xmlns="http://www.w3.org/2000/svg" width="800" height="450" viewBox="0 0 800 450"><path fill="none" stroke="#cbd5e0" stroke-width="3.5" d="M179.041 225.74h68.057"/><path fill="#cbd5e0" d="m260.709 225.74-13.611-5v10z"/><path fill="none" stroke="#cbd5e0" stroke-width="3" d="M571 225h50"/><path fill="#cbd5e0" d="m621 230 10-5-10-5z"/><text x="400" y="60" fill="#1e293b" font-family="system-ui" font-size="22" font-weight="700" text-anchor="middle">API Orchestration System</text><text x="400" y="85" fill="#64748b" font-family="system-ui" font-size="13" text-anchor="middle">Three APIs → One Unified Pipeline</text><g transform="translate(110 140)"><rect width="120" height="60" x="-60" y="-30" fill="#fee2e2" stroke="#ef4444" stroke-width="2.5" rx="8"/><text y="-3" fill="#ef4444" font-family="system-ui" font-size="13" font-weight="700" text-anchor="middle">API 1</text><text y="14" fill="#991b1b" font-family="system-ui" font-size="10" text-anchor="middle">Logistics</text></g><g transform="translate(110 225)"><rect width="120" height="60" x="-60" y="-30" fill="#dbeafe" stroke="#3b82f6" stroke-width="2.5" rx="8"/><text y="-3" fill="#3b82f6" font-family="system-ui" font-size="13" font-weight="700" text-anchor="middle">API 2</text><text y="14" fill="#1e40af" font-family="system-ui" font-size="10" text-anchor="middle">Fulfillment</text></g><g transform="translate(110 310)"><rect width="120" height="60" x="-60" y="-30" fill="#dcfce7" stroke="#22c55e" stroke-width="2.5" rx="8"/><text y="-3" fill="#22c55e" font-family="system-ui" font-size="13" font-weight="700" text-anchor="middle">API 3</text><text y="14" fill="#15803d" font-family="system-ui" font-size="10" text-anchor="middle">Shipping</text></g><path fill="none" stroke="#cbd5e0" stroke-width="2.36" d="m179.945 310.049 58.849-83.657"/><g transform="translate(320 225)"><circle r="50" fill="#fef3c7" stroke="#f59e0b" stroke-width="3"/><circle cy="-12" r="8" fill="#f59e0b" opacity=".3"/><circle r="8" fill="#f59e0b" opacity=".6"/><circle cy="12" r="8" fill="#f59e0b"/><path stroke="#f59e0b" stroke-linecap="round" stroke-width="2.5" d="M-20-12h10m30 0H10M-20 0h10m30 0H10M-20 12h10m30 0H10"/><text y="72" fill="#f59e0b" font-family="system-ui" font-size="14" font-weight="700" text-anchor="middle">Integrate</text><text y="89" fill="#64748b" font-family="system-ui" font-size="10" text-anchor="middle">R Script</text></g><path fill="none" stroke="#cbd5e0" stroke-width="3" d="M385 225h50"/><path fill="#cbd5e0" d="m445 225-10-5v10z"/><g transform="translate(510 225)"><circle r="50" fill="#e0f2fe" stroke="#0ea5e9" stroke-width="3"/><circle r="26" fill="none" stroke="#ef4444" stroke-width="3"/><path fill="none" stroke="#22c55e" stroke-linecap="round" stroke-linejoin="round" stroke-width="4.5" d="m-12 0 9 9 17-21"/><text y="72" fill="#0ea5e9" font-family="system-ui" font-size="14" font-weight="700" text-anchor="middle">Reconcile</text><text y="89" fill="#64748b" font-family="system-ui" font-size="10" text-anchor="middle">Auto-Fix</text></g><g transform="translate(690 225)"><circle r="48" fill="#dcfce7" stroke="#22c55e" stroke-width="3"/><ellipse cy="-8" fill="none" stroke="#22c55e" stroke-width="3" rx="22" ry="8"/><path stroke="#22c55e" stroke-width="3" d="M-22-8V8M22-8V8"/><ellipse cy="8" fill="none" stroke="#22c55e" stroke-width="3" rx="22" ry="8"/><text y="68" fill="#22c55e" font-family="system-ui" font-size="14" font-weight="700" text-anchor="middle">Unified</text><text y="85" fill="#64748b" font-family="system-ui" font-size="10" text-anchor="middle">PostgreSQL</text></g><text x="115.354" y="96.873" fill="#64748b" font-family="system-ui" font-size="12" font-weight="600" text-anchor="middle">Fragmented Data</text><text x="690" y="115" fill="#22c55e" font-family="system-ui" font-size="12" font-weight="600" text-anchor="middle">Complete Tracking</text><path fill="none" stroke="#cbd5e0" stroke-width="2.427" d="m179.969 136.297 58.718 88.682"/></svg>