<svg xmlns="http://www.w3.org/2000/svg" viewBox="0 0 800 450"><defs><linearGradient id="b" x1="20%" x2="80%" y1="20%" y2="80%"><stop offset="0%" stop-color="#60a5fa"/><stop offset="100%" stop-color="#2563eb"/></linearGradient><linearGradient id="c" x1="20%" x2="80%" y1="20%" y2="80%"><stop offset="0%" stop-color="#4ade80"/><stop offset="100%" stop-color="#16a34a"/></linearGradient><linearGradient id="d" x1="20%" x2="80%" y1="20%" y2="80%"><stop offset="0%" stop-color="#a78bfa"/><stop offset="100%" stop-color="#7c3aed"/></linearGradient><linearGradient id="e" x1="20%" x2="80%" y1="20%" y2="80%"><stop offset="0%" stop-color="#fbbf24"/><stop offset="100%" stop-color="#d97706"/></linearGradient><linearGradient id="f" x1="20%" x2="80%" y1="20%" y2="80%"><stop offset="0%" stop-color="#fb923c"/><stop offset="100%" stop-color="#ea580c"/></linearGradient><linearGradient id="g" x1="20%" x2="80%" y1="20%" y2="80%"><stop offset="0%" stop-color="#22d3ee"/><stop offset="100%" stop-color="#0891b2"/></linearGradient><filter id="a" width="200%" height="200%" x="-50%" y="-50%"><feGaussianBlur in="SourceAlpha" stdDeviation="1.2"/><feOffset dy="1.5"/><feComponentTransfer><feFuncA slope=".15" type="linear"/></feComponentTransfer><feMerge><feMergeNode/><feMergeNode in="SourceGraphic"/></feMerge></filter></defs><path fill="#09090b" d="M0 0h800v450H0z"/><path fill="none" stroke="#334155" stroke-width="2.5" d="m146 140 94 62"/><path fill="#334155" d="m247 205-8-6-2 9z"/><path fill="none" stroke="#334155" stroke-width="2.5" d="M146 215h92"/><path fill="#334155" d="m243 215-10-5v10z"/><path fill="none" stroke="#334155" stroke-width="2.5" d="m146 290 94-62"/><path fill="#334155" d="m247 225-10-3 2 9z"/><path fill="none" stroke="#334155" stroke-width="2.5" d="M342 215h80"/><path fill="#334155" d="m427 215-10-5v10z"/><path fill="none" stroke="#334155" stroke-width="2.5" d="M521 215h79"/><path fill="#334155" d="m605 215-10-5v10z"/><text x="400" y="62" fill="#fafafa" font-family="system-ui,-apple-system,sans-serif" font-size="26" font-weight="700" letter-spacing="-.5" text-anchor="middle">Multi-API Integration</text><text x="400" y="86" fill="#71717a" font-family="system-ui,-apple-system,sans-serif" font-size="13" text-anchor="middle">Unified Data Pipeline</text><g filter="url(#a)"><rect width="116" height="48" x="30" y="116" fill="url(#b)" rx="10"/><text x="88" y="147" fill="#fff" font-family="system-ui,-apple-system,sans-serif" font-size="14" font-weight="600" opacity=".98" text-anchor="middle">Logistics</text><text x="88" y="161" fill="#fff" font-family="system-ui,-apple-system,sans-serif" font-size="11" opacity=".7" text-anchor="middle">API</text></g><g filter="url(#a)"><rect width="116" height="48" x="30" y="191" fill="url(#c)" rx="10"/><text x="88" y="222" fill="#fff" font-family="system-ui,-apple-system,sans-serif" font-size="14" font-weight="600" opacity=".98" text-anchor="middle">Fulfillment</text><text x="88" y="236" fill="#fff" font-family="system-ui,-apple-system,sans-serif" font-size="11" opacity=".7" text-anchor="middle">API</text></g><g filter="url(#a)"><rect width="116" height="48" x="30" y="266" fill="url(#d)" rx="10"/><text x="88" y="297" fill="#fff" font-family="system-ui,-apple-system,sans-serif" font-size="14" font-weight="600" opacity=".98" text-anchor="middle">Shipping</text><text x="88" y="311" fill="#fff" font-family="system-ui,-apple-system,sans-serif" font-size="11" opacity=".7" text-anchor="middle">API</text></g><g filter="url(#a)"><circle cx="294" cy="215" r="48" fill="url(#e)"/><circle cx="285" cy="215" r="11" fill="none" stroke="#fff" stroke-width="2.5" opacity=".98"/><circle cx="303" cy="215" r="11" fill="none" stroke="#fff" stroke-width="2.5" opacity=".98"/><path fill="none" stroke="#fff" stroke-width="2.5" d="M285 204q9 3 18 0" opacity=".98"/></g><text x="294" y="283" fill="#fafafa" font-family="system-ui,-apple-system,sans-serif" font-size="14" font-weight="600" text-anchor="middle">Integrate</text><text x="294" y="299" fill="#71717a" font-family="system-ui,-apple-system,sans-serif" font-size="10" text-anchor="middle">Merge Data</text><g filter="url(#a)"><circle cx="473" cy="215" r="48" fill="url(#f)"/><circle cx="473" cy="215" r="23" fill="none" stroke="#fff" stroke-width="2.5" opacity=".98"/><path fill="none" stroke="#fff" stroke-linecap="round" stroke-linejoin="round" stroke-width="3.5" d="m462 215 7 8 15-17" opacity=".98"/></g><text x="473" y="283" fill="#fafafa" font-family="system-ui,-apple-system,sans-serif" font-size="14" font-weight="600" text-anchor="middle">Reconcile</text><text x="473" y="299" fill="#71717a" font-family="system-ui,-apple-system,sans-serif" font-size="10" text-anchor="middle">Validate</text><g filter="url(#a)"><rect width="128" height="80" x="600" y="175" fill="url(#g)" rx="10"/><ellipse cx="664" cy="215" fill="none" stroke="#fff" stroke-width="2.5" opacity=".98" rx="28" ry="11"/><path fill="none" stroke="#fff" stroke-width="2.5" d="M636 215v18q0 5 28 5t28-5v-18" opacity=".98"/><path fill="none" stroke="#fff" stroke-width="2" d="M636 224q0 5 28 5t28-5" opacity=".98"/></g><text x="664" y="272" fill="#fafafa" font-family="system-ui,-apple-system,sans-serif" font-size="15" font-weight="600" text-anchor="middle">Unified DB</text><text x="664" y="288" fill="#71717a" font-family="system-ui,-apple-system,sans-serif" font-size="10" text-anchor="middle">Single Source</text></svg>