<svg xmlns="http://www.w3.org/2000/svg" width="800" height="450" viewBox="0 0 800 450"><defs><linearGradient id="a" x1="0%" x2="100%" y1="0%" y2="100%"><stop offset="0%" style="stop-color:#f8fafc;stop-opacity:1"/><stop offset="100%" style="stop-color:#e2e8f0;stop-opacity:1"/></linearGradient></defs><path fill="url(#a)" d="M0 0h800v450H0z"/><text x="400" y="70" fill="#1e293b" font-family="system-ui" font-size="22" font-weight="700" text-anchor="middle">Database Performance Optimization</text><text x="400" y="95" fill="#64748b" font-family="system-ui" font-size="13" text-anchor="middle">75% Improvement in Query Speed</text><g transform="translate(130 225)"><rect width="160" height="120" x="-80" y="-60" fill="#fee2e2" stroke="#ef4444" stroke-width="3" rx="12"/><text y="-30" fill="#ef4444" font-family="system-ui" font-size="16" font-weight="700" text-anchor="middle">BEFORE</text><g stroke="#ef4444" transform="translate(-20 -5)"><rect width="40" height="32" fill="none" stroke-width="2.5" rx="3"/><path stroke-width="2" d="M8 10h24M8 16h24M8 22h18" opacity=".5"/></g><g transform="translate(31.637 -47.5)"><circle cy="38" r="10" fill="none" stroke="#ef4444" stroke-width="2.5"/><text y="43" fill="#ef4444" font-family="system-ui" font-size="14" font-weight="700" text-anchor="middle">⏱</text></g><text x="-.094" y="76.561" fill="#991b1b" font-family="system-ui" font-size="11" text-anchor="middle">Slow Queries</text></g><path fill="none" stroke="#cbd5e0" stroke-width="3" d="M220 225h45"/><path fill="#cbd5e0" d="M260 220v10l10-5z"/><g transform="translate(330 225)"><circle r="48" fill="#dbeafe" stroke="#3b82f6" stroke-width="3"/><circle cy="-3" r="18" fill="none" stroke="#3b82f6" stroke-width="3"/><path stroke="#3b82f6" stroke-linecap="round" stroke-width="3.5" d="m12 10 10 10"/><path fill="#3b82f6" d="M-10 2h4v8h-4zM-4-4h4v14h-4zM2-8h4v18H2z"/><text y="68" fill="#3b82f6" font-family="system-ui" font-size="14" font-weight="700" text-anchor="middle">Analyze</text><text y="85" fill="#64748b" font-family="system-ui" font-size="10" text-anchor="middle">Execution Plans</text></g><path fill="none" stroke="#cbd5e0" stroke-width="3" d="M395 225h45"/><path fill="#cbd5e0" d="M435 220v10l10-5z"/><g transform="translate(505 225)"><circle r="48" fill="#fef3c7" stroke="#f59e0b" stroke-width="3"/><g stroke="#f59e0b" stroke-linecap="round"><path fill="none" stroke-width="3" d="M-16-14h-4q-4 0-4 4v20q0 4 4 4h4M16-14h4q4 0 4 4v20q0 4-4 4h-4"/><path stroke-width="2.5" d="M0-10v20M-8 0H8M-6-6 6 6M-6 6 6-6"/></g><text y="68" fill="#f59e0b" font-family="system-ui" font-size="14" font-weight="700" text-anchor="middle">Refactor</text><text y="85" fill="#64748b" font-family="system-ui" font-size="10" text-anchor="middle">Index + Batch</text></g><path fill="none" stroke="#cbd5e0" stroke-width="3" d="M564.051 225h45"/><path fill="#cbd5e0" d="m606.352 230 10-5-10-5z"/><g transform="matrix(.87434 0 0 1.00102 697.162 233.875)"><rect width="160" height="120" x="-80" y="-60" fill="#dcfce7" stroke="#22c55e" stroke-width="3" rx="12"/><text y="-30" fill="#22c55e" font-family="system-ui" font-size="16" font-weight="700" text-anchor="middle">AFTER</text><text y="8" fill="#22c55e" font-family="system-ui" font-size="42" font-weight="700" text-anchor="middle">⚡</text><text y="42" fill="#22c55e" font-family="system-ui" font-size="20" font-weight="700" text-anchor="middle">75%</text><text x="-.359" y="74.596" fill="#15803d" font-family="system-ui" font-size="12" text-anchor="middle">Faster</text></g></svg>