<svg xmlns="http://www.w3.org/2000/svg" viewBox="0 0 800 450"><defs><linearGradient id="b" x1="20%" x2="80%" y1="20%" y2="80%"><stop offset="0%" stop-color="#f87171"/><stop offset="100%" stop-color="#dc2626"/></linearGradient><linearGradient id="c" x1="20%" x2="80%" y1="20%" y2="80%"><stop offset="0%" stop-color="#60a5fa"/><stop offset="100%" stop-color="#2563eb"/></linearGradient><linearGradient id="d" x1="20%" x2="80%" y1="20%" y2="80%"><stop offset="0%" stop-color="#fbbf24"/><stop offset="100%" stop-color="#d97706"/></linearGradient><linearGradient id="e" x1="20%" x2="80%" y1="20%" y2="80%"><stop offset="0%" stop-color="#4ade80"/><stop offset="100%" stop-color="#16a34a"/></linearGradient><filter id="a" width="200%" height="200%" x="-50%" y="-50%"><feGaussianBlur in="SourceAlpha" stdDeviation="1.2"/><feOffset dy="1.5"/><feComponentTransfer><feFuncA slope=".15" type="linear"/></feComponentTransfer><feMerge><feMergeNode/><feMergeNode in="SourceGraphic"/></feMerge></filter></defs><path fill="#09090b" d="M0 0h800v450H0z"/><path fill="none" stroke="#334155" stroke-width="2.5" d="M200 225h56"/><path fill="#334155" d="m261 225-10-5v10z"/><path fill="none" stroke="#334155" stroke-width="2.5" d="M362 225h64"/><path fill="#334155" d="m431 225-10-5v10z"/><path fill="none" stroke="#334155" stroke-width="2.5" d="M530 225h56"/><path fill="#334155" d="m591 225-10-5v10z"/><text x="400" y="62" fill="#fafafa" font-family="system-ui,-apple-system,sans-serif" font-size="26" font-weight="700" letter-spacing="-.5" text-anchor="middle">Database Performance Optimization</text><text x="400" y="86" fill="#71717a" font-family="system-ui,-apple-system,sans-serif" font-size="13" text-anchor="middle">75% Improvement in Query Speed</text><g filter="url(#a)" transform="translate(128 225)"><rect width="144" height="104" x="-72" y="-52" fill="url(#b)" rx="10"/><text y="-24" fill="#fff" font-family="system-ui,-apple-system,sans-serif" font-size="16" font-weight="700" opacity=".98" text-anchor="middle">BEFORE</text><ellipse cy="8" fill="none" stroke="#fff" stroke-width="2.5" opacity=".98" rx="22" ry="9"/><path fill="none" stroke="#fff" stroke-width="2.5" d="M-22 8v14q0 6 22 6t22-6V8" opacity=".98"/><path fill="none" stroke="#fff" stroke-width="2" d="M-22 16q0 4 22 4t22-4" opacity=".98"/><path stroke="#fff" stroke-linecap="round" stroke-width="2.5" d="M-8 0 8 16M8 0-8 16" opacity=".98"/><text y="42" fill="#fff" font-family="system-ui,-apple-system,sans-serif" font-size="12" font-weight="600" opacity=".98" text-anchor="middle">Slow queries</text></g><g filter="url(#a)"><circle cx="309" cy="225" r="46" fill="url(#c)"/><circle cx="302" cy="219" r="14" fill="none" stroke="#fff" stroke-width="2.5" opacity=".98"/><path stroke="#fff" stroke-linecap="round" stroke-width="3" d="m311 228 11 11" opacity=".98"/><path fill="#fff" d="M296 222h3v8h-3zM300 219h3v11h-3zM304 224h3v6h-3z" opacity=".98"/></g><text x="309" y="293" fill="#fafafa" font-family="system-ui,-apple-system,sans-serif" font-size="15" font-weight="600" text-anchor="middle">Analyze</text><text x="309" y="311" fill="#71717a" font-family="system-ui,-apple-system,sans-serif" font-size="11" text-anchor="middle">Find Bottlenecks</text><g filter="url(#a)"><circle cx="477" cy="225" r="46" fill="url(#d)"/><path fill="none" stroke="#fff" stroke-linecap="round" stroke-width="2.8" d="m460 214-5 8 5 8M494 214l5 8-5 8" opacity=".98"/><path stroke="#fff" stroke-linecap="round" stroke-width="2.5" d="M477 213v18m-9-9h18M471 216l12 12m0-12-12 12" opacity=".98"/></g><text x="477" y="293" fill="#fafafa" font-family="system-ui,-apple-system,sans-serif" font-size="15" font-weight="600" text-anchor="middle">Refactor</text><text x="477" y="311" fill="#71717a" font-family="system-ui,-apple-system,sans-serif" font-size="11" text-anchor="middle">Optimize Code</text><g filter="url(#a)" transform="translate(665 225)"><rect width="144" height="104" x="-72" y="-52" fill="url(#e)" rx="10"/><text y="-24" fill="#fff" font-family="system-ui,-apple-system,sans-serif" font-size="16" font-weight="700" opacity=".98" text-anchor="middle">AFTER</text><ellipse cy="8" fill="none" stroke="#fff" stroke-width="2.5" opacity=".98" rx="22" ry="9"/><path fill="none" stroke="#fff" stroke-width="2.5" d="M-22 8v14q0 6 22 6t22-6V8" opacity=".98"/><path fill="none" stroke="#fff" stroke-width="2" d="M-22 16q0 4 22 4t22-4" opacity=".98"/><path fill="none" stroke="#fff" stroke-linecap="round" stroke-linejoin="round" stroke-width="2.8" d="m-8 8 5 6L7 2" opacity=".98"/><text y="42" fill="#fff" font-family="system-ui,-apple-system,sans-serif" font-size="12" font-weight="600" opacity=".98" text-anchor="middle">75% faster</text></g></svg>