<svg xmlns="http://www.w3.org/2000/svg" viewBox="0 0 800 450"><defs><linearGradient id="b" x1="20%" x2="80%" y1="20%" y2="80%"><stop offset="0%" stop-color="#60a5fa"/><stop offset="100%" stop-color="#2563eb"/></linearGradient><linearGradient id="c" x1="20%" x2="80%" y1="20%" y2="80%"><stop offset="0%" stop-color="#4ade80"/><stop offset="100%" stop-color="#16a34a"/></linearGradient><linearGradient id="d" x1="20%" x2="80%" y1="20%" y2="80%"><stop offset="0%" stop-color="#4ade80"/><stop offset="100%" stop-color="#059669"/></linearGradient><linearGradient id="e" x1="20%" x2="80%" y1="20%" y2="80%"><stop offset="0%" stop-color="#fbbf24"/><stop offset="100%" stop-color="#d97706"/></linearGradient><linearGradient id="f" x1="20%" x2="80%" y1="20%" y2="80%"><stop offset="0%" stop-color="#fb923c"/><stop offset="100%" stop-color="#ea580c"/></linearGradient><filter id="a" width="200%" height="200%" x="-50%" y="-50%"><feGaussianBlur in="SourceAlpha" stdDeviation="1.2"/><feOffset dy="1.5"/><feComponentTransfer><feFuncA slope=".15" type="linear"/></feComponentTransfer><feMerge><feMergeNode/><feMergeNode in="SourceGraphic"/></feMerge></filter></defs><path fill="#09090b" d="M0 0h800v450H0z"/><path fill="none" stroke="#334155" stroke-width="2.5" d="m144 160 64 18"/><path fill="#334155" d="m215 180-9-5 1 9z"/><path fill="none" stroke="#334155" stroke-width="2.5" d="m144 240 64-18"/><path fill="#334155" d="m215 220-8-4-1 9z"/><path fill="none" stroke="#334155" stroke-width="2.5" d="M300 195h90"/><path fill="#334155" d="m395 195-10-5v10z"/><path fill="none" stroke="#334155" stroke-width="2.5" d="M485 202h93"/><path fill="#334155" d="m583 202-10-5v10z"/><text x="400" y="62" fill="#fafafa" font-family="system-ui,-apple-system,sans-serif" font-size="26" font-weight="700" letter-spacing="-.5" text-anchor="middle">Parallel Processing Pipeline</text><text x="400" y="86" fill="#71717a" font-family="system-ui,-apple-system,sans-serif" font-size="13" text-anchor="middle">Dual-Path AI Analysis</text><g filter="url(#a)"><circle cx="100" cy="200" r="44" fill="url(#b)"/><path fill="none" stroke="#fff" stroke-linecap="round" stroke-linejoin="round" stroke-width="2.8" d="M100 210v-18m-7 7 7-7 7 7" opacity=".98"/><rect width="22" height="9" x="89" y="210" fill="none" stroke="#fff" stroke-width="2.5" opacity=".98" rx="2"/></g><text x="100" y="258" fill="#fafafa" font-family="system-ui,-apple-system,sans-serif" font-size="14" font-weight="600" text-anchor="middle">Upload</text><text x="100" y="274" fill="#71717a" font-family="system-ui,-apple-system,sans-serif" font-size="10" text-anchor="middle">Documents</text><g filter="url(#a)"><circle cx="256" cy="170" r="44" fill="url(#c)"/><rect width="28" height="22" x="242" y="159" fill="none" stroke="#fff" stroke-width="2.5" opacity=".98" rx="3"/><circle cx="248" cy="166" r="2.5" fill="#fff" opacity=".98"/><path fill="none" stroke="#fff" stroke-linejoin="round" stroke-width="2.5" d="m242 177 5-5 5 5 7-7 9 9" opacity=".98"/></g><text x="256" y="228" fill="#fafafa" font-family="system-ui,-apple-system,sans-serif" font-size="14" font-weight="600" text-anchor="middle">Image</text><text x="256" y="244" fill="#71717a" font-family="system-ui,-apple-system,sans-serif" font-size="10" text-anchor="middle">Processing</text><g filter="url(#a)"><circle cx="256" cy="230" r="44" fill="url(#d)"/><rect width="28" height="22" x="242" y="219" fill="none" stroke="#fff" stroke-width="2.5" opacity=".98" rx="3"/><path stroke="#fff" stroke-linecap="round" stroke-width="2" d="M247 225h18M247 230h18M247 235h13" opacity=".98"/></g><text x="256" y="288" fill="#fafafa" font-family="system-ui,-apple-system,sans-serif" font-size="14" font-weight="600" text-anchor="middle">Text</text><text x="256" y="304" fill="#71717a" font-family="system-ui,-apple-system,sans-serif" font-size="10" text-anchor="middle">Extraction</text><g filter="url(#a)"><circle cx="438" cy="202" r="47" fill="url(#e)"/><circle cx="438" cy="202" r="26" fill="none" stroke="#fff" stroke-width="2.5" opacity=".98"/><path fill="none" stroke="#fff" stroke-width="2.5" d="M426 194q3-4 12-1.5 9-2.5 12 1.5M426 210q3 4 12 1.5 9 2.5 12-1.5" opacity=".98"/><circle cx="430" cy="202" r="2.5" fill="#fff" opacity=".98"/><circle cx="446" cy="202" r="2.5" fill="#fff" opacity=".98"/></g><text x="438" y="268" fill="#fafafa" font-family="system-ui,-apple-system,sans-serif" font-size="14" font-weight="600" text-anchor="middle">Unified AI</text><text x="438" y="284" fill="#71717a" font-family="system-ui,-apple-system,sans-serif" font-size="10" text-anchor="middle">Multi-Modal</text><g filter="url(#a)"><circle cx="628" cy="202" r="47" fill="url(#f)"/><path fill="#fff" d="m633 188-10 14h7l-7 14 14-16h-7Z" opacity=".98"/></g><text x="628" y="268" fill="#fafafa" font-family="system-ui,-apple-system,sans-serif" font-size="14" font-weight="600" text-anchor="middle">Instant</text><text x="628" y="284" fill="#71717a" font-family="system-ui,-apple-system,sans-serif" font-size="10" text-anchor="middle">Results</text></svg>