<svg xmlns="http://www.w3.org/2000/svg" width="800" height="450" viewBox="0 0 800 450"><defs><linearGradient id="a" x1="0" x2="600" y1="0" y2="600" gradientTransform="scale(1.33333 .75)" gradientUnits="userSpaceOnUse"><stop offset="0%" style="stop-color:#f8fafc;stop-opacity:1"/><stop offset="100%" style="stop-color:#e2e8f0;stop-opacity:1"/></linearGradient></defs><path fill="url(#a)" d="M0 0h800v450H0z" style="fill:url(#a)"/><path fill="none" stroke="#cbd5e0" stroke-width="2.219" d="M236.968 156.03h-47.216l-39.346 70.087"/><path fill="none" stroke="#cbd5e0" stroke-width="2.218" d="M236.968 296.117H189.78l-39.323-70.088"/><path d="m430.306 206.597-7.279 4.01.166-8.308z" style="fill:#cbd5e0;fill-opacity:1;stroke:#22c55e;stroke-width:0;stroke-linejoin:round;paint-order:fill markers stroke" transform="matrix(-.8954 0 0 1 517.455 19.417)"/><path d="M-151.591 225h13.183v1.74h-13.183z" style="fill:#cbd5e0;fill-opacity:1;stroke:#22c55e;stroke-width:0;stroke-linejoin:round;paint-order:fill markers stroke" transform="scale(-1 1)"/><text x="400" y="60" fill="#1e293b" font-family="system-ui" font-size="22" font-weight="700" text-anchor="middle">Dual Pipeline Architecture</text><text x="400" y="85" fill="#64748b" font-family="system-ui" font-size="13" text-anchor="middle">Image + Document Processing</text><g transform="translate(100 225)"><circle r="45" fill="#e0f2fe" stroke="#0ea5e9" stroke-width="3"/><path fill="none" stroke="#0ea5e9" stroke-linecap="round" stroke-linejoin="round" stroke-width="3.632" d="M0-20.442v25.03M-11.856-5.422 0-20.442 11.856-5.423"/><rect width="24" height="10" x="-12" y="15" fill="none" stroke="#0ea5e9" stroke-width="2.5" rx="2"/><text y="65" fill="#0ea5e9" font-family="system-ui" font-size="14" font-weight="700" text-anchor="middle">Upload</text><text y="82" fill="#64748b" font-family="system-ui" font-size="10" text-anchor="middle">All Formats</text></g><g transform="translate(300 155)"><rect width="140" height="80" x="-70" y="-40" fill="#fef3c7" stroke="#f59e0b" stroke-width="2.5" rx="12"/><g transform="translate(0 -10)"><rect width="48" height="36" x="-24" y="-12" fill="none" stroke="#f59e0b" stroke-width="3" rx="3"/><circle cx="-10" r="4" fill="#f59e0b"/><path fill="none" stroke="#f59e0b" stroke-linecap="round" stroke-linejoin="round" stroke-width="2.5" d="M-18 14-8 4 4 16 18-2"/></g><text x="-.346" y="30.285" fill="#f59e0b" font-family="system-ui" font-size="13" font-weight="700" text-anchor="middle">Image Pipeline</text></g><g transform="translate(300 295)"><rect width="140" height="80" x="-70" y="-40" fill="#dbeafe" stroke="#3b82f6" stroke-width="2.5" rx="12"/><g stroke="#3b82f6" transform="translate(-16 -18)"><rect width="32" height="36" fill="none" stroke-width="3" rx="3"/><path stroke-linecap="round" stroke-width="2.5" d="M7 10h18M7 18h18M7 26h12"/></g><text x=".076" y="35.323" fill="#3b82f6" font-family="system-ui" font-size="13" font-weight="700" text-anchor="middle">Text Pipeline</text></g><path fill="none" stroke="#cbd5e0" stroke-width="2.333" d="M371.25 154.957h52.187l43.49 70.087"/><path fill="none" stroke="#cbd5e0" stroke-width="2.332" d="M371.25 295.043h52.156l43.464-70.087"/><g transform="translate(540 225)"><circle r="50" fill="#dcfce7" stroke="#22c55e" stroke-width="3"/><circle r="32" fill="none" stroke="#22c55e" stroke-width="3.5"/><path fill="none" stroke="#22c55e" stroke-width="3" d="M-14-10q4-6 14-2 10-4 14 2M-14 10q4 6 14 2 10 4 14-2"/><circle cx="-10" r="3" fill="#22c55e"/><circle cx="10" r="3" fill="#22c55e"/><text y="72" fill="#22c55e" font-family="system-ui" font-size="15" font-weight="700" text-anchor="middle">Unified AI</text><text y="89" fill="#64748b" font-family="system-ui" font-size="10" text-anchor="middle">Smart Processing</text></g><path fill="none" stroke="#cbd5e0" stroke-width="3" d="M600 225h40"/><path fill="#cbd5e0" d="m635 230 10-5-10-5z"/><g transform="translate(700 225)"><circle r="45" fill="#fef3c7" stroke="#f59e0b" stroke-width="3"/><text y="12" fill="#f59e0b" font-family="system-ui" font-size="38" font-weight="700" text-anchor="middle">⚡</text><text y="65" fill="#f59e0b" font-family="system-ui" font-size="14" font-weight="700" text-anchor="middle">Instant</text><text y="82" fill="#64748b" font-family="system-ui" font-size="10" text-anchor="middle">Real-Time</text></g><path d="m430.306 206.597-7.279 4.01.166-8.308z" style="fill:#cbd5e0;fill-opacity:1;stroke:#22c55e;stroke-width:0;stroke-linejoin:round;paint-order:fill markers stroke" transform="matrix(.98968 0 0 1 61.229 18.343)"/><path d="M465.616 223.927h14.571v1.74h-14.571z" style="fill:#cbd5e0;fill-opacity:1;stroke:#22c55e;stroke-width:0;stroke-linejoin:round;paint-order:fill markers stroke"/></svg>