<?xml version="1.0" encoding="utf-8"?>
<!-- Generator: Adobe Illustrator 23.0.5, SVG Export Plug-In . SVG Version: 6.00 Build 0)  -->
<svg version="1.1" id="Layer_1" xmlns="http://www.w3.org/2000/svg" xmlns:xlink="http://www.w3.org/1999/xlink" x="0px" y="0px"
	 viewBox="0 0 4743.4 3162.3" style="enable-background:new 0 0 4743.4 3162.3;" xml:space="preserve">
<style type="text/css">
	.st0{fill-rule:evenodd;clip-rule:evenodd;fill:#FFFFFF;}
	.st1{fill-rule:evenodd;clip-rule:evenodd;fill:#B7D9F9;}
	.st2{fill-rule:evenodd;clip-rule:evenodd;fill:#E5F2F9;}
	.st3{fill-rule:evenodd;clip-rule:evenodd;fill:#221E54;}
	.st4{fill-rule:evenodd;clip-rule:evenodd;fill:#D7C6FB;}
	.st5{fill-rule:evenodd;clip-rule:evenodd;fill:#CCEBFF;}
	.st6{fill-rule:evenodd;clip-rule:evenodd;fill:#3EA5EC;}
	.st7{fill-rule:evenodd;clip-rule:evenodd;fill:#3C9FE7;}
	.st8{fill-rule:evenodd;clip-rule:evenodd;fill:#BDE4F0;}
	.st9{fill-rule:evenodd;clip-rule:evenodd;fill:#2B92A6;}
	.st10{fill-rule:evenodd;clip-rule:evenodd;fill:#75A4B5;}
	.st11{fill-rule:evenodd;clip-rule:evenodd;fill:#86BCCF;}
	.st12{fill-rule:evenodd;clip-rule:evenodd;fill:#577A87;}
	.st13{fill-rule:evenodd;clip-rule:evenodd;fill:#FFEB7D;}
	.st14{fill-rule:evenodd;clip-rule:evenodd;fill:#FFC96A;}
	.st15{fill-rule:evenodd;clip-rule:evenodd;fill:#A1E1E3;}
	.st16{fill-rule:evenodd;clip-rule:evenodd;fill:#B9D9E4;}
	.st17{fill-rule:evenodd;clip-rule:evenodd;fill:#332A7C;}
	.st18{fill-rule:evenodd;clip-rule:evenodd;fill:#F57954;}
	.st19{fill-rule:evenodd;clip-rule:evenodd;fill:#2B1710;}
	.st20{fill-rule:evenodd;clip-rule:evenodd;fill:#FF8762;}
	.st21{fill-rule:evenodd;clip-rule:evenodd;fill:#3091D8;}
	.st22{fill-rule:evenodd;clip-rule:evenodd;fill:#531710;}
	.st23{fill-rule:evenodd;clip-rule:evenodd;fill:#FF7A52;}
	.st24{fill-rule:evenodd;clip-rule:evenodd;fill:#FF7557;}
	.st25{fill-rule:evenodd;clip-rule:evenodd;fill:#FF7200;}
	.st26{fill-rule:evenodd;clip-rule:evenodd;fill:#F06C00;}
	.st27{fill-rule:evenodd;clip-rule:evenodd;fill:#53889C;}
	.st28{fill-rule:evenodd;clip-rule:evenodd;fill:#FB394B;}
	.st29{fill-rule:evenodd;clip-rule:evenodd;fill:#93BFF5;}
	.st30{fill-rule:evenodd;clip-rule:evenodd;fill:#2592DB;}
	.st31{fill-rule:evenodd;clip-rule:evenodd;fill:#E1F1FF;}
</style>
<rect class="st0" width="4743.4" height="3162.3"/>
<path class="st1" d="M2396.4,2950.9c1194.1,0,2160.3,22,2160.3,49.4c0,5.5-54.9,11-153.7,16.5H389.8c-98.8-5.5-153.7-11-153.7-16.5
	C236.1,2972.9,1202.3,2950.9,2396.4,2950.9z"/>
<path class="st2" d="M2783.5,252.5c-999.2-93.3-1070.6,474.9-1202.3,798.8c-49.4,120.8-134.5,211.4-222.3,277.2
	c-112.5,85.1-247.1,137.3-387,153.7C71.4,1603.1,216.9,2819.1,557.2,2920.7h3593.2C5034.4,1235.3,3779.9,343.1,2783.5,252.5z"/>
<path class="st2" d="M1059.6,521.6c-518.8,2.7-658.8,513.3-376.1,798.8C1070.6,1718.4,2141.1,516.1,1059.6,521.6z"/>
<path class="st3" d="M3132.1,571L3132.1,571c8.2,0,13.7,5.5,13.7,13.7v400.8c0,8.2-5.5,13.7-13.7,13.7s-13.7-5.5-13.7-13.7V584.7
	C3118.4,576.5,3123.8,571,3132.1,571z"/>
<path class="st3" d="M3132.1,1216L3132.1,1216c8.2,0,13.7-5.5,13.7-13.7v-145.5c0-8.2-5.5-13.7-13.7-13.7s-13.7,5.5-13.7,13.7v145.5
	C3118.4,1210.6,3123.8,1216,3132.1,1216z"/>
<path class="st3" d="M1806.2,197.6h1183.1c76.9,0,140,63.1,140,142.7v2319.6c0,79.6-63.1,142.7-140,142.7H1806.2
	c-76.9,0-140-63.1-140-142.7V340.4C1666.2,260.8,1729.4,197.6,1806.2,197.6z"/>
<path class="st4" d="M2989.3,252.5c46.7,0,85.1,38.4,85.1,87.8v2319.6c0,49.4-38.4,87.8-85.1,87.8H1806.2
	c-46.7,0-85.1-38.4-85.1-87.8V340.4c0-49.4,38.4-87.8,85.1-87.8H2989.3z"/>
<path class="st5" d="M1806.2,266.3c-38.4,0-71.4,32.9-71.4,74.1v2319.6c0,41.2,32.9,74.1,71.4,74.1h1183.1
	c38.4,0,71.4-32.9,71.4-74.1V340.4c0-41.2-32.9-74.1-71.4-74.1H1806.2z"/>
<path class="st6" d="M735.7,2843.9c-829-302-505.1-1680-505.1-1680c864.7,540.8,741.2,1644.3,741.2,1644.3L735.7,2843.9z"/>
<path class="st7" d="M782.3,2638c22,63.1,43.9,126.3,63.1,189.4c41.2-5.5,82.4-13.7,126.3-19.2c0,0,87.8-760.4-378.8-1325.9
	c-101.6-123.5-225.1-230.6-362.3-315.7C230.6,1163.9,551.8,1968.2,782.3,2638z"/>
<path class="st5" d="M584.7,2824.6c-93.3-370.6-211.4-463.9-409-529.8c-104.3,420,277.2,571,277.2,571L584.7,2824.6z"/>
<path class="st8" d="M282.7,2747.8c79.6,85.1,170.2,120.8,170.2,120.8c19.2-5.5,38.4-11,54.9-16.5
	c-109.8-183.9-222.3-367.8-332.1-554.5C123.5,2511.7,197.6,2657.2,282.7,2747.8z"/>
<polygon class="st9" points="1523.5,1446.6 1317.6,1534.5 1369.8,1572.9 1117.2,1907.8 908.6,1809 527,2393.7 609.4,2448.6 
	944.3,1932.5 1147.4,2031.3 1446.6,1630.5 1496,1669 "/>
<path class="st6" d="M4057.2,2717.6c713.7-260.8,433.7-1449.4,433.7-1449.4C3744.2,1734.9,3854,2684.6,3854,2684.6L4057.2,2717.6z"
	/>
<path class="st7" d="M4016,2539.2c-19.2,54.9-35.7,109.8-54.9,164.7c-35.7-5.5-71.4-11-107.1-16.5c0,0-74.1-656.1,326.7-1144.7
	c87.8-107.1,194.9-200.4,310.2-271.8C4490.9,1268.2,4213.6,1962.7,4016,2539.2z"/>
<path class="st5" d="M4051.7,2797.2c107.1-417.2,238.8-524.3,458.4-595.7c118,472.1-310.2,642.3-310.2,642.3L4051.7,2797.2z"/>
<path class="st8" d="M4389.3,2709.3c-90.6,93.3-189.4,134.5-189.4,134.5c-22-5.5-41.2-13.7-63.1-19.2
	c123.5-208.6,249.8-414.5,373.3-623.1C4570.5,2443.1,4485.4,2607.8,4389.3,2709.3z"/>
<path class="st10" d="M4161.5,2808.2H3077.2c-22,0-38.4-16.5-38.4-38.4v-754.9c0-22,16.5-38.4,38.4-38.4h1084.3
	c22,0,38.4,16.5,38.4,38.4V2767C4199.9,2789,4183.4,2808.2,4161.5,2808.2z"/>
<path class="st11" d="M4188.9,2388.2H3049.7c-22,0-38.4-16.5-38.4-38.4v-334.9c0-22,16.5-38.4,38.4-38.4h1139.2
	c22,0,38.4,16.5,38.4,38.4V2347C4227.4,2369,4210.9,2388.2,4188.9,2388.2z"/>
<path class="st12" d="M3870.5,1970.9c-2.7,0-5.5,0-8.2-2.7c-35.7-38.4-115.3-63.1-214.1-63.1h-49.4c-98.8,0-181.2,24.7-214.1,63.1
	c-2.7,2.7-5.5,2.7-8.2,2.7s-5.5,0-5.5-2.7c-2.7-2.7-5.5-8.2,0-13.7c38.4-43.9,123.5-68.6,230.6-68.6h49.4
	c107.1,0,189.4,24.7,230.6,68.6c2.7,2.7,2.7,11,0,13.7C3876,1970.9,3873.2,1970.9,3870.5,1970.9z"/>
<path class="st13" d="M3406.6,1951.7h-54.9c-8.2,0-13.7,5.5-13.7,13.7v8.2h82.4v-8.2C3420.3,1957.2,3414.8,1951.7,3406.6,1951.7z"/>
<path class="st13" d="M3876,1951.7h-38.4c-13.7,0-22,11-22,22h76.9h5.5C3897.9,1962.7,3887,1951.7,3876,1951.7z"/>
<path class="st10" d="M3453.3,1951.7c-13.7,0-27.5-8.2-32.9-22c-5.5-16.5,2.7-35.7,22-41.2c43.9-13.7,96.1-22,156.5-22h49.4
	c57.6,0,107.1,5.5,148.2,19.2c16.5,5.5,27.5,24.7,22,41.2c-5.5,16.5-24.7,27.5-41.2,22c-35.7-11-79.6-16.5-129-16.5h-49.4
	c-52.2,0-98.8,5.5-137.3,19.2C3458.7,1949,3456,1951.7,3453.3,1951.7z"/>
<path class="st14" d="M3950.1,2487h-27.5c-11,0-22-8.2-22-22V2369c0-11,8.2-22,22-22h27.5c11,0,22,8.2,22,22v96.1
	C3972.1,2476,3963.8,2487,3950.1,2487z"/>
<path class="st13" d="M3963.8,2451.3h-49.4c-11,0-22-8.2-22-22v-63.1c0-11,8.2-22,22-22h49.4c11,0,22,8.2,22,22v63.1
	C3985.8,2443.1,3974.8,2451.3,3963.8,2451.3z"/>
<path class="st14" d="M3368.2,2487h-27.5c-11,0-22-8.2-22-22V2369c0-11,8.2-22,22-22h27.5c11,0,22,8.2,22,22v96.1
	C3390.1,2476,3379.1,2487,3368.2,2487z"/>
<path class="st13" d="M3379.1,2451.3h-49.4c-11,0-22-8.2-22-22v-63.1c0-11,8.2-22,22-22h49.4c11,0,22,8.2,22,22v63.1
	C3401.1,2443.1,3392.9,2451.3,3379.1,2451.3z"/>
<path class="st5" d="M4177.9,1992.9H3060.7c-16.5,0-32.9,13.7-32.9,32.9v27.5h1180.4v-27.5
	C4208.1,2006.6,4194.4,1992.9,4177.9,1992.9z"/>
<rect x="518.8" y="2168.6" class="st15" width="1397.2" height="584.7"/>
<rect x="477.6" y="2223.5" class="st5" width="1397.2" height="584.7"/>
<path class="st6" d="M1229.8,872.9H771.4c-30.2,0-57.6,24.7-57.6,57.6v356.9c0,30.2,24.7,57.6,57.6,57.6h162l63.1,164.7l65.9-164.7
	h167.4c30.2,0,57.6-24.7,57.6-57.6V930.6C1287.4,897.6,1262.7,872.9,1229.8,872.9z"/>
<path class="st16" d="M4227.4,2959.1H365.1c-27.5,0-49.4-22-49.4-49.4v-49.4c0-27.5,22-49.4,49.4-49.4h3862.3
	c27.5,0,49.4,22,49.4,49.4v49.4C4279.5,2937.2,4254.8,2959.1,4227.4,2959.1z"/>
<path class="st17" d="M3719.5,1885.8c-11,27.5,118,345.9,118,345.9l96.1-381.6C3933.6,1847.4,3741.5,1833.7,3719.5,1885.8z"/>
<path class="st18" d="M3887,2267.4c13.7,35.7,11,74.1,5.5,85.1h-203.1c8.2-16.5,68.6-49.4,96.1-60.4c27.5-13.7,35.7-38.4,35.7-38.4
	L3887,2267.4z"/>
<path class="st17" d="M4202.6,1938c0,8.2-13.7,38.4-74.1,38.4c-60.4,0-170.2,5.5-170.2,5.5s-57.6,285.5-60.4,285.5
	c-57.6,11-87.8-2.7-87.8-2.7s13.7-318.4,19.2-362.3c0-2.7,0-5.5,0-8.2c5.5-30.2,32.9-52.2,63.1-49.4H4134
	C4134,1844.7,4205.4,1885.8,4202.6,1938z"/>
<path class="st19" d="M3785.4,2289.4c5.5-2.7,11-8.2,16.5-11c11,8.2,13.7,19.2,13.7,22c16.5,24.7,60.4,5.5,76.9-5.5
	c2.7,24.7,2.7,46.7-2.7,54.9h-203.1C3694.8,2336,3755.2,2303.1,3785.4,2289.4z"/>
<path class="st20" d="M3790.9,1586.6c-57.6,0-101.6-22-101.6-30.2c0-5.5-2.7-43.9-5.5-49.4c-2.7-2.7-22-5.5-24.7-5.5
	c-2.7-2.7-5.5-8.2-5.5-8.2c-5.5,0-11,8.2-8.2,13.7c2.7,8.2,13.7,13.7,13.7,13.7l2.7,54.9c-2.7,27.5,82.4,90.6,126.3,93.3
	C3821.1,1660.7,3790.9,1586.6,3790.9,1586.6z"/>
<path class="st13" d="M3818.3,1589.4c-2.7-13.7-24.7-22-35.7,0c-13.7,22-19.2,74.1-5.5,87.8c13.7,13.7,27.5,0,30.2-5.5
	C3810.1,1663.5,3818.3,1589.4,3818.3,1589.4z"/>
<path class="st21" d="M3977.6,1507c-49.4,24.7-93.3,82.4-175.7,79.6c-27.5,35.7-16.5,74.1-5.5,87.8c41.2,19.2,134.5,2.7,175.7-27.5
	C4010.5,1625.1,4024.2,1572.9,3977.6,1507z"/>
<path class="st6" d="M3922.7,1841.9c79.6,8.2,197.6,30.2,263.5,79.6c11,8.2,16.5,13.7,16.5,13.7c32.9-189.4-19.2-417.2-19.2-417.2
	c-24.7-19.2-57.6-22-57.6-22c-27.5,0-57.6-2.7-85.1-2.7c-32.9,2.7-65.9,16.5-65.9,16.5C3963.8,1529,3941.9,1847.4,3922.7,1841.9z"/>
<path class="st20" d="M4265.8,1745.8c-5.5,35.7-60.4,85.1-65.9,85.1c-5.5,0-19.2-16.5-32.9-13.7c-11,2.7-38.4,24.7-30.2,30.2
	c8.2,5.5,22-13.7,30.2-13.7c-22,19.2-30.2,32.9-24.7,38.4c5.5,2.7,8.2,2.7,8.2,2.7c8.2,5.5,24.7-5.5,35.7-8.2
	c11-2.7,30.2,8.2,43.9,5.5c16.5-2.7,22-19.2,24.7-22c2.7-2.7,112.5-85.1,109.8-129c-2.7-46.7-82.4-71.4-82.4-71.4L4265.8,1745.8z"/>
<path class="st13" d="M4304.2,1652.5c13.7-8.2,30.2,8.2,32.9,22c2.7,13.7-63.1,79.6-76.9,76.9c-16.5,0-24.7-16.5-11-30.2
	C4257.5,1710.2,4304.2,1652.5,4304.2,1652.5z"/>
<path class="st21" d="M4175.2,1512.5c-32.9,35.7-16.5,159.2,16.5,172.9c30.2,16.5,63.1,49.4,63.1,49.4c16.5-5.5,65.9-57.6,63.1-76.9
	C4271.3,1619.6,4224.6,1515.3,4175.2,1512.5z"/>
<path class="st19" d="M4002.3,1336.8c0,19.2,16.5,32.9,32.9,32.9c19.2,0,32.9-16.5,32.9-32.9c0-19.2-16.5-32.9-32.9-32.9
	C4016,1303.9,4002.3,1320.4,4002.3,1336.8z"/>
<path class="st19" d="M4013.2,1383.5c5.5,5.5,13.7,5.5,19.2,0c5.5-5.5,5.5-13.7,0-19.2s-13.7-5.5-19.2,0
	C4007.7,1367,4007.7,1378,4013.2,1383.5z"/>
<path class="st19" d="M4018.7,1372.5c0-27.5,16.5-46.7,63.1-41.2c46.7,5.5,41.2,57.6,35.7,82.4c-5.5,24.7-22,43.9-22,43.9
	L4018.7,1372.5z"/>
<path class="st20" d="M4046.2,1353.3c-11-5.5-24.7,2.7-24.7,13.7c-2.7,13.7,0,30.2,0,43.9c2.7,32.9,0,57.6,27.5,63.1
	c0,11,0,16.5-13.7,16.5c-2.7,16.5,60.4,22,82.4,2.7c-19.2-8.2-13.7-60.4-13.7-60.4l2.7-19.2c-11,5.5-13.7-5.5-13.7-13.7
	c2.7-8.2,2.7-24.7,2.7-24.7c-16.5-2.7-16.5-32.9-16.5-32.9C4070.9,1364.3,4051.7,1356,4046.2,1353.3z"/>
<path class="st22" d="M4029.7,1430.2c2.7,5.5,5.5,11,2.7,16.5c0,2.7,0,8.2,8.2,11c8.2,0,22-13.7,24.7-22c-11,2.7-22,2.7-22,2.7
	C4040.7,1435.7,4029.7,1430.2,4029.7,1430.2z"/>
<path class="st23" d="M4101.1,1419.2c0,5.5,5.5,11,11,11c5.5,0,11-5.5,11-11c0-5.5-5.5-11-11-11
	C4106.6,1408.2,4101.1,1413.7,4101.1,1419.2z"/>
<path class="st24" d="M4054.4,1474.1c35.7-5.5,46.7-38.4,46.7-38.4C4090.1,1479.6,4059.9,1515.3,4054.4,1474.1z"/>
<path class="st19" d="M1166.6,1666.2c-11,35.7-2.7,46.7,16.5,54.9c16.5,8.2,32.9,46.7,13.7,46.7h-192.2c-8.2-24.7,0-49.4,13.7-60.4
	c13.7-11,11-22,13.7-41.2s35.7-49.4,63.1-32.9C1120,1649.8,1166.6,1666.2,1166.6,1666.2z"/>
<path class="st20" d="M1465.8,2676.4c5.5-11,11-27.5,8.2-54.9c-2.7-11-2.7-22-5.5-38.4c0-8.2-2.7-13.7-2.7-22l49.4,13.7
	c0,8.2-2.7,16.5-2.7,24.7c-2.7,16.5,0,32.9,2.7,46.7c0,5.5,2.7,8.2,2.7,11c2.7,8.2,32.9,35.7,43.9,57.6c0,2.7,30.2,8.2,24.7,13.7
	c-2.7,2.7-52.2,5.5-57.6,0s-19.2-19.2-32.9-22v24.7h-22c0,0-2.7-22-2.7-27.5C1468.6,2695.6,1460.4,2684.6,1465.8,2676.4z"/>
<path class="st19" d="M1561.9,2714.8c-8.2,0-19.2,2.7-22,2.7c-5.5-2.7-35.7-41.2-68.6-49.4c0,5.5-2.7,8.2-2.7,11
	c-5.5,11,2.7,19.2,2.7,27.5c0,5.5,2.7,27.5,2.7,27.5h22v-24.7c13.7,2.7,27.5,16.5,32.9,22c5.5,5.5,54.9,2.7,57.6,0
	C1592.1,2720.3,1564.7,2717.6,1561.9,2714.8z"/>
<path class="st3" d="M1504.3,2261.9c-43.9-79.6-164.7-142.7-186.7-151c-79.6-27.5-159.2-76.9-159.2-76.9l-41.2-8.2l-19.2,123.5
	l57.6,49.4c30.2,68.6,208.6,79.6,227.8,120.8c16.5,41.2,68.6,318.4,68.6,318.4h118C1570.2,2635.2,1548.2,2341.5,1504.3,2261.9z"/>
<path class="st25" d="M1166.6,1795.3c52.2,22,107.1,126.3,134.5,159.2c27.5,32.9,79.6,52.2,79.6,52.2s-79.6,35.7-96.1,35.7
	c-87.8-35.7-123.5-120.8-123.5-120.8L1166.6,1795.3z"/>
<path class="st20" d="M1317.6,2676.4c5.5-11,11-27.5,8.2-54.9c-2.7-11-2.7-22-5.5-38.4c0-8.2-2.7-13.7-2.7-22l49.4,13.7
	c0,8.2-2.7,16.5-2.7,24.7c-2.7,16.5,0,32.9,2.7,46.7c0,5.5,2.7,8.2,2.7,11c2.7,5.5,30.2,32.9,43.9,57.6c0,2.7,30.2,8.2,24.7,13.7
	c-2.7,2.7-52.2,5.5-57.6,0c-5.5-5.5-19.2-19.2-32.9-22v24.7h-22c0,0-2.7-22-2.7-27.5C1320.4,2695.6,1312.1,2684.6,1317.6,2676.4z"/>
<path class="st19" d="M1413.7,2714.8c-8.2,0-19.2,2.7-22,2.7c-5.5-2.7-35.7-41.2-68.6-49.4c0,5.5-2.7,8.2-2.7,11
	c-5.5,11,2.7,19.2,2.7,27.5c0,5.5,2.7,27.5,2.7,27.5h22v-24.7c13.7,2.7,27.5,16.5,32.9,22c5.5,5.5,54.9,2.7,57.6,0
	C1443.9,2720.3,1416.4,2717.6,1413.7,2714.8z"/>
<path class="st26" d="M1155.7,2023.1c-41.2,0-85.1,0-126.3,0c0-2.7-2.7-11-5.5-24.7c-5.5-30.2-16.5-79.6-19.2-118
	c-2.7-16.5-2.7-32.9-2.7-41.2c2.7-35.7,49.4-49.4,49.4-49.4s46.7,2.7,82.4-2.7c11,2.7,19.2,2.7,30.2,5.5
	c2.7,27.5,19.2,54.9,30.2,76.9c5.5,13.7,11,22,11,30.2c2.7,22-27.5,57.6-41.2,79.6C1155.7,2003.9,1155.7,2023.1,1155.7,2023.1z"/>
<path class="st3" d="M1032.1,2031.3c0,0-57.6,96.1-27.5,164.7c30.2,68.6,208.6,79.6,227.8,120.8c16.5,41.2,68.6,318.4,68.6,318.4
	h118c0,0-22-293.7-65.9-373.3s-170.2-137.3-186.7-151c-19.2-13.7-35.7-82.4-35.7-82.4L1032.1,2031.3z"/>
<rect x="1026.6" y="2020.3" class="st19" width="134.5" height="11"/>
<rect x="1087" y="2017.6" class="st0" width="5.5" height="19.2"/>
<rect x="1040.4" y="2017.6" class="st0" width="5.5" height="19.2"/>
<path class="st20" d="M947,1943.5c0,0-19.2,60.4-16.5,112.5c0,52.2,24.7,126.3,24.7,134.5c0,22,19.2,32.9,32.9,32.9
	c13.7-2.7,22-2.7,22,0c2.7,5.5,11,11,13.7,11c5.5,2.7,8.2,2.7,8.2,2.7c2.7,2.7,8.2,0,8.2,0s0-11,0-13.7c0-2.7-2.7-8.2-2.7-8.2
	s5.5,5.5,5.5,8.2c0,2.7,0,11,2.7,13.7c2.7-8.2,2.7-16.5,2.7-19.2c0-2.7-8.2-16.5-16.5-19.2c-8.2-2.7-38.4,0-38.4-2.7
	c-2.7-2.7,8.2-137.3,8.2-148.2c2.7-13.7,27.5-82.4,27.5-82.4L947,1943.5z"/>
<path class="st25" d="M1021.2,1809c41.2,30.2,35.7,93.3,16.5,142.7c-19.2,49.4-38.4,101.6-38.4,197.6c-38.4,8.2-54.9,2.7-54.9,2.7
	s-30.2-87.8-13.7-175.7C947,1888.6,985.5,1809,1021.2,1809z"/>
<polygon class="st27" points="1446.6,1987.4 1216,1987.4 1177.6,2154.9 1405.5,2154.9 "/>
<polygon class="st10" points="1454.9,1987.4 1227,1987.4 1188.6,2154.9 1416.4,2154.9 "/>
<path class="st27" d="M1328.6,2083.5h-27.5v-11c0-8.2,5.5-13.7,13.7-13.7h27.5v11C1342.3,2078,1336.8,2083.5,1328.6,2083.5z"/>
<rect x="1098" y="2154.9" class="st10" width="315.7" height="13.7"/>
<path class="st20" d="M1452.1,2080.7c16.5-11,24.7-54.9-5.5-63.1c0,2.7-2.7,11-2.7,11s-41.2,2.7-43.9,16.5c-5.5,5.5,0,13.7,0,13.7
	c0,8.2,16.5,11,16.5,11s-11-2.7-11,2.7C1410.9,2080.7,1441.1,2086.2,1452.1,2080.7z"/>
<path class="st19" d="M1089.8,1745.8c-30.2,5.5-49.4-22-38.4-46.7c-2.7-46.7,16.5-90.6,85.1-65.9c32.9,5.5,46.7,49.4,19.2,60.4
	C1117.2,1729.4,1089.8,1745.8,1089.8,1745.8z"/>
<path class="st20" d="M1117.2,1762.3c-2.7,13.7,5.5,24.7,19.2,24.7c0,57.6-87.8,11-87.8,2.7c0,0,16.5-5.5,22-13.7
	c5.5-11,8.2-35.7,5.5-68.6c13.7,2.7,16.5-8.2,19.2-24.7c0-19.2,8.2-46.7,43.9-41.2c13.7,16.5,19.2,27.5,19.2,46.7
	c0,22,0,35.7,0,46.7C1152.9,1745.8,1141.9,1765.1,1117.2,1762.3z"/>
<path class="st23" d="M1078.8,1715.6c0,5.5-5.5,8.2-11,5.5c-5.5,0-8.2-5.5-5.5-11c0-5.5,5.5-8.2,11-5.5
	C1076.1,1707.4,1078.8,1710.2,1078.8,1715.6z"/>
<path class="st24" d="M1114.5,1762.3c-19.2-5.5-30.2-24.7-30.2-27.5C1098,1781.5,1114.5,1795.3,1114.5,1762.3z"/>
<path class="st19" d="M1136.4,1644.3c-5.5,32.9-60.4,38.4-60.4,38.4l8.2-41.2l41.2-2.7L1136.4,1644.3z"/>
<path class="st5" d="M820.8,1152.9h63.1v85.1h-63.1L820.8,1152.9L820.8,1152.9z M1095.3,974.5h63.1V1238h-63.1V974.5L1095.3,974.5z
	 M1004.7,1037.6h63.1V1238h-63.1V1037.6L1004.7,1037.6z M911.4,1098h63.1v140h-63.1V1098z"/>
<path class="st6" d="M1885.8,683.5c-65.9-13.7-87.8-82.4-87.8-82.4l-68.6,19.2l13.7,87.8c0,0,60.4,30.2,65.9,30.2
	c5.5,0,74.1-5.5,74.1-11C1880.3,721.9,1885.8,683.5,1885.8,683.5z"/>
<path class="st6" d="M1737.6,617.6l-68.6,19.2l13.7,104.3l145.5-41.2C1762.3,683.5,1737.6,617.6,1737.6,617.6z"/>
<path class="st28" d="M1811.7,1356c-46.7,0-96.1-27.5-140-76.9c-41.2-49.4-74.1-115.3-93.3-189.4c-19.2-82.4-22-162-2.7-227.8
	c19.2-68.6,57.6-115.3,109.8-129l362.3-96.1l153.7,623.1L1811.7,1356z"/>
<path class="st4" d="M2130.1,1254.5l-247.1,60.4l16.5,54.9c8.2,27.5,32.9,46.7,60.4,46.7c27.5,2.7,52.2,22,60.4,49.4l22,79.6
	c19.2,68.6,68.6,120.8,134.5,145.5h101.6L2130.1,1254.5z"/>
<path class="st3" d="M2390.9,1690.9c0,0-153.7-247.1-148.2-450.2l0,0c30.2-22,54.9-60.4,68.6-109.8c19.2-65.9,16.5-148.2-2.7-227.8
	c-19.2-74.1-52.2-140-93.3-189.4c-43.9-49.4-93.3-76.9-140-76.9c-11,0-19.2,0-30.2,2.7c-52.2,13.7-90.6,57.6-109.8,129
	c-19.2,65.9-16.5,148.2,2.7,227.8c19.2,74.1,52.2,140,93.3,189.4c30.2,35.7,63.1,60.4,96.1,71.4c2.7,200.4,148.2,436.5,148.2,436.5
	L2390.9,1690.9L2390.9,1690.9z"/>
<path class="st6" d="M2882.3,1281.9l-200.4-628.6l-52.2-398c-71.4,159.2-269,378.8-554.5,425.5c-5.5,0-11,0-16.5,2.7
	c-32.9,8.2-60.4,43.9-76.9,96.1c-16.5,57.6-13.7,131.8,2.7,205.9c16.5,65.9,46.7,129,82.4,170.2c32.9,41.2,71.4,63.1,104.3,63.1
	c5.5,0,11,0,16.5-2.7c8.2-2.7,13.7-5.5,22-11C2473.3,1109,2742.3,1185.9,2882.3,1281.9z"/>
<path class="st3" d="M3280.3,642.3c85.1,334.9,0,645.1-192.2,694.5c-189.4,46.7-411.8-186.7-496.9-521.6
	c-85.1-334.9,0-645.1,192.2-694.5C2972.9,71.4,3195.2,304.7,3280.3,642.3z"/>
<path class="st6" d="M3038.8,1284.7c-68.6,0-145.5-46.7-216.9-129c-76.9-90.6-140-216.9-172.9-354.1
	c-38.4-153.7-41.2-304.7-8.2-425.5c30.2-109.8,85.1-181.2,156.5-197.6c11-2.7,24.7-5.5,35.7-5.5c68.6,0,145.5,46.7,216.9,129
	c76.9,90.6,140,216.9,172.9,354.1c38.4,153.7,41.2,304.7,8.2,425.5c-30.2,109.8-85.1,181.2-156.5,197.6
	C3063.5,1281.9,3049.7,1284.7,3038.8,1284.7z"/>
<path class="st3" d="M2896,573.7l-280,27.5c2.7,65.9,13.7,131.8,30.2,200.4c16.5,63.1,38.4,123.5,63.1,178.4l260.8-98.8L2896,573.7z
	"/>
<path class="st4" d="M2964.6,883.9c-19.2,0-41.2-13.7-60.4-35.7c-22-24.7-38.4-60.4-49.4-98.8c-11-41.2-11-85.1-2.7-118
	c8.2-30.2,24.7-49.4,43.9-54.9c2.7,0,5.5,0,11,0c19.2,0,41.2,13.7,60.4,35.7c22,24.7,38.4,60.4,49.4,98.8c11,41.2,11,85.1,2.7,118
	c-8.2,30.2-24.7,49.4-43.9,54.9C2970.1,881.2,2967.4,883.9,2964.6,883.9z"/>
<polygon class="st4" points="2229,1251.7 2163.1,1251.7 2229,1383.5 2294.8,1383.5 "/>
<path class="st6" d="M2163.1,1251.7h-16.5c0,0,2.7,107.1,35.7,134.5l46.7-2.7L2163.1,1251.7z"/>
<path class="st29" d="M3321.5,197.6l-30.2,24.7c-13.7,11-16.5,32.9-5.5,46.7c11,13.7,32.9,16.5,46.7,5.5l30.2-24.7
	c13.7-11,16.5-32.9,5.5-46.7C3354.4,189.4,3335.2,186.7,3321.5,197.6z"/>
<path class="st29" d="M3200.7,296.5L3047,422.7c-13.7,11-16.5,32.9-5.5,46.7s32.9,16.5,46.7,5.5l153.7-126.3
	c13.7-11,16.5-32.9,5.5-46.7C3233.6,288.2,3214.4,285.5,3200.7,296.5z"/>
<path class="st29" d="M3247.4,645.1l-109.8,11c-19.2,2.7-30.2,19.2-30.2,35.7c2.7,19.2,19.2,30.2,35.7,30.2l109.8-11
	c19.2-2.7,30.2-19.2,30.2-35.7C3283.1,656.1,3266.6,642.3,3247.4,645.1z"/>
<path class="st29" d="M3370.9,1034.9l-203.1-98.8c-16.5-8.2-35.7,0-43.9,13.7c-8.2,16.5,0,35.7,13.7,43.9l203.1,98.8
	c16.5,8.2,35.7,0,43.9-13.7C3392.9,1065.1,3387.4,1043.1,3370.9,1034.9z"/>
<path class="st30" d="M3340.7,1375.3l211.4-57.6c27.5-8.2,57.6,8.2,65.9,38.4l57.6,211.4c8.2,27.5-8.2,57.6-38.4,65.9l-211.4,57.6
	c-27.5,8.2-57.6-8.2-65.9-38.4l-57.6-211.4C3296.8,1413.7,3313.3,1383.5,3340.7,1375.3z"/>
<path class="st31" d="M3379.1,1644.3l-54.9-208.6c-5.5-19.2,5.5-38.4,24.7-43.9l208.6-54.9c19.2-5.5,38.4,5.5,43.9,24.7l54.9,208.6
	c5.5,19.2-5.5,38.4-24.7,43.9l-208.6,54.9C3403.8,1674.5,3384.6,1663.5,3379.1,1644.3z"/>
<path class="st30" d="M3524.6,1452.1l98.8,104.3c5.5,5.5,5.5,11,5.5,16.5c-2.7,5.5-5.5,11-13.7,11l-197.6,52.2
	c-5.5,2.7-11,0-16.5-5.5s-5.5-11-5.5-16.5l19.2-76.9c2.7-5.5,5.5-11,13.7-13.7c5.5-2.7,13.7,0,16.5,5.5l16.5,19.2
	c2.7,2.7,5.5,2.7,8.2,2.7c2.7,0,5.5-2.7,5.5-5.5l22-87.8c2.7-5.5,5.5-11,13.7-13.7C3513.6,1443.9,3521.9,1446.6,3524.6,1452.1z"/>
<path class="st30" d="M3384.6,1419.2c16.5-5.5,32.9,5.5,38.4,22c5.5,16.5-5.5,32.9-22,38.4c-16.5,5.5-32.9-5.5-38.4-22
	C3357.2,1441.1,3368.2,1421.9,3384.6,1419.2z"/>
<rect x="1957.2" y="1866.6" class="st6" width="87.8" height="351.4"/>
<rect x="2083.5" y="1940.7" class="st6" width="87.8" height="277.2"/>
<rect x="2209.8" y="2067" class="st6" width="87.8" height="151"/>
<rect x="2338.8" y="1811.7" class="st6" width="87.8" height="406.3"/>
<rect x="2465" y="1638.8" class="st6" width="87.8" height="579.2"/>
<rect x="2591.3" y="1828.2" class="st6" width="87.8" height="389.8"/>
<rect x="2720.3" y="1712.9" class="st6" width="87.8" height="505.1"/>
<rect x="2846.6" y="1916" class="st6" width="87.8" height="302"/>
<path class="st4" d="M2846.6,2390.9l54.9-57.6c65.9,65.9,79.6,170.2,30.2,252.5l-65.9-43.9C2893.3,2492.5,2885,2429.4,2846.6,2390.9
	z"/>
<path class="st6" d="M2687.4,2583.1c54.9,35.7,131.8,22,170.2-30.2l65.9,43.9c-63.1,90.6-189.4,115.3-282.7,52.2
	c-71.4-46.7-104.3-131.8-87.8-211.4l76.9,19.2C2624.3,2503.5,2643.5,2555.6,2687.4,2583.1z"/>
<path class="st17" d="M2756,2349.7c-41.2,0-82.4,19.2-104.3,57.6c-8.2,11-11,22-16.5,32.9l-76.9-19.2c5.5-19.2,13.7-41.2,27.5-57.6
	c41.2-60.4,107.1-93.3,175.7-93.3L2756,2349.7z"/>
<path class="st6" d="M2769.7,2352.5l5.5-79.6c32.9,2.7,65.9,13.7,93.3,32.9c8.2,5.5,16.5,11,22,16.5l-54.9,57.6
	c-2.7-2.7-8.2-5.5-11-8.2C2808.2,2360.7,2789,2355.2,2769.7,2352.5z"/>
<path class="st6" d="M689,2654.4c0,46.7-38.4,85.1-85.1,85.1c-46.7,0-85.1-38.4-85.1-85.1s38.4-85.1,85.1-85.1
	C650.6,2566.6,689,2605,689,2654.4z"/>
<path class="st6" d="M1078.8,2627H743.9c-13.7,0-27.5-11-27.5-27.5c0-13.7,11-27.5,27.5-27.5h334.9c13.7,0,27.5,11,27.5,27.5
	C1106.2,2616,1095.3,2627,1078.8,2627z"/>
<path class="st6" d="M1249,2731.3H743.9c-13.7,0-27.5-11-27.5-27.5c0-13.7,11-27.5,27.5-27.5H1249c13.7,0,27.5,11,27.5,27.5
	S1262.7,2731.3,1249,2731.3z"/>
<path class="st11" d="M1172.1,2369H554.5c-13.7,0-24.7-11-24.7-24.7c0-13.7,11-24.7,24.7-24.7h620.4c13.7,0,24.7,11,24.7,24.7
	C1199.6,2358,1185.9,2369,1172.1,2369z"/>
<path class="st11" d="M1004.7,2481.5H546.3c-11,0-19.2-11-19.2-24.7c0-13.7,8.2-24.7,19.2-24.7h458.4c11,0,19.2,11,19.2,24.7
	C1023.9,2470.5,1015.7,2481.5,1004.7,2481.5z"/>
</svg>
