<svg id="svg" version="1.1" xmlns="http://www.w3.org/2000/svg" xmlns:xlink="http://www.w3.org/1999/xlink" width="400" height="400" viewBox="0, 0, 400,400"><g id="svgg"><path id="path0" d="M191.211 76.401 C 159.756 89.129,134.524 96.383,105.078 101.162 C 93.156 103.097,94.352 100.664,94.650 122.385 C 95.705 199.219,115.037 245.992,161.080 283.106 C 174.048 293.560,196.628 307.990,200.017 307.990 C 202.673 307.990,223.728 295.159,232.252 288.346 L 233.393 287.433 232.224 286.627 C 231.581 286.183,229.463 284.216,227.517 282.255 L 223.979 278.690 221.853 280.368 C 216.246 284.793,201.281 294.141,199.802 294.141 C 199.340 294.141,196.476 292.575,193.438 290.661 C 137.915 255.685,113.757 215.786,108.032 149.609 C 107.158 139.509,106.409 114.661,106.953 113.815 C 107.104 113.581,109.072 113.087,111.328 112.716 C 138.349 108.271,163.039 101.158,191.593 89.591 C 196.240 87.708,200.130 86.350,200.577 86.454 C 201.012 86.554,205.146 88.210,209.766 90.133 C 235.899 101.012,256.436 106.806,291.602 113.222 L 293.164 113.507 293.092 125.015 C 292.955 147.065,290.645 168.211,286.743 183.153 L 285.991 186.033 287.234 187.043 C 287.917 187.599,290.278 189.808,292.480 191.952 C 294.683 194.097,296.484 195.745,296.484 195.614 C 296.484 195.484,297.089 192.945,297.827 189.974 C 303.044 168.980,305.220 149.426,305.625 119.922 C 305.798 107.243,305.617 104.278,304.608 103.269 C 304.240 102.901,301.055 102.177,296.054 101.325 C 265.804 96.170,239.934 88.934,213.477 78.227 C 201.164 73.244,200.737 73.081,200.000 73.082 C 199.678 73.082,195.723 74.576,191.211 76.401 M191.279 107.444 C 153.165 111.873,124.896 144.743,126.293 183.008 C 127.984 229.349,170.691 262.719,215.969 253.078 L 219.922 252.236 219.922 245.998 C 219.922 240.660,219.839 239.792,219.346 239.981 C 215.757 241.358,202.937 242.752,197.266 242.381 C 133.000 238.182,115.978 152.885,173.885 125.218 C 212.267 106.879,258.826 133.749,261.583 175.830 L 261.836 179.688 265.586 179.696 C 267.648 179.700,270.457 179.939,271.827 180.226 L 274.318 180.747 274.045 176.604 C 271.230 133.870,233.704 102.513,191.279 107.444 M196.950 131.260 C 194.378 132.828,194.159 133.995,194.149 146.191 C 194.141 156.574,194.109 157.031,193.399 157.031 C 188.269 157.031,178.792 166.149,176.716 173.082 L 176.024 175.391 164.477 175.392 C 150.205 175.394,148.702 176.007,149.330 181.576 C 149.861 186.285,151.187 186.719,165.036 186.719 L 176.374 186.719 177.265 189.203 C 179.602 195.720,185.482 201.648,191.821 203.879 L 193.945 204.627 194.141 215.958 C 194.362 228.814,194.323 228.655,197.679 230.388 C 199.547 231.353,201.124 231.308,203.205 230.232 C 205.582 229.003,205.645 228.666,205.859 216.114 L 206.055 204.652 208.603 203.762 C 215.241 201.443,221.247 195.326,223.322 188.770 L 223.971 186.719 234.876 186.719 C 244.128 186.719,245.983 186.623,247.117 186.085 C 249.885 184.771,250.985 181.746,249.811 178.674 C 248.573 175.431,248.409 175.394,235.297 175.392 L 223.915 175.391 223.662 174.039 C 222.464 167.654,215.525 160.156,208.442 157.592 L 206.055 156.728 205.859 145.436 C 205.686 135.414,205.585 134.022,204.959 133.069 C 203.297 130.534,199.534 129.684,196.950 131.260 M204.688 169.007 C 212.941 172.391,215.315 182.768,209.323 189.269 C 201.626 197.620,187.734 192.208,187.734 180.859 C 187.734 171.941,196.648 165.710,204.688 169.007 M259.375 190.559 C 247.413 193.941,241.406 202.674,241.406 216.684 L 241.406 223.047 240.017 223.047 C 236.260 223.047,232.861 225.044,231.139 228.265 C 230.278 229.873,230.273 229.997,230.273 249.414 L 230.273 268.945 231.532 271.602 C 233.107 274.928,236.209 278.081,240.430 280.647 C 267.368 297.024,265.293 296.795,284.180 285.466 C 302.912 274.230,302.452 275.187,302.267 247.852 L 302.148 230.273 300.987 228.176 C 299.206 224.960,295.990 223.047,292.366 223.047 L 291.106 223.047 290.933 216.504 C 290.587 203.397,285.169 195.138,274.265 191.095 C 270.683 189.766,263.138 189.495,259.375 190.559 M271.923 201.838 C 277.756 204.450,280.078 209.007,280.078 217.844 L 280.078 223.047 266.170 223.047 L 252.262 223.047 252.409 216.895 C 252.570 210.174,253.132 208.137,255.643 205.168 C 259.015 201.181,266.868 199.574,271.923 201.838 M269.772 238.247 C 274.317 240.311,275.543 246.873,272.099 250.706 L 270.803 252.148 272.016 259.512 L 273.230 266.876 272.314 267.618 C 270.942 268.728,261.478 268.727,260.106 267.616 L 259.189 266.873 260.432 259.337 L 261.675 251.800 260.873 251.239 C 258.999 249.926,258.127 246.033,259.002 242.883 C 260.205 238.549,265.458 236.288,269.772 238.247 " stroke="none" fill="#f4f6f4" fill-rule="evenodd"></path><path id="path1" d="M0.000 200.000 L 0.000 400.000 200.000 400.000 L 400.000 400.000 400.000 200.000 L 400.000 0.000 200.000 0.000 L 0.000 0.000 0.000 200.000 M212.444 77.692 C 240.808 89.071,267.425 96.504,297.266 101.380 C 302.731 102.273,303.859 102.576,304.688 103.376 L 305.664 104.320 305.618 120.226 C 305.530 150.144,302.764 173.252,296.643 195.196 C 296.427 195.971,296.069 195.716,293.026 192.623 C 291.168 190.735,288.805 188.502,287.775 187.661 L 285.901 186.133 286.883 181.991 C 290.680 165.977,292.504 149.479,292.847 128.036 C 293.041 115.987,292.990 113.663,292.535 113.524 C 292.236 113.433,288.389 112.718,283.984 111.935 C 257.433 107.215,233.363 100.157,208.600 89.829 L 200.101 86.284 191.945 89.596 C 163.121 101.303,139.287 108.188,111.523 112.829 L 107.227 113.547 107.264 126.012 C 107.464 192.149,125.830 237.196,166.406 271.074 C 176.378 279.399,197.766 294.141,199.873 294.141 C 201.051 294.141,213.986 285.993,220.823 280.945 L 224.263 278.404 224.886 279.339 C 225.805 280.716,230.043 284.843,231.975 286.242 L 233.653 287.458 230.010 290.149 C 219.342 298.031,202.433 308.203,200.000 308.203 C 198.571 308.203,194.300 305.938,186.133 300.848 C 127.912 264.561,101.821 220.995,95.462 149.443 C 94.842 142.474,94.218 106.381,94.684 104.522 C 95.095 102.885,96.322 102.456,104.297 101.164 C 134.370 96.292,160.662 88.738,191.797 76.026 C 200.756 72.368,198.772 72.208,212.444 77.692 M215.052 108.342 C 248.092 115.399,272.377 143.355,274.100 176.316 C 274.332 180.754,274.311 180.941,273.597 180.719 C 272.086 180.247,267.303 179.703,264.601 179.695 L 261.820 179.688 261.554 176.465 C 256.416 114.240,172.476 97.976,144.723 153.829 C 121.794 199.974,163.797 251.918,215.039 240.788 C 216.543 240.461,218.345 240.092,219.043 239.968 L 220.313 239.742 220.313 246.000 L 220.313 252.259 217.480 252.905 C 147.859 268.798,97.909 187.563,143.603 132.756 C 160.339 112.682,189.199 102.821,215.052 108.342 M202.576 130.822 C 205.861 132.313,206.027 132.982,206.250 145.636 L 206.445 156.701 208.530 157.435 C 215.364 159.840,223.828 169.088,223.828 174.150 L 223.828 175.000 234.863 175.001 C 244.590 175.001,246.060 175.082,247.258 175.684 C 251.364 177.747,251.482 183.743,247.461 186.071 C 246.942 186.372,242.900 186.589,235.405 186.719 L 224.131 186.914 223.252 189.344 C 220.813 196.081,214.569 202.089,207.737 204.273 L 206.294 204.734 206.174 216.011 C 206.061 226.691,206.012 227.345,205.249 228.366 C 202.352 232.243,197.719 232.148,195.029 228.156 C 194.157 226.862,194.141 226.632,194.141 215.843 L 194.141 204.849 191.913 204.092 C 185.639 201.959,179.670 196.003,177.188 189.397 L 176.254 186.914 164.592 186.719 C 156.802 186.588,152.670 186.373,152.148 186.071 C 149.144 184.331,148.156 179.839,150.234 177.369 C 152.150 175.092,152.726 175.000,165.027 175.000 C 174.878 175.000,176.172 174.929,176.172 174.389 C 176.172 169.054,185.395 159.273,192.362 157.218 L 193.945 156.751 194.141 145.465 C 194.344 133.732,194.391 133.412,196.156 131.762 C 198.050 129.991,200.089 129.692,202.576 130.822 M195.313 169.339 C 184.516 174.463,185.736 189.702,197.192 192.818 C 208.941 196.013,217.450 181.471,209.184 172.321 C 205.783 168.558,199.710 167.252,195.313 169.339 M273.824 190.875 C 285.198 194.682,290.997 203.528,291.010 217.090 L 291.016 223.047 292.630 223.047 C 296.239 223.047,299.565 225.053,301.283 228.265 C 302.144 229.874,302.148 229.991,302.148 249.609 L 302.148 269.336 300.873 271.942 C 298.699 276.388,296.358 278.298,284.113 285.623 C 268.221 295.129,265.339 295.667,256.855 290.713 C 237.817 279.596,233.878 276.673,231.545 271.936 L 230.273 269.354 230.162 250.298 C 230.090 238.056,230.194 230.707,230.453 229.744 C 231.473 225.959,235.245 223.059,239.160 223.051 L 241.016 223.047 241.029 217.676 C 241.046 211.170,241.705 207.178,243.292 203.979 C 247.387 195.727,253.532 191.331,263.281 189.679 C 265.495 189.304,270.996 189.928,273.824 190.875 M262.141 201.377 C 255.418 203.264,252.707 207.642,252.421 217.074 L 252.239 223.047 266.159 223.047 L 280.078 223.047 280.070 219.043 C 280.043 205.392,272.903 198.356,262.141 201.377 M263.867 237.955 C 258.627 239.912,257.015 246.751,260.830 250.844 L 261.799 251.884 260.550 259.354 C 258.987 268.707,258.502 267.969,266.211 267.969 C 273.914 267.969,273.432 268.691,271.890 259.466 L 270.661 252.108 272.033 250.652 C 277.270 245.099,270.969 235.303,263.867 237.955 " stroke="none" fill="#0a0d15" fill-rule="evenodd"></path><path id="path2" d="M293.121 119.727 C 293.121 122.520,293.183 123.611,293.259 122.152 C 293.334 120.693,293.334 118.407,293.258 117.074 C 293.182 115.740,293.120 116.934,293.121 119.727 M305.586 126.953 C 305.586 128.135,305.659 128.618,305.749 128.027 C 305.838 127.437,305.838 126.470,305.749 125.879 C 305.659 125.288,305.586 125.771,305.586 126.953 M158.910 175.292 C 161.985 175.358,166.907 175.358,169.848 175.292 C 172.789 175.226,170.273 175.172,164.258 175.172 C 158.242 175.172,155.836 175.226,158.910 175.292 M231.934 175.291 C 234.136 175.361,237.739 175.361,239.941 175.291 C 242.144 175.222,240.342 175.165,235.938 175.165 C 231.533 175.165,229.731 175.222,231.934 175.291 M138.406 180.859 C 138.406 182.256,138.477 182.827,138.564 182.129 C 138.650 181.431,138.650 180.288,138.564 179.590 C 138.477 178.892,138.406 179.463,138.406 180.859 M241.152 218.750 C 241.152 220.576,241.219 221.323,241.302 220.410 C 241.384 219.497,241.384 218.003,241.302 217.090 C 241.219 216.177,241.152 216.924,241.152 218.750 M199.512 254.963 C 199.995 255.056,200.786 255.056,201.270 254.963 C 201.753 254.870,201.357 254.794,200.391 254.794 C 199.424 254.794,199.028 254.870,199.512 254.963 " stroke="none" fill="#65696c" fill-rule="evenodd"></path><path id="path3" d="M106.758 116.016 C 106.758 117.197,106.831 117.681,106.920 117.090 C 107.010 116.499,107.010 115.532,106.920 114.941 C 106.831 114.351,106.758 114.834,106.758 116.016 M305.586 120.313 C 305.586 121.494,305.659 121.978,305.749 121.387 C 305.838 120.796,305.838 119.829,305.749 119.238 C 305.659 118.647,305.586 119.131,305.586 120.313 M293.080 127.930 C 293.083 129.004,293.159 129.397,293.249 128.803 C 293.339 128.209,293.336 127.331,293.244 126.850 C 293.151 126.370,293.078 126.855,293.080 127.930 M206.030 146.094 C 206.030 151.787,206.085 154.116,206.151 151.270 C 206.218 148.423,206.218 143.765,206.151 140.918 C 206.085 138.071,206.030 140.400,206.030 146.094 M212.591 180.859 C 212.591 181.611,212.671 181.919,212.769 181.543 C 212.868 181.167,212.868 180.552,212.769 180.176 C 212.671 179.800,212.591 180.107,212.591 180.859 M206.030 215.625 C 206.030 221.318,206.085 223.647,206.151 220.801 C 206.218 217.954,206.218 213.296,206.151 210.449 C 206.085 207.603,206.030 209.932,206.030 215.625 M220.078 245.508 C 220.079 248.730,220.139 249.997,220.213 248.322 C 220.286 246.647,220.286 244.010,220.212 242.463 C 220.138 240.915,220.078 242.285,220.078 245.508 M201.860 242.464 C 202.346 242.557,203.049 242.554,203.423 242.456 C 203.796 242.358,203.398 242.282,202.539 242.286 C 201.680 242.290,201.374 242.370,201.860 242.464 M263.362 268.258 C 264.803 268.333,267.264 268.333,268.831 268.259 C 270.398 268.185,269.219 268.123,266.211 268.123 C 263.203 268.122,261.921 268.183,263.362 268.258 M265.332 293.629 C 265.708 293.727,266.323 293.727,266.699 293.629 C 267.075 293.530,266.768 293.450,266.016 293.450 C 265.264 293.450,264.956 293.530,265.332 293.629 " stroke="none" fill="#8c8c91" fill-rule="evenodd"></path><path id="path4" d="M305.567 123.633 C 305.572 124.492,305.652 124.798,305.745 124.312 C 305.838 123.826,305.835 123.123,305.737 122.749 C 305.639 122.376,305.563 122.773,305.567 123.633 M199.316 242.457 C 199.692 242.555,200.308 242.555,200.684 242.457 C 201.060 242.359,200.752 242.278,200.000 242.278 C 199.248 242.278,198.940 242.359,199.316 242.457 " stroke="none" fill="#848c8c" fill-rule="evenodd"></path></g></svg>