<svg id="svg" version="1.1" xmlns="http://www.w3.org/2000/svg" xmlns:xlink="http://www.w3.org/1999/xlink" width="400" height="400" viewBox="0, 0, 400,400"><g id="svgg"><path id="path0" d="M191.211 76.401 C 159.756 89.129,134.524 96.383,105.078 101.162 C 93.156 103.097,94.352 100.664,94.650 122.385 C 95.705 199.219,115.037 245.992,161.080 283.106 C 174.048 293.560,196.628 307.990,200.017 307.990 C 202.673 307.990,223.728 295.159,232.252 288.346 L 233.393 287.433 232.224 286.627 C 231.581 286.183,229.463 284.216,227.517 282.255 L 223.979 278.690 221.853 280.368 C 216.246 284.793,201.281 294.141,199.802 294.141 C 199.340 294.141,196.476 292.575,193.438 290.661 C 137.915 255.685,113.757 215.786,108.032 149.609 C 107.158 139.509,106.409 114.661,106.953 113.815 C 107.104 113.581,109.072 113.087,111.328 112.716 C 138.349 108.271,163.039 101.158,191.593 89.591 C 196.240 87.708,200.130 86.350,200.577 86.454 C 201.012 86.554,205.146 88.210,209.766 90.133 C 235.899 101.012,256.436 106.806,291.602 113.222 L 293.164 113.507 293.092 125.015 C 292.955 147.065,290.645 168.211,286.743 183.153 L 285.991 186.033 287.234 187.043 C 287.917 187.599,290.278 189.808,292.480 191.952 C 294.683 194.097,296.484 195.745,296.484 195.614 C 296.484 195.484,297.089 192.945,297.827 189.974 C 303.044 168.980,305.220 149.426,305.625 119.922 C 305.798 107.243,305.617 104.278,304.608 103.269 C 304.240 102.901,301.055 102.177,296.054 101.325 C 265.804 96.170,239.934 88.934,213.477 78.227 C 201.164 73.244,200.737 73.081,200.000 73.082 C 199.678 73.082,195.723 74.576,191.211 76.401 M191.279 107.444 C 153.165 111.873,124.896 144.743,126.293 183.008 C 127.984 229.349,170.691 262.719,215.969 253.078 L 219.922 252.236 219.922 245.998 C 219.922 240.660,219.839 239.792,219.346 239.981 C 215.757 241.358,202.937 242.752,197.266 242.381 C 133.000 238.182,115.978 152.885,173.885 125.218 C 212.267 106.879,258.826 133.749,261.583 175.830 L 261.836 179.688 265.586 179.696 C 267.648 179.700,270.457 179.939,271.827 180.226 L 274.318 180.747 274.045 176.604 C 271.230 133.870,233.704 102.513,191.279 107.444 M196.950 131.260 C 194.378 132.828,194.159 133.995,194.149 146.191 C 194.141 156.574,194.109 157.031,193.399 157.031 C 188.269 157.031,178.792 166.149,176.716 173.082 L 176.024 175.391 164.477 175.392 C 150.205 175.394,148.702 176.007,149.330 181.576 C 149.861 186.285,151.187 186.719,165.036 186.719 L 176.374 186.719 177.265 189.203 C 179.602 195.720,185.482 201.648,191.821 203.879 L 193.945 204.627 194.141 215.958 C 194.362 228.814,194.323 228.655,197.679 230.388 C 199.547 231.353,201.124 231.308,203.205 230.232 C 205.582 229.003,205.645 228.666,205.859 216.114 L 206.055 204.652 208.603 203.762 C 215.241 201.443,221.247 195.326,223.322 188.770 L 223.971 186.719 234.876 186.719 C 244.128 186.719,245.983 186.623,247.117 186.085 C 249.885 184.771,250.985 181.746,249.811 178.674 C 248.573 175.431,248.409 175.394,235.297 175.392 L 223.915 175.391 223.662 174.039 C 222.464 167.654,215.525 160.156,208.442 157.592 L 206.055 156.728 205.859 145.436 C 205.686 135.414,205.585 134.022,204.959 133.069 C 203.297 130.534,199.534 129.684,196.950 131.260 M204.688 169.007 C 212.941 172.391,215.315 182.768,209.323 189.269 C 201.626 197.620,187.734 192.208,187.734 180.859 C 187.734 171.941,196.648 165.710,204.688 169.007 M259.375 190.559 C 247.413 193.941,241.406 202.674,241.406 216.684 L 241.406 223.047 240.017 223.047 C 236.260 223.047,232.861 225.044,231.139 228.265 C 230.278 229.873,230.273 229.997,230.273 249.414 L 230.273 268.945 231.532 271.602 C 233.107 274.928,236.209 278.081,240.430 280.647 C 267.368 297.024,265.293 296.795,284.180 285.466 C 302.912 274.230,302.452 275.187,302.267 247.852 L 302.148 230.273 300.987 228.176 C 299.206 224.960,295.990 223.047,292.366 223.047 L 291.106 223.047 290.933 216.504 C 290.587 203.397,285.169 195.138,274.265 191.095 C 270.683 189.766,263.138 189.495,259.375 190.559 M271.923 201.838 C 277.756 204.450,280.078 209.007,280.078 217.844 L 280.078 223.047 266.170 223.047 L 252.262 223.047 252.409 216.895 C 252.570 210.174,253.132 208.137,255.643 205.168 C 259.015 201.181,266.868 199.574,271.923 201.838 M269.772 238.247 C 274.317 240.311,275.543 246.873,272.099 250.706 L 270.803 252.148 272.016 259.512 L 273.230 266.876 272.314 267.618 C 270.942 268.728,261.478 268.727,260.106 267.616 L 259.189 266.873 260.432 259.337 L 261.675 251.800 260.873 251.239 C 258.999 249.926,258.127 246.033,259.002 242.883 C 260.205 238.549,265.458 236.288,269.772 238.247 " stroke="none" fill="#f4f6f4" fill-rule="evenodd"></path><path id="path2" d="M293.121 119.727 C 293.121 122.520,293.183 123.611,293.259 122.152 C 293.334 120.693,293.334 118.407,293.258 117.074 C 293.182 115.740,293.120 116.934,293.121 119.727 M305.586 126.953 C 305.586 128.135,305.659 128.618,305.749 128.027 C 305.838 127.437,305.838 126.470,305.749 125.879 C 305.659 125.288,305.586 125.771,305.586 126.953 M158.910 175.292 C 161.985 175.358,166.907 175.358,169.848 175.292 C 172.789 175.226,170.273 175.172,164.258 175.172 C 158.242 175.172,155.836 175.226,158.910 175.292 M231.934 175.291 C 234.136 175.361,237.739 175.361,239.941 175.291 C 242.144 175.222,240.342 175.165,235.938 175.165 C 231.533 175.165,229.731 175.222,231.934 175.291 M138.406 180.859 C 138.406 182.256,138.477 182.827,138.564 182.129 C 138.650 181.431,138.650 180.288,138.564 179.590 C 138.477 178.892,138.406 179.463,138.406 180.859 M241.152 218.750 C 241.152 220.576,241.219 221.323,241.302 220.410 C 241.384 219.497,241.384 218.003,241.302 217.090 C 241.219 216.177,241.152 216.924,241.152 218.750 M199.512 254.963 C 199.995 255.056,200.786 255.056,201.270 254.963 C 201.753 254.870,201.357 254.794,200.391 254.794 C 199.424 254.794,199.028 254.870,199.512 254.963 " stroke="none" fill="#65696c" fill-rule="evenodd"></path><path id="path3" d="M106.758 116.016 C 106.758 117.197,106.831 117.681,106.920 117.090 C 107.010 116.499,107.010 115.532,106.920 114.941 C 106.831 114.351,106.758 114.834,106.758 116.016 M305.586 120.313 C 305.586 121.494,305.659 121.978,305.749 121.387 C 305.838 120.796,305.838 119.829,305.749 119.238 C 305.659 118.647,305.586 119.131,305.586 120.313 M293.080 127.930 C 293.083 129.004,293.159 129.397,293.249 128.803 C 293.339 128.209,293.336 127.331,293.244 126.850 C 293.151 126.370,293.078 126.855,293.080 127.930 M206.030 146.094 C 206.030 151.787,206.085 154.116,206.151 151.270 C 206.218 148.423,206.218 143.765,206.151 140.918 C 206.085 138.071,206.030 140.400,206.030 146.094 M212.591 180.859 C 212.591 181.611,212.671 181.919,212.769 181.543 C 212.868 181.167,212.868 180.552,212.769 180.176 C 212.671 179.800,212.591 180.107,212.591 180.859 M206.030 215.625 C 206.030 221.318,206.085 223.647,206.151 220.801 C 206.218 217.954,206.218 213.296,206.151 210.449 C 206.085 207.603,206.030 209.932,206.030 215.625 M220.078 245.508 C 220.079 248.730,220.139 249.997,220.213 248.322 C 220.286 246.647,220.286 244.010,220.212 242.463 C 220.138 240.915,220.078 242.285,220.078 245.508 M201.860 242.464 C 202.346 242.557,203.049 242.554,203.423 242.456 C 203.796 242.358,203.398 242.282,202.539 242.286 C 201.680 242.290,201.374 242.370,201.860 242.464 M263.362 268.258 C 264.803 268.333,267.264 268.333,268.831 268.259 C 270.398 268.185,269.219 268.123,266.211 268.123 C 263.203 268.122,261.921 268.183,263.362 268.258 M265.332 293.629 C 265.708 293.727,266.323 293.727,266.699 293.629 C 267.075 293.530,266.768 293.450,266.016 293.450 C 265.264 293.450,264.956 293.530,265.332 293.629 " stroke="none" fill="#8c8c91" fill-rule="evenodd"></path><path id="path4" d="M305.567 123.633 C 305.572 124.492,305.652 124.798,305.745 124.312 C 305.838 123.826,305.835 123.123,305.737 122.749 C 305.639 122.376,305.563 122.773,305.567 123.633 M199.316 242.457 C 199.692 242.555,200.308 242.555,200.684 242.457 C 201.060 242.359,200.752 242.278,200.000 242.278 C 199.248 242.278,198.940 242.359,199.316 242.457 " stroke="none" fill="#848c8c" fill-rule="evenodd"></path></g></svg>
